G04 #@! TF.GenerationSoftware,KiCad,Pcbnew,(5.0.0)*
G04 #@! TF.CreationDate,2019-01-07T17:19:25-08:00*
G04 #@! TF.ProjectId,Lights,4C69676874732E6B696361645F706362,rev?*
G04 #@! TF.SameCoordinates,Original*
G04 #@! TF.FileFunction,Paste,Top*
G04 #@! TF.FilePolarity,Positive*
%FSLAX46Y46*%
G04 Gerber Fmt 4.6, Leading zero omitted, Abs format (unit mm)*
G04 Created by KiCad (PCBNEW (5.0.0)) date 01/07/19 17:19:25*
%MOMM*%
%LPD*%
G01*
G04 APERTURE LIST*
%ADD10R,1.500000X1.500000*%
%ADD11R,1.500000X1.250000*%
%ADD12R,1.600000X0.450000*%
%ADD13R,3.200000X3.200000*%
%ADD14R,0.450000X1.600000*%
%ADD15R,1.500000X1.300000*%
%ADD16R,1.300000X1.500000*%
%ADD17R,1.500000X2.000000*%
%ADD18R,3.800000X2.000000*%
G04 APERTURE END LIST*
D10*
G04 #@! TO.C,D13*
X41021000Y-77041740D03*
X41021000Y-80341740D03*
G04 #@! TD*
D11*
G04 #@! TO.C,C1*
X56750000Y-34250000D03*
X59250000Y-34250000D03*
G04 #@! TD*
G04 #@! TO.C,C2*
X45194000Y-84250000D03*
X47694000Y-84250000D03*
G04 #@! TD*
G04 #@! TO.C,C3*
X47750000Y-86750000D03*
X45250000Y-86750000D03*
G04 #@! TD*
G04 #@! TO.C,C4*
X92250000Y-48500000D03*
X89750000Y-48500000D03*
G04 #@! TD*
G04 #@! TO.C,C5*
X89750000Y-51000000D03*
X92250000Y-51000000D03*
G04 #@! TD*
G04 #@! TO.C,C6*
X11750000Y-48500000D03*
X14250000Y-48500000D03*
G04 #@! TD*
G04 #@! TO.C,C7*
X14250000Y-51000000D03*
X11750000Y-51000000D03*
G04 #@! TD*
D12*
G04 #@! TO.C,IC1*
X49195000Y-93356000D03*
X49195000Y-94006000D03*
X49195000Y-94656000D03*
X49195000Y-95306000D03*
X49195000Y-95956000D03*
X49195000Y-96606000D03*
X49195000Y-97256000D03*
X49195000Y-97906000D03*
X54945000Y-97906000D03*
X54945000Y-97256000D03*
X54945000Y-96606000D03*
X54945000Y-95956000D03*
X54945000Y-95306000D03*
X54945000Y-94656000D03*
X54945000Y-94006000D03*
X54945000Y-93356000D03*
D13*
X52070000Y-95631000D03*
G04 #@! TD*
G04 #@! TO.C,IC2*
X82250000Y-49750000D03*
D14*
X79975000Y-46875000D03*
X80625000Y-46875000D03*
X81275000Y-46875000D03*
X81925000Y-46875000D03*
X82575000Y-46875000D03*
X83225000Y-46875000D03*
X83875000Y-46875000D03*
X84525000Y-46875000D03*
X84525000Y-52625000D03*
X83875000Y-52625000D03*
X83225000Y-52625000D03*
X82575000Y-52625000D03*
X81925000Y-52625000D03*
X81275000Y-52625000D03*
X80625000Y-52625000D03*
X79975000Y-52625000D03*
G04 #@! TD*
G04 #@! TO.C,IC3*
X24275000Y-46875000D03*
X23625000Y-46875000D03*
X22975000Y-46875000D03*
X22325000Y-46875000D03*
X21675000Y-46875000D03*
X21025000Y-46875000D03*
X20375000Y-46875000D03*
X19725000Y-46875000D03*
X19725000Y-52625000D03*
X20375000Y-52625000D03*
X21025000Y-52625000D03*
X21675000Y-52625000D03*
X22325000Y-52625000D03*
X22975000Y-52625000D03*
X23625000Y-52625000D03*
X24275000Y-52625000D03*
D13*
X22000000Y-49750000D03*
G04 #@! TD*
D15*
G04 #@! TO.C,R1*
X53100000Y-91750000D03*
X50400000Y-91750000D03*
G04 #@! TD*
D16*
G04 #@! TO.C,R2*
X78500000Y-50450000D03*
X78500000Y-47750000D03*
G04 #@! TD*
G04 #@! TO.C,R3*
X26000000Y-49850000D03*
X26000000Y-47150000D03*
G04 #@! TD*
D17*
G04 #@! TO.C,U1*
X55700000Y-31900000D03*
X60300000Y-31900000D03*
X58000000Y-31900000D03*
D18*
X58000000Y-25600000D03*
G04 #@! TD*
D11*
G04 #@! TO.C,C8*
X56750000Y-36750000D03*
X59250000Y-36750000D03*
G04 #@! TD*
G04 #@! TO.C,C9*
X59250000Y-23000000D03*
X56750000Y-23000000D03*
G04 #@! TD*
G04 #@! TO.C,C10*
X56750000Y-20500000D03*
X59250000Y-20500000D03*
G04 #@! TD*
D10*
G04 #@! TO.C,D1*
X28221000Y-63289100D03*
X28221000Y-59989100D03*
G04 #@! TD*
G04 #@! TO.C,D2*
X28221000Y-69446060D03*
X28221000Y-66146060D03*
G04 #@! TD*
G04 #@! TO.C,D3*
X28221000Y-72303020D03*
X28221000Y-75603020D03*
G04 #@! TD*
G04 #@! TO.C,D4*
X28221000Y-81759980D03*
X28221000Y-78459980D03*
G04 #@! TD*
G04 #@! TO.C,D5*
X28221000Y-87916940D03*
X28221000Y-84616940D03*
G04 #@! TD*
G04 #@! TO.C,D6*
X28221000Y-90773900D03*
X28221000Y-94073900D03*
G04 #@! TD*
G04 #@! TO.C,D9*
X41021000Y-99784900D03*
X41021000Y-103084900D03*
G04 #@! TD*
G04 #@! TO.C,D10*
X41021000Y-97397840D03*
X41021000Y-94097840D03*
G04 #@! TD*
G04 #@! TO.C,D11*
X41021000Y-88413320D03*
X41021000Y-91713320D03*
G04 #@! TD*
G04 #@! TO.C,D12*
X41021000Y-86026260D03*
X41021000Y-82726260D03*
G04 #@! TD*
G04 #@! TO.C,D14*
X41021000Y-74654680D03*
X41021000Y-71354680D03*
G04 #@! TD*
G04 #@! TO.C,D15*
X41021000Y-68970160D03*
X41021000Y-65670160D03*
G04 #@! TD*
G04 #@! TO.C,D16*
X41021000Y-59983100D03*
X41021000Y-63283100D03*
G04 #@! TD*
G04 #@! TO.C,D17*
X32158000Y-59989100D03*
X32158000Y-63289100D03*
G04 #@! TD*
G04 #@! TO.C,D18*
X32158000Y-69446060D03*
X32158000Y-66146060D03*
G04 #@! TD*
G04 #@! TO.C,D19*
X32158000Y-72303020D03*
X32158000Y-75603020D03*
G04 #@! TD*
G04 #@! TO.C,D20*
X32158000Y-78459980D03*
X32158000Y-81759980D03*
G04 #@! TD*
G04 #@! TO.C,D21*
X32158000Y-87916940D03*
X32158000Y-84616940D03*
G04 #@! TD*
G04 #@! TO.C,D22*
X32158000Y-90773900D03*
X32158000Y-94073900D03*
G04 #@! TD*
M02*
