M48
INCH,TZ
T1C0.0157
T2C0.0295
T3C0.0315
T4C0.0472
T5C0.0720
%
G90
G05
T1
X669Y-24252
X1102Y-5748
X1299Y-14291
X1378Y-10000
X1693Y-19685
X1969Y-1378
X2362Y-27520
X3937Y-19587
X4213Y-21142
X4409Y-7638
X4724Y-17008
X4764Y-12598
X4843Y-27244
X6339Y-19134
X6535Y-1299
X7283Y-14646
X7598Y-5000
X7598Y-9646
X8228Y-19961
X8268Y-19173
X8661Y-16811
X8661Y-19567
X9016Y-19173
X9055Y-20000
X9941Y-20472
X10197Y-37142
X10201Y-29748
X10201Y-32173
X10201Y-34614
X10984Y-19173
X11024Y-16142
X11111Y-23618
X11142Y-21378
X11345Y-26043
X11345Y-28469
X11345Y-30890
X11345Y-33315
X11345Y-35736
X11929Y-18386
X12426Y-26043
X12426Y-28469
X12426Y-30890
X12426Y-33315
X12426Y-35736
X12661Y-23618
X13386Y-19173
X13579Y-29752
X13579Y-32189
X13579Y-34606
X13579Y-37043
X14488Y-21260
X14508Y-16181
X15248Y-23602
X15248Y-25850
X15248Y-28083
X15248Y-36106
X15248Y-38339
X15248Y-40575
X15787Y-14961
X16150Y-31631
X16150Y-32569
X16220Y-15354
X16384Y-24913
X16384Y-27154
X16384Y-29390
X16384Y-34811
X16384Y-37047
X16384Y-39291
X16417Y-18819
X16575Y-21201
X16693Y-15787
X16850Y-12244
X16969Y-14843
X17244Y-7972
X17244Y-11890
X17430Y-33661
X17677Y-38898
X17756Y-11496
X17913Y-13583
X17953Y-15728
X17953Y-36654
X18031Y-32480
X18150Y-14528
X18268Y-16929
X18307Y-20374
X18346Y-27205
X18386Y-31142
X18425Y-18780
X18504Y-34961
X18622Y-23937
X18661Y-16339
X18701Y-21496
X19173Y-19488
X19189Y-18134
X19331Y-32402
X19370Y-33937
X19390Y-18744
X19488Y-17224
X19698Y-18390
X19764Y-13543
X19783Y-17545
X19823Y-36142
X19980Y-18116
X20079Y-37283
X20079Y-38071
X20138Y-16630
X20276Y-17545
X20278Y-18473
X20433Y-35433
X20512Y-37677
X20689Y-19307
X20783Y-17465
X20866Y-37323
X20866Y-38031
X21161Y-1732
X21179Y-18675
X21280Y-12559
X21339Y-11398
X21362Y-18311
X21378Y-19843
X21398Y-15827
X21555Y-36516
X21693Y-8563
X21732Y-4291
X21732Y-16299
X21862Y-17449
X21929Y-12559
X21988Y-15827
X22205Y-11575
X22205Y-22323
X22244Y-19094
X22323Y-26339
X22362Y-30394
X22559Y-34409
X22835Y-12559
X22913Y-15630
X22953Y-37520
X23307Y-15000
X23858Y-11319
X23957Y-8524
X24114Y-13406
X24409Y-20197
X24724Y-16535
X27205Y-21850
X27441Y-16535
X27638Y-19173
X29016Y-18150
X29980Y-21594
X30197Y-16693
X30236Y-19331
X31398Y-19291
X31969Y-20000
X32047Y-19213
X32205Y-21929
X32362Y-19606
X32717Y-19213
X32717Y-20000
X33780Y-4134
X35039Y-11772
X35039Y-20906
X35551Y-16024
X36535Y-27362
X36811Y-19587
X37205Y-8740
X37638Y-13543
X38622Y-27874
X39134Y-16614
X39331Y-1772
X39449Y-20433
X39843Y-10866
X40039Y-5906
X40315Y-23543
T2
X15107Y-29850
X15107Y-30350
X15107Y-30850
X15107Y-31350
X15107Y-31850
X15107Y-32350
X15107Y-32850
X15107Y-33350
X15107Y-33850
X15107Y-34350
X10067Y-23702
X10067Y-24202
X10067Y-24702
X10067Y-25202
X10067Y-25702
X10067Y-26202
X10067Y-26702
X10067Y-27202
X10067Y-27702
X10067Y-28202
X34711Y-32384
X34998Y-31974
X35285Y-31565
X35571Y-31155
X35858Y-30746
X36145Y-30336
X36432Y-29927
X36719Y-29517
X37005Y-29107
X37292Y-28698
X3708Y-28698
X3995Y-29107
X4281Y-29517
X4568Y-29927
X4855Y-30336
X5142Y-30746
X5429Y-31155
X5715Y-31565
X6002Y-31974
X6289Y-32384
X13704Y-23702
X13704Y-24202
X13704Y-24702
X13704Y-25202
X13704Y-25702
X13704Y-26202
X13704Y-26702
X13704Y-27202
X13704Y-27702
X13704Y-28202
X18250Y-39909
X18750Y-39909
X19250Y-39909
X19750Y-39909
X20250Y-39909
X20750Y-39909
X21250Y-39909
X21750Y-39909
X22250Y-39909
X22750Y-39909
T3
X18898Y-15157
X18957Y-13347
X30906Y-15157
T4
X17717Y-1004
X17717Y-2004
X17717Y-3004
X17717Y-4004
X17717Y-5004
X17717Y-6004
X23819Y-988
X23819Y-1988
X23819Y-2988
X23819Y-3988
X23819Y-4988
X23819Y-5988
X23819Y-6988
T5
X35810Y-4890
X36810Y-1890
X37810Y-4890
X3188Y-22701
X4188Y-25701
X5188Y-22701
X3188Y-4890
X4188Y-1890
X5188Y-4890
X35813Y-22701
X36813Y-25701
X37813Y-22701
T0
M30
