G04 #@! TF.GenerationSoftware,KiCad,Pcbnew,(5.0.0)*
G04 #@! TF.CreationDate,2019-01-07T17:19:25-08:00*
G04 #@! TF.ProjectId,Lights,4C69676874732E6B696361645F706362,rev?*
G04 #@! TF.SameCoordinates,Original*
G04 #@! TF.FileFunction,Legend,Top*
G04 #@! TF.FilePolarity,Positive*
%FSLAX46Y46*%
G04 Gerber Fmt 4.6, Leading zero omitted, Abs format (unit mm)*
G04 Created by KiCad (PCBNEW (5.0.0)) date 01/07/19 17:19:25*
%MOMM*%
%LPD*%
G01*
G04 APERTURE LIST*
%ADD10C,0.120000*%
%ADD11C,0.200000*%
%ADD12C,0.150000*%
%ADD13C,0.254000*%
G04 APERTURE END LIST*
D10*
G04 #@! TO.C,J12*
X57400000Y-140000D02*
X57400000Y-20200000D01*
X61300000Y-140000D02*
X57400000Y-140000D01*
X62300000Y-20200000D02*
X62300000Y-1140000D01*
X57400000Y-20200000D02*
X62300000Y-20200000D01*
X62300000Y-1140000D02*
X61300000Y-140000D01*
G04 #@! TO.C,D13*
X40171000Y-81191740D02*
X41871000Y-81191740D01*
X41871000Y-81141740D02*
X41871000Y-77091740D01*
X40171000Y-81141740D02*
X40171000Y-77091740D01*
D11*
G04 #@! TO.C,BT1*
X100997400Y-14201140D02*
X100997400Y-1201140D01*
X85997400Y-14201140D02*
X100997400Y-14201140D01*
X85997400Y-1201140D02*
X85997400Y-14201140D01*
X100997400Y-1201140D02*
X85997400Y-1201140D01*
G04 #@! TO.C,BT2*
X86005020Y-68880000D02*
X101005020Y-68880000D01*
X101005020Y-68880000D02*
X101005020Y-55880000D01*
X101005020Y-55880000D02*
X86005020Y-55880000D01*
X86005020Y-55880000D02*
X86005020Y-68880000D01*
G04 #@! TO.C,BT3*
X18137520Y-14201140D02*
X18137520Y-1201140D01*
X3137520Y-14201140D02*
X18137520Y-14201140D01*
X3137520Y-1201140D02*
X3137520Y-14201140D01*
X18137520Y-1201140D02*
X3137520Y-1201140D01*
G04 #@! TO.C,BT4*
X3137520Y-68880000D02*
X18137520Y-68880000D01*
X18137520Y-68880000D02*
X18137520Y-55880000D01*
X18137520Y-55880000D02*
X3137520Y-55880000D01*
X3137520Y-55880000D02*
X3137520Y-68880000D01*
D10*
G04 #@! TO.C,C1*
X58500000Y-33400000D02*
X57500000Y-33400000D01*
X57500000Y-35100000D02*
X58500000Y-35100000D01*
G04 #@! TO.C,C2*
X46944000Y-83400000D02*
X45944000Y-83400000D01*
X45944000Y-85100000D02*
X46944000Y-85100000D01*
G04 #@! TO.C,C3*
X46000000Y-87600000D02*
X47000000Y-87600000D01*
X47000000Y-85900000D02*
X46000000Y-85900000D01*
G04 #@! TO.C,C4*
X90500000Y-49350000D02*
X91500000Y-49350000D01*
X91500000Y-47650000D02*
X90500000Y-47650000D01*
G04 #@! TO.C,C5*
X91500000Y-50150000D02*
X90500000Y-50150000D01*
X90500000Y-51850000D02*
X91500000Y-51850000D01*
G04 #@! TO.C,C6*
X13500000Y-47650000D02*
X12500000Y-47650000D01*
X12500000Y-49350000D02*
X13500000Y-49350000D01*
G04 #@! TO.C,C7*
X12500000Y-51850000D02*
X13500000Y-51850000D01*
X13500000Y-50150000D02*
X12500000Y-50150000D01*
D11*
G04 #@! TO.C,IC1*
X48395000Y-92781000D02*
X49995000Y-92781000D01*
G04 #@! TO.C,IC2*
X79400000Y-53425000D02*
X79400000Y-51825000D01*
G04 #@! TO.C,IC3*
X24850000Y-46075000D02*
X24850000Y-47675000D01*
G04 #@! TO.C,J1*
X58710000Y-100318860D02*
X46355000Y-100318860D01*
X58710000Y-102418860D02*
X58710000Y-100318860D01*
X45430000Y-102418860D02*
X58710000Y-102418860D01*
X45430000Y-101368860D02*
X45430000Y-102418860D01*
G04 #@! TO.C,J2*
X25571018Y-59279000D02*
X24521018Y-59279000D01*
X24521018Y-59279000D02*
X24521018Y-72559000D01*
X24521018Y-72559000D02*
X26621018Y-72559000D01*
X26621018Y-72559000D02*
X26621018Y-60204000D01*
G04 #@! TO.C,J3*
X94392367Y-71532481D02*
X87305830Y-81653105D01*
X96112587Y-72736992D02*
X94392367Y-71532481D01*
X88495491Y-83615331D02*
X96112587Y-72736992D01*
X87635382Y-83013076D02*
X88495491Y-83615331D01*
G04 #@! TO.C,J4*
X38371018Y-88174000D02*
X39421018Y-88174000D01*
X39421018Y-88174000D02*
X39421018Y-74894000D01*
X39421018Y-74894000D02*
X37321018Y-74894000D01*
X37321018Y-74894000D02*
X37321018Y-87249000D01*
G04 #@! TO.C,J5*
X8027413Y-72736992D02*
X15113950Y-82857615D01*
X9747633Y-71532481D02*
X8027413Y-72736992D01*
X17364728Y-82410820D02*
X9747633Y-71532481D01*
X16504618Y-83013076D02*
X17364728Y-82410820D01*
G04 #@! TO.C,J6*
X34807220Y-59279000D02*
X33757220Y-59279000D01*
X33757220Y-59279000D02*
X33757220Y-72559000D01*
X33757220Y-72559000D02*
X35857220Y-72559000D01*
X35857220Y-72559000D02*
X35857220Y-60204000D01*
D10*
G04 #@! TO.C,J7*
X41900000Y-180000D02*
X41900000Y-17700000D01*
X45800000Y-180000D02*
X41900000Y-180000D01*
X46800000Y-17700000D02*
X46800000Y-1180000D01*
X41900000Y-17700000D02*
X46800000Y-17700000D01*
X46800000Y-1180000D02*
X45800000Y-180000D01*
G04 #@! TO.C,R1*
X51150000Y-90870000D02*
X52350000Y-90870000D01*
X52350000Y-92630000D02*
X51150000Y-92630000D01*
G04 #@! TO.C,R2*
X79380000Y-48500000D02*
X79380000Y-49700000D01*
X77620000Y-49700000D02*
X77620000Y-48500000D01*
G04 #@! TO.C,R3*
X26880000Y-47900000D02*
X26880000Y-49100000D01*
X25120000Y-49100000D02*
X25120000Y-47900000D01*
G04 #@! TO.C,U1*
X54590000Y-32850000D02*
X54590000Y-26840000D01*
X61410000Y-30600000D02*
X61410000Y-26840000D01*
X54590000Y-26840000D02*
X55850000Y-26840000D01*
X61410000Y-26840000D02*
X60150000Y-26840000D01*
G04 #@! TO.C,C8*
X58500000Y-35900000D02*
X57500000Y-35900000D01*
X57500000Y-37600000D02*
X58500000Y-37600000D01*
G04 #@! TO.C,C9*
X57500000Y-23850000D02*
X58500000Y-23850000D01*
X58500000Y-22150000D02*
X57500000Y-22150000D01*
G04 #@! TO.C,C10*
X58500000Y-19650000D02*
X57500000Y-19650000D01*
X57500000Y-21350000D02*
X58500000Y-21350000D01*
G04 #@! TO.C,D1*
X29071000Y-59139100D02*
X27371000Y-59139100D01*
X27371000Y-59189100D02*
X27371000Y-63239100D01*
X29071000Y-59189100D02*
X29071000Y-63239100D01*
G04 #@! TO.C,D2*
X29071000Y-65296060D02*
X27371000Y-65296060D01*
X27371000Y-65346060D02*
X27371000Y-69396060D01*
X29071000Y-65346060D02*
X29071000Y-69396060D01*
G04 #@! TO.C,D3*
X29071000Y-71503020D02*
X29071000Y-75553020D01*
X27371000Y-71503020D02*
X27371000Y-75553020D01*
X29071000Y-71453020D02*
X27371000Y-71453020D01*
G04 #@! TO.C,D4*
X29071000Y-77609980D02*
X27371000Y-77609980D01*
X27371000Y-77659980D02*
X27371000Y-81709980D01*
X29071000Y-77659980D02*
X29071000Y-81709980D01*
G04 #@! TO.C,D5*
X29071000Y-83766940D02*
X27371000Y-83766940D01*
X27371000Y-83816940D02*
X27371000Y-87866940D01*
X29071000Y-83816940D02*
X29071000Y-87866940D01*
G04 #@! TO.C,D6*
X29071000Y-89973900D02*
X29071000Y-94023900D01*
X27371000Y-89973900D02*
X27371000Y-94023900D01*
X29071000Y-89923900D02*
X27371000Y-89923900D01*
G04 #@! TO.C,D9*
X41871000Y-98984900D02*
X41871000Y-103034900D01*
X40171000Y-98984900D02*
X40171000Y-103034900D01*
X41871000Y-98934900D02*
X40171000Y-98934900D01*
G04 #@! TO.C,D10*
X41871000Y-93247840D02*
X40171000Y-93247840D01*
X40171000Y-93297840D02*
X40171000Y-97347840D01*
X41871000Y-93297840D02*
X41871000Y-97347840D01*
G04 #@! TO.C,D11*
X41871000Y-87613320D02*
X41871000Y-91663320D01*
X40171000Y-87613320D02*
X40171000Y-91663320D01*
X41871000Y-87563320D02*
X40171000Y-87563320D01*
G04 #@! TO.C,D12*
X41871000Y-81876260D02*
X40171000Y-81876260D01*
X40171000Y-81926260D02*
X40171000Y-85976260D01*
X41871000Y-81926260D02*
X41871000Y-85976260D01*
G04 #@! TO.C,D14*
X40171000Y-75454680D02*
X40171000Y-71404680D01*
X41871000Y-75454680D02*
X41871000Y-71404680D01*
X40171000Y-75504680D02*
X41871000Y-75504680D01*
G04 #@! TO.C,D15*
X40171000Y-69770160D02*
X40171000Y-65720160D01*
X41871000Y-69770160D02*
X41871000Y-65720160D01*
X40171000Y-69820160D02*
X41871000Y-69820160D01*
G04 #@! TO.C,D16*
X40171000Y-64133100D02*
X41871000Y-64133100D01*
X41871000Y-64083100D02*
X41871000Y-60033100D01*
X40171000Y-64083100D02*
X40171000Y-60033100D01*
G04 #@! TO.C,D17*
X33008000Y-59189100D02*
X33008000Y-63239100D01*
X31308000Y-59189100D02*
X31308000Y-63239100D01*
X33008000Y-59139100D02*
X31308000Y-59139100D01*
G04 #@! TO.C,D18*
X33008000Y-65296060D02*
X31308000Y-65296060D01*
X31308000Y-65346060D02*
X31308000Y-69396060D01*
X33008000Y-65346060D02*
X33008000Y-69396060D01*
G04 #@! TO.C,D19*
X33008000Y-71503020D02*
X33008000Y-75553020D01*
X31308000Y-71503020D02*
X31308000Y-75553020D01*
X33008000Y-71453020D02*
X31308000Y-71453020D01*
G04 #@! TO.C,D20*
X33008000Y-77659980D02*
X33008000Y-81709980D01*
X31308000Y-77659980D02*
X31308000Y-81709980D01*
X33008000Y-77609980D02*
X31308000Y-77609980D01*
G04 #@! TO.C,D21*
X33008000Y-83766940D02*
X31308000Y-83766940D01*
X31308000Y-83816940D02*
X31308000Y-87866940D01*
X33008000Y-83816940D02*
X33008000Y-87866940D01*
G04 #@! TO.C,D22*
X33008000Y-89973900D02*
X33008000Y-94023900D01*
X31308000Y-89973900D02*
X31308000Y-94023900D01*
X33008000Y-89923900D02*
X31308000Y-89923900D01*
G04 #@! TO.C,J12*
D12*
X56142380Y-10939523D02*
X56856666Y-10939523D01*
X56999523Y-10987142D01*
X57094761Y-11082380D01*
X57142380Y-11225238D01*
X57142380Y-11320476D01*
X57142380Y-9939523D02*
X57142380Y-10510952D01*
X57142380Y-10225238D02*
X56142380Y-10225238D01*
X56285238Y-10320476D01*
X56380476Y-10415714D01*
X56428095Y-10510952D01*
X56237619Y-9558571D02*
X56190000Y-9510952D01*
X56142380Y-9415714D01*
X56142380Y-9177619D01*
X56190000Y-9082380D01*
X56237619Y-9034761D01*
X56332857Y-8987142D01*
X56428095Y-8987142D01*
X56570952Y-9034761D01*
X57142380Y-9606190D01*
X57142380Y-8987142D01*
G04 #@! TO.C,BT1*
D13*
X93435685Y-9007997D02*
X93496161Y-8826568D01*
X93556638Y-8766092D01*
X93677590Y-8705616D01*
X93859019Y-8705616D01*
X93979971Y-8766092D01*
X94040447Y-8826568D01*
X94100923Y-8947520D01*
X94100923Y-9431330D01*
X92830923Y-9431330D01*
X92830923Y-9007997D01*
X92891400Y-8887044D01*
X92951876Y-8826568D01*
X93072828Y-8766092D01*
X93193780Y-8766092D01*
X93314733Y-8826568D01*
X93375209Y-8887044D01*
X93435685Y-9007997D01*
X93435685Y-9431330D01*
X92830923Y-8342759D02*
X92830923Y-7617044D01*
X94100923Y-7979901D02*
X92830923Y-7979901D01*
X94100923Y-6528473D02*
X94100923Y-7254187D01*
X94100923Y-6891330D02*
X92830923Y-6891330D01*
X93012352Y-7012282D01*
X93133304Y-7133235D01*
X93193780Y-7254187D01*
G04 #@! TO.C,BT2*
X93385305Y-63068857D02*
X93445781Y-62887428D01*
X93506258Y-62826952D01*
X93627210Y-62766476D01*
X93808639Y-62766476D01*
X93929591Y-62826952D01*
X93990067Y-62887428D01*
X94050543Y-63008380D01*
X94050543Y-63492190D01*
X92780543Y-63492190D01*
X92780543Y-63068857D01*
X92841020Y-62947904D01*
X92901496Y-62887428D01*
X93022448Y-62826952D01*
X93143400Y-62826952D01*
X93264353Y-62887428D01*
X93324829Y-62947904D01*
X93385305Y-63068857D01*
X93385305Y-63492190D01*
X92780543Y-62403619D02*
X92780543Y-61677904D01*
X94050543Y-62040761D02*
X92780543Y-62040761D01*
X92901496Y-61315047D02*
X92841020Y-61254571D01*
X92780543Y-61133619D01*
X92780543Y-60831238D01*
X92841020Y-60710285D01*
X92901496Y-60649809D01*
X93022448Y-60589333D01*
X93143400Y-60589333D01*
X93324829Y-60649809D01*
X94050543Y-61375523D01*
X94050543Y-60589333D01*
G04 #@! TO.C,BT3*
X10575805Y-9007997D02*
X10636281Y-8826568D01*
X10696758Y-8766092D01*
X10817710Y-8705616D01*
X10999139Y-8705616D01*
X11120091Y-8766092D01*
X11180567Y-8826568D01*
X11241043Y-8947520D01*
X11241043Y-9431330D01*
X9971043Y-9431330D01*
X9971043Y-9007997D01*
X10031520Y-8887044D01*
X10091996Y-8826568D01*
X10212948Y-8766092D01*
X10333900Y-8766092D01*
X10454853Y-8826568D01*
X10515329Y-8887044D01*
X10575805Y-9007997D01*
X10575805Y-9431330D01*
X9971043Y-8342759D02*
X9971043Y-7617044D01*
X11241043Y-7979901D02*
X9971043Y-7979901D01*
X9971043Y-7314663D02*
X9971043Y-6528473D01*
X10454853Y-6951806D01*
X10454853Y-6770378D01*
X10515329Y-6649425D01*
X10575805Y-6588949D01*
X10696758Y-6528473D01*
X10999139Y-6528473D01*
X11120091Y-6588949D01*
X11180567Y-6649425D01*
X11241043Y-6770378D01*
X11241043Y-7133235D01*
X11180567Y-7254187D01*
X11120091Y-7314663D01*
G04 #@! TO.C,BT4*
X10517805Y-63068857D02*
X10578281Y-62887428D01*
X10638758Y-62826952D01*
X10759710Y-62766476D01*
X10941139Y-62766476D01*
X11062091Y-62826952D01*
X11122567Y-62887428D01*
X11183043Y-63008380D01*
X11183043Y-63492190D01*
X9913043Y-63492190D01*
X9913043Y-63068857D01*
X9973520Y-62947904D01*
X10033996Y-62887428D01*
X10154948Y-62826952D01*
X10275900Y-62826952D01*
X10396853Y-62887428D01*
X10457329Y-62947904D01*
X10517805Y-63068857D01*
X10517805Y-63492190D01*
X9913043Y-62403619D02*
X9913043Y-61677904D01*
X11183043Y-62040761D02*
X9913043Y-62040761D01*
X10336377Y-60710285D02*
X11183043Y-60710285D01*
X9852567Y-61012666D02*
X10759710Y-61315047D01*
X10759710Y-60528857D01*
G04 #@! TO.C,C1*
D12*
X61333333Y-34607142D02*
X61285714Y-34654761D01*
X61142857Y-34702380D01*
X61047619Y-34702380D01*
X60904761Y-34654761D01*
X60809523Y-34559523D01*
X60761904Y-34464285D01*
X60714285Y-34273809D01*
X60714285Y-34130952D01*
X60761904Y-33940476D01*
X60809523Y-33845238D01*
X60904761Y-33750000D01*
X61047619Y-33702380D01*
X61142857Y-33702380D01*
X61285714Y-33750000D01*
X61333333Y-33797619D01*
X62285714Y-34702380D02*
X61714285Y-34702380D01*
X62000000Y-34702380D02*
X62000000Y-33702380D01*
X61904761Y-33845238D01*
X61809523Y-33940476D01*
X61714285Y-33988095D01*
G04 #@! TO.C,C2*
X46277333Y-82857142D02*
X46229714Y-82904761D01*
X46086857Y-82952380D01*
X45991619Y-82952380D01*
X45848761Y-82904761D01*
X45753523Y-82809523D01*
X45705904Y-82714285D01*
X45658285Y-82523809D01*
X45658285Y-82380952D01*
X45705904Y-82190476D01*
X45753523Y-82095238D01*
X45848761Y-82000000D01*
X45991619Y-81952380D01*
X46086857Y-81952380D01*
X46229714Y-82000000D01*
X46277333Y-82047619D01*
X46658285Y-82047619D02*
X46705904Y-82000000D01*
X46801142Y-81952380D01*
X47039238Y-81952380D01*
X47134476Y-82000000D01*
X47182095Y-82047619D01*
X47229714Y-82142857D01*
X47229714Y-82238095D01*
X47182095Y-82380952D01*
X46610666Y-82952380D01*
X47229714Y-82952380D01*
G04 #@! TO.C,C3*
X46333333Y-85357142D02*
X46285714Y-85404761D01*
X46142857Y-85452380D01*
X46047619Y-85452380D01*
X45904761Y-85404761D01*
X45809523Y-85309523D01*
X45761904Y-85214285D01*
X45714285Y-85023809D01*
X45714285Y-84880952D01*
X45761904Y-84690476D01*
X45809523Y-84595238D01*
X45904761Y-84500000D01*
X46047619Y-84452380D01*
X46142857Y-84452380D01*
X46285714Y-84500000D01*
X46333333Y-84547619D01*
X46666666Y-84452380D02*
X47285714Y-84452380D01*
X46952380Y-84833333D01*
X47095238Y-84833333D01*
X47190476Y-84880952D01*
X47238095Y-84928571D01*
X47285714Y-85023809D01*
X47285714Y-85261904D01*
X47238095Y-85357142D01*
X47190476Y-85404761D01*
X47095238Y-85452380D01*
X46809523Y-85452380D01*
X46714285Y-85404761D01*
X46666666Y-85357142D01*
G04 #@! TO.C,C4*
X90833333Y-50607142D02*
X90785714Y-50654761D01*
X90642857Y-50702380D01*
X90547619Y-50702380D01*
X90404761Y-50654761D01*
X90309523Y-50559523D01*
X90261904Y-50464285D01*
X90214285Y-50273809D01*
X90214285Y-50130952D01*
X90261904Y-49940476D01*
X90309523Y-49845238D01*
X90404761Y-49750000D01*
X90547619Y-49702380D01*
X90642857Y-49702380D01*
X90785714Y-49750000D01*
X90833333Y-49797619D01*
X91690476Y-50035714D02*
X91690476Y-50702380D01*
X91452380Y-49654761D02*
X91214285Y-50369047D01*
X91833333Y-50369047D01*
G04 #@! TO.C,C5*
X90833333Y-53107142D02*
X90785714Y-53154761D01*
X90642857Y-53202380D01*
X90547619Y-53202380D01*
X90404761Y-53154761D01*
X90309523Y-53059523D01*
X90261904Y-52964285D01*
X90214285Y-52773809D01*
X90214285Y-52630952D01*
X90261904Y-52440476D01*
X90309523Y-52345238D01*
X90404761Y-52250000D01*
X90547619Y-52202380D01*
X90642857Y-52202380D01*
X90785714Y-52250000D01*
X90833333Y-52297619D01*
X91738095Y-52202380D02*
X91261904Y-52202380D01*
X91214285Y-52678571D01*
X91261904Y-52630952D01*
X91357142Y-52583333D01*
X91595238Y-52583333D01*
X91690476Y-52630952D01*
X91738095Y-52678571D01*
X91785714Y-52773809D01*
X91785714Y-53011904D01*
X91738095Y-53107142D01*
X91690476Y-53154761D01*
X91595238Y-53202380D01*
X91357142Y-53202380D01*
X91261904Y-53154761D01*
X91214285Y-53107142D01*
G04 #@! TO.C,C6*
X12833333Y-47107142D02*
X12785714Y-47154761D01*
X12642857Y-47202380D01*
X12547619Y-47202380D01*
X12404761Y-47154761D01*
X12309523Y-47059523D01*
X12261904Y-46964285D01*
X12214285Y-46773809D01*
X12214285Y-46630952D01*
X12261904Y-46440476D01*
X12309523Y-46345238D01*
X12404761Y-46250000D01*
X12547619Y-46202380D01*
X12642857Y-46202380D01*
X12785714Y-46250000D01*
X12833333Y-46297619D01*
X13690476Y-46202380D02*
X13500000Y-46202380D01*
X13404761Y-46250000D01*
X13357142Y-46297619D01*
X13261904Y-46440476D01*
X13214285Y-46630952D01*
X13214285Y-47011904D01*
X13261904Y-47107142D01*
X13309523Y-47154761D01*
X13404761Y-47202380D01*
X13595238Y-47202380D01*
X13690476Y-47154761D01*
X13738095Y-47107142D01*
X13785714Y-47011904D01*
X13785714Y-46773809D01*
X13738095Y-46678571D01*
X13690476Y-46630952D01*
X13595238Y-46583333D01*
X13404761Y-46583333D01*
X13309523Y-46630952D01*
X13261904Y-46678571D01*
X13214285Y-46773809D01*
G04 #@! TO.C,C7*
X12833333Y-49607142D02*
X12785714Y-49654761D01*
X12642857Y-49702380D01*
X12547619Y-49702380D01*
X12404761Y-49654761D01*
X12309523Y-49559523D01*
X12261904Y-49464285D01*
X12214285Y-49273809D01*
X12214285Y-49130952D01*
X12261904Y-48940476D01*
X12309523Y-48845238D01*
X12404761Y-48750000D01*
X12547619Y-48702380D01*
X12642857Y-48702380D01*
X12785714Y-48750000D01*
X12833333Y-48797619D01*
X13166666Y-48702380D02*
X13833333Y-48702380D01*
X13404761Y-49702380D01*
G04 #@! TO.C,IC1*
D13*
X50830238Y-96205523D02*
X50830238Y-94935523D01*
X52160714Y-96084571D02*
X52100238Y-96145047D01*
X51918809Y-96205523D01*
X51797857Y-96205523D01*
X51616428Y-96145047D01*
X51495476Y-96024095D01*
X51435000Y-95903142D01*
X51374523Y-95661238D01*
X51374523Y-95479809D01*
X51435000Y-95237904D01*
X51495476Y-95116952D01*
X51616428Y-94996000D01*
X51797857Y-94935523D01*
X51918809Y-94935523D01*
X52100238Y-94996000D01*
X52160714Y-95056476D01*
X53370238Y-96205523D02*
X52644523Y-96205523D01*
X53007380Y-96205523D02*
X53007380Y-94935523D01*
X52886428Y-95116952D01*
X52765476Y-95237904D01*
X52644523Y-95298380D01*
G04 #@! TO.C,IC2*
X82824523Y-50989761D02*
X81554523Y-50989761D01*
X82703571Y-49659285D02*
X82764047Y-49719761D01*
X82824523Y-49901190D01*
X82824523Y-50022142D01*
X82764047Y-50203571D01*
X82643095Y-50324523D01*
X82522142Y-50385000D01*
X82280238Y-50445476D01*
X82098809Y-50445476D01*
X81856904Y-50385000D01*
X81735952Y-50324523D01*
X81615000Y-50203571D01*
X81554523Y-50022142D01*
X81554523Y-49901190D01*
X81615000Y-49719761D01*
X81675476Y-49659285D01*
X81675476Y-49175476D02*
X81615000Y-49115000D01*
X81554523Y-48994047D01*
X81554523Y-48691666D01*
X81615000Y-48570714D01*
X81675476Y-48510238D01*
X81796428Y-48449761D01*
X81917380Y-48449761D01*
X82098809Y-48510238D01*
X82824523Y-49235952D01*
X82824523Y-48449761D01*
G04 #@! TO.C,IC3*
X22574523Y-50989761D02*
X21304523Y-50989761D01*
X22453571Y-49659285D02*
X22514047Y-49719761D01*
X22574523Y-49901190D01*
X22574523Y-50022142D01*
X22514047Y-50203571D01*
X22393095Y-50324523D01*
X22272142Y-50385000D01*
X22030238Y-50445476D01*
X21848809Y-50445476D01*
X21606904Y-50385000D01*
X21485952Y-50324523D01*
X21365000Y-50203571D01*
X21304523Y-50022142D01*
X21304523Y-49901190D01*
X21365000Y-49719761D01*
X21425476Y-49659285D01*
X21304523Y-49235952D02*
X21304523Y-48449761D01*
X21788333Y-48873095D01*
X21788333Y-48691666D01*
X21848809Y-48570714D01*
X21909285Y-48510238D01*
X22030238Y-48449761D01*
X22332619Y-48449761D01*
X22453571Y-48510238D01*
X22514047Y-48570714D01*
X22574523Y-48691666D01*
X22574523Y-49054523D01*
X22514047Y-49175476D01*
X22453571Y-49235952D01*
G04 #@! TO.C,J1*
X45931666Y-100673383D02*
X45931666Y-101580526D01*
X45871190Y-101761955D01*
X45750238Y-101882907D01*
X45568809Y-101943383D01*
X45447857Y-101943383D01*
X47201666Y-101943383D02*
X46475952Y-101943383D01*
X46838809Y-101943383D02*
X46838809Y-100673383D01*
X46717857Y-100854812D01*
X46596904Y-100975764D01*
X46475952Y-101036240D01*
G04 #@! TO.C,J2*
X24875541Y-60627333D02*
X25782684Y-60627333D01*
X25964113Y-60687809D01*
X26085065Y-60808761D01*
X26145541Y-60990190D01*
X26145541Y-61111142D01*
X24996494Y-60083047D02*
X24936018Y-60022571D01*
X24875541Y-59901619D01*
X24875541Y-59599238D01*
X24936018Y-59478285D01*
X24996494Y-59417809D01*
X25117446Y-59357333D01*
X25238398Y-59357333D01*
X25419827Y-59417809D01*
X26145541Y-60143523D01*
X26145541Y-59357333D01*
G04 #@! TO.C,J3*
X87353425Y-82203225D02*
X88096513Y-82723541D01*
X88210443Y-82877143D01*
X88240145Y-83045597D01*
X88185622Y-83228902D01*
X88116246Y-83327981D01*
X87630926Y-81806912D02*
X88081867Y-81162902D01*
X88235366Y-81787178D01*
X88339429Y-81638561D01*
X88458344Y-81574170D01*
X88542571Y-81559318D01*
X88676337Y-81579155D01*
X88924033Y-81752593D01*
X88988424Y-81871508D01*
X89003275Y-81955735D01*
X88983439Y-82089501D01*
X88775313Y-82386736D01*
X88656398Y-82451127D01*
X88572171Y-82465978D01*
G04 #@! TO.C,J4*
X37675541Y-87672333D02*
X38582684Y-87672333D01*
X38764113Y-87732809D01*
X38885065Y-87853761D01*
X38945541Y-88035190D01*
X38945541Y-88156142D01*
X38098875Y-86523285D02*
X38945541Y-86523285D01*
X37615065Y-86825666D02*
X38522208Y-87128047D01*
X38522208Y-86341857D01*
G04 #@! TO.C,J5*
X16300946Y-81509676D02*
X15557858Y-82029992D01*
X15374553Y-82084516D01*
X15206099Y-82054813D01*
X15052497Y-81940883D01*
X14983121Y-81841805D01*
X16994701Y-82500460D02*
X16647823Y-82005068D01*
X16117744Y-82302406D01*
X16201971Y-82317258D01*
X16320885Y-82381648D01*
X16494324Y-82629344D01*
X16514160Y-82763111D01*
X16499309Y-82847337D01*
X16434918Y-82966252D01*
X16187222Y-83139691D01*
X16053456Y-83159527D01*
X15969229Y-83144675D01*
X15850314Y-83080285D01*
X15676876Y-82832589D01*
X15657039Y-82698823D01*
X15671891Y-82614596D01*
G04 #@! TO.C,J6*
X34111743Y-60627333D02*
X35018886Y-60627333D01*
X35200315Y-60687809D01*
X35321267Y-60808761D01*
X35381743Y-60990190D01*
X35381743Y-61111142D01*
X34111743Y-59478285D02*
X34111743Y-59720190D01*
X34172220Y-59841142D01*
X34232696Y-59901619D01*
X34414124Y-60022571D01*
X34656029Y-60083047D01*
X35139839Y-60083047D01*
X35260791Y-60022571D01*
X35321267Y-59962095D01*
X35381743Y-59841142D01*
X35381743Y-59599238D01*
X35321267Y-59478285D01*
X35260791Y-59417809D01*
X35139839Y-59357333D01*
X34837458Y-59357333D01*
X34716505Y-59417809D01*
X34656029Y-59478285D01*
X34595553Y-59599238D01*
X34595553Y-59841142D01*
X34656029Y-59962095D01*
X34716505Y-60022571D01*
X34837458Y-60083047D01*
G04 #@! TO.C,J7*
D12*
X40642380Y-9233333D02*
X41356666Y-9233333D01*
X41499523Y-9280952D01*
X41594761Y-9376190D01*
X41642380Y-9519047D01*
X41642380Y-9614285D01*
X40642380Y-8852380D02*
X40642380Y-8185714D01*
X41642380Y-8614285D01*
G04 #@! TO.C,R1*
X51583333Y-90502380D02*
X51250000Y-90026190D01*
X51011904Y-90502380D02*
X51011904Y-89502380D01*
X51392857Y-89502380D01*
X51488095Y-89550000D01*
X51535714Y-89597619D01*
X51583333Y-89692857D01*
X51583333Y-89835714D01*
X51535714Y-89930952D01*
X51488095Y-89978571D01*
X51392857Y-90026190D01*
X51011904Y-90026190D01*
X52535714Y-90502380D02*
X51964285Y-90502380D01*
X52250000Y-90502380D02*
X52250000Y-89502380D01*
X52154761Y-89645238D01*
X52059523Y-89740476D01*
X51964285Y-89788095D01*
G04 #@! TO.C,R2*
X77252380Y-49266666D02*
X76776190Y-49600000D01*
X77252380Y-49838095D02*
X76252380Y-49838095D01*
X76252380Y-49457142D01*
X76300000Y-49361904D01*
X76347619Y-49314285D01*
X76442857Y-49266666D01*
X76585714Y-49266666D01*
X76680952Y-49314285D01*
X76728571Y-49361904D01*
X76776190Y-49457142D01*
X76776190Y-49838095D01*
X76347619Y-48885714D02*
X76300000Y-48838095D01*
X76252380Y-48742857D01*
X76252380Y-48504761D01*
X76300000Y-48409523D01*
X76347619Y-48361904D01*
X76442857Y-48314285D01*
X76538095Y-48314285D01*
X76680952Y-48361904D01*
X77252380Y-48933333D01*
X77252380Y-48314285D01*
G04 #@! TO.C,R3*
X28152380Y-48666666D02*
X27676190Y-49000000D01*
X28152380Y-49238095D02*
X27152380Y-49238095D01*
X27152380Y-48857142D01*
X27200000Y-48761904D01*
X27247619Y-48714285D01*
X27342857Y-48666666D01*
X27485714Y-48666666D01*
X27580952Y-48714285D01*
X27628571Y-48761904D01*
X27676190Y-48857142D01*
X27676190Y-49238095D01*
X27152380Y-48333333D02*
X27152380Y-47714285D01*
X27533333Y-48047619D01*
X27533333Y-47904761D01*
X27580952Y-47809523D01*
X27628571Y-47761904D01*
X27723809Y-47714285D01*
X27961904Y-47714285D01*
X28057142Y-47761904D01*
X28104761Y-47809523D01*
X28152380Y-47904761D01*
X28152380Y-48190476D01*
X28104761Y-48285714D01*
X28057142Y-48333333D01*
G04 #@! TO.C,U1*
X52952380Y-29511904D02*
X53761904Y-29511904D01*
X53857142Y-29464285D01*
X53904761Y-29416666D01*
X53952380Y-29321428D01*
X53952380Y-29130952D01*
X53904761Y-29035714D01*
X53857142Y-28988095D01*
X53761904Y-28940476D01*
X52952380Y-28940476D01*
X53952380Y-27940476D02*
X53952380Y-28511904D01*
X53952380Y-28226190D02*
X52952380Y-28226190D01*
X53095238Y-28321428D01*
X53190476Y-28416666D01*
X53238095Y-28511904D01*
G04 #@! TO.C,C8*
X61333333Y-37107142D02*
X61285714Y-37154761D01*
X61142857Y-37202380D01*
X61047619Y-37202380D01*
X60904761Y-37154761D01*
X60809523Y-37059523D01*
X60761904Y-36964285D01*
X60714285Y-36773809D01*
X60714285Y-36630952D01*
X60761904Y-36440476D01*
X60809523Y-36345238D01*
X60904761Y-36250000D01*
X61047619Y-36202380D01*
X61142857Y-36202380D01*
X61285714Y-36250000D01*
X61333333Y-36297619D01*
X61904761Y-36630952D02*
X61809523Y-36583333D01*
X61761904Y-36535714D01*
X61714285Y-36440476D01*
X61714285Y-36392857D01*
X61761904Y-36297619D01*
X61809523Y-36250000D01*
X61904761Y-36202380D01*
X62095238Y-36202380D01*
X62190476Y-36250000D01*
X62238095Y-36297619D01*
X62285714Y-36392857D01*
X62285714Y-36440476D01*
X62238095Y-36535714D01*
X62190476Y-36583333D01*
X62095238Y-36630952D01*
X61904761Y-36630952D01*
X61809523Y-36678571D01*
X61761904Y-36726190D01*
X61714285Y-36821428D01*
X61714285Y-37011904D01*
X61761904Y-37107142D01*
X61809523Y-37154761D01*
X61904761Y-37202380D01*
X62095238Y-37202380D01*
X62190476Y-37154761D01*
X62238095Y-37107142D01*
X62285714Y-37011904D01*
X62285714Y-36821428D01*
X62238095Y-36726190D01*
X62190476Y-36678571D01*
X62095238Y-36630952D01*
G04 #@! TO.C,C9*
X54333333Y-23357142D02*
X54285714Y-23404761D01*
X54142857Y-23452380D01*
X54047619Y-23452380D01*
X53904761Y-23404761D01*
X53809523Y-23309523D01*
X53761904Y-23214285D01*
X53714285Y-23023809D01*
X53714285Y-22880952D01*
X53761904Y-22690476D01*
X53809523Y-22595238D01*
X53904761Y-22500000D01*
X54047619Y-22452380D01*
X54142857Y-22452380D01*
X54285714Y-22500000D01*
X54333333Y-22547619D01*
X54809523Y-23452380D02*
X55000000Y-23452380D01*
X55095238Y-23404761D01*
X55142857Y-23357142D01*
X55238095Y-23214285D01*
X55285714Y-23023809D01*
X55285714Y-22642857D01*
X55238095Y-22547619D01*
X55190476Y-22500000D01*
X55095238Y-22452380D01*
X54904761Y-22452380D01*
X54809523Y-22500000D01*
X54761904Y-22547619D01*
X54714285Y-22642857D01*
X54714285Y-22880952D01*
X54761904Y-22976190D01*
X54809523Y-23023809D01*
X54904761Y-23071428D01*
X55095238Y-23071428D01*
X55190476Y-23023809D01*
X55238095Y-22976190D01*
X55285714Y-22880952D01*
G04 #@! TO.C,C10*
X53357142Y-20857142D02*
X53309523Y-20904761D01*
X53166666Y-20952380D01*
X53071428Y-20952380D01*
X52928571Y-20904761D01*
X52833333Y-20809523D01*
X52785714Y-20714285D01*
X52738095Y-20523809D01*
X52738095Y-20380952D01*
X52785714Y-20190476D01*
X52833333Y-20095238D01*
X52928571Y-20000000D01*
X53071428Y-19952380D01*
X53166666Y-19952380D01*
X53309523Y-20000000D01*
X53357142Y-20047619D01*
X54309523Y-20952380D02*
X53738095Y-20952380D01*
X54023809Y-20952380D02*
X54023809Y-19952380D01*
X53928571Y-20095238D01*
X53833333Y-20190476D01*
X53738095Y-20238095D01*
X54928571Y-19952380D02*
X55023809Y-19952380D01*
X55119047Y-20000000D01*
X55166666Y-20047619D01*
X55214285Y-20142857D01*
X55261904Y-20333333D01*
X55261904Y-20571428D01*
X55214285Y-20761904D01*
X55166666Y-20857142D01*
X55119047Y-20904761D01*
X55023809Y-20952380D01*
X54928571Y-20952380D01*
X54833333Y-20904761D01*
X54785714Y-20857142D01*
X54738095Y-20761904D01*
X54690476Y-20571428D01*
X54690476Y-20333333D01*
X54738095Y-20142857D01*
X54785714Y-20047619D01*
X54833333Y-20000000D01*
X54928571Y-19952380D01*
G04 #@! TD*
M02*
