G04 #@! TF.GenerationSoftware,KiCad,Pcbnew,(5.0.0)*
G04 #@! TF.CreationDate,2019-01-07T17:19:25-08:00*
G04 #@! TF.ProjectId,Lights,4C69676874732E6B696361645F706362,rev?*
G04 #@! TF.SameCoordinates,Original*
G04 #@! TF.FileFunction,Copper,L1,Top,Signal*
G04 #@! TF.FilePolarity,Positive*
%FSLAX46Y46*%
G04 Gerber Fmt 4.6, Leading zero omitted, Abs format (unit mm)*
G04 Created by KiCad (PCBNEW (5.0.0)) date 01/07/19 17:19:25*
%MOMM*%
%LPD*%
G01*
G04 APERTURE LIST*
G04 #@! TA.AperFunction,ComponentPad*
%ADD10O,2.600000X2.000000*%
G04 #@! TD*
G04 #@! TA.AperFunction,ComponentPad*
%ADD11R,2.600000X2.000000*%
G04 #@! TD*
G04 #@! TA.AperFunction,SMDPad,CuDef*
%ADD12R,1.500000X1.500000*%
G04 #@! TD*
G04 #@! TA.AperFunction,ComponentPad*
%ADD13C,2.750000*%
G04 #@! TD*
G04 #@! TA.AperFunction,SMDPad,CuDef*
%ADD14R,1.500000X1.250000*%
G04 #@! TD*
G04 #@! TA.AperFunction,SMDPad,CuDef*
%ADD15R,1.600000X0.450000*%
G04 #@! TD*
G04 #@! TA.AperFunction,SMDPad,CuDef*
%ADD16R,3.200000X3.200000*%
G04 #@! TD*
G04 #@! TA.AperFunction,SMDPad,CuDef*
%ADD17R,0.450000X1.600000*%
G04 #@! TD*
G04 #@! TA.AperFunction,ComponentPad*
%ADD18C,1.150000*%
G04 #@! TD*
G04 #@! TA.AperFunction,ComponentPad*
%ADD19R,1.150000X1.150000*%
G04 #@! TD*
G04 #@! TA.AperFunction,Conductor*
%ADD20C,0.100000*%
G04 #@! TD*
G04 #@! TA.AperFunction,SMDPad,CuDef*
%ADD21R,1.500000X1.300000*%
G04 #@! TD*
G04 #@! TA.AperFunction,SMDPad,CuDef*
%ADD22R,1.300000X1.500000*%
G04 #@! TD*
G04 #@! TA.AperFunction,SMDPad,CuDef*
%ADD23R,1.500000X2.000000*%
G04 #@! TD*
G04 #@! TA.AperFunction,SMDPad,CuDef*
%ADD24R,3.800000X2.000000*%
G04 #@! TD*
G04 #@! TA.AperFunction,ViaPad*
%ADD25C,0.800000*%
G04 #@! TD*
G04 #@! TA.AperFunction,ViaPad*
%ADD26C,1.500000*%
G04 #@! TD*
G04 #@! TA.AperFunction,Conductor*
%ADD27C,2.000000*%
G04 #@! TD*
G04 #@! TA.AperFunction,Conductor*
%ADD28C,0.500000*%
G04 #@! TD*
G04 #@! TA.AperFunction,Conductor*
%ADD29C,0.450000*%
G04 #@! TD*
G04 #@! TA.AperFunction,Conductor*
%ADD30C,0.350000*%
G04 #@! TD*
G04 #@! TA.AperFunction,Conductor*
%ADD31C,0.250000*%
G04 #@! TD*
G04 #@! TA.AperFunction,Conductor*
%ADD32C,1.000000*%
G04 #@! TD*
G04 #@! TA.AperFunction,Conductor*
%ADD33C,0.750000*%
G04 #@! TD*
G04 #@! TA.AperFunction,Conductor*
%ADD34C,0.254000*%
G04 #@! TD*
G04 APERTURE END LIST*
D10*
G04 #@! TO.P,J12,7*
G04 #@! TO.N,+3V3*
X60500000Y-2510000D03*
G04 #@! TO.P,J12,6*
G04 #@! TO.N,LE*
X60500000Y-5050000D03*
G04 #@! TO.P,J12,5*
G04 #@! TO.N,OE*
X60500000Y-7590000D03*
G04 #@! TO.P,J12,4*
G04 #@! TO.N,CLK*
X60500000Y-10130000D03*
G04 #@! TO.P,J12,3*
G04 #@! TO.N,SDA*
X60500000Y-12670000D03*
G04 #@! TO.P,J12,2*
G04 #@! TO.N,SDO*
X60500000Y-15210000D03*
D11*
G04 #@! TO.P,J12,1*
G04 #@! TO.N,GND*
X60500000Y-17750000D03*
G04 #@! TD*
D12*
G04 #@! TO.P,D13,2*
G04 #@! TO.N,Net-(D10-Pad2)*
X41021000Y-77041740D03*
G04 #@! TO.P,D13,1*
G04 #@! TO.N,Net-(D13-Pad1)*
X41021000Y-80341740D03*
G04 #@! TD*
D13*
G04 #@! TO.P,BT1,3*
G04 #@! TO.N,VBat*
X93497400Y-4801140D03*
G04 #@! TO.P,BT1,2*
X90957400Y-12421140D03*
G04 #@! TO.P,BT1,1*
X96037400Y-12421140D03*
G04 #@! TD*
G04 #@! TO.P,BT2,1*
G04 #@! TO.N,MID*
X90965020Y-57660000D03*
G04 #@! TO.P,BT2,2*
X96045020Y-57660000D03*
G04 #@! TO.P,BT2,3*
X93505020Y-65280000D03*
G04 #@! TD*
G04 #@! TO.P,BT3,3*
G04 #@! TO.N,MID*
X10637520Y-4801140D03*
G04 #@! TO.P,BT3,2*
X8097520Y-12421140D03*
G04 #@! TO.P,BT3,1*
X13177520Y-12421140D03*
G04 #@! TD*
G04 #@! TO.P,BT4,1*
G04 #@! TO.N,GND*
X8097520Y-57660000D03*
G04 #@! TO.P,BT4,2*
X13177520Y-57660000D03*
G04 #@! TO.P,BT4,3*
X10637520Y-65280000D03*
G04 #@! TD*
D14*
G04 #@! TO.P,C1,2*
G04 #@! TO.N,GND*
X56750000Y-34250000D03*
G04 #@! TO.P,C1,1*
G04 #@! TO.N,VBat*
X59250000Y-34250000D03*
G04 #@! TD*
G04 #@! TO.P,C2,1*
G04 #@! TO.N,VCC*
X45194000Y-84250000D03*
G04 #@! TO.P,C2,2*
G04 #@! TO.N,GND*
X47694000Y-84250000D03*
G04 #@! TD*
G04 #@! TO.P,C3,2*
G04 #@! TO.N,GND*
X47750000Y-86750000D03*
G04 #@! TO.P,C3,1*
G04 #@! TO.N,VCC*
X45250000Y-86750000D03*
G04 #@! TD*
G04 #@! TO.P,C4,1*
G04 #@! TO.N,VCC*
X92250000Y-48500000D03*
G04 #@! TO.P,C4,2*
G04 #@! TO.N,GND*
X89750000Y-48500000D03*
G04 #@! TD*
G04 #@! TO.P,C5,2*
G04 #@! TO.N,GND*
X89750000Y-51000000D03*
G04 #@! TO.P,C5,1*
G04 #@! TO.N,VCC*
X92250000Y-51000000D03*
G04 #@! TD*
G04 #@! TO.P,C6,1*
G04 #@! TO.N,VCC*
X11750000Y-48500000D03*
G04 #@! TO.P,C6,2*
G04 #@! TO.N,GND*
X14250000Y-48500000D03*
G04 #@! TD*
G04 #@! TO.P,C7,2*
G04 #@! TO.N,GND*
X14250000Y-51000000D03*
G04 #@! TO.P,C7,1*
G04 #@! TO.N,VCC*
X11750000Y-51000000D03*
G04 #@! TD*
D15*
G04 #@! TO.P,IC1,1*
G04 #@! TO.N,GND*
X49195000Y-93356000D03*
G04 #@! TO.P,IC1,2*
G04 #@! TO.N,SDA*
X49195000Y-94006000D03*
G04 #@! TO.P,IC1,3*
G04 #@! TO.N,CLK*
X49195000Y-94656000D03*
G04 #@! TO.P,IC1,4*
G04 #@! TO.N,LE*
X49195000Y-95306000D03*
G04 #@! TO.P,IC1,5*
G04 #@! TO.N,Net-(IC1-Pad5)*
X49195000Y-95956000D03*
G04 #@! TO.P,IC1,6*
G04 #@! TO.N,Net-(IC1-Pad6)*
X49195000Y-96606000D03*
G04 #@! TO.P,IC1,7*
G04 #@! TO.N,Net-(IC1-Pad7)*
X49195000Y-97256000D03*
G04 #@! TO.P,IC1,8*
G04 #@! TO.N,Net-(IC1-Pad8)*
X49195000Y-97906000D03*
G04 #@! TO.P,IC1,9*
G04 #@! TO.N,Net-(IC1-Pad9)*
X54945000Y-97906000D03*
G04 #@! TO.P,IC1,10*
G04 #@! TO.N,Net-(IC1-Pad10)*
X54945000Y-97256000D03*
G04 #@! TO.P,IC1,11*
G04 #@! TO.N,Net-(IC1-Pad11)*
X54945000Y-96606000D03*
G04 #@! TO.P,IC1,12*
G04 #@! TO.N,Net-(IC1-Pad12)*
X54945000Y-95956000D03*
G04 #@! TO.P,IC1,13*
G04 #@! TO.N,OE*
X54945000Y-95306000D03*
G04 #@! TO.P,IC1,14*
G04 #@! TO.N,Net-(IC1-Pad14)*
X54945000Y-94656000D03*
G04 #@! TO.P,IC1,15*
G04 #@! TO.N,Net-(IC1-Pad15)*
X54945000Y-94006000D03*
G04 #@! TO.P,IC1,16*
G04 #@! TO.N,+3V3*
X54945000Y-93356000D03*
D16*
G04 #@! TO.P,IC1,17*
G04 #@! TO.N,GND*
X52070000Y-95631000D03*
G04 #@! TD*
G04 #@! TO.P,IC2,17*
G04 #@! TO.N,GND*
X82250000Y-49750000D03*
D17*
G04 #@! TO.P,IC2,16*
G04 #@! TO.N,+3V3*
X79975000Y-46875000D03*
G04 #@! TO.P,IC2,15*
G04 #@! TO.N,Net-(IC2-Pad15)*
X80625000Y-46875000D03*
G04 #@! TO.P,IC2,14*
G04 #@! TO.N,Net-(IC2-Pad14)*
X81275000Y-46875000D03*
G04 #@! TO.P,IC2,13*
G04 #@! TO.N,OE*
X81925000Y-46875000D03*
G04 #@! TO.P,IC2,12*
G04 #@! TO.N,Net-(IC2-Pad12)*
X82575000Y-46875000D03*
G04 #@! TO.P,IC2,11*
G04 #@! TO.N,Net-(IC2-Pad11)*
X83225000Y-46875000D03*
G04 #@! TO.P,IC2,10*
G04 #@! TO.N,Net-(IC2-Pad10)*
X83875000Y-46875000D03*
G04 #@! TO.P,IC2,9*
G04 #@! TO.N,Net-(IC2-Pad9)*
X84525000Y-46875000D03*
G04 #@! TO.P,IC2,8*
G04 #@! TO.N,Net-(IC2-Pad8)*
X84525000Y-52625000D03*
G04 #@! TO.P,IC2,7*
G04 #@! TO.N,Net-(IC2-Pad7)*
X83875000Y-52625000D03*
G04 #@! TO.P,IC2,6*
G04 #@! TO.N,Net-(IC2-Pad6)*
X83225000Y-52625000D03*
G04 #@! TO.P,IC2,5*
G04 #@! TO.N,Net-(IC2-Pad5)*
X82575000Y-52625000D03*
G04 #@! TO.P,IC2,4*
G04 #@! TO.N,LE*
X81925000Y-52625000D03*
G04 #@! TO.P,IC2,3*
G04 #@! TO.N,CLK*
X81275000Y-52625000D03*
G04 #@! TO.P,IC2,2*
G04 #@! TO.N,Net-(IC1-Pad14)*
X80625000Y-52625000D03*
G04 #@! TO.P,IC2,1*
G04 #@! TO.N,GND*
X79975000Y-52625000D03*
G04 #@! TD*
G04 #@! TO.P,IC3,1*
G04 #@! TO.N,GND*
X24275000Y-46875000D03*
G04 #@! TO.P,IC3,2*
G04 #@! TO.N,Net-(IC2-Pad14)*
X23625000Y-46875000D03*
G04 #@! TO.P,IC3,3*
G04 #@! TO.N,CLK*
X22975000Y-46875000D03*
G04 #@! TO.P,IC3,4*
G04 #@! TO.N,LE*
X22325000Y-46875000D03*
G04 #@! TO.P,IC3,5*
G04 #@! TO.N,Net-(IC3-Pad5)*
X21675000Y-46875000D03*
G04 #@! TO.P,IC3,6*
G04 #@! TO.N,Net-(IC3-Pad6)*
X21025000Y-46875000D03*
G04 #@! TO.P,IC3,7*
G04 #@! TO.N,Net-(IC3-Pad7)*
X20375000Y-46875000D03*
G04 #@! TO.P,IC3,8*
G04 #@! TO.N,Net-(IC3-Pad8)*
X19725000Y-46875000D03*
G04 #@! TO.P,IC3,9*
G04 #@! TO.N,Net-(IC3-Pad9)*
X19725000Y-52625000D03*
G04 #@! TO.P,IC3,10*
G04 #@! TO.N,Net-(IC3-Pad10)*
X20375000Y-52625000D03*
G04 #@! TO.P,IC3,11*
G04 #@! TO.N,Net-(IC3-Pad11)*
X21025000Y-52625000D03*
G04 #@! TO.P,IC3,12*
G04 #@! TO.N,Net-(IC3-Pad12)*
X21675000Y-52625000D03*
G04 #@! TO.P,IC3,13*
G04 #@! TO.N,OE*
X22325000Y-52625000D03*
G04 #@! TO.P,IC3,14*
G04 #@! TO.N,SDO*
X22975000Y-52625000D03*
G04 #@! TO.P,IC3,15*
G04 #@! TO.N,Net-(IC3-Pad15)*
X23625000Y-52625000D03*
G04 #@! TO.P,IC3,16*
G04 #@! TO.N,+3V3*
X24275000Y-52625000D03*
D16*
G04 #@! TO.P,IC3,17*
G04 #@! TO.N,GND*
X22000000Y-49750000D03*
G04 #@! TD*
D18*
G04 #@! TO.P,J1,10*
G04 #@! TO.N,VCC*
X57785000Y-101368860D03*
G04 #@! TO.P,J1,9*
G04 #@! TO.N,Net-(IC1-Pad12)*
X56515000Y-101368860D03*
G04 #@! TO.P,J1,8*
G04 #@! TO.N,Net-(IC1-Pad11)*
X55245000Y-101368860D03*
G04 #@! TO.P,J1,7*
G04 #@! TO.N,Net-(IC1-Pad10)*
X53975000Y-101368860D03*
G04 #@! TO.P,J1,6*
G04 #@! TO.N,Net-(IC1-Pad9)*
X52705000Y-101368860D03*
G04 #@! TO.P,J1,5*
G04 #@! TO.N,Net-(IC1-Pad8)*
X51435000Y-101368860D03*
G04 #@! TO.P,J1,4*
G04 #@! TO.N,Net-(IC1-Pad7)*
X50165000Y-101368860D03*
G04 #@! TO.P,J1,3*
G04 #@! TO.N,Net-(IC1-Pad6)*
X48895000Y-101368860D03*
G04 #@! TO.P,J1,2*
G04 #@! TO.N,Net-(IC1-Pad5)*
X47625000Y-101368860D03*
D19*
G04 #@! TO.P,J1,1*
G04 #@! TO.N,VCC*
X46355000Y-101368860D03*
G04 #@! TD*
G04 #@! TO.P,J2,1*
G04 #@! TO.N,Net-(D1-Pad2)*
X25571018Y-60204000D03*
D18*
G04 #@! TO.P,J2,2*
G04 #@! TO.N,Net-(D1-Pad1)*
X25571018Y-61474000D03*
G04 #@! TO.P,J2,3*
G04 #@! TO.N,Net-(D2-Pad1)*
X25571018Y-62744000D03*
G04 #@! TO.P,J2,4*
G04 #@! TO.N,Net-(D3-Pad1)*
X25571018Y-64014000D03*
G04 #@! TO.P,J2,5*
G04 #@! TO.N,Net-(D4-Pad1)*
X25571018Y-65284000D03*
G04 #@! TO.P,J2,6*
G04 #@! TO.N,Net-(D5-Pad1)*
X25571018Y-66554000D03*
G04 #@! TO.P,J2,7*
G04 #@! TO.N,Net-(D6-Pad1)*
X25571018Y-67824000D03*
G04 #@! TO.P,J2,8*
G04 #@! TO.N,N/C*
X25571018Y-69094000D03*
G04 #@! TO.P,J2,9*
X25571018Y-70364000D03*
G04 #@! TO.P,J2,10*
G04 #@! TO.N,Net-(D1-Pad2)*
X25571018Y-71634000D03*
G04 #@! TD*
G04 #@! TO.P,J3,10*
G04 #@! TO.N,VCC*
X94721919Y-72892452D03*
G04 #@! TO.P,J3,9*
G04 #@! TO.N,Net-(IC2-Pad12)*
X93993477Y-73932775D03*
G04 #@! TO.P,J3,8*
G04 #@! TO.N,Net-(IC2-Pad11)*
X93265035Y-74973098D03*
G04 #@! TO.P,J3,7*
G04 #@! TO.N,Net-(IC2-Pad10)*
X92536592Y-76013421D03*
G04 #@! TO.P,J3,6*
G04 #@! TO.N,Net-(IC2-Pad9)*
X91808150Y-77053745D03*
G04 #@! TO.P,J3,5*
G04 #@! TO.N,Net-(IC2-Pad8)*
X91079708Y-78094068D03*
G04 #@! TO.P,J3,4*
G04 #@! TO.N,Net-(IC2-Pad7)*
X90351266Y-79134391D03*
G04 #@! TO.P,J3,3*
G04 #@! TO.N,Net-(IC2-Pad6)*
X89622824Y-80174714D03*
G04 #@! TO.P,J3,2*
G04 #@! TO.N,Net-(IC2-Pad5)*
X88894382Y-81215037D03*
G04 #@! TO.P,J3,1*
G04 #@! TO.N,VCC*
X88165940Y-82255360D03*
D20*
G04 #@! TD*
G04 #@! TO.N,VCC*
G04 #@! TO.C,J3*
G36*
X88966759Y-82114154D02*
X88307146Y-83056179D01*
X87365121Y-82396566D01*
X88024734Y-81454541D01*
X88966759Y-82114154D01*
X88966759Y-82114154D01*
G37*
D19*
G04 #@! TO.P,J4,1*
G04 #@! TO.N,Net-(D10-Pad2)*
X38371018Y-87249000D03*
D18*
G04 #@! TO.P,J4,2*
G04 #@! TO.N,Net-(D9-Pad1)*
X38371018Y-85979000D03*
G04 #@! TO.P,J4,3*
G04 #@! TO.N,Net-(D10-Pad1)*
X38371018Y-84709000D03*
G04 #@! TO.P,J4,4*
G04 #@! TO.N,Net-(D11-Pad1)*
X38371018Y-83439000D03*
G04 #@! TO.P,J4,5*
G04 #@! TO.N,Net-(D12-Pad1)*
X38371018Y-82169000D03*
G04 #@! TO.P,J4,6*
G04 #@! TO.N,Net-(D13-Pad1)*
X38371018Y-80899000D03*
G04 #@! TO.P,J4,7*
G04 #@! TO.N,Net-(D14-Pad1)*
X38371018Y-79629000D03*
G04 #@! TO.P,J4,8*
G04 #@! TO.N,Net-(D15-Pad1)*
X38371018Y-78359000D03*
G04 #@! TO.P,J4,9*
G04 #@! TO.N,Net-(D16-Pad1)*
X38371018Y-77089000D03*
G04 #@! TO.P,J4,10*
G04 #@! TO.N,Net-(D10-Pad2)*
X38371018Y-75819000D03*
G04 #@! TD*
G04 #@! TO.P,J5,10*
G04 #@! TO.N,VCC*
X9418081Y-72892452D03*
G04 #@! TO.P,J5,9*
G04 #@! TO.N,Net-(IC3-Pad5)*
X10146523Y-73932775D03*
G04 #@! TO.P,J5,8*
G04 #@! TO.N,Net-(IC3-Pad6)*
X10874965Y-74973098D03*
G04 #@! TO.P,J5,7*
G04 #@! TO.N,Net-(IC3-Pad7)*
X11603408Y-76013421D03*
G04 #@! TO.P,J5,6*
G04 #@! TO.N,Net-(IC3-Pad8)*
X12331850Y-77053745D03*
G04 #@! TO.P,J5,5*
G04 #@! TO.N,Net-(IC3-Pad9)*
X13060292Y-78094068D03*
G04 #@! TO.P,J5,4*
G04 #@! TO.N,Net-(IC3-Pad10)*
X13788734Y-79134391D03*
G04 #@! TO.P,J5,3*
G04 #@! TO.N,Net-(IC3-Pad11)*
X14517176Y-80174714D03*
G04 #@! TO.P,J5,2*
G04 #@! TO.N,Net-(IC3-Pad12)*
X15245618Y-81215037D03*
G04 #@! TO.P,J5,1*
G04 #@! TO.N,VCC*
X15974060Y-82255360D03*
D20*
G04 #@! TD*
G04 #@! TO.N,VCC*
G04 #@! TO.C,J5*
G36*
X16115266Y-81454541D02*
X16774879Y-82396566D01*
X15832854Y-83056179D01*
X15173241Y-82114154D01*
X16115266Y-81454541D01*
X16115266Y-81454541D01*
G37*
D19*
G04 #@! TO.P,J6,1*
G04 #@! TO.N,Net-(D17-Pad2)*
X34807220Y-60204000D03*
D18*
G04 #@! TO.P,J6,2*
G04 #@! TO.N,Net-(D17-Pad1)*
X34807220Y-61474000D03*
G04 #@! TO.P,J6,3*
G04 #@! TO.N,Net-(D18-Pad1)*
X34807220Y-62744000D03*
G04 #@! TO.P,J6,4*
G04 #@! TO.N,Net-(D19-Pad1)*
X34807220Y-64014000D03*
G04 #@! TO.P,J6,5*
G04 #@! TO.N,Net-(D20-Pad1)*
X34807220Y-65284000D03*
G04 #@! TO.P,J6,6*
G04 #@! TO.N,Net-(D21-Pad1)*
X34807220Y-66554000D03*
G04 #@! TO.P,J6,7*
G04 #@! TO.N,Net-(D22-Pad1)*
X34807220Y-67824000D03*
G04 #@! TO.P,J6,8*
G04 #@! TO.N,N/C*
X34807220Y-69094000D03*
G04 #@! TO.P,J6,9*
X34807220Y-70364000D03*
G04 #@! TO.P,J6,10*
G04 #@! TO.N,Net-(D17-Pad2)*
X34807220Y-71634000D03*
G04 #@! TD*
D10*
G04 #@! TO.P,J7,6*
G04 #@! TO.N,VBat*
X45000000Y-2550000D03*
G04 #@! TO.P,J7,5*
G04 #@! TO.N,MID*
X45000000Y-5090000D03*
G04 #@! TO.P,J7,4*
G04 #@! TO.N,VCC*
X45000000Y-7630000D03*
G04 #@! TO.P,J7,3*
X45000000Y-10170000D03*
G04 #@! TO.P,J7,2*
G04 #@! TO.N,GND*
X45000000Y-12710000D03*
D11*
G04 #@! TO.P,J7,1*
X45000000Y-15250000D03*
G04 #@! TD*
D21*
G04 #@! TO.P,R1,2*
G04 #@! TO.N,Net-(IC1-Pad15)*
X53100000Y-91750000D03*
G04 #@! TO.P,R1,1*
G04 #@! TO.N,GND*
X50400000Y-91750000D03*
G04 #@! TD*
D22*
G04 #@! TO.P,R2,1*
G04 #@! TO.N,GND*
X78500000Y-50450000D03*
G04 #@! TO.P,R2,2*
G04 #@! TO.N,Net-(IC2-Pad15)*
X78500000Y-47750000D03*
G04 #@! TD*
G04 #@! TO.P,R3,2*
G04 #@! TO.N,Net-(IC3-Pad15)*
X26000000Y-49850000D03*
G04 #@! TO.P,R3,1*
G04 #@! TO.N,GND*
X26000000Y-47150000D03*
G04 #@! TD*
D23*
G04 #@! TO.P,U1,1*
G04 #@! TO.N,GND*
X55700000Y-31900000D03*
G04 #@! TO.P,U1,3*
G04 #@! TO.N,VBat*
X60300000Y-31900000D03*
G04 #@! TO.P,U1,2*
G04 #@! TO.N,+3V3*
X58000000Y-31900000D03*
D24*
X58000000Y-25600000D03*
G04 #@! TD*
D14*
G04 #@! TO.P,C8,2*
G04 #@! TO.N,GND*
X56750000Y-36750000D03*
G04 #@! TO.P,C8,1*
G04 #@! TO.N,VBat*
X59250000Y-36750000D03*
G04 #@! TD*
G04 #@! TO.P,C9,1*
G04 #@! TO.N,+3V3*
X59250000Y-23000000D03*
G04 #@! TO.P,C9,2*
G04 #@! TO.N,GND*
X56750000Y-23000000D03*
G04 #@! TD*
G04 #@! TO.P,C10,2*
G04 #@! TO.N,GND*
X56750000Y-20500000D03*
G04 #@! TO.P,C10,1*
G04 #@! TO.N,+3V3*
X59250000Y-20500000D03*
G04 #@! TD*
D12*
G04 #@! TO.P,D1,2*
G04 #@! TO.N,Net-(D1-Pad2)*
X28221000Y-63289100D03*
G04 #@! TO.P,D1,1*
G04 #@! TO.N,Net-(D1-Pad1)*
X28221000Y-59989100D03*
G04 #@! TD*
G04 #@! TO.P,D2,2*
G04 #@! TO.N,Net-(D1-Pad2)*
X28221000Y-69446060D03*
G04 #@! TO.P,D2,1*
G04 #@! TO.N,Net-(D2-Pad1)*
X28221000Y-66146060D03*
G04 #@! TD*
G04 #@! TO.P,D3,1*
G04 #@! TO.N,Net-(D3-Pad1)*
X28221000Y-72303020D03*
G04 #@! TO.P,D3,2*
G04 #@! TO.N,Net-(D1-Pad2)*
X28221000Y-75603020D03*
G04 #@! TD*
G04 #@! TO.P,D4,2*
G04 #@! TO.N,Net-(D1-Pad2)*
X28221000Y-81759980D03*
G04 #@! TO.P,D4,1*
G04 #@! TO.N,Net-(D4-Pad1)*
X28221000Y-78459980D03*
G04 #@! TD*
G04 #@! TO.P,D5,2*
G04 #@! TO.N,Net-(D1-Pad2)*
X28221000Y-87916940D03*
G04 #@! TO.P,D5,1*
G04 #@! TO.N,Net-(D5-Pad1)*
X28221000Y-84616940D03*
G04 #@! TD*
G04 #@! TO.P,D6,1*
G04 #@! TO.N,Net-(D6-Pad1)*
X28221000Y-90773900D03*
G04 #@! TO.P,D6,2*
G04 #@! TO.N,Net-(D1-Pad2)*
X28221000Y-94073900D03*
G04 #@! TD*
G04 #@! TO.P,D9,1*
G04 #@! TO.N,Net-(D9-Pad1)*
X41021000Y-99784900D03*
G04 #@! TO.P,D9,2*
G04 #@! TO.N,Net-(D10-Pad2)*
X41021000Y-103084900D03*
G04 #@! TD*
G04 #@! TO.P,D10,2*
G04 #@! TO.N,Net-(D10-Pad2)*
X41021000Y-97397840D03*
G04 #@! TO.P,D10,1*
G04 #@! TO.N,Net-(D10-Pad1)*
X41021000Y-94097840D03*
G04 #@! TD*
G04 #@! TO.P,D11,1*
G04 #@! TO.N,Net-(D11-Pad1)*
X41021000Y-88413320D03*
G04 #@! TO.P,D11,2*
G04 #@! TO.N,Net-(D10-Pad2)*
X41021000Y-91713320D03*
G04 #@! TD*
G04 #@! TO.P,D12,2*
G04 #@! TO.N,Net-(D10-Pad2)*
X41021000Y-86026260D03*
G04 #@! TO.P,D12,1*
G04 #@! TO.N,Net-(D12-Pad1)*
X41021000Y-82726260D03*
G04 #@! TD*
G04 #@! TO.P,D14,1*
G04 #@! TO.N,Net-(D14-Pad1)*
X41021000Y-74654680D03*
G04 #@! TO.P,D14,2*
G04 #@! TO.N,Net-(D10-Pad2)*
X41021000Y-71354680D03*
G04 #@! TD*
G04 #@! TO.P,D15,1*
G04 #@! TO.N,Net-(D15-Pad1)*
X41021000Y-68970160D03*
G04 #@! TO.P,D15,2*
G04 #@! TO.N,Net-(D10-Pad2)*
X41021000Y-65670160D03*
G04 #@! TD*
G04 #@! TO.P,D16,2*
G04 #@! TO.N,Net-(D10-Pad2)*
X41021000Y-59983100D03*
G04 #@! TO.P,D16,1*
G04 #@! TO.N,Net-(D16-Pad1)*
X41021000Y-63283100D03*
G04 #@! TD*
G04 #@! TO.P,D17,1*
G04 #@! TO.N,Net-(D17-Pad1)*
X32158000Y-59989100D03*
G04 #@! TO.P,D17,2*
G04 #@! TO.N,Net-(D17-Pad2)*
X32158000Y-63289100D03*
G04 #@! TD*
G04 #@! TO.P,D18,2*
G04 #@! TO.N,Net-(D17-Pad2)*
X32158000Y-69446060D03*
G04 #@! TO.P,D18,1*
G04 #@! TO.N,Net-(D18-Pad1)*
X32158000Y-66146060D03*
G04 #@! TD*
G04 #@! TO.P,D19,1*
G04 #@! TO.N,Net-(D19-Pad1)*
X32158000Y-72303020D03*
G04 #@! TO.P,D19,2*
G04 #@! TO.N,Net-(D17-Pad2)*
X32158000Y-75603020D03*
G04 #@! TD*
G04 #@! TO.P,D20,1*
G04 #@! TO.N,Net-(D20-Pad1)*
X32158000Y-78459980D03*
G04 #@! TO.P,D20,2*
G04 #@! TO.N,Net-(D17-Pad2)*
X32158000Y-81759980D03*
G04 #@! TD*
G04 #@! TO.P,D21,2*
G04 #@! TO.N,Net-(D17-Pad2)*
X32158000Y-87916940D03*
G04 #@! TO.P,D21,1*
G04 #@! TO.N,Net-(D21-Pad1)*
X32158000Y-84616940D03*
G04 #@! TD*
G04 #@! TO.P,D22,1*
G04 #@! TO.N,Net-(D22-Pad1)*
X32158000Y-90773900D03*
G04 #@! TO.P,D22,2*
G04 #@! TO.N,Net-(D17-Pad2)*
X32158000Y-94073900D03*
G04 #@! TD*
D25*
G04 #@! TO.N,GND*
X55700000Y-31900000D03*
X20900000Y-50700000D03*
X23000000Y-50800000D03*
X22900000Y-48700000D03*
X22000000Y-49700000D03*
X21000000Y-48700000D03*
X83100000Y-50800000D03*
X83100000Y-48800000D03*
X81400000Y-48800000D03*
X53000000Y-96600000D03*
X51000000Y-96700000D03*
X53000000Y-94800000D03*
X51000000Y-94700000D03*
X52100000Y-95700000D03*
X82200000Y-49800000D03*
D26*
G04 #@! TO.N,VBat*
X48150311Y-33900311D03*
X48000000Y-38500000D03*
X78500000Y-38500000D03*
D25*
X59200000Y-38100030D03*
G04 #@! TO.N,MID*
X45500000Y-34500000D03*
X46100000Y-36900000D03*
G04 #@! TO.N,GND*
X40100000Y-38000000D03*
X41200000Y-39000000D03*
X42400000Y-40100000D03*
X42800000Y-31100000D03*
X43800000Y-30200000D03*
X45100000Y-29200000D03*
X54050000Y-31900000D03*
X54200000Y-28950000D03*
X56400000Y-29400000D03*
X54350000Y-40200000D03*
X55850000Y-40200000D03*
X55200000Y-41400000D03*
X46800000Y-47700000D03*
X48700000Y-49500000D03*
X46400000Y-43000000D03*
X47400000Y-41500000D03*
X54300000Y-50400000D03*
X56500000Y-48500000D03*
X62800000Y-42000000D03*
X69700000Y-42000000D03*
X76700000Y-42400000D03*
X62000000Y-51300000D03*
X70200000Y-48700000D03*
X69100000Y-55500000D03*
X81800000Y-55700000D03*
X89000000Y-53100000D03*
X73700000Y-46100000D03*
X76800000Y-49100000D03*
X92800000Y-69500000D03*
X98100000Y-70800000D03*
X102400000Y-59800000D03*
X100200000Y-51900000D03*
X99400000Y-42200000D03*
X90300000Y-40700000D03*
X95600000Y-34400000D03*
X89000000Y-29900000D03*
X101200000Y-27600000D03*
X94500000Y-22200000D03*
X101700000Y-15000000D03*
X85800000Y-10500000D03*
X99900000Y-4500000D03*
X51900000Y-90000000D03*
X45600000Y-93100000D03*
X47000000Y-88800000D03*
X58300000Y-95300000D03*
X57300000Y-87400000D03*
X81200000Y-50800000D03*
X30300000Y-46700000D03*
X27900000Y-48700000D03*
X41700000Y-47800000D03*
X34000000Y-48700000D03*
X28300000Y-54300000D03*
X36800000Y-54000000D03*
X47500000Y-54600000D03*
X28000000Y-41000000D03*
X22000000Y-42700000D03*
X16100000Y-48600000D03*
X10700000Y-53700000D03*
X4300000Y-50000000D03*
X12000000Y-43200000D03*
X18500000Y-37200000D03*
X3300000Y-36300000D03*
X12100000Y-32000000D03*
X3500000Y-25400000D03*
X11200000Y-19400000D03*
X2800000Y-14600000D03*
X19300000Y-24500000D03*
X19300000Y-12700000D03*
X16600000Y-3300000D03*
X5000000Y-3500000D03*
X12300000Y-69200000D03*
X6000000Y-69900000D03*
X1700000Y-61600000D03*
X56800000Y-77200000D03*
X56700000Y-66900000D03*
X56400000Y-56700000D03*
X46700000Y-79100000D03*
X46600000Y-69100000D03*
X47300000Y-60800000D03*
X44900000Y-98800000D03*
X45800000Y-82500000D03*
X49100000Y-82300000D03*
X49200000Y-86200000D03*
X36850000Y-41100000D03*
X55100000Y-21750000D03*
X55200000Y-10900000D03*
X53750000Y-4400000D03*
X43800000Y-20250000D03*
X60850000Y-21650000D03*
X60600000Y-28750000D03*
X42100000Y-53850000D03*
X46500000Y-51750000D03*
X76150000Y-54850000D03*
X61250000Y-34050000D03*
X50350000Y-91800000D03*
G04 #@! TO.N,+3V3*
X54750000Y-92750000D03*
X25250000Y-52000000D03*
X79750000Y-49000000D03*
X58200000Y-39700030D03*
X58000000Y-31900000D03*
X50200000Y-34400000D03*
X43100000Y-37700000D03*
X45600000Y-39950008D03*
G04 #@! TO.N,VCC*
X10000000Y-49750000D03*
X93500000Y-49750000D03*
X44272510Y-85500000D03*
G04 #@! TO.N,Net-(D1-Pad1)*
X28221000Y-59989100D03*
G04 #@! TO.N,Net-(D1-Pad2)*
X25910000Y-75560000D03*
X25900000Y-94340000D03*
X25910000Y-87920000D03*
X25910000Y-81720000D03*
G04 #@! TO.N,Net-(D2-Pad1)*
X28816000Y-66150000D03*
G04 #@! TO.N,Net-(D3-Pad1)*
X28816000Y-72310000D03*
G04 #@! TO.N,Net-(D4-Pad1)*
X28816000Y-78460000D03*
G04 #@! TO.N,Net-(D5-Pad1)*
X28816000Y-84620000D03*
G04 #@! TO.N,Net-(D6-Pad1)*
X28816000Y-90770000D03*
G04 #@! TO.N,Net-(D10-Pad2)*
X38730000Y-103060000D03*
X38730000Y-97380000D03*
X38730000Y-91710000D03*
X38730000Y-59950000D03*
X38730000Y-65660000D03*
X38730000Y-71330000D03*
G04 #@! TO.N,Net-(D9-Pad1)*
X41616000Y-99800000D03*
G04 #@! TO.N,Net-(D10-Pad1)*
X41616000Y-94100000D03*
G04 #@! TO.N,Net-(D11-Pad1)*
X41616000Y-88420000D03*
G04 #@! TO.N,Net-(D12-Pad1)*
X41021000Y-82726260D03*
G04 #@! TO.N,Net-(D13-Pad1)*
X41021000Y-80341740D03*
G04 #@! TO.N,Net-(D14-Pad1)*
X41616000Y-74650000D03*
G04 #@! TO.N,Net-(D15-Pad1)*
X41616000Y-68970000D03*
G04 #@! TO.N,Net-(D16-Pad1)*
X41616000Y-63280000D03*
G04 #@! TO.N,Net-(D17-Pad2)*
X34490000Y-75570000D03*
X34490000Y-81760000D03*
X34490000Y-87900000D03*
X34490000Y-94090000D03*
G04 #@! TO.N,Net-(D17-Pad1)*
X32158000Y-59989100D03*
G04 #@! TO.N,Net-(D18-Pad1)*
X31563000Y-66150000D03*
G04 #@! TO.N,Net-(D19-Pad1)*
X31563000Y-72310000D03*
G04 #@! TO.N,Net-(D20-Pad1)*
X31563000Y-78460000D03*
G04 #@! TO.N,Net-(D21-Pad1)*
X31563000Y-84620000D03*
G04 #@! TO.N,Net-(D22-Pad1)*
X31563000Y-90770000D03*
G04 #@! TO.N,SDA*
X51505143Y-46920163D03*
X51500000Y-44565000D03*
G04 #@! TO.N,CLK*
X50250000Y-44565000D03*
X50750000Y-46015000D03*
X54259937Y-46509937D03*
G04 #@! TO.N,LE*
X50032207Y-46711259D03*
X49500000Y-43750000D03*
X53794326Y-47435169D03*
G04 #@! TO.N,OE*
X52550000Y-49040000D03*
X49250000Y-47610000D03*
X55530000Y-44320000D03*
X51150000Y-42240000D03*
G04 #@! TO.N,SDO*
X48740000Y-46060000D03*
X52790000Y-44360000D03*
G04 #@! TD*
D27*
G04 #@! TO.N,VBat*
X48150311Y-33900311D02*
X48150311Y-38349689D01*
X48150311Y-38349689D02*
X48000000Y-38500000D01*
X81095636Y-38500000D02*
X84250000Y-35345636D01*
X78500000Y-38500000D02*
X81095636Y-38500000D01*
X84250000Y-19128540D02*
X90957400Y-12421140D01*
X84250000Y-35345636D02*
X84250000Y-19128540D01*
X93497400Y-9881140D02*
X90957400Y-12421140D01*
X93497400Y-4801140D02*
X93497400Y-9881140D01*
X96037400Y-12421140D02*
X93497400Y-9881140D01*
X96037400Y-12421140D02*
X90957400Y-12421140D01*
D28*
X60300000Y-33200000D02*
X59250000Y-34250000D01*
X60300000Y-31900000D02*
X60300000Y-33200000D01*
X59250000Y-34250000D02*
X59250000Y-36750000D01*
X59250000Y-38050030D02*
X59200000Y-38100030D01*
X59250000Y-36750000D02*
X59250000Y-38050030D01*
G04 #@! TO.N,MID*
X13177520Y-14365683D02*
X13177520Y-12421140D01*
X13177520Y-27572496D02*
X13177520Y-14365683D01*
X21055034Y-35450010D02*
X13177520Y-27572496D01*
X44549990Y-35450010D02*
X21055034Y-35450010D01*
X45500000Y-34500000D02*
X44549990Y-35450010D01*
X45500000Y-36250000D02*
X45500000Y-34500000D01*
X46100000Y-36900000D02*
X45500000Y-36250000D01*
D29*
G04 #@! TO.N,GND*
X79975000Y-51375000D02*
X80350000Y-51000000D01*
X79975000Y-52625000D02*
X79975000Y-51375000D01*
X81000000Y-51000000D02*
X81200000Y-50800000D01*
X80350000Y-51000000D02*
X81000000Y-51000000D01*
X79800000Y-50450000D02*
X80350000Y-51000000D01*
X78500000Y-50450000D02*
X79800000Y-50450000D01*
X81200000Y-50800000D02*
X82250000Y-49750000D01*
X22565685Y-49700000D02*
X22000000Y-49700000D01*
X24100000Y-49700000D02*
X22565685Y-49700000D01*
X24275000Y-49525000D02*
X24100000Y-49700000D01*
X24275000Y-47775000D02*
X24275000Y-48500000D01*
X24900000Y-47150000D02*
X24275000Y-47775000D01*
X26000000Y-47150000D02*
X24900000Y-47150000D01*
X24275000Y-46875000D02*
X24275000Y-48500000D01*
X24275000Y-48500000D02*
X24275000Y-49525000D01*
X52070000Y-93581000D02*
X52070000Y-95631000D01*
X51845000Y-93356000D02*
X52070000Y-93581000D01*
X49195000Y-93356000D02*
X51845000Y-93356000D01*
X50906000Y-93356000D02*
X51845000Y-93356000D01*
X50400000Y-92850000D02*
X50906000Y-93356000D01*
X50400000Y-91750000D02*
X50400000Y-92850000D01*
X81634315Y-49800000D02*
X82200000Y-49800000D01*
X80150000Y-49800000D02*
X81634315Y-49800000D01*
X79975000Y-49975000D02*
X80150000Y-49800000D01*
X79975000Y-52625000D02*
X79975000Y-49975000D01*
D30*
X50400000Y-91500000D02*
X51900000Y-90000000D01*
X50400000Y-91750000D02*
X50400000Y-91500000D01*
X50050000Y-92100000D02*
X50400000Y-91750000D01*
X78150000Y-50450000D02*
X76800000Y-49100000D01*
X78500000Y-50450000D02*
X78150000Y-50450000D01*
X29850000Y-47150000D02*
X30300000Y-46700000D01*
X26000000Y-47150000D02*
X29850000Y-47150000D01*
D31*
G04 #@! TO.N,+3V3*
X54945000Y-92780305D02*
X54945000Y-93356000D01*
X54750000Y-92750000D02*
X54945000Y-92780305D01*
D30*
X24275000Y-52625000D02*
X24625000Y-52625000D01*
X24625000Y-52625000D02*
X25250000Y-52000000D01*
X79975000Y-46875000D02*
X79975000Y-48775000D01*
X79975000Y-48775000D02*
X79750000Y-49000000D01*
D28*
X59250000Y-20500000D02*
X59250000Y-23000000D01*
X59250000Y-24350000D02*
X58000000Y-25600000D01*
X59250000Y-23000000D02*
X59250000Y-24350000D01*
X58000000Y-30400000D02*
X58000000Y-25600000D01*
X58000000Y-31900000D02*
X58000000Y-30400000D01*
X58000000Y-31900000D02*
X58000000Y-39500030D01*
X58000000Y-39500030D02*
X58200000Y-39700030D01*
X50200000Y-38350622D02*
X50200000Y-34400000D01*
X48600614Y-39950008D02*
X50200000Y-38350622D01*
X43100000Y-37700000D02*
X45350008Y-39950008D01*
X45350008Y-39950008D02*
X45600000Y-39950008D01*
X45600000Y-39950008D02*
X48600614Y-39950008D01*
D32*
G04 #@! TO.N,VCC*
X11750000Y-49750000D02*
X10000000Y-49750000D01*
X11750000Y-49750000D02*
X11750000Y-51000000D01*
X11750000Y-48500000D02*
X11750000Y-49750000D01*
X92250000Y-49750000D02*
X93500000Y-49750000D01*
X92250000Y-49750000D02*
X92250000Y-48500000D01*
X92250000Y-51000000D02*
X92250000Y-49750000D01*
X45194000Y-86694000D02*
X45250000Y-86750000D01*
X45194000Y-85500000D02*
X44272510Y-85500000D01*
X45194000Y-85500000D02*
X45194000Y-86694000D01*
X45194000Y-84250000D02*
X45194000Y-85500000D01*
D33*
G04 #@! TO.N,Net-(D1-Pad2)*
X26895999Y-68121059D02*
X28221000Y-69446060D01*
X26003020Y-60204000D02*
X26895999Y-61096979D01*
X25571018Y-60204000D02*
X26003020Y-60204000D01*
X26895999Y-62366979D02*
X26895999Y-61560000D01*
X27818120Y-63289100D02*
X26895999Y-62366979D01*
X28221000Y-63289100D02*
X27818120Y-63289100D01*
X26895999Y-61096979D02*
X26895999Y-61560000D01*
X26895999Y-61560000D02*
X26895999Y-68121059D01*
X26895999Y-68121059D02*
X26895999Y-73904001D01*
X26895999Y-72958981D02*
X26895999Y-73904001D01*
X25571018Y-71634000D02*
X26895999Y-72958981D01*
D30*
G04 #@! TO.N,Net-(D2-Pad1)*
X28224940Y-66150000D02*
X28221000Y-66146060D01*
X28816000Y-66150000D02*
X28224940Y-66150000D01*
G04 #@! TO.N,Net-(D3-Pad1)*
X28227980Y-72310000D02*
X28221000Y-72303020D01*
X28816000Y-72310000D02*
X28227980Y-72310000D01*
G04 #@! TO.N,Net-(D4-Pad1)*
X28221020Y-78460000D02*
X28221000Y-78459980D01*
X28816000Y-78460000D02*
X28221020Y-78460000D01*
G04 #@! TO.N,Net-(D5-Pad1)*
X28224060Y-84620000D02*
X28221000Y-84616940D01*
X28816000Y-84620000D02*
X28224060Y-84620000D01*
G04 #@! TO.N,Net-(D6-Pad1)*
X28224900Y-90770000D02*
X28221000Y-90773900D01*
X28816000Y-90770000D02*
X28224900Y-90770000D01*
D33*
G04 #@! TO.N,Net-(D10-Pad2)*
X38803020Y-87249000D02*
X38371018Y-87249000D01*
X39521019Y-86531001D02*
X38803020Y-87249000D01*
X39184190Y-75819000D02*
X39521019Y-76155829D01*
X38371018Y-75819000D02*
X39184190Y-75819000D01*
X39542759Y-77041740D02*
X39521019Y-77020000D01*
X41021000Y-77041740D02*
X39542759Y-77041740D01*
X39521019Y-76155829D02*
X39521019Y-77020000D01*
X39574759Y-86026260D02*
X39521019Y-86080000D01*
X41021000Y-86026260D02*
X39574759Y-86026260D01*
X39521019Y-77020000D02*
X39521019Y-86080000D01*
X39521019Y-86080000D02*
X39521019Y-86531001D01*
D30*
G04 #@! TO.N,Net-(D9-Pad1)*
X41036100Y-99800000D02*
X41021000Y-99784900D01*
X41616000Y-99800000D02*
X41036100Y-99800000D01*
G04 #@! TO.N,Net-(D10-Pad1)*
X41023160Y-94100000D02*
X41021000Y-94097840D01*
X41616000Y-94100000D02*
X41023160Y-94100000D01*
G04 #@! TO.N,Net-(D11-Pad1)*
X41027680Y-88420000D02*
X41021000Y-88413320D01*
X41616000Y-88420000D02*
X41027680Y-88420000D01*
G04 #@! TO.N,Net-(D14-Pad1)*
X41025680Y-74650000D02*
X41021000Y-74654680D01*
X41616000Y-74650000D02*
X41025680Y-74650000D01*
G04 #@! TO.N,Net-(D15-Pad1)*
X41021160Y-68970000D02*
X41021000Y-68970160D01*
X41616000Y-68970000D02*
X41021160Y-68970000D01*
G04 #@! TO.N,Net-(D16-Pad1)*
X41024100Y-63280000D02*
X41021000Y-63283100D01*
X41616000Y-63280000D02*
X41024100Y-63280000D01*
D33*
G04 #@! TO.N,Net-(D17-Pad2)*
X34375218Y-60204000D02*
X33640000Y-60939218D01*
X34807220Y-60204000D02*
X34375218Y-60204000D01*
X33640000Y-67964060D02*
X32158000Y-69446060D01*
X32760900Y-63289100D02*
X33640000Y-62410000D01*
X32158000Y-63289100D02*
X32760900Y-63289100D01*
X33640000Y-60939218D02*
X33640000Y-62410000D01*
X33640000Y-62410000D02*
X33640000Y-67964060D01*
X33640000Y-67964060D02*
X33640000Y-72980000D01*
X33640000Y-72980000D02*
X33640000Y-73870000D01*
X33640000Y-72801220D02*
X34807220Y-71634000D01*
X33640000Y-72980000D02*
X33640000Y-72801220D01*
D30*
G04 #@! TO.N,Net-(D18-Pad1)*
X32154060Y-66150000D02*
X32158000Y-66146060D01*
X31563000Y-66150000D02*
X32154060Y-66150000D01*
G04 #@! TO.N,Net-(D19-Pad1)*
X32151020Y-72310000D02*
X32158000Y-72303020D01*
X31563000Y-72310000D02*
X32151020Y-72310000D01*
G04 #@! TO.N,Net-(D20-Pad1)*
X32157980Y-78460000D02*
X32158000Y-78459980D01*
X31563000Y-78460000D02*
X32157980Y-78460000D01*
G04 #@! TO.N,Net-(D21-Pad1)*
X32154940Y-84620000D02*
X32158000Y-84616940D01*
X31563000Y-84620000D02*
X32154940Y-84620000D01*
G04 #@! TO.N,Net-(D22-Pad1)*
X32154100Y-90770000D02*
X32158000Y-90773900D01*
X31563000Y-90770000D02*
X32154100Y-90770000D01*
D31*
G04 #@! TO.N,SDA*
X49195000Y-94006000D02*
X48145000Y-94006000D01*
X48145000Y-94006000D02*
X48069999Y-93930999D01*
X48069999Y-93930999D02*
X48069999Y-92560001D01*
X48069999Y-92560001D02*
X48069999Y-91860001D01*
X48069999Y-91860001D02*
X51220010Y-88709990D01*
X51220010Y-88709990D02*
X51220010Y-47159990D01*
X51220010Y-47159990D02*
X51265316Y-47159990D01*
X51265316Y-47159990D02*
X51505143Y-46920163D01*
X60200000Y-12670000D02*
X60500000Y-12670000D01*
X58700000Y-14170000D02*
X60200000Y-12670000D01*
X58700000Y-14800000D02*
X58700000Y-14170000D01*
X52520010Y-20979990D02*
X58700000Y-14800000D01*
X52520010Y-43544990D02*
X52520010Y-20979990D01*
X51500000Y-44565000D02*
X52520010Y-43544990D01*
G04 #@! TO.N,CLK*
X22975000Y-45825000D02*
X23970000Y-44830000D01*
X22975000Y-46875000D02*
X22975000Y-45825000D01*
X23970000Y-44830000D02*
X48750000Y-44830000D01*
X48158590Y-94656000D02*
X49195000Y-94656000D01*
X47610000Y-94107410D02*
X48158590Y-94656000D01*
X47610000Y-91683590D02*
X47610000Y-94107410D01*
X50770000Y-88523590D02*
X47610000Y-91683590D01*
X50770000Y-46630000D02*
X50770000Y-88523590D01*
X81275000Y-52625000D02*
X81275000Y-53675000D01*
X81275000Y-53675000D02*
X80749989Y-54200011D01*
X80749989Y-54200011D02*
X79300011Y-54200011D01*
X79300011Y-54200011D02*
X71290020Y-46190020D01*
X48750000Y-44830000D02*
X49985000Y-44830000D01*
X49985000Y-44830000D02*
X50250000Y-44565000D01*
X50770000Y-46630000D02*
X50770000Y-46035000D01*
X50770000Y-46035000D02*
X50750000Y-46015000D01*
X71290020Y-46190020D02*
X55186400Y-46190020D01*
X55186400Y-46190020D02*
X54579854Y-46190020D01*
X54579854Y-46190020D02*
X54259937Y-46509937D01*
X52070000Y-42745000D02*
X50250000Y-44565000D01*
X52070000Y-20730000D02*
X52070000Y-42745000D01*
X58200000Y-14600000D02*
X52070000Y-20730000D01*
X58200000Y-12130000D02*
X58200000Y-14600000D01*
X60200000Y-10130000D02*
X58200000Y-12130000D01*
X60500000Y-10130000D02*
X60200000Y-10130000D01*
G04 #@! TO.N,LE*
X48145000Y-95306000D02*
X47150000Y-94311000D01*
X49195000Y-95306000D02*
X48145000Y-95306000D01*
X47150000Y-94311000D02*
X47150000Y-93400000D01*
X47150000Y-93400000D02*
X47150000Y-91507180D01*
X80936389Y-54650021D02*
X79110021Y-54650021D01*
X81925000Y-52625000D02*
X81925000Y-53661410D01*
X81925000Y-53661410D02*
X80936389Y-54650021D01*
X75721451Y-51271451D02*
X71090030Y-46640030D01*
X79110021Y-54650021D02*
X75731451Y-51271451D01*
X75731451Y-51271451D02*
X75721451Y-51271451D01*
X47150000Y-91507180D02*
X47150000Y-91500000D01*
X47150000Y-91500000D02*
X50310000Y-88340000D01*
X50310000Y-88340000D02*
X50310000Y-46990000D01*
X50310000Y-46990000D02*
X50310000Y-46989052D01*
X50310000Y-46989052D02*
X50032207Y-46711259D01*
X48870010Y-44379990D02*
X49500000Y-43750000D01*
X23770010Y-44379990D02*
X48870010Y-44379990D01*
X22325000Y-46875000D02*
X22325000Y-45825000D01*
X22325000Y-45825000D02*
X23770010Y-44379990D01*
X71090030Y-46640030D02*
X55359970Y-46640030D01*
X55359970Y-46640030D02*
X54564831Y-47435169D01*
X54564831Y-47435169D02*
X53794326Y-47435169D01*
X49500000Y-41780000D02*
X49500000Y-43750000D01*
X51160000Y-40120000D02*
X49500000Y-41780000D01*
X60200000Y-5050000D02*
X57200000Y-8050000D01*
X60500000Y-5050000D02*
X60200000Y-5050000D01*
X57200000Y-8050000D02*
X57200000Y-14200000D01*
X51160000Y-20240000D02*
X51160000Y-20500000D01*
X57200000Y-14200000D02*
X51160000Y-20240000D01*
X51160000Y-20500000D02*
X51160000Y-40120000D01*
D30*
G04 #@! TO.N,Net-(IC1-Pad5)*
X47625000Y-100555688D02*
X47630000Y-100550688D01*
X47625000Y-101368860D02*
X47625000Y-100555688D01*
X47630000Y-100550688D02*
X47630000Y-99576348D01*
X47630000Y-99576348D02*
X46880000Y-98826348D01*
X48045000Y-95956000D02*
X49195000Y-95956000D01*
X47789339Y-95956000D02*
X48045000Y-95956000D01*
X46880000Y-96865339D02*
X47789339Y-95956000D01*
X46880000Y-98826348D02*
X46880000Y-96865339D01*
G04 #@! TO.N,Net-(IC1-Pad6)*
X48575001Y-99743519D02*
X47430000Y-98598518D01*
X48575001Y-101065001D02*
X48575001Y-99743519D01*
X48895000Y-101368860D02*
X48878860Y-101368860D01*
X48878860Y-101368860D02*
X48575001Y-101065001D01*
X48045000Y-96606000D02*
X49195000Y-96606000D01*
X47917169Y-96606000D02*
X48045000Y-96606000D01*
X47430000Y-97093169D02*
X47917169Y-96606000D01*
X47430000Y-98598518D02*
X47430000Y-97093169D01*
G04 #@! TO.N,Net-(IC1-Pad7)*
X48045000Y-97256000D02*
X49195000Y-97256000D01*
X48019999Y-97281001D02*
X48045000Y-97256000D01*
X48019999Y-98410687D02*
X48019999Y-97281001D01*
X50165000Y-100555688D02*
X48019999Y-98410687D01*
X50165000Y-101368860D02*
X50165000Y-100555688D01*
G04 #@! TO.N,Net-(IC1-Pad8)*
X51435000Y-100721000D02*
X51435000Y-101368860D01*
X49195000Y-98481000D02*
X51435000Y-100721000D01*
X49195000Y-97906000D02*
X49195000Y-98481000D01*
G04 #@! TO.N,Net-(IC1-Pad9)*
X52705000Y-100721000D02*
X52705000Y-101368860D01*
X54945000Y-98481000D02*
X52705000Y-100721000D01*
X54945000Y-97906000D02*
X54945000Y-98481000D01*
G04 #@! TO.N,Net-(IC1-Pad10)*
X56095000Y-97256000D02*
X54945000Y-97256000D01*
X56120001Y-97281001D02*
X56095000Y-97256000D01*
X56120001Y-98431001D02*
X56120001Y-97281001D01*
X53975000Y-100576002D02*
X56120001Y-98431001D01*
X53975000Y-101368860D02*
X53975000Y-100576002D01*
G04 #@! TO.N,Net-(IC1-Pad11)*
X56222831Y-96606000D02*
X54945000Y-96606000D01*
X56670011Y-97053180D02*
X56222831Y-96606000D01*
X56670011Y-98658822D02*
X56670011Y-97053180D01*
X55245000Y-101368860D02*
X55245000Y-100083832D01*
X55245000Y-100083832D02*
X56670011Y-98658822D01*
G04 #@! TO.N,Net-(IC1-Pad12)*
X56515000Y-101368860D02*
X56515000Y-99591663D01*
X56095000Y-95956000D02*
X54945000Y-95956000D01*
X56350662Y-95956000D02*
X56095000Y-95956000D01*
X57220021Y-96825359D02*
X56350662Y-95956000D01*
X57220021Y-98886643D02*
X57220021Y-96825359D01*
X56515000Y-99591663D02*
X57220021Y-98886643D01*
D31*
G04 #@! TO.N,OE*
X55995000Y-95306000D02*
X56980000Y-94321000D01*
X54945000Y-95306000D02*
X55995000Y-95306000D01*
X56980000Y-94321000D02*
X56980000Y-93130000D01*
X23300021Y-54650021D02*
X25146390Y-54650020D01*
X22325000Y-52625000D02*
X22325000Y-53675000D01*
X22325000Y-53675000D02*
X23300021Y-54650021D01*
X25146390Y-54650020D02*
X33156380Y-46640030D01*
X56980000Y-92508178D02*
X56970019Y-92498197D01*
X56980000Y-93130000D02*
X56980000Y-92508178D01*
X56970019Y-92508178D02*
X56970019Y-92498197D01*
X56980000Y-92508178D02*
X56970019Y-92508178D01*
X56970019Y-92498197D02*
X52120030Y-87648208D01*
X81925000Y-45825000D02*
X80930000Y-44830000D01*
X81925000Y-46875000D02*
X81925000Y-45825000D01*
X52120030Y-87648208D02*
X52120030Y-49449970D01*
X52120030Y-49449970D02*
X52530000Y-49040000D01*
X52530000Y-49040000D02*
X52550000Y-49040000D01*
X48280030Y-46640030D02*
X49250000Y-47610000D01*
X56040000Y-44830000D02*
X55530000Y-44320000D01*
X57320000Y-44830000D02*
X56040000Y-44830000D01*
X80930000Y-44830000D02*
X57320000Y-44830000D01*
X33156380Y-46620030D02*
X33586390Y-46190020D01*
X33156380Y-46640030D02*
X33156380Y-46620030D01*
X47830020Y-46190020D02*
X48280030Y-46640030D01*
X33586390Y-46190020D02*
X47830020Y-46190020D01*
X51150000Y-42240000D02*
X51620000Y-41770000D01*
X60200000Y-7590000D02*
X57700000Y-10090000D01*
X60500000Y-7590000D02*
X60200000Y-7590000D01*
X57700000Y-10090000D02*
X57700000Y-14400000D01*
X51620000Y-20480000D02*
X51620000Y-20900000D01*
X57700000Y-14400000D02*
X51620000Y-20480000D01*
X51620000Y-41770000D02*
X51620000Y-20900000D01*
G04 #@! TO.N,Net-(IC1-Pad14)*
X80549999Y-53750001D02*
X79489999Y-53750001D01*
X80625000Y-52625000D02*
X80625000Y-53675000D01*
X80625000Y-53675000D02*
X80549999Y-53750001D01*
X79489999Y-53750001D02*
X71480008Y-45740010D01*
X54004558Y-45740010D02*
X55000000Y-45740010D01*
X51670020Y-48074548D02*
X54004558Y-45740010D01*
X51670020Y-87834608D02*
X51670020Y-48074548D01*
X55000000Y-45740010D02*
X54229990Y-45740010D01*
X54945000Y-94656000D02*
X55981410Y-94656000D01*
X55981410Y-94656000D02*
X56520011Y-94117399D01*
X71480008Y-45740010D02*
X55000000Y-45740010D01*
X56520011Y-94117399D02*
X56520010Y-92684598D01*
X56520010Y-92684598D02*
X51670020Y-87834608D01*
G04 #@! TO.N,Net-(IC1-Pad15)*
X54945000Y-94006000D02*
X55995000Y-94006000D01*
X56070001Y-93930999D02*
X56070001Y-92870999D01*
X55995000Y-94006000D02*
X56070001Y-93930999D01*
X56005001Y-92805999D02*
X55995999Y-92805999D01*
X56070001Y-92870999D02*
X56005001Y-92805999D01*
X54930000Y-91740000D02*
X53450000Y-91740000D01*
X55995999Y-92805999D02*
X54930000Y-91740000D01*
G04 #@! TO.N,Net-(IC2-Pad15)*
X80625000Y-45914998D02*
X80460002Y-45750000D01*
X80625000Y-46875000D02*
X80625000Y-45914998D01*
X78500000Y-46750000D02*
X78500000Y-47750000D01*
X79500000Y-45750000D02*
X78500000Y-46750000D01*
X80460002Y-45750000D02*
X79500000Y-45750000D01*
G04 #@! TO.N,Net-(IC2-Pad14)*
X23625000Y-45825000D02*
X23625000Y-46875000D01*
X24160000Y-45290000D02*
X23625000Y-45825000D01*
X81275000Y-45838590D02*
X80726410Y-45290000D01*
X81275000Y-46875000D02*
X81275000Y-45838590D01*
X80726410Y-45290000D02*
X24160000Y-45290000D01*
D30*
G04 #@! TO.N,Net-(IC2-Pad12)*
X82575000Y-45725000D02*
X82575000Y-46875000D01*
X82575000Y-45397169D02*
X82575000Y-45725000D01*
X83972169Y-44000000D02*
X82575000Y-45397169D01*
X93993477Y-73932775D02*
X89072580Y-69011878D01*
X89072580Y-69011878D02*
X89072580Y-55368856D01*
X89072580Y-55368856D02*
X87248081Y-53544357D01*
X87248081Y-53544357D02*
X87248081Y-45942419D01*
X87248081Y-45942419D02*
X85305662Y-44000000D01*
X85305662Y-44000000D02*
X83972169Y-44000000D01*
G04 #@! TO.N,Net-(IC2-Pad11)*
X83225000Y-45525000D02*
X83225000Y-46875000D01*
X84050010Y-44699990D02*
X83225000Y-45525000D01*
X93265035Y-74973098D02*
X88522570Y-70230633D01*
X88522570Y-55596677D02*
X86698071Y-53772178D01*
X86698071Y-53772178D02*
X86698071Y-46170240D01*
X86698071Y-46170240D02*
X85227821Y-44699990D01*
X88522570Y-70230633D02*
X88522570Y-55596677D01*
X85227821Y-44699990D02*
X84050010Y-44699990D01*
G04 #@! TO.N,Net-(IC2-Pad10)*
X83875000Y-45725000D02*
X83875000Y-46875000D01*
X92536592Y-76013421D02*
X87972560Y-71449389D01*
X87972560Y-71449389D02*
X87972560Y-55824498D01*
X84350000Y-45250000D02*
X83875000Y-45725000D01*
X87972560Y-55824498D02*
X86148061Y-54000000D01*
X86148061Y-54000000D02*
X86148061Y-46398061D01*
X86148061Y-46398061D02*
X85000000Y-45250000D01*
X85000000Y-45250000D02*
X84350000Y-45250000D01*
G04 #@! TO.N,Net-(IC2-Pad9)*
X84525000Y-48025000D02*
X84525000Y-46875000D01*
X85500000Y-49000000D02*
X84525000Y-48025000D01*
X85500000Y-54129769D02*
X85500000Y-49000000D01*
X87422550Y-56052319D02*
X85500000Y-54129769D01*
X87422550Y-72668145D02*
X87422550Y-56052319D01*
X91808150Y-77053745D02*
X87422550Y-72668145D01*
G04 #@! TO.N,Net-(IC2-Pad8)*
X86872540Y-73886900D02*
X91079708Y-78094068D01*
X86872540Y-56280140D02*
X86872540Y-73886900D01*
X84525000Y-53932600D02*
X86872540Y-56280140D01*
X84525000Y-52625000D02*
X84525000Y-53932600D01*
G04 #@! TO.N,Net-(IC2-Pad7)*
X86322530Y-75105655D02*
X90351266Y-79134391D01*
X86322530Y-56507960D02*
X86322530Y-75105655D01*
X83875000Y-52625000D02*
X83875000Y-54060430D01*
X83875000Y-54060430D02*
X86322530Y-56507960D01*
G04 #@! TO.N,Net-(IC2-Pad6)*
X85772520Y-76324410D02*
X89622824Y-80174714D01*
X85772520Y-57500000D02*
X85772520Y-76324410D01*
X85772518Y-57499998D02*
X85772520Y-57500000D01*
X85772518Y-56735778D02*
X85772518Y-57499998D01*
X83225000Y-52625000D02*
X83225000Y-54188260D01*
X83225000Y-54188260D02*
X85772518Y-56735778D01*
G04 #@! TO.N,Net-(IC2-Pad5)*
X85222510Y-77543165D02*
X88894382Y-81215037D01*
X85222510Y-56963600D02*
X85222510Y-77543165D01*
X82575000Y-52625000D02*
X82575000Y-54316090D01*
X82575000Y-54316090D02*
X85222510Y-56963600D01*
G04 #@! TO.N,Net-(IC3-Pad5)*
X21675000Y-45465000D02*
X21675000Y-46875000D01*
X20299980Y-44089980D02*
X21675000Y-45465000D01*
X15067420Y-69011878D02*
X15067420Y-55222580D01*
X10146523Y-73932775D02*
X15067420Y-69011878D01*
X15067420Y-55222580D02*
X17460000Y-52830000D01*
X17460000Y-52830000D02*
X17460000Y-45884336D01*
X17460000Y-45884336D02*
X19254356Y-44089980D01*
X19254356Y-44089980D02*
X20299980Y-44089980D01*
G04 #@! TO.N,Net-(IC3-Pad6)*
X21025000Y-45597170D02*
X21025000Y-46875000D01*
X20067821Y-44639990D02*
X21025000Y-45597170D01*
X15617430Y-70230633D02*
X15617430Y-55452570D01*
X10874965Y-74973098D02*
X15617430Y-70230633D01*
X15617430Y-55452570D02*
X18020000Y-53050000D01*
X18020000Y-53050000D02*
X18020000Y-46102167D01*
X18020000Y-46102167D02*
X19482177Y-44639990D01*
X19482177Y-44639990D02*
X20067821Y-44639990D01*
G04 #@! TO.N,Net-(IC3-Pad7)*
X11603408Y-76013421D02*
X16167440Y-71449389D01*
X16167440Y-57000000D02*
X16167440Y-55682560D01*
X20375000Y-45725000D02*
X19840000Y-45190000D01*
X20375000Y-46875000D02*
X20375000Y-45725000D01*
X19709998Y-45190000D02*
X18570000Y-46329998D01*
X19840000Y-45190000D02*
X19709998Y-45190000D01*
X18570000Y-53280000D02*
X18490000Y-53360000D01*
X18570000Y-46329998D02*
X18570000Y-53280000D01*
X16167440Y-55682560D02*
X18490000Y-53360000D01*
X18490000Y-53360000D02*
X18574989Y-53275011D01*
X16167438Y-57000002D02*
X16167440Y-57000000D01*
X16167438Y-71449387D02*
X16167438Y-57000002D01*
X16167440Y-71449389D02*
X16167438Y-71449387D01*
G04 #@! TO.N,Net-(IC3-Pad8)*
X16717450Y-72668145D02*
X12331850Y-77053745D01*
X19124999Y-48625001D02*
X19124999Y-53513681D01*
X19124999Y-53513681D02*
X19116319Y-53513681D01*
X19725000Y-48025000D02*
X19124999Y-48625001D01*
X19116319Y-53513681D02*
X16717450Y-55912550D01*
X19725000Y-46875000D02*
X19725000Y-48025000D01*
X16717450Y-55912550D02*
X16717450Y-72668145D01*
G04 #@! TO.N,Net-(IC3-Pad9)*
X19725000Y-53691510D02*
X19725000Y-52625000D01*
X17267460Y-56149050D02*
X19725000Y-53691510D01*
X13060292Y-78094068D02*
X17267460Y-73886900D01*
X17267460Y-73886900D02*
X17267460Y-56149050D01*
G04 #@! TO.N,Net-(IC3-Pad10)*
X20375000Y-53647169D02*
X20375000Y-52625000D01*
X20375000Y-53647169D02*
X20375000Y-53819340D01*
X17817470Y-56376870D02*
X18000000Y-56194340D01*
X17817470Y-75105655D02*
X17817470Y-56376870D01*
X13788734Y-79134391D02*
X17817470Y-75105655D01*
X20375000Y-53819340D02*
X18000000Y-56194340D01*
X18000000Y-56194340D02*
X17944340Y-56250000D01*
G04 #@! TO.N,Net-(IC3-Pad11)*
X21025000Y-53947170D02*
X21025000Y-52625000D01*
X18367480Y-56604690D02*
X21025000Y-53947170D01*
X14517176Y-80174714D02*
X18367480Y-76324410D01*
X18367480Y-76324410D02*
X18367480Y-56604690D01*
G04 #@! TO.N,Net-(IC3-Pad12)*
X21675000Y-54075000D02*
X21675000Y-52625000D01*
X18917490Y-56832510D02*
X21675000Y-54075000D01*
X15245618Y-81215037D02*
X18917490Y-77543165D01*
X18917490Y-77543165D02*
X18917490Y-56832510D01*
D31*
G04 #@! TO.N,SDO*
X23500011Y-54200011D02*
X23513601Y-54200011D01*
X22975000Y-52625000D02*
X22975000Y-53675000D01*
X22975000Y-53675000D02*
X23500011Y-54200011D01*
X23513601Y-54200011D02*
X24959989Y-54200011D01*
X27640000Y-51520000D02*
X27640000Y-51506412D01*
X24959989Y-54200011D02*
X27640000Y-51520000D01*
X27640000Y-51500000D02*
X33399990Y-45740010D01*
X27640000Y-51520000D02*
X27640000Y-51500000D01*
X33399990Y-45740010D02*
X48420010Y-45740010D01*
X48420010Y-45740010D02*
X48740000Y-46060000D01*
X52850000Y-43851410D02*
X52970020Y-43731390D01*
X52790000Y-44360000D02*
X52850000Y-44300000D01*
X52850000Y-44300000D02*
X52850000Y-43851410D01*
X52970020Y-21189980D02*
X52970020Y-21700000D01*
X58950000Y-15210000D02*
X52970020Y-21189980D01*
X60500000Y-15210000D02*
X58950000Y-15210000D01*
X52970020Y-43731390D02*
X52970020Y-21700000D01*
G04 #@! TO.N,Net-(IC3-Pad15)*
X26000000Y-50850000D02*
X26000000Y-49850000D01*
X26000000Y-52510002D02*
X26000000Y-50850000D01*
X24760001Y-53750001D02*
X26000000Y-52510002D01*
X23700001Y-53750001D02*
X24760001Y-53750001D01*
X23625000Y-53675000D02*
X23700001Y-53750001D01*
X23625000Y-52625000D02*
X23625000Y-53675000D01*
G04 #@! TD*
D34*
G04 #@! TO.N,Net-(D1-Pad2)*
G36*
X26866860Y-59021412D02*
X26823560Y-59239100D01*
X26823560Y-60739100D01*
X26872843Y-60986865D01*
X27013191Y-61196909D01*
X27223235Y-61337257D01*
X27471000Y-61386540D01*
X28780907Y-61386540D01*
X28780891Y-61904100D01*
X28506750Y-61904100D01*
X28348000Y-62062850D01*
X28348000Y-63162100D01*
X28368000Y-63162100D01*
X28368000Y-63416100D01*
X28348000Y-63416100D01*
X28348000Y-64515350D01*
X28506750Y-64674100D01*
X28780807Y-64674100D01*
X28780804Y-64748620D01*
X27471000Y-64748620D01*
X27223235Y-64797903D01*
X27013191Y-64938251D01*
X26872843Y-65148295D01*
X26823560Y-65396060D01*
X26823560Y-66896060D01*
X26872843Y-67143825D01*
X27013191Y-67353869D01*
X27223235Y-67494217D01*
X27471000Y-67543500D01*
X28780719Y-67543500D01*
X28780704Y-68061060D01*
X28506750Y-68061060D01*
X28348000Y-68219810D01*
X28348000Y-69319060D01*
X28368000Y-69319060D01*
X28368000Y-69573060D01*
X28348000Y-69573060D01*
X28348000Y-70672310D01*
X28506750Y-70831060D01*
X28780619Y-70831060D01*
X28780617Y-70905580D01*
X27471000Y-70905580D01*
X27223235Y-70954863D01*
X27013191Y-71095211D01*
X26872843Y-71305255D01*
X26823560Y-71553020D01*
X26823560Y-73053020D01*
X26872843Y-73300785D01*
X27013191Y-73510829D01*
X27223235Y-73651177D01*
X27471000Y-73700460D01*
X28780532Y-73700460D01*
X28780516Y-74218020D01*
X28506750Y-74218020D01*
X28348000Y-74376770D01*
X28348000Y-75476020D01*
X28368000Y-75476020D01*
X28368000Y-75730020D01*
X28348000Y-75730020D01*
X28348000Y-76829270D01*
X28506750Y-76988020D01*
X28780432Y-76988020D01*
X28780429Y-77062540D01*
X27471000Y-77062540D01*
X27223235Y-77111823D01*
X27013191Y-77252171D01*
X26872843Y-77462215D01*
X26823560Y-77709980D01*
X26823560Y-79209980D01*
X26872843Y-79457745D01*
X27013191Y-79667789D01*
X27223235Y-79808137D01*
X27471000Y-79857420D01*
X28780344Y-79857420D01*
X28780329Y-80374980D01*
X28506750Y-80374980D01*
X28348000Y-80533730D01*
X28348000Y-81632980D01*
X28368000Y-81632980D01*
X28368000Y-81886980D01*
X28348000Y-81886980D01*
X28348000Y-82986230D01*
X28506750Y-83144980D01*
X28780244Y-83144980D01*
X28780242Y-83219500D01*
X27471000Y-83219500D01*
X27223235Y-83268783D01*
X27013191Y-83409131D01*
X26872843Y-83619175D01*
X26823560Y-83866940D01*
X26823560Y-85366940D01*
X26872843Y-85614705D01*
X27013191Y-85824749D01*
X27223235Y-85965097D01*
X27471000Y-86014380D01*
X28780157Y-86014380D01*
X28780141Y-86531940D01*
X28506750Y-86531940D01*
X28348000Y-86690690D01*
X28348000Y-87789940D01*
X28368000Y-87789940D01*
X28368000Y-88043940D01*
X28348000Y-88043940D01*
X28348000Y-89143190D01*
X28506750Y-89301940D01*
X28780057Y-89301940D01*
X28780054Y-89376460D01*
X27471000Y-89376460D01*
X27223235Y-89425743D01*
X27013191Y-89566091D01*
X26872843Y-89776135D01*
X26823560Y-90023900D01*
X26823560Y-91523900D01*
X26872843Y-91771665D01*
X27013191Y-91981709D01*
X27223235Y-92122057D01*
X27471000Y-92171340D01*
X28916997Y-92171340D01*
X28918826Y-92688900D01*
X28506750Y-92688900D01*
X28348000Y-92847650D01*
X28348000Y-93946900D01*
X28368000Y-93946900D01*
X28368000Y-94200900D01*
X28348000Y-94200900D01*
X28348000Y-94220900D01*
X28094000Y-94220900D01*
X28094000Y-94200900D01*
X26994750Y-94200900D01*
X26836000Y-94359650D01*
X26836000Y-94950209D01*
X26878992Y-95054000D01*
X25121000Y-95054000D01*
X25121000Y-93197591D01*
X26836000Y-93197591D01*
X26836000Y-93788150D01*
X26994750Y-93946900D01*
X28094000Y-93946900D01*
X28094000Y-92847650D01*
X27935250Y-92688900D01*
X27344690Y-92688900D01*
X27111301Y-92785573D01*
X26932673Y-92964202D01*
X26836000Y-93197591D01*
X25121000Y-93197591D01*
X25121000Y-88202690D01*
X26836000Y-88202690D01*
X26836000Y-88793249D01*
X26932673Y-89026638D01*
X27111301Y-89205267D01*
X27344690Y-89301940D01*
X27935250Y-89301940D01*
X28094000Y-89143190D01*
X28094000Y-88043940D01*
X26994750Y-88043940D01*
X26836000Y-88202690D01*
X25121000Y-88202690D01*
X25121000Y-87040631D01*
X26836000Y-87040631D01*
X26836000Y-87631190D01*
X26994750Y-87789940D01*
X28094000Y-87789940D01*
X28094000Y-86690690D01*
X27935250Y-86531940D01*
X27344690Y-86531940D01*
X27111301Y-86628613D01*
X26932673Y-86807242D01*
X26836000Y-87040631D01*
X25121000Y-87040631D01*
X25121000Y-82045730D01*
X26836000Y-82045730D01*
X26836000Y-82636289D01*
X26932673Y-82869678D01*
X27111301Y-83048307D01*
X27344690Y-83144980D01*
X27935250Y-83144980D01*
X28094000Y-82986230D01*
X28094000Y-81886980D01*
X26994750Y-81886980D01*
X26836000Y-82045730D01*
X25121000Y-82045730D01*
X25121000Y-80883671D01*
X26836000Y-80883671D01*
X26836000Y-81474230D01*
X26994750Y-81632980D01*
X28094000Y-81632980D01*
X28094000Y-80533730D01*
X27935250Y-80374980D01*
X27344690Y-80374980D01*
X27111301Y-80471653D01*
X26932673Y-80650282D01*
X26836000Y-80883671D01*
X25121000Y-80883671D01*
X25121000Y-75888770D01*
X26836000Y-75888770D01*
X26836000Y-76479329D01*
X26932673Y-76712718D01*
X27111301Y-76891347D01*
X27344690Y-76988020D01*
X27935250Y-76988020D01*
X28094000Y-76829270D01*
X28094000Y-75730020D01*
X26994750Y-75730020D01*
X26836000Y-75888770D01*
X25121000Y-75888770D01*
X25121000Y-74726711D01*
X26836000Y-74726711D01*
X26836000Y-75317270D01*
X26994750Y-75476020D01*
X28094000Y-75476020D01*
X28094000Y-74376770D01*
X27935250Y-74218020D01*
X27344690Y-74218020D01*
X27111301Y-74314693D01*
X26932673Y-74493322D01*
X26836000Y-74726711D01*
X25121000Y-74726711D01*
X25121000Y-72758946D01*
X25408036Y-72856892D01*
X25888423Y-72826176D01*
X26189575Y-72701435D01*
X26236000Y-72478587D01*
X25571018Y-71813605D01*
X25556876Y-71827748D01*
X25377271Y-71648143D01*
X25391413Y-71634000D01*
X25377271Y-71619858D01*
X25423128Y-71574000D01*
X25718908Y-71574000D01*
X25764766Y-71619858D01*
X25750623Y-71634000D01*
X26415605Y-72298982D01*
X26638453Y-72252557D01*
X26793910Y-71796982D01*
X26763194Y-71316595D01*
X26638453Y-71015443D01*
X26613066Y-71010154D01*
X26781018Y-70604684D01*
X26781018Y-70123316D01*
X26618851Y-69731810D01*
X26836000Y-69731810D01*
X26836000Y-70322369D01*
X26932673Y-70555758D01*
X27111301Y-70734387D01*
X27344690Y-70831060D01*
X27935250Y-70831060D01*
X28094000Y-70672310D01*
X28094000Y-69573060D01*
X26994750Y-69573060D01*
X26836000Y-69731810D01*
X26618851Y-69731810D01*
X26617687Y-69729000D01*
X26781018Y-69334684D01*
X26781018Y-68853316D01*
X26663562Y-68569751D01*
X26836000Y-68569751D01*
X26836000Y-69160310D01*
X26994750Y-69319060D01*
X28094000Y-69319060D01*
X28094000Y-68219810D01*
X27935250Y-68061060D01*
X27344690Y-68061060D01*
X27111301Y-68157733D01*
X26932673Y-68336362D01*
X26836000Y-68569751D01*
X26663562Y-68569751D01*
X26617687Y-68459000D01*
X26781018Y-68064684D01*
X26781018Y-67583316D01*
X26617687Y-67189000D01*
X26781018Y-66794684D01*
X26781018Y-66313316D01*
X26617687Y-65919000D01*
X26781018Y-65524684D01*
X26781018Y-65043316D01*
X26617687Y-64649000D01*
X26781018Y-64254684D01*
X26781018Y-63773316D01*
X26698811Y-63574850D01*
X26836000Y-63574850D01*
X26836000Y-64165409D01*
X26932673Y-64398798D01*
X27111301Y-64577427D01*
X27344690Y-64674100D01*
X27935250Y-64674100D01*
X28094000Y-64515350D01*
X28094000Y-63416100D01*
X26994750Y-63416100D01*
X26836000Y-63574850D01*
X26698811Y-63574850D01*
X26617687Y-63379000D01*
X26781018Y-62984684D01*
X26781018Y-62503316D01*
X26743522Y-62412791D01*
X26836000Y-62412791D01*
X26836000Y-63003350D01*
X26994750Y-63162100D01*
X28094000Y-63162100D01*
X28094000Y-62062850D01*
X27935250Y-61904100D01*
X27344690Y-61904100D01*
X27111301Y-62000773D01*
X26932673Y-62179402D01*
X26836000Y-62412791D01*
X26743522Y-62412791D01*
X26617687Y-62109000D01*
X26781018Y-61714684D01*
X26781018Y-61233316D01*
X26713086Y-61069313D01*
X26781018Y-60905310D01*
X26781018Y-60489750D01*
X26622268Y-60331000D01*
X25973454Y-60331000D01*
X25811702Y-60264000D01*
X25424018Y-60264000D01*
X25424018Y-60077000D01*
X25444018Y-60077000D01*
X25444018Y-60057000D01*
X25698018Y-60057000D01*
X25698018Y-60077000D01*
X26622268Y-60077000D01*
X26781018Y-59918250D01*
X26781018Y-59502690D01*
X26684345Y-59269301D01*
X26505716Y-59090673D01*
X26333553Y-59019361D01*
X26866860Y-59021412D01*
X26866860Y-59021412D01*
G37*
X26866860Y-59021412D02*
X26823560Y-59239100D01*
X26823560Y-60739100D01*
X26872843Y-60986865D01*
X27013191Y-61196909D01*
X27223235Y-61337257D01*
X27471000Y-61386540D01*
X28780907Y-61386540D01*
X28780891Y-61904100D01*
X28506750Y-61904100D01*
X28348000Y-62062850D01*
X28348000Y-63162100D01*
X28368000Y-63162100D01*
X28368000Y-63416100D01*
X28348000Y-63416100D01*
X28348000Y-64515350D01*
X28506750Y-64674100D01*
X28780807Y-64674100D01*
X28780804Y-64748620D01*
X27471000Y-64748620D01*
X27223235Y-64797903D01*
X27013191Y-64938251D01*
X26872843Y-65148295D01*
X26823560Y-65396060D01*
X26823560Y-66896060D01*
X26872843Y-67143825D01*
X27013191Y-67353869D01*
X27223235Y-67494217D01*
X27471000Y-67543500D01*
X28780719Y-67543500D01*
X28780704Y-68061060D01*
X28506750Y-68061060D01*
X28348000Y-68219810D01*
X28348000Y-69319060D01*
X28368000Y-69319060D01*
X28368000Y-69573060D01*
X28348000Y-69573060D01*
X28348000Y-70672310D01*
X28506750Y-70831060D01*
X28780619Y-70831060D01*
X28780617Y-70905580D01*
X27471000Y-70905580D01*
X27223235Y-70954863D01*
X27013191Y-71095211D01*
X26872843Y-71305255D01*
X26823560Y-71553020D01*
X26823560Y-73053020D01*
X26872843Y-73300785D01*
X27013191Y-73510829D01*
X27223235Y-73651177D01*
X27471000Y-73700460D01*
X28780532Y-73700460D01*
X28780516Y-74218020D01*
X28506750Y-74218020D01*
X28348000Y-74376770D01*
X28348000Y-75476020D01*
X28368000Y-75476020D01*
X28368000Y-75730020D01*
X28348000Y-75730020D01*
X28348000Y-76829270D01*
X28506750Y-76988020D01*
X28780432Y-76988020D01*
X28780429Y-77062540D01*
X27471000Y-77062540D01*
X27223235Y-77111823D01*
X27013191Y-77252171D01*
X26872843Y-77462215D01*
X26823560Y-77709980D01*
X26823560Y-79209980D01*
X26872843Y-79457745D01*
X27013191Y-79667789D01*
X27223235Y-79808137D01*
X27471000Y-79857420D01*
X28780344Y-79857420D01*
X28780329Y-80374980D01*
X28506750Y-80374980D01*
X28348000Y-80533730D01*
X28348000Y-81632980D01*
X28368000Y-81632980D01*
X28368000Y-81886980D01*
X28348000Y-81886980D01*
X28348000Y-82986230D01*
X28506750Y-83144980D01*
X28780244Y-83144980D01*
X28780242Y-83219500D01*
X27471000Y-83219500D01*
X27223235Y-83268783D01*
X27013191Y-83409131D01*
X26872843Y-83619175D01*
X26823560Y-83866940D01*
X26823560Y-85366940D01*
X26872843Y-85614705D01*
X27013191Y-85824749D01*
X27223235Y-85965097D01*
X27471000Y-86014380D01*
X28780157Y-86014380D01*
X28780141Y-86531940D01*
X28506750Y-86531940D01*
X28348000Y-86690690D01*
X28348000Y-87789940D01*
X28368000Y-87789940D01*
X28368000Y-88043940D01*
X28348000Y-88043940D01*
X28348000Y-89143190D01*
X28506750Y-89301940D01*
X28780057Y-89301940D01*
X28780054Y-89376460D01*
X27471000Y-89376460D01*
X27223235Y-89425743D01*
X27013191Y-89566091D01*
X26872843Y-89776135D01*
X26823560Y-90023900D01*
X26823560Y-91523900D01*
X26872843Y-91771665D01*
X27013191Y-91981709D01*
X27223235Y-92122057D01*
X27471000Y-92171340D01*
X28916997Y-92171340D01*
X28918826Y-92688900D01*
X28506750Y-92688900D01*
X28348000Y-92847650D01*
X28348000Y-93946900D01*
X28368000Y-93946900D01*
X28368000Y-94200900D01*
X28348000Y-94200900D01*
X28348000Y-94220900D01*
X28094000Y-94220900D01*
X28094000Y-94200900D01*
X26994750Y-94200900D01*
X26836000Y-94359650D01*
X26836000Y-94950209D01*
X26878992Y-95054000D01*
X25121000Y-95054000D01*
X25121000Y-93197591D01*
X26836000Y-93197591D01*
X26836000Y-93788150D01*
X26994750Y-93946900D01*
X28094000Y-93946900D01*
X28094000Y-92847650D01*
X27935250Y-92688900D01*
X27344690Y-92688900D01*
X27111301Y-92785573D01*
X26932673Y-92964202D01*
X26836000Y-93197591D01*
X25121000Y-93197591D01*
X25121000Y-88202690D01*
X26836000Y-88202690D01*
X26836000Y-88793249D01*
X26932673Y-89026638D01*
X27111301Y-89205267D01*
X27344690Y-89301940D01*
X27935250Y-89301940D01*
X28094000Y-89143190D01*
X28094000Y-88043940D01*
X26994750Y-88043940D01*
X26836000Y-88202690D01*
X25121000Y-88202690D01*
X25121000Y-87040631D01*
X26836000Y-87040631D01*
X26836000Y-87631190D01*
X26994750Y-87789940D01*
X28094000Y-87789940D01*
X28094000Y-86690690D01*
X27935250Y-86531940D01*
X27344690Y-86531940D01*
X27111301Y-86628613D01*
X26932673Y-86807242D01*
X26836000Y-87040631D01*
X25121000Y-87040631D01*
X25121000Y-82045730D01*
X26836000Y-82045730D01*
X26836000Y-82636289D01*
X26932673Y-82869678D01*
X27111301Y-83048307D01*
X27344690Y-83144980D01*
X27935250Y-83144980D01*
X28094000Y-82986230D01*
X28094000Y-81886980D01*
X26994750Y-81886980D01*
X26836000Y-82045730D01*
X25121000Y-82045730D01*
X25121000Y-80883671D01*
X26836000Y-80883671D01*
X26836000Y-81474230D01*
X26994750Y-81632980D01*
X28094000Y-81632980D01*
X28094000Y-80533730D01*
X27935250Y-80374980D01*
X27344690Y-80374980D01*
X27111301Y-80471653D01*
X26932673Y-80650282D01*
X26836000Y-80883671D01*
X25121000Y-80883671D01*
X25121000Y-75888770D01*
X26836000Y-75888770D01*
X26836000Y-76479329D01*
X26932673Y-76712718D01*
X27111301Y-76891347D01*
X27344690Y-76988020D01*
X27935250Y-76988020D01*
X28094000Y-76829270D01*
X28094000Y-75730020D01*
X26994750Y-75730020D01*
X26836000Y-75888770D01*
X25121000Y-75888770D01*
X25121000Y-74726711D01*
X26836000Y-74726711D01*
X26836000Y-75317270D01*
X26994750Y-75476020D01*
X28094000Y-75476020D01*
X28094000Y-74376770D01*
X27935250Y-74218020D01*
X27344690Y-74218020D01*
X27111301Y-74314693D01*
X26932673Y-74493322D01*
X26836000Y-74726711D01*
X25121000Y-74726711D01*
X25121000Y-72758946D01*
X25408036Y-72856892D01*
X25888423Y-72826176D01*
X26189575Y-72701435D01*
X26236000Y-72478587D01*
X25571018Y-71813605D01*
X25556876Y-71827748D01*
X25377271Y-71648143D01*
X25391413Y-71634000D01*
X25377271Y-71619858D01*
X25423128Y-71574000D01*
X25718908Y-71574000D01*
X25764766Y-71619858D01*
X25750623Y-71634000D01*
X26415605Y-72298982D01*
X26638453Y-72252557D01*
X26793910Y-71796982D01*
X26763194Y-71316595D01*
X26638453Y-71015443D01*
X26613066Y-71010154D01*
X26781018Y-70604684D01*
X26781018Y-70123316D01*
X26618851Y-69731810D01*
X26836000Y-69731810D01*
X26836000Y-70322369D01*
X26932673Y-70555758D01*
X27111301Y-70734387D01*
X27344690Y-70831060D01*
X27935250Y-70831060D01*
X28094000Y-70672310D01*
X28094000Y-69573060D01*
X26994750Y-69573060D01*
X26836000Y-69731810D01*
X26618851Y-69731810D01*
X26617687Y-69729000D01*
X26781018Y-69334684D01*
X26781018Y-68853316D01*
X26663562Y-68569751D01*
X26836000Y-68569751D01*
X26836000Y-69160310D01*
X26994750Y-69319060D01*
X28094000Y-69319060D01*
X28094000Y-68219810D01*
X27935250Y-68061060D01*
X27344690Y-68061060D01*
X27111301Y-68157733D01*
X26932673Y-68336362D01*
X26836000Y-68569751D01*
X26663562Y-68569751D01*
X26617687Y-68459000D01*
X26781018Y-68064684D01*
X26781018Y-67583316D01*
X26617687Y-67189000D01*
X26781018Y-66794684D01*
X26781018Y-66313316D01*
X26617687Y-65919000D01*
X26781018Y-65524684D01*
X26781018Y-65043316D01*
X26617687Y-64649000D01*
X26781018Y-64254684D01*
X26781018Y-63773316D01*
X26698811Y-63574850D01*
X26836000Y-63574850D01*
X26836000Y-64165409D01*
X26932673Y-64398798D01*
X27111301Y-64577427D01*
X27344690Y-64674100D01*
X27935250Y-64674100D01*
X28094000Y-64515350D01*
X28094000Y-63416100D01*
X26994750Y-63416100D01*
X26836000Y-63574850D01*
X26698811Y-63574850D01*
X26617687Y-63379000D01*
X26781018Y-62984684D01*
X26781018Y-62503316D01*
X26743522Y-62412791D01*
X26836000Y-62412791D01*
X26836000Y-63003350D01*
X26994750Y-63162100D01*
X28094000Y-63162100D01*
X28094000Y-62062850D01*
X27935250Y-61904100D01*
X27344690Y-61904100D01*
X27111301Y-62000773D01*
X26932673Y-62179402D01*
X26836000Y-62412791D01*
X26743522Y-62412791D01*
X26617687Y-62109000D01*
X26781018Y-61714684D01*
X26781018Y-61233316D01*
X26713086Y-61069313D01*
X26781018Y-60905310D01*
X26781018Y-60489750D01*
X26622268Y-60331000D01*
X25973454Y-60331000D01*
X25811702Y-60264000D01*
X25424018Y-60264000D01*
X25424018Y-60077000D01*
X25444018Y-60077000D01*
X25444018Y-60057000D01*
X25698018Y-60057000D01*
X25698018Y-60077000D01*
X26622268Y-60077000D01*
X26781018Y-59918250D01*
X26781018Y-59502690D01*
X26684345Y-59269301D01*
X26505716Y-59090673D01*
X26333553Y-59019361D01*
X26866860Y-59021412D01*
G04 #@! TO.N,Net-(D17-Pad2)*
G36*
X34057207Y-59014174D02*
X33872522Y-59090673D01*
X33693893Y-59269301D01*
X33597220Y-59502690D01*
X33597220Y-59918250D01*
X33755970Y-60077000D01*
X34680220Y-60077000D01*
X34680220Y-60057000D01*
X34934220Y-60057000D01*
X34934220Y-60077000D01*
X34954220Y-60077000D01*
X34954220Y-60264000D01*
X34566536Y-60264000D01*
X34404784Y-60331000D01*
X33755970Y-60331000D01*
X33597220Y-60489750D01*
X33597220Y-60905310D01*
X33665152Y-61069313D01*
X33597220Y-61233316D01*
X33597220Y-61714684D01*
X33760551Y-62109000D01*
X33597220Y-62503316D01*
X33597220Y-62984684D01*
X33760551Y-63379000D01*
X33597220Y-63773316D01*
X33597220Y-64254684D01*
X33760551Y-64649000D01*
X33597220Y-65043316D01*
X33597220Y-65524684D01*
X33760551Y-65919000D01*
X33597220Y-66313316D01*
X33597220Y-66794684D01*
X33760551Y-67189000D01*
X33597220Y-67583316D01*
X33597220Y-68064684D01*
X33760551Y-68459000D01*
X33597220Y-68853316D01*
X33597220Y-69334684D01*
X33760551Y-69729000D01*
X33597220Y-70123316D01*
X33597220Y-70604684D01*
X33765172Y-71010154D01*
X33739785Y-71015443D01*
X33584328Y-71471018D01*
X33615044Y-71951405D01*
X33739785Y-72252557D01*
X33962633Y-72298982D01*
X34627615Y-71634000D01*
X34613473Y-71619858D01*
X34659330Y-71574000D01*
X34955110Y-71574000D01*
X35000968Y-71619858D01*
X34986825Y-71634000D01*
X35000968Y-71648143D01*
X34821363Y-71827748D01*
X34807220Y-71813605D01*
X34142238Y-72478587D01*
X34188663Y-72701435D01*
X34644238Y-72856892D01*
X35124625Y-72826176D01*
X35258881Y-72770565D01*
X35259996Y-91090092D01*
X35246091Y-91160000D01*
X35260005Y-91229951D01*
X35260005Y-91229969D01*
X35271223Y-91286347D01*
X35301195Y-91437028D01*
X35301208Y-91437047D01*
X35301212Y-91437068D01*
X35306978Y-91445696D01*
X35313897Y-93403962D01*
X35301195Y-93422972D01*
X35246091Y-93700000D01*
X35260001Y-93769930D01*
X35260000Y-95054000D01*
X33500008Y-95054000D01*
X33543000Y-94950209D01*
X33543000Y-94359650D01*
X33384250Y-94200900D01*
X32285000Y-94200900D01*
X32285000Y-94220900D01*
X32031000Y-94220900D01*
X32031000Y-94200900D01*
X32011000Y-94200900D01*
X32011000Y-93946900D01*
X32031000Y-93946900D01*
X32031000Y-92847650D01*
X32285000Y-92847650D01*
X32285000Y-93946900D01*
X33384250Y-93946900D01*
X33543000Y-93788150D01*
X33543000Y-93197591D01*
X33446327Y-92964202D01*
X33267699Y-92785573D01*
X33034310Y-92688900D01*
X32443750Y-92688900D01*
X32285000Y-92847650D01*
X32031000Y-92847650D01*
X31872250Y-92688900D01*
X31501159Y-92688900D01*
X31502982Y-92171340D01*
X32908000Y-92171340D01*
X33155765Y-92122057D01*
X33365809Y-91981709D01*
X33506157Y-91771665D01*
X33555440Y-91523900D01*
X33555440Y-90023900D01*
X33506157Y-89776135D01*
X33365809Y-89566091D01*
X33155765Y-89425743D01*
X32908000Y-89376460D01*
X31599891Y-89376460D01*
X31599887Y-89301940D01*
X31872250Y-89301940D01*
X32031000Y-89143190D01*
X32031000Y-88043940D01*
X32285000Y-88043940D01*
X32285000Y-89143190D01*
X32443750Y-89301940D01*
X33034310Y-89301940D01*
X33267699Y-89205267D01*
X33446327Y-89026638D01*
X33543000Y-88793249D01*
X33543000Y-88202690D01*
X33384250Y-88043940D01*
X32285000Y-88043940D01*
X32031000Y-88043940D01*
X32011000Y-88043940D01*
X32011000Y-87789940D01*
X32031000Y-87789940D01*
X32031000Y-86690690D01*
X32285000Y-86690690D01*
X32285000Y-87789940D01*
X33384250Y-87789940D01*
X33543000Y-87631190D01*
X33543000Y-87040631D01*
X33446327Y-86807242D01*
X33267699Y-86628613D01*
X33034310Y-86531940D01*
X32443750Y-86531940D01*
X32285000Y-86690690D01*
X32031000Y-86690690D01*
X31872250Y-86531940D01*
X31599718Y-86531940D01*
X31599686Y-86014380D01*
X32908000Y-86014380D01*
X33155765Y-85965097D01*
X33365809Y-85824749D01*
X33506157Y-85614705D01*
X33555440Y-85366940D01*
X33555440Y-83866940D01*
X33506157Y-83619175D01*
X33365809Y-83409131D01*
X33155765Y-83268783D01*
X32908000Y-83219500D01*
X31599516Y-83219500D01*
X31599512Y-83144980D01*
X31872250Y-83144980D01*
X32031000Y-82986230D01*
X32031000Y-81886980D01*
X32285000Y-81886980D01*
X32285000Y-82986230D01*
X32443750Y-83144980D01*
X33034310Y-83144980D01*
X33267699Y-83048307D01*
X33446327Y-82869678D01*
X33543000Y-82636289D01*
X33543000Y-82045730D01*
X33384250Y-81886980D01*
X32285000Y-81886980D01*
X32031000Y-81886980D01*
X32011000Y-81886980D01*
X32011000Y-81632980D01*
X32031000Y-81632980D01*
X32031000Y-80533730D01*
X32285000Y-80533730D01*
X32285000Y-81632980D01*
X33384250Y-81632980D01*
X33543000Y-81474230D01*
X33543000Y-80883671D01*
X33446327Y-80650282D01*
X33267699Y-80471653D01*
X33034310Y-80374980D01*
X32443750Y-80374980D01*
X32285000Y-80533730D01*
X32031000Y-80533730D01*
X31872250Y-80374980D01*
X31599343Y-80374980D01*
X31599312Y-79857420D01*
X32908000Y-79857420D01*
X33155765Y-79808137D01*
X33365809Y-79667789D01*
X33506157Y-79457745D01*
X33555440Y-79209980D01*
X33555440Y-77709980D01*
X33506157Y-77462215D01*
X33365809Y-77252171D01*
X33155765Y-77111823D01*
X32908000Y-77062540D01*
X31599142Y-77062540D01*
X31599137Y-76988020D01*
X31872250Y-76988020D01*
X32031000Y-76829270D01*
X32031000Y-75730020D01*
X32285000Y-75730020D01*
X32285000Y-76829270D01*
X32443750Y-76988020D01*
X33034310Y-76988020D01*
X33267699Y-76891347D01*
X33446327Y-76712718D01*
X33543000Y-76479329D01*
X33543000Y-75888770D01*
X33384250Y-75730020D01*
X32285000Y-75730020D01*
X32031000Y-75730020D01*
X32011000Y-75730020D01*
X32011000Y-75476020D01*
X32031000Y-75476020D01*
X32031000Y-74376770D01*
X32285000Y-74376770D01*
X32285000Y-75476020D01*
X33384250Y-75476020D01*
X33543000Y-75317270D01*
X33543000Y-74726711D01*
X33446327Y-74493322D01*
X33267699Y-74314693D01*
X33034310Y-74218020D01*
X32443750Y-74218020D01*
X32285000Y-74376770D01*
X32031000Y-74376770D01*
X31872250Y-74218020D01*
X31598968Y-74218020D01*
X31598937Y-73700460D01*
X32908000Y-73700460D01*
X33155765Y-73651177D01*
X33365809Y-73510829D01*
X33506157Y-73300785D01*
X33555440Y-73053020D01*
X33555440Y-71553020D01*
X33506157Y-71305255D01*
X33365809Y-71095211D01*
X33155765Y-70954863D01*
X32908000Y-70905580D01*
X31598767Y-70905580D01*
X31598762Y-70831060D01*
X31872250Y-70831060D01*
X32031000Y-70672310D01*
X32031000Y-69573060D01*
X32285000Y-69573060D01*
X32285000Y-70672310D01*
X32443750Y-70831060D01*
X33034310Y-70831060D01*
X33267699Y-70734387D01*
X33446327Y-70555758D01*
X33543000Y-70322369D01*
X33543000Y-69731810D01*
X33384250Y-69573060D01*
X32285000Y-69573060D01*
X32031000Y-69573060D01*
X32011000Y-69573060D01*
X32011000Y-69319060D01*
X32031000Y-69319060D01*
X32031000Y-68219810D01*
X32285000Y-68219810D01*
X32285000Y-69319060D01*
X33384250Y-69319060D01*
X33543000Y-69160310D01*
X33543000Y-68569751D01*
X33446327Y-68336362D01*
X33267699Y-68157733D01*
X33034310Y-68061060D01*
X32443750Y-68061060D01*
X32285000Y-68219810D01*
X32031000Y-68219810D01*
X31872250Y-68061060D01*
X31598594Y-68061060D01*
X31598562Y-67543500D01*
X32908000Y-67543500D01*
X33155765Y-67494217D01*
X33365809Y-67353869D01*
X33506157Y-67143825D01*
X33555440Y-66896060D01*
X33555440Y-65396060D01*
X33506157Y-65148295D01*
X33365809Y-64938251D01*
X33155765Y-64797903D01*
X32908000Y-64748620D01*
X31598392Y-64748620D01*
X31598387Y-64674100D01*
X31872250Y-64674100D01*
X32031000Y-64515350D01*
X32031000Y-63416100D01*
X32285000Y-63416100D01*
X32285000Y-64515350D01*
X32443750Y-64674100D01*
X33034310Y-64674100D01*
X33267699Y-64577427D01*
X33446327Y-64398798D01*
X33543000Y-64165409D01*
X33543000Y-63574850D01*
X33384250Y-63416100D01*
X32285000Y-63416100D01*
X32031000Y-63416100D01*
X32011000Y-63416100D01*
X32011000Y-63162100D01*
X32031000Y-63162100D01*
X32031000Y-62062850D01*
X32285000Y-62062850D01*
X32285000Y-63162100D01*
X33384250Y-63162100D01*
X33543000Y-63003350D01*
X33543000Y-62412791D01*
X33446327Y-62179402D01*
X33267699Y-62000773D01*
X33034310Y-61904100D01*
X32443750Y-61904100D01*
X32285000Y-62062850D01*
X32031000Y-62062850D01*
X31872250Y-61904100D01*
X31598219Y-61904100D01*
X31598187Y-61386540D01*
X32908000Y-61386540D01*
X33155765Y-61337257D01*
X33365809Y-61196909D01*
X33506157Y-60986865D01*
X33555440Y-60739100D01*
X33555440Y-59239100D01*
X33510317Y-59012248D01*
X34057207Y-59014174D01*
X34057207Y-59014174D01*
G37*
X34057207Y-59014174D02*
X33872522Y-59090673D01*
X33693893Y-59269301D01*
X33597220Y-59502690D01*
X33597220Y-59918250D01*
X33755970Y-60077000D01*
X34680220Y-60077000D01*
X34680220Y-60057000D01*
X34934220Y-60057000D01*
X34934220Y-60077000D01*
X34954220Y-60077000D01*
X34954220Y-60264000D01*
X34566536Y-60264000D01*
X34404784Y-60331000D01*
X33755970Y-60331000D01*
X33597220Y-60489750D01*
X33597220Y-60905310D01*
X33665152Y-61069313D01*
X33597220Y-61233316D01*
X33597220Y-61714684D01*
X33760551Y-62109000D01*
X33597220Y-62503316D01*
X33597220Y-62984684D01*
X33760551Y-63379000D01*
X33597220Y-63773316D01*
X33597220Y-64254684D01*
X33760551Y-64649000D01*
X33597220Y-65043316D01*
X33597220Y-65524684D01*
X33760551Y-65919000D01*
X33597220Y-66313316D01*
X33597220Y-66794684D01*
X33760551Y-67189000D01*
X33597220Y-67583316D01*
X33597220Y-68064684D01*
X33760551Y-68459000D01*
X33597220Y-68853316D01*
X33597220Y-69334684D01*
X33760551Y-69729000D01*
X33597220Y-70123316D01*
X33597220Y-70604684D01*
X33765172Y-71010154D01*
X33739785Y-71015443D01*
X33584328Y-71471018D01*
X33615044Y-71951405D01*
X33739785Y-72252557D01*
X33962633Y-72298982D01*
X34627615Y-71634000D01*
X34613473Y-71619858D01*
X34659330Y-71574000D01*
X34955110Y-71574000D01*
X35000968Y-71619858D01*
X34986825Y-71634000D01*
X35000968Y-71648143D01*
X34821363Y-71827748D01*
X34807220Y-71813605D01*
X34142238Y-72478587D01*
X34188663Y-72701435D01*
X34644238Y-72856892D01*
X35124625Y-72826176D01*
X35258881Y-72770565D01*
X35259996Y-91090092D01*
X35246091Y-91160000D01*
X35260005Y-91229951D01*
X35260005Y-91229969D01*
X35271223Y-91286347D01*
X35301195Y-91437028D01*
X35301208Y-91437047D01*
X35301212Y-91437068D01*
X35306978Y-91445696D01*
X35313897Y-93403962D01*
X35301195Y-93422972D01*
X35246091Y-93700000D01*
X35260001Y-93769930D01*
X35260000Y-95054000D01*
X33500008Y-95054000D01*
X33543000Y-94950209D01*
X33543000Y-94359650D01*
X33384250Y-94200900D01*
X32285000Y-94200900D01*
X32285000Y-94220900D01*
X32031000Y-94220900D01*
X32031000Y-94200900D01*
X32011000Y-94200900D01*
X32011000Y-93946900D01*
X32031000Y-93946900D01*
X32031000Y-92847650D01*
X32285000Y-92847650D01*
X32285000Y-93946900D01*
X33384250Y-93946900D01*
X33543000Y-93788150D01*
X33543000Y-93197591D01*
X33446327Y-92964202D01*
X33267699Y-92785573D01*
X33034310Y-92688900D01*
X32443750Y-92688900D01*
X32285000Y-92847650D01*
X32031000Y-92847650D01*
X31872250Y-92688900D01*
X31501159Y-92688900D01*
X31502982Y-92171340D01*
X32908000Y-92171340D01*
X33155765Y-92122057D01*
X33365809Y-91981709D01*
X33506157Y-91771665D01*
X33555440Y-91523900D01*
X33555440Y-90023900D01*
X33506157Y-89776135D01*
X33365809Y-89566091D01*
X33155765Y-89425743D01*
X32908000Y-89376460D01*
X31599891Y-89376460D01*
X31599887Y-89301940D01*
X31872250Y-89301940D01*
X32031000Y-89143190D01*
X32031000Y-88043940D01*
X32285000Y-88043940D01*
X32285000Y-89143190D01*
X32443750Y-89301940D01*
X33034310Y-89301940D01*
X33267699Y-89205267D01*
X33446327Y-89026638D01*
X33543000Y-88793249D01*
X33543000Y-88202690D01*
X33384250Y-88043940D01*
X32285000Y-88043940D01*
X32031000Y-88043940D01*
X32011000Y-88043940D01*
X32011000Y-87789940D01*
X32031000Y-87789940D01*
X32031000Y-86690690D01*
X32285000Y-86690690D01*
X32285000Y-87789940D01*
X33384250Y-87789940D01*
X33543000Y-87631190D01*
X33543000Y-87040631D01*
X33446327Y-86807242D01*
X33267699Y-86628613D01*
X33034310Y-86531940D01*
X32443750Y-86531940D01*
X32285000Y-86690690D01*
X32031000Y-86690690D01*
X31872250Y-86531940D01*
X31599718Y-86531940D01*
X31599686Y-86014380D01*
X32908000Y-86014380D01*
X33155765Y-85965097D01*
X33365809Y-85824749D01*
X33506157Y-85614705D01*
X33555440Y-85366940D01*
X33555440Y-83866940D01*
X33506157Y-83619175D01*
X33365809Y-83409131D01*
X33155765Y-83268783D01*
X32908000Y-83219500D01*
X31599516Y-83219500D01*
X31599512Y-83144980D01*
X31872250Y-83144980D01*
X32031000Y-82986230D01*
X32031000Y-81886980D01*
X32285000Y-81886980D01*
X32285000Y-82986230D01*
X32443750Y-83144980D01*
X33034310Y-83144980D01*
X33267699Y-83048307D01*
X33446327Y-82869678D01*
X33543000Y-82636289D01*
X33543000Y-82045730D01*
X33384250Y-81886980D01*
X32285000Y-81886980D01*
X32031000Y-81886980D01*
X32011000Y-81886980D01*
X32011000Y-81632980D01*
X32031000Y-81632980D01*
X32031000Y-80533730D01*
X32285000Y-80533730D01*
X32285000Y-81632980D01*
X33384250Y-81632980D01*
X33543000Y-81474230D01*
X33543000Y-80883671D01*
X33446327Y-80650282D01*
X33267699Y-80471653D01*
X33034310Y-80374980D01*
X32443750Y-80374980D01*
X32285000Y-80533730D01*
X32031000Y-80533730D01*
X31872250Y-80374980D01*
X31599343Y-80374980D01*
X31599312Y-79857420D01*
X32908000Y-79857420D01*
X33155765Y-79808137D01*
X33365809Y-79667789D01*
X33506157Y-79457745D01*
X33555440Y-79209980D01*
X33555440Y-77709980D01*
X33506157Y-77462215D01*
X33365809Y-77252171D01*
X33155765Y-77111823D01*
X32908000Y-77062540D01*
X31599142Y-77062540D01*
X31599137Y-76988020D01*
X31872250Y-76988020D01*
X32031000Y-76829270D01*
X32031000Y-75730020D01*
X32285000Y-75730020D01*
X32285000Y-76829270D01*
X32443750Y-76988020D01*
X33034310Y-76988020D01*
X33267699Y-76891347D01*
X33446327Y-76712718D01*
X33543000Y-76479329D01*
X33543000Y-75888770D01*
X33384250Y-75730020D01*
X32285000Y-75730020D01*
X32031000Y-75730020D01*
X32011000Y-75730020D01*
X32011000Y-75476020D01*
X32031000Y-75476020D01*
X32031000Y-74376770D01*
X32285000Y-74376770D01*
X32285000Y-75476020D01*
X33384250Y-75476020D01*
X33543000Y-75317270D01*
X33543000Y-74726711D01*
X33446327Y-74493322D01*
X33267699Y-74314693D01*
X33034310Y-74218020D01*
X32443750Y-74218020D01*
X32285000Y-74376770D01*
X32031000Y-74376770D01*
X31872250Y-74218020D01*
X31598968Y-74218020D01*
X31598937Y-73700460D01*
X32908000Y-73700460D01*
X33155765Y-73651177D01*
X33365809Y-73510829D01*
X33506157Y-73300785D01*
X33555440Y-73053020D01*
X33555440Y-71553020D01*
X33506157Y-71305255D01*
X33365809Y-71095211D01*
X33155765Y-70954863D01*
X32908000Y-70905580D01*
X31598767Y-70905580D01*
X31598762Y-70831060D01*
X31872250Y-70831060D01*
X32031000Y-70672310D01*
X32031000Y-69573060D01*
X32285000Y-69573060D01*
X32285000Y-70672310D01*
X32443750Y-70831060D01*
X33034310Y-70831060D01*
X33267699Y-70734387D01*
X33446327Y-70555758D01*
X33543000Y-70322369D01*
X33543000Y-69731810D01*
X33384250Y-69573060D01*
X32285000Y-69573060D01*
X32031000Y-69573060D01*
X32011000Y-69573060D01*
X32011000Y-69319060D01*
X32031000Y-69319060D01*
X32031000Y-68219810D01*
X32285000Y-68219810D01*
X32285000Y-69319060D01*
X33384250Y-69319060D01*
X33543000Y-69160310D01*
X33543000Y-68569751D01*
X33446327Y-68336362D01*
X33267699Y-68157733D01*
X33034310Y-68061060D01*
X32443750Y-68061060D01*
X32285000Y-68219810D01*
X32031000Y-68219810D01*
X31872250Y-68061060D01*
X31598594Y-68061060D01*
X31598562Y-67543500D01*
X32908000Y-67543500D01*
X33155765Y-67494217D01*
X33365809Y-67353869D01*
X33506157Y-67143825D01*
X33555440Y-66896060D01*
X33555440Y-65396060D01*
X33506157Y-65148295D01*
X33365809Y-64938251D01*
X33155765Y-64797903D01*
X32908000Y-64748620D01*
X31598392Y-64748620D01*
X31598387Y-64674100D01*
X31872250Y-64674100D01*
X32031000Y-64515350D01*
X32031000Y-63416100D01*
X32285000Y-63416100D01*
X32285000Y-64515350D01*
X32443750Y-64674100D01*
X33034310Y-64674100D01*
X33267699Y-64577427D01*
X33446327Y-64398798D01*
X33543000Y-64165409D01*
X33543000Y-63574850D01*
X33384250Y-63416100D01*
X32285000Y-63416100D01*
X32031000Y-63416100D01*
X32011000Y-63416100D01*
X32011000Y-63162100D01*
X32031000Y-63162100D01*
X32031000Y-62062850D01*
X32285000Y-62062850D01*
X32285000Y-63162100D01*
X33384250Y-63162100D01*
X33543000Y-63003350D01*
X33543000Y-62412791D01*
X33446327Y-62179402D01*
X33267699Y-62000773D01*
X33034310Y-61904100D01*
X32443750Y-61904100D01*
X32285000Y-62062850D01*
X32031000Y-62062850D01*
X31872250Y-61904100D01*
X31598219Y-61904100D01*
X31598187Y-61386540D01*
X32908000Y-61386540D01*
X33155765Y-61337257D01*
X33365809Y-61196909D01*
X33506157Y-60986865D01*
X33555440Y-60739100D01*
X33555440Y-59239100D01*
X33510317Y-59012248D01*
X34057207Y-59014174D01*
G04 #@! TO.N,Net-(D10-Pad2)*
G36*
X39681352Y-58997302D02*
X39636000Y-59106791D01*
X39636000Y-59697350D01*
X39794750Y-59856100D01*
X40894000Y-59856100D01*
X40894000Y-59836100D01*
X41148000Y-59836100D01*
X41148000Y-59856100D01*
X41168000Y-59856100D01*
X41168000Y-60110100D01*
X41148000Y-60110100D01*
X41148000Y-61209350D01*
X41306750Y-61368100D01*
X41580907Y-61368100D01*
X41580891Y-61885660D01*
X40271000Y-61885660D01*
X40023235Y-61934943D01*
X39813191Y-62075291D01*
X39672843Y-62285335D01*
X39623560Y-62533100D01*
X39623560Y-64033100D01*
X39672843Y-64280865D01*
X39808799Y-64484336D01*
X39732673Y-64560462D01*
X39636000Y-64793851D01*
X39636000Y-65384410D01*
X39794750Y-65543160D01*
X40894000Y-65543160D01*
X40894000Y-65523160D01*
X41148000Y-65523160D01*
X41148000Y-65543160D01*
X41168000Y-65543160D01*
X41168000Y-65797160D01*
X41148000Y-65797160D01*
X41148000Y-66896410D01*
X41306750Y-67055160D01*
X41580734Y-67055160D01*
X41580718Y-67572720D01*
X40271000Y-67572720D01*
X40023235Y-67622003D01*
X39813191Y-67762351D01*
X39672843Y-67972395D01*
X39623560Y-68220160D01*
X39623560Y-69720160D01*
X39672843Y-69967925D01*
X39807781Y-70169873D01*
X39732673Y-70244982D01*
X39636000Y-70478371D01*
X39636000Y-71068930D01*
X39794750Y-71227680D01*
X40894000Y-71227680D01*
X40894000Y-71207680D01*
X41148000Y-71207680D01*
X41148000Y-71227680D01*
X41168000Y-71227680D01*
X41168000Y-71481680D01*
X41148000Y-71481680D01*
X41148000Y-72580930D01*
X41306750Y-72739680D01*
X41580561Y-72739680D01*
X41580545Y-73257240D01*
X40271000Y-73257240D01*
X40023235Y-73306523D01*
X39813191Y-73446871D01*
X39672843Y-73656915D01*
X39623560Y-73904680D01*
X39623560Y-75404680D01*
X39672843Y-75652445D01*
X39808799Y-75855916D01*
X39732673Y-75932042D01*
X39636000Y-76165431D01*
X39636000Y-76755990D01*
X39794750Y-76914740D01*
X40894000Y-76914740D01*
X40894000Y-76894740D01*
X41148000Y-76894740D01*
X41148000Y-76914740D01*
X41168000Y-76914740D01*
X41168000Y-77168740D01*
X41148000Y-77168740D01*
X41148000Y-78267990D01*
X41306750Y-78426740D01*
X41580388Y-78426740D01*
X41580372Y-78944300D01*
X40271000Y-78944300D01*
X40023235Y-78993583D01*
X39813191Y-79133931D01*
X39672843Y-79343975D01*
X39623560Y-79591740D01*
X39623560Y-81091740D01*
X39672843Y-81339505D01*
X39802801Y-81534000D01*
X39672843Y-81728495D01*
X39623560Y-81976260D01*
X39623560Y-83476260D01*
X39672843Y-83724025D01*
X39813191Y-83934069D01*
X40023235Y-84074417D01*
X40271000Y-84123700D01*
X41580214Y-84123700D01*
X41580199Y-84641260D01*
X41306750Y-84641260D01*
X41148000Y-84800010D01*
X41148000Y-85899260D01*
X41168000Y-85899260D01*
X41168000Y-86153260D01*
X41148000Y-86153260D01*
X41148000Y-86173260D01*
X40894000Y-86173260D01*
X40894000Y-86153260D01*
X39794750Y-86153260D01*
X39636000Y-86312010D01*
X39636000Y-86902569D01*
X39732673Y-87135958D01*
X39808799Y-87212084D01*
X39672843Y-87415555D01*
X39623560Y-87663320D01*
X39623560Y-89163320D01*
X39672843Y-89411085D01*
X39813191Y-89621129D01*
X40023235Y-89761477D01*
X40271000Y-89810760D01*
X41580041Y-89810760D01*
X41580025Y-90328320D01*
X41306750Y-90328320D01*
X41148000Y-90487070D01*
X41148000Y-91586320D01*
X41168000Y-91586320D01*
X41168000Y-91840320D01*
X41148000Y-91840320D01*
X41148000Y-91860320D01*
X40894000Y-91860320D01*
X40894000Y-91840320D01*
X39794750Y-91840320D01*
X39636000Y-91999070D01*
X39636000Y-92589629D01*
X39732673Y-92823018D01*
X39807781Y-92898127D01*
X39672843Y-93100075D01*
X39623560Y-93347840D01*
X39623560Y-94847840D01*
X39672843Y-95095605D01*
X39813191Y-95305649D01*
X40023235Y-95445997D01*
X40271000Y-95495280D01*
X41571622Y-95495280D01*
X41572090Y-96012840D01*
X41306750Y-96012840D01*
X41148000Y-96171590D01*
X41148000Y-97270840D01*
X41168000Y-97270840D01*
X41168000Y-97524840D01*
X41148000Y-97524840D01*
X41148000Y-97544840D01*
X40894000Y-97544840D01*
X40894000Y-97524840D01*
X39794750Y-97524840D01*
X39636000Y-97683590D01*
X39636000Y-98274149D01*
X39732673Y-98507538D01*
X39808799Y-98583664D01*
X39672843Y-98787135D01*
X39623560Y-99034900D01*
X39623560Y-100534900D01*
X39672843Y-100782665D01*
X39813191Y-100992709D01*
X40023235Y-101133057D01*
X40271000Y-101182340D01*
X41576759Y-101182340D01*
X41577227Y-101699900D01*
X41306750Y-101699900D01*
X41148000Y-101858650D01*
X41148000Y-102957900D01*
X41168000Y-102957900D01*
X41168000Y-103211900D01*
X41148000Y-103211900D01*
X41148000Y-103231900D01*
X40894000Y-103231900D01*
X40894000Y-103211900D01*
X39794750Y-103211900D01*
X39636000Y-103370650D01*
X39636000Y-103961209D01*
X39678992Y-104065000D01*
X37911274Y-104065000D01*
X37914628Y-102208591D01*
X39636000Y-102208591D01*
X39636000Y-102799150D01*
X39794750Y-102957900D01*
X40894000Y-102957900D01*
X40894000Y-101858650D01*
X40735250Y-101699900D01*
X40144690Y-101699900D01*
X39911301Y-101796573D01*
X39732673Y-101975202D01*
X39636000Y-102208591D01*
X37914628Y-102208591D01*
X37924903Y-96521531D01*
X39636000Y-96521531D01*
X39636000Y-97112090D01*
X39794750Y-97270840D01*
X40894000Y-97270840D01*
X40894000Y-96171590D01*
X40735250Y-96012840D01*
X40144690Y-96012840D01*
X39911301Y-96109513D01*
X39732673Y-96288142D01*
X39636000Y-96521531D01*
X37924903Y-96521531D01*
X37929965Y-93719827D01*
X37933909Y-93700000D01*
X37930036Y-93680530D01*
X37930125Y-93631357D01*
X37890731Y-93431423D01*
X37898095Y-91340051D01*
X37911792Y-91271192D01*
X37919997Y-91229947D01*
X37919997Y-91229941D01*
X37933909Y-91160000D01*
X37920001Y-91090081D01*
X37920008Y-90837011D01*
X39636000Y-90837011D01*
X39636000Y-91427570D01*
X39794750Y-91586320D01*
X40894000Y-91586320D01*
X40894000Y-90487070D01*
X40735250Y-90328320D01*
X40144690Y-90328320D01*
X39911301Y-90424993D01*
X39732673Y-90603622D01*
X39636000Y-90837011D01*
X37920008Y-90837011D01*
X37920081Y-88459000D01*
X38085268Y-88459000D01*
X38244018Y-88300250D01*
X38244018Y-87376000D01*
X38498018Y-87376000D01*
X38498018Y-88300250D01*
X38656768Y-88459000D01*
X39072327Y-88459000D01*
X39305716Y-88362327D01*
X39484345Y-88183699D01*
X39581018Y-87950310D01*
X39581018Y-87534750D01*
X39422268Y-87376000D01*
X38498018Y-87376000D01*
X38244018Y-87376000D01*
X38224018Y-87376000D01*
X38224018Y-87189000D01*
X38611702Y-87189000D01*
X38773454Y-87122000D01*
X39422268Y-87122000D01*
X39581018Y-86963250D01*
X39581018Y-86547690D01*
X39513086Y-86383687D01*
X39581018Y-86219684D01*
X39581018Y-85738316D01*
X39417687Y-85344000D01*
X39498064Y-85149951D01*
X39636000Y-85149951D01*
X39636000Y-85740510D01*
X39794750Y-85899260D01*
X40894000Y-85899260D01*
X40894000Y-84800010D01*
X40735250Y-84641260D01*
X40144690Y-84641260D01*
X39911301Y-84737933D01*
X39732673Y-84916562D01*
X39636000Y-85149951D01*
X39498064Y-85149951D01*
X39581018Y-84949684D01*
X39581018Y-84468316D01*
X39417687Y-84074000D01*
X39581018Y-83679684D01*
X39581018Y-83198316D01*
X39417687Y-82804000D01*
X39581018Y-82409684D01*
X39581018Y-81928316D01*
X39417687Y-81534000D01*
X39581018Y-81139684D01*
X39581018Y-80658316D01*
X39417687Y-80264000D01*
X39581018Y-79869684D01*
X39581018Y-79388316D01*
X39417687Y-78994000D01*
X39581018Y-78599684D01*
X39581018Y-78118316D01*
X39417687Y-77724000D01*
X39581018Y-77329684D01*
X39581018Y-77327490D01*
X39636000Y-77327490D01*
X39636000Y-77918049D01*
X39732673Y-78151438D01*
X39911301Y-78330067D01*
X40144690Y-78426740D01*
X40735250Y-78426740D01*
X40894000Y-78267990D01*
X40894000Y-77168740D01*
X39794750Y-77168740D01*
X39636000Y-77327490D01*
X39581018Y-77327490D01*
X39581018Y-76848316D01*
X39413066Y-76442846D01*
X39438453Y-76437557D01*
X39593910Y-75981982D01*
X39563194Y-75501595D01*
X39438453Y-75200443D01*
X39215605Y-75154018D01*
X38550623Y-75819000D01*
X38564766Y-75833143D01*
X38518908Y-75879000D01*
X38223128Y-75879000D01*
X38177271Y-75833143D01*
X38191413Y-75819000D01*
X38177271Y-75804858D01*
X38356876Y-75625253D01*
X38371018Y-75639395D01*
X39036000Y-74974413D01*
X38989575Y-74751565D01*
X38534000Y-74596108D01*
X38053613Y-74626824D01*
X37920501Y-74681961D01*
X37920593Y-71640430D01*
X39636000Y-71640430D01*
X39636000Y-72230989D01*
X39732673Y-72464378D01*
X39911301Y-72643007D01*
X40144690Y-72739680D01*
X40735250Y-72739680D01*
X40894000Y-72580930D01*
X40894000Y-71481680D01*
X39794750Y-71481680D01*
X39636000Y-71640430D01*
X37920593Y-71640430D01*
X37920766Y-65955910D01*
X39636000Y-65955910D01*
X39636000Y-66546469D01*
X39732673Y-66779858D01*
X39911301Y-66958487D01*
X40144690Y-67055160D01*
X40735250Y-67055160D01*
X40894000Y-66896410D01*
X40894000Y-65797160D01*
X39794750Y-65797160D01*
X39636000Y-65955910D01*
X37920766Y-65955910D01*
X37920939Y-60268850D01*
X39636000Y-60268850D01*
X39636000Y-60859409D01*
X39732673Y-61092798D01*
X39911301Y-61271427D01*
X40144690Y-61368100D01*
X40735250Y-61368100D01*
X40894000Y-61209350D01*
X40894000Y-60110100D01*
X39794750Y-60110100D01*
X39636000Y-60268850D01*
X37920939Y-60268850D01*
X37920978Y-59000000D01*
X38380074Y-59000000D01*
X38450000Y-59013909D01*
X38519925Y-59000000D01*
X38519926Y-59000000D01*
X38553455Y-58993331D01*
X39681352Y-58997302D01*
X39681352Y-58997302D01*
G37*
X39681352Y-58997302D02*
X39636000Y-59106791D01*
X39636000Y-59697350D01*
X39794750Y-59856100D01*
X40894000Y-59856100D01*
X40894000Y-59836100D01*
X41148000Y-59836100D01*
X41148000Y-59856100D01*
X41168000Y-59856100D01*
X41168000Y-60110100D01*
X41148000Y-60110100D01*
X41148000Y-61209350D01*
X41306750Y-61368100D01*
X41580907Y-61368100D01*
X41580891Y-61885660D01*
X40271000Y-61885660D01*
X40023235Y-61934943D01*
X39813191Y-62075291D01*
X39672843Y-62285335D01*
X39623560Y-62533100D01*
X39623560Y-64033100D01*
X39672843Y-64280865D01*
X39808799Y-64484336D01*
X39732673Y-64560462D01*
X39636000Y-64793851D01*
X39636000Y-65384410D01*
X39794750Y-65543160D01*
X40894000Y-65543160D01*
X40894000Y-65523160D01*
X41148000Y-65523160D01*
X41148000Y-65543160D01*
X41168000Y-65543160D01*
X41168000Y-65797160D01*
X41148000Y-65797160D01*
X41148000Y-66896410D01*
X41306750Y-67055160D01*
X41580734Y-67055160D01*
X41580718Y-67572720D01*
X40271000Y-67572720D01*
X40023235Y-67622003D01*
X39813191Y-67762351D01*
X39672843Y-67972395D01*
X39623560Y-68220160D01*
X39623560Y-69720160D01*
X39672843Y-69967925D01*
X39807781Y-70169873D01*
X39732673Y-70244982D01*
X39636000Y-70478371D01*
X39636000Y-71068930D01*
X39794750Y-71227680D01*
X40894000Y-71227680D01*
X40894000Y-71207680D01*
X41148000Y-71207680D01*
X41148000Y-71227680D01*
X41168000Y-71227680D01*
X41168000Y-71481680D01*
X41148000Y-71481680D01*
X41148000Y-72580930D01*
X41306750Y-72739680D01*
X41580561Y-72739680D01*
X41580545Y-73257240D01*
X40271000Y-73257240D01*
X40023235Y-73306523D01*
X39813191Y-73446871D01*
X39672843Y-73656915D01*
X39623560Y-73904680D01*
X39623560Y-75404680D01*
X39672843Y-75652445D01*
X39808799Y-75855916D01*
X39732673Y-75932042D01*
X39636000Y-76165431D01*
X39636000Y-76755990D01*
X39794750Y-76914740D01*
X40894000Y-76914740D01*
X40894000Y-76894740D01*
X41148000Y-76894740D01*
X41148000Y-76914740D01*
X41168000Y-76914740D01*
X41168000Y-77168740D01*
X41148000Y-77168740D01*
X41148000Y-78267990D01*
X41306750Y-78426740D01*
X41580388Y-78426740D01*
X41580372Y-78944300D01*
X40271000Y-78944300D01*
X40023235Y-78993583D01*
X39813191Y-79133931D01*
X39672843Y-79343975D01*
X39623560Y-79591740D01*
X39623560Y-81091740D01*
X39672843Y-81339505D01*
X39802801Y-81534000D01*
X39672843Y-81728495D01*
X39623560Y-81976260D01*
X39623560Y-83476260D01*
X39672843Y-83724025D01*
X39813191Y-83934069D01*
X40023235Y-84074417D01*
X40271000Y-84123700D01*
X41580214Y-84123700D01*
X41580199Y-84641260D01*
X41306750Y-84641260D01*
X41148000Y-84800010D01*
X41148000Y-85899260D01*
X41168000Y-85899260D01*
X41168000Y-86153260D01*
X41148000Y-86153260D01*
X41148000Y-86173260D01*
X40894000Y-86173260D01*
X40894000Y-86153260D01*
X39794750Y-86153260D01*
X39636000Y-86312010D01*
X39636000Y-86902569D01*
X39732673Y-87135958D01*
X39808799Y-87212084D01*
X39672843Y-87415555D01*
X39623560Y-87663320D01*
X39623560Y-89163320D01*
X39672843Y-89411085D01*
X39813191Y-89621129D01*
X40023235Y-89761477D01*
X40271000Y-89810760D01*
X41580041Y-89810760D01*
X41580025Y-90328320D01*
X41306750Y-90328320D01*
X41148000Y-90487070D01*
X41148000Y-91586320D01*
X41168000Y-91586320D01*
X41168000Y-91840320D01*
X41148000Y-91840320D01*
X41148000Y-91860320D01*
X40894000Y-91860320D01*
X40894000Y-91840320D01*
X39794750Y-91840320D01*
X39636000Y-91999070D01*
X39636000Y-92589629D01*
X39732673Y-92823018D01*
X39807781Y-92898127D01*
X39672843Y-93100075D01*
X39623560Y-93347840D01*
X39623560Y-94847840D01*
X39672843Y-95095605D01*
X39813191Y-95305649D01*
X40023235Y-95445997D01*
X40271000Y-95495280D01*
X41571622Y-95495280D01*
X41572090Y-96012840D01*
X41306750Y-96012840D01*
X41148000Y-96171590D01*
X41148000Y-97270840D01*
X41168000Y-97270840D01*
X41168000Y-97524840D01*
X41148000Y-97524840D01*
X41148000Y-97544840D01*
X40894000Y-97544840D01*
X40894000Y-97524840D01*
X39794750Y-97524840D01*
X39636000Y-97683590D01*
X39636000Y-98274149D01*
X39732673Y-98507538D01*
X39808799Y-98583664D01*
X39672843Y-98787135D01*
X39623560Y-99034900D01*
X39623560Y-100534900D01*
X39672843Y-100782665D01*
X39813191Y-100992709D01*
X40023235Y-101133057D01*
X40271000Y-101182340D01*
X41576759Y-101182340D01*
X41577227Y-101699900D01*
X41306750Y-101699900D01*
X41148000Y-101858650D01*
X41148000Y-102957900D01*
X41168000Y-102957900D01*
X41168000Y-103211900D01*
X41148000Y-103211900D01*
X41148000Y-103231900D01*
X40894000Y-103231900D01*
X40894000Y-103211900D01*
X39794750Y-103211900D01*
X39636000Y-103370650D01*
X39636000Y-103961209D01*
X39678992Y-104065000D01*
X37911274Y-104065000D01*
X37914628Y-102208591D01*
X39636000Y-102208591D01*
X39636000Y-102799150D01*
X39794750Y-102957900D01*
X40894000Y-102957900D01*
X40894000Y-101858650D01*
X40735250Y-101699900D01*
X40144690Y-101699900D01*
X39911301Y-101796573D01*
X39732673Y-101975202D01*
X39636000Y-102208591D01*
X37914628Y-102208591D01*
X37924903Y-96521531D01*
X39636000Y-96521531D01*
X39636000Y-97112090D01*
X39794750Y-97270840D01*
X40894000Y-97270840D01*
X40894000Y-96171590D01*
X40735250Y-96012840D01*
X40144690Y-96012840D01*
X39911301Y-96109513D01*
X39732673Y-96288142D01*
X39636000Y-96521531D01*
X37924903Y-96521531D01*
X37929965Y-93719827D01*
X37933909Y-93700000D01*
X37930036Y-93680530D01*
X37930125Y-93631357D01*
X37890731Y-93431423D01*
X37898095Y-91340051D01*
X37911792Y-91271192D01*
X37919997Y-91229947D01*
X37919997Y-91229941D01*
X37933909Y-91160000D01*
X37920001Y-91090081D01*
X37920008Y-90837011D01*
X39636000Y-90837011D01*
X39636000Y-91427570D01*
X39794750Y-91586320D01*
X40894000Y-91586320D01*
X40894000Y-90487070D01*
X40735250Y-90328320D01*
X40144690Y-90328320D01*
X39911301Y-90424993D01*
X39732673Y-90603622D01*
X39636000Y-90837011D01*
X37920008Y-90837011D01*
X37920081Y-88459000D01*
X38085268Y-88459000D01*
X38244018Y-88300250D01*
X38244018Y-87376000D01*
X38498018Y-87376000D01*
X38498018Y-88300250D01*
X38656768Y-88459000D01*
X39072327Y-88459000D01*
X39305716Y-88362327D01*
X39484345Y-88183699D01*
X39581018Y-87950310D01*
X39581018Y-87534750D01*
X39422268Y-87376000D01*
X38498018Y-87376000D01*
X38244018Y-87376000D01*
X38224018Y-87376000D01*
X38224018Y-87189000D01*
X38611702Y-87189000D01*
X38773454Y-87122000D01*
X39422268Y-87122000D01*
X39581018Y-86963250D01*
X39581018Y-86547690D01*
X39513086Y-86383687D01*
X39581018Y-86219684D01*
X39581018Y-85738316D01*
X39417687Y-85344000D01*
X39498064Y-85149951D01*
X39636000Y-85149951D01*
X39636000Y-85740510D01*
X39794750Y-85899260D01*
X40894000Y-85899260D01*
X40894000Y-84800010D01*
X40735250Y-84641260D01*
X40144690Y-84641260D01*
X39911301Y-84737933D01*
X39732673Y-84916562D01*
X39636000Y-85149951D01*
X39498064Y-85149951D01*
X39581018Y-84949684D01*
X39581018Y-84468316D01*
X39417687Y-84074000D01*
X39581018Y-83679684D01*
X39581018Y-83198316D01*
X39417687Y-82804000D01*
X39581018Y-82409684D01*
X39581018Y-81928316D01*
X39417687Y-81534000D01*
X39581018Y-81139684D01*
X39581018Y-80658316D01*
X39417687Y-80264000D01*
X39581018Y-79869684D01*
X39581018Y-79388316D01*
X39417687Y-78994000D01*
X39581018Y-78599684D01*
X39581018Y-78118316D01*
X39417687Y-77724000D01*
X39581018Y-77329684D01*
X39581018Y-77327490D01*
X39636000Y-77327490D01*
X39636000Y-77918049D01*
X39732673Y-78151438D01*
X39911301Y-78330067D01*
X40144690Y-78426740D01*
X40735250Y-78426740D01*
X40894000Y-78267990D01*
X40894000Y-77168740D01*
X39794750Y-77168740D01*
X39636000Y-77327490D01*
X39581018Y-77327490D01*
X39581018Y-76848316D01*
X39413066Y-76442846D01*
X39438453Y-76437557D01*
X39593910Y-75981982D01*
X39563194Y-75501595D01*
X39438453Y-75200443D01*
X39215605Y-75154018D01*
X38550623Y-75819000D01*
X38564766Y-75833143D01*
X38518908Y-75879000D01*
X38223128Y-75879000D01*
X38177271Y-75833143D01*
X38191413Y-75819000D01*
X38177271Y-75804858D01*
X38356876Y-75625253D01*
X38371018Y-75639395D01*
X39036000Y-74974413D01*
X38989575Y-74751565D01*
X38534000Y-74596108D01*
X38053613Y-74626824D01*
X37920501Y-74681961D01*
X37920593Y-71640430D01*
X39636000Y-71640430D01*
X39636000Y-72230989D01*
X39732673Y-72464378D01*
X39911301Y-72643007D01*
X40144690Y-72739680D01*
X40735250Y-72739680D01*
X40894000Y-72580930D01*
X40894000Y-71481680D01*
X39794750Y-71481680D01*
X39636000Y-71640430D01*
X37920593Y-71640430D01*
X37920766Y-65955910D01*
X39636000Y-65955910D01*
X39636000Y-66546469D01*
X39732673Y-66779858D01*
X39911301Y-66958487D01*
X40144690Y-67055160D01*
X40735250Y-67055160D01*
X40894000Y-66896410D01*
X40894000Y-65797160D01*
X39794750Y-65797160D01*
X39636000Y-65955910D01*
X37920766Y-65955910D01*
X37920939Y-60268850D01*
X39636000Y-60268850D01*
X39636000Y-60859409D01*
X39732673Y-61092798D01*
X39911301Y-61271427D01*
X40144690Y-61368100D01*
X40735250Y-61368100D01*
X40894000Y-61209350D01*
X40894000Y-60110100D01*
X39794750Y-60110100D01*
X39636000Y-60268850D01*
X37920939Y-60268850D01*
X37920978Y-59000000D01*
X38380074Y-59000000D01*
X38450000Y-59013909D01*
X38519925Y-59000000D01*
X38519926Y-59000000D01*
X38553455Y-58993331D01*
X39681352Y-58997302D01*
G04 #@! TO.N,GND*
G36*
X75131124Y-51755927D02*
X75173522Y-51819380D01*
X75236975Y-51861778D01*
X75236977Y-51861780D01*
X75267119Y-51881920D01*
X78519692Y-55134494D01*
X78562092Y-55197950D01*
X78813484Y-55365925D01*
X79035169Y-55410021D01*
X79035173Y-55410021D01*
X79110021Y-55424909D01*
X79184869Y-55410021D01*
X80861542Y-55410021D01*
X80936389Y-55424909D01*
X81011236Y-55410021D01*
X81011241Y-55410021D01*
X81232926Y-55365925D01*
X81484318Y-55197950D01*
X81526720Y-55134491D01*
X81898947Y-54762264D01*
X81991024Y-54900067D01*
X82058654Y-54945256D01*
X83553397Y-56440000D01*
X60712426Y-56440000D01*
X60642500Y-56426091D01*
X60572575Y-56440000D01*
X60572574Y-56440000D01*
X60365472Y-56481195D01*
X60130619Y-56638119D01*
X59973695Y-56872972D01*
X59918591Y-57150000D01*
X59932501Y-57219931D01*
X59932500Y-102160000D01*
X58705058Y-102160000D01*
X58810788Y-102054270D01*
X58995000Y-101609544D01*
X58995000Y-101128176D01*
X58810788Y-100683450D01*
X58470410Y-100343072D01*
X58025684Y-100158860D01*
X57544316Y-100158860D01*
X57325000Y-100249704D01*
X57325000Y-99927176D01*
X57736368Y-99515809D01*
X57803998Y-99470620D01*
X57983024Y-99202689D01*
X58030021Y-98966417D01*
X58030021Y-98966416D01*
X58045889Y-98886644D01*
X58030021Y-98806869D01*
X58030021Y-96905128D01*
X58045888Y-96825358D01*
X58030021Y-96745589D01*
X58030021Y-96745585D01*
X57983024Y-96509313D01*
X57803998Y-96241382D01*
X57736368Y-96196193D01*
X56979830Y-95439656D01*
X56962333Y-95413469D01*
X57464476Y-94911327D01*
X57527929Y-94868929D01*
X57570327Y-94805476D01*
X57570329Y-94805474D01*
X57695903Y-94617538D01*
X57695904Y-94617537D01*
X57740000Y-94395852D01*
X57740000Y-94395848D01*
X57754888Y-94321001D01*
X57740000Y-94246154D01*
X57740000Y-92583029D01*
X57754889Y-92508178D01*
X57695904Y-92211641D01*
X57527929Y-91960249D01*
X57521946Y-91956251D01*
X57517948Y-91950268D01*
X57454492Y-91907868D01*
X52880030Y-87333407D01*
X52880030Y-50023573D01*
X53136280Y-49917431D01*
X53427431Y-49626280D01*
X53585000Y-49245874D01*
X53585000Y-48834126D01*
X53427431Y-48453720D01*
X53341653Y-48367942D01*
X53588452Y-48470169D01*
X54000200Y-48470169D01*
X54380606Y-48312600D01*
X54496701Y-48196505D01*
X54564831Y-48210057D01*
X54639678Y-48195169D01*
X54639683Y-48195169D01*
X54861368Y-48151073D01*
X55112760Y-47983098D01*
X55155162Y-47919640D01*
X55674772Y-47400030D01*
X70775229Y-47400030D01*
X75131124Y-51755927D01*
X75131124Y-51755927D01*
G37*
X75131124Y-51755927D02*
X75173522Y-51819380D01*
X75236975Y-51861778D01*
X75236977Y-51861780D01*
X75267119Y-51881920D01*
X78519692Y-55134494D01*
X78562092Y-55197950D01*
X78813484Y-55365925D01*
X79035169Y-55410021D01*
X79035173Y-55410021D01*
X79110021Y-55424909D01*
X79184869Y-55410021D01*
X80861542Y-55410021D01*
X80936389Y-55424909D01*
X81011236Y-55410021D01*
X81011241Y-55410021D01*
X81232926Y-55365925D01*
X81484318Y-55197950D01*
X81526720Y-55134491D01*
X81898947Y-54762264D01*
X81991024Y-54900067D01*
X82058654Y-54945256D01*
X83553397Y-56440000D01*
X60712426Y-56440000D01*
X60642500Y-56426091D01*
X60572575Y-56440000D01*
X60572574Y-56440000D01*
X60365472Y-56481195D01*
X60130619Y-56638119D01*
X59973695Y-56872972D01*
X59918591Y-57150000D01*
X59932501Y-57219931D01*
X59932500Y-102160000D01*
X58705058Y-102160000D01*
X58810788Y-102054270D01*
X58995000Y-101609544D01*
X58995000Y-101128176D01*
X58810788Y-100683450D01*
X58470410Y-100343072D01*
X58025684Y-100158860D01*
X57544316Y-100158860D01*
X57325000Y-100249704D01*
X57325000Y-99927176D01*
X57736368Y-99515809D01*
X57803998Y-99470620D01*
X57983024Y-99202689D01*
X58030021Y-98966417D01*
X58030021Y-98966416D01*
X58045889Y-98886644D01*
X58030021Y-98806869D01*
X58030021Y-96905128D01*
X58045888Y-96825358D01*
X58030021Y-96745589D01*
X58030021Y-96745585D01*
X57983024Y-96509313D01*
X57803998Y-96241382D01*
X57736368Y-96196193D01*
X56979830Y-95439656D01*
X56962333Y-95413469D01*
X57464476Y-94911327D01*
X57527929Y-94868929D01*
X57570327Y-94805476D01*
X57570329Y-94805474D01*
X57695903Y-94617538D01*
X57695904Y-94617537D01*
X57740000Y-94395852D01*
X57740000Y-94395848D01*
X57754888Y-94321001D01*
X57740000Y-94246154D01*
X57740000Y-92583029D01*
X57754889Y-92508178D01*
X57695904Y-92211641D01*
X57527929Y-91960249D01*
X57521946Y-91956251D01*
X57517948Y-91950268D01*
X57454492Y-91907868D01*
X52880030Y-87333407D01*
X52880030Y-50023573D01*
X53136280Y-49917431D01*
X53427431Y-49626280D01*
X53585000Y-49245874D01*
X53585000Y-48834126D01*
X53427431Y-48453720D01*
X53341653Y-48367942D01*
X53588452Y-48470169D01*
X54000200Y-48470169D01*
X54380606Y-48312600D01*
X54496701Y-48196505D01*
X54564831Y-48210057D01*
X54639678Y-48195169D01*
X54639683Y-48195169D01*
X54861368Y-48151073D01*
X55112760Y-47983098D01*
X55155162Y-47919640D01*
X55674772Y-47400030D01*
X70775229Y-47400030D01*
X75131124Y-51755927D01*
G36*
X48215000Y-47649801D02*
X48215000Y-47815874D01*
X48372569Y-48196280D01*
X48663720Y-48487431D01*
X49044126Y-48645000D01*
X49455874Y-48645000D01*
X49550001Y-48606011D01*
X49550000Y-88025198D01*
X46665529Y-90909670D01*
X46602071Y-90952071D01*
X46434096Y-91203463D01*
X46390000Y-91425148D01*
X46390000Y-91425153D01*
X46375112Y-91500000D01*
X46390000Y-91574847D01*
X46390000Y-91582031D01*
X46390001Y-91582036D01*
X46390000Y-93474851D01*
X46390001Y-93474855D01*
X46390000Y-94236152D01*
X46375112Y-94311000D01*
X46390000Y-94385847D01*
X46390000Y-94385851D01*
X46434096Y-94607536D01*
X46602071Y-94858929D01*
X46665529Y-94901331D01*
X47177668Y-95413470D01*
X47160173Y-95439653D01*
X46363654Y-96236173D01*
X46296024Y-96281362D01*
X46250835Y-96348992D01*
X46116998Y-96549293D01*
X46054132Y-96865339D01*
X46070001Y-96945117D01*
X46070000Y-98746574D01*
X46054132Y-98826348D01*
X46070000Y-98906121D01*
X46116997Y-99142393D01*
X46296023Y-99410325D01*
X46363656Y-99455516D01*
X46820001Y-99911861D01*
X46820000Y-100146420D01*
X45780000Y-100146420D01*
X45532235Y-100195703D01*
X45322191Y-100336051D01*
X45181843Y-100546095D01*
X45132560Y-100793860D01*
X45132560Y-101943860D01*
X45175552Y-102160000D01*
X44200774Y-102160000D01*
X44209923Y-93770313D01*
X44223909Y-93700000D01*
X44197431Y-93566883D01*
X44205761Y-91200962D01*
X44213909Y-91160000D01*
X44206045Y-91120463D01*
X44206256Y-91060447D01*
X44200028Y-91029199D01*
X44200710Y-87938729D01*
X44252235Y-87973157D01*
X44500000Y-88022440D01*
X46000000Y-88022440D01*
X46247765Y-87973157D01*
X46457809Y-87832809D01*
X46498654Y-87771680D01*
X46640302Y-87913327D01*
X46873691Y-88010000D01*
X47464250Y-88010000D01*
X47623000Y-87851250D01*
X47623000Y-86877000D01*
X47877000Y-86877000D01*
X47877000Y-87851250D01*
X48035750Y-88010000D01*
X48626309Y-88010000D01*
X48859698Y-87913327D01*
X49038327Y-87734699D01*
X49135000Y-87501310D01*
X49135000Y-87035750D01*
X48976250Y-86877000D01*
X47877000Y-86877000D01*
X47623000Y-86877000D01*
X47603000Y-86877000D01*
X47603000Y-86623000D01*
X47623000Y-86623000D01*
X47623000Y-85648750D01*
X47464250Y-85490000D01*
X47428250Y-85490000D01*
X47567000Y-85351250D01*
X47567000Y-84377000D01*
X47821000Y-84377000D01*
X47821000Y-85351250D01*
X47979750Y-85510000D01*
X48015750Y-85510000D01*
X47877000Y-85648750D01*
X47877000Y-86623000D01*
X48976250Y-86623000D01*
X49135000Y-86464250D01*
X49135000Y-85998690D01*
X49038327Y-85765301D01*
X48859698Y-85586673D01*
X48626309Y-85490000D01*
X48618593Y-85490000D01*
X48803698Y-85413327D01*
X48982327Y-85234699D01*
X49079000Y-85001310D01*
X49079000Y-84535750D01*
X48920250Y-84377000D01*
X47821000Y-84377000D01*
X47567000Y-84377000D01*
X47547000Y-84377000D01*
X47547000Y-84123000D01*
X47567000Y-84123000D01*
X47567000Y-83148750D01*
X47821000Y-83148750D01*
X47821000Y-84123000D01*
X48920250Y-84123000D01*
X49079000Y-83964250D01*
X49079000Y-83498690D01*
X48982327Y-83265301D01*
X48803698Y-83086673D01*
X48570309Y-82990000D01*
X47979750Y-82990000D01*
X47821000Y-83148750D01*
X47567000Y-83148750D01*
X47408250Y-82990000D01*
X46817691Y-82990000D01*
X46584302Y-83086673D01*
X46442654Y-83228320D01*
X46401809Y-83167191D01*
X46191765Y-83026843D01*
X45944000Y-82977560D01*
X44444000Y-82977560D01*
X44201793Y-83025737D01*
X44207515Y-57080231D01*
X44166366Y-56873120D01*
X44009493Y-56638232D01*
X43774675Y-56481256D01*
X43497659Y-56426091D01*
X43427653Y-56440000D01*
X41320880Y-56440000D01*
X41288186Y-56418321D01*
X41239551Y-56408826D01*
X38409551Y-56418826D01*
X38403703Y-56420000D01*
X34829652Y-56420000D01*
X34810000Y-56416091D01*
X34790348Y-56420000D01*
X34740074Y-56420000D01*
X34722734Y-56423449D01*
X32113078Y-56432671D01*
X32080000Y-56426091D01*
X32045726Y-56432909D01*
X32019551Y-56433001D01*
X31984685Y-56440000D01*
X28359926Y-56440000D01*
X28290000Y-56426091D01*
X28254187Y-56433215D01*
X25842623Y-56442526D01*
X25829926Y-56440000D01*
X25760000Y-56426091D01*
X25690075Y-56440000D01*
X20455512Y-56440000D01*
X22191347Y-54704166D01*
X22244110Y-54668911D01*
X22709695Y-55134497D01*
X22752093Y-55197950D01*
X22815546Y-55240348D01*
X22815548Y-55240350D01*
X23003483Y-55365924D01*
X23003484Y-55365924D01*
X23003485Y-55365925D01*
X23225170Y-55410021D01*
X23225174Y-55410021D01*
X23300021Y-55424909D01*
X23374869Y-55410021D01*
X25071539Y-55410019D01*
X25146390Y-55424908D01*
X25290700Y-55396203D01*
X25442927Y-55365923D01*
X25498825Y-55328573D01*
X25630862Y-55240349D01*
X25630863Y-55240348D01*
X25694319Y-55197948D01*
X25736719Y-55134492D01*
X33640856Y-47230357D01*
X33704309Y-47187959D01*
X33746707Y-47124506D01*
X33746709Y-47124504D01*
X33786986Y-47064225D01*
X33901191Y-46950020D01*
X47515219Y-46950020D01*
X48215000Y-47649801D01*
X48215000Y-47649801D01*
G37*
X48215000Y-47649801D02*
X48215000Y-47815874D01*
X48372569Y-48196280D01*
X48663720Y-48487431D01*
X49044126Y-48645000D01*
X49455874Y-48645000D01*
X49550001Y-48606011D01*
X49550000Y-88025198D01*
X46665529Y-90909670D01*
X46602071Y-90952071D01*
X46434096Y-91203463D01*
X46390000Y-91425148D01*
X46390000Y-91425153D01*
X46375112Y-91500000D01*
X46390000Y-91574847D01*
X46390000Y-91582031D01*
X46390001Y-91582036D01*
X46390000Y-93474851D01*
X46390001Y-93474855D01*
X46390000Y-94236152D01*
X46375112Y-94311000D01*
X46390000Y-94385847D01*
X46390000Y-94385851D01*
X46434096Y-94607536D01*
X46602071Y-94858929D01*
X46665529Y-94901331D01*
X47177668Y-95413470D01*
X47160173Y-95439653D01*
X46363654Y-96236173D01*
X46296024Y-96281362D01*
X46250835Y-96348992D01*
X46116998Y-96549293D01*
X46054132Y-96865339D01*
X46070001Y-96945117D01*
X46070000Y-98746574D01*
X46054132Y-98826348D01*
X46070000Y-98906121D01*
X46116997Y-99142393D01*
X46296023Y-99410325D01*
X46363656Y-99455516D01*
X46820001Y-99911861D01*
X46820000Y-100146420D01*
X45780000Y-100146420D01*
X45532235Y-100195703D01*
X45322191Y-100336051D01*
X45181843Y-100546095D01*
X45132560Y-100793860D01*
X45132560Y-101943860D01*
X45175552Y-102160000D01*
X44200774Y-102160000D01*
X44209923Y-93770313D01*
X44223909Y-93700000D01*
X44197431Y-93566883D01*
X44205761Y-91200962D01*
X44213909Y-91160000D01*
X44206045Y-91120463D01*
X44206256Y-91060447D01*
X44200028Y-91029199D01*
X44200710Y-87938729D01*
X44252235Y-87973157D01*
X44500000Y-88022440D01*
X46000000Y-88022440D01*
X46247765Y-87973157D01*
X46457809Y-87832809D01*
X46498654Y-87771680D01*
X46640302Y-87913327D01*
X46873691Y-88010000D01*
X47464250Y-88010000D01*
X47623000Y-87851250D01*
X47623000Y-86877000D01*
X47877000Y-86877000D01*
X47877000Y-87851250D01*
X48035750Y-88010000D01*
X48626309Y-88010000D01*
X48859698Y-87913327D01*
X49038327Y-87734699D01*
X49135000Y-87501310D01*
X49135000Y-87035750D01*
X48976250Y-86877000D01*
X47877000Y-86877000D01*
X47623000Y-86877000D01*
X47603000Y-86877000D01*
X47603000Y-86623000D01*
X47623000Y-86623000D01*
X47623000Y-85648750D01*
X47464250Y-85490000D01*
X47428250Y-85490000D01*
X47567000Y-85351250D01*
X47567000Y-84377000D01*
X47821000Y-84377000D01*
X47821000Y-85351250D01*
X47979750Y-85510000D01*
X48015750Y-85510000D01*
X47877000Y-85648750D01*
X47877000Y-86623000D01*
X48976250Y-86623000D01*
X49135000Y-86464250D01*
X49135000Y-85998690D01*
X49038327Y-85765301D01*
X48859698Y-85586673D01*
X48626309Y-85490000D01*
X48618593Y-85490000D01*
X48803698Y-85413327D01*
X48982327Y-85234699D01*
X49079000Y-85001310D01*
X49079000Y-84535750D01*
X48920250Y-84377000D01*
X47821000Y-84377000D01*
X47567000Y-84377000D01*
X47547000Y-84377000D01*
X47547000Y-84123000D01*
X47567000Y-84123000D01*
X47567000Y-83148750D01*
X47821000Y-83148750D01*
X47821000Y-84123000D01*
X48920250Y-84123000D01*
X49079000Y-83964250D01*
X49079000Y-83498690D01*
X48982327Y-83265301D01*
X48803698Y-83086673D01*
X48570309Y-82990000D01*
X47979750Y-82990000D01*
X47821000Y-83148750D01*
X47567000Y-83148750D01*
X47408250Y-82990000D01*
X46817691Y-82990000D01*
X46584302Y-83086673D01*
X46442654Y-83228320D01*
X46401809Y-83167191D01*
X46191765Y-83026843D01*
X45944000Y-82977560D01*
X44444000Y-82977560D01*
X44201793Y-83025737D01*
X44207515Y-57080231D01*
X44166366Y-56873120D01*
X44009493Y-56638232D01*
X43774675Y-56481256D01*
X43497659Y-56426091D01*
X43427653Y-56440000D01*
X41320880Y-56440000D01*
X41288186Y-56418321D01*
X41239551Y-56408826D01*
X38409551Y-56418826D01*
X38403703Y-56420000D01*
X34829652Y-56420000D01*
X34810000Y-56416091D01*
X34790348Y-56420000D01*
X34740074Y-56420000D01*
X34722734Y-56423449D01*
X32113078Y-56432671D01*
X32080000Y-56426091D01*
X32045726Y-56432909D01*
X32019551Y-56433001D01*
X31984685Y-56440000D01*
X28359926Y-56440000D01*
X28290000Y-56426091D01*
X28254187Y-56433215D01*
X25842623Y-56442526D01*
X25829926Y-56440000D01*
X25760000Y-56426091D01*
X25690075Y-56440000D01*
X20455512Y-56440000D01*
X22191347Y-54704166D01*
X22244110Y-54668911D01*
X22709695Y-55134497D01*
X22752093Y-55197950D01*
X22815546Y-55240348D01*
X22815548Y-55240350D01*
X23003483Y-55365924D01*
X23003484Y-55365924D01*
X23003485Y-55365925D01*
X23225170Y-55410021D01*
X23225174Y-55410021D01*
X23300021Y-55424909D01*
X23374869Y-55410021D01*
X25071539Y-55410019D01*
X25146390Y-55424908D01*
X25290700Y-55396203D01*
X25442927Y-55365923D01*
X25498825Y-55328573D01*
X25630862Y-55240349D01*
X25630863Y-55240348D01*
X25694319Y-55197948D01*
X25736719Y-55134492D01*
X33640856Y-47230357D01*
X33704309Y-47187959D01*
X33746707Y-47124506D01*
X33746709Y-47124504D01*
X33786986Y-47064225D01*
X33901191Y-46950020D01*
X47515219Y-46950020D01*
X48215000Y-47649801D01*
G36*
X51751843Y-92647765D02*
X51892191Y-92857809D01*
X52102235Y-92998157D01*
X52350000Y-93047440D01*
X53514181Y-93047440D01*
X53497560Y-93131000D01*
X53497560Y-93396000D01*
X52355750Y-93396000D01*
X52197000Y-93554750D01*
X52197000Y-95504000D01*
X52217000Y-95504000D01*
X52217000Y-95758000D01*
X52197000Y-95758000D01*
X52197000Y-97707250D01*
X52355750Y-97866000D01*
X53497560Y-97866000D01*
X53497560Y-98131000D01*
X53546843Y-98378765D01*
X53687191Y-98588809D01*
X53689881Y-98590606D01*
X52188656Y-100091832D01*
X52121023Y-100137023D01*
X52070000Y-100213384D01*
X52018977Y-100137023D01*
X51951347Y-100091834D01*
X50450119Y-98590607D01*
X50452809Y-98588809D01*
X50593157Y-98378765D01*
X50642440Y-98131000D01*
X50642440Y-97866000D01*
X51784250Y-97866000D01*
X51943000Y-97707250D01*
X51943000Y-95758000D01*
X51923000Y-95758000D01*
X51923000Y-95504000D01*
X51943000Y-95504000D01*
X51943000Y-93554750D01*
X51784250Y-93396000D01*
X50501459Y-93396000D01*
X50452809Y-93323191D01*
X50333544Y-93243500D01*
X50471250Y-93243500D01*
X50630000Y-93084750D01*
X50630000Y-93004691D01*
X50612010Y-92961260D01*
X50685750Y-93035000D01*
X51276309Y-93035000D01*
X51509698Y-92938327D01*
X51688327Y-92759699D01*
X51746279Y-92619791D01*
X51751843Y-92647765D01*
X51751843Y-92647765D01*
G37*
X51751843Y-92647765D02*
X51892191Y-92857809D01*
X52102235Y-92998157D01*
X52350000Y-93047440D01*
X53514181Y-93047440D01*
X53497560Y-93131000D01*
X53497560Y-93396000D01*
X52355750Y-93396000D01*
X52197000Y-93554750D01*
X52197000Y-95504000D01*
X52217000Y-95504000D01*
X52217000Y-95758000D01*
X52197000Y-95758000D01*
X52197000Y-97707250D01*
X52355750Y-97866000D01*
X53497560Y-97866000D01*
X53497560Y-98131000D01*
X53546843Y-98378765D01*
X53687191Y-98588809D01*
X53689881Y-98590606D01*
X52188656Y-100091832D01*
X52121023Y-100137023D01*
X52070000Y-100213384D01*
X52018977Y-100137023D01*
X51951347Y-100091834D01*
X50450119Y-98590607D01*
X50452809Y-98588809D01*
X50593157Y-98378765D01*
X50642440Y-98131000D01*
X50642440Y-97866000D01*
X51784250Y-97866000D01*
X51943000Y-97707250D01*
X51943000Y-95758000D01*
X51923000Y-95758000D01*
X51923000Y-95504000D01*
X51943000Y-95504000D01*
X51943000Y-93554750D01*
X51784250Y-93396000D01*
X50501459Y-93396000D01*
X50452809Y-93323191D01*
X50333544Y-93243500D01*
X50471250Y-93243500D01*
X50630000Y-93084750D01*
X50630000Y-93004691D01*
X50612010Y-92961260D01*
X50685750Y-93035000D01*
X51276309Y-93035000D01*
X51509698Y-92938327D01*
X51688327Y-92759699D01*
X51746279Y-92619791D01*
X51751843Y-92647765D01*
G36*
X50527000Y-91623000D02*
X50547000Y-91623000D01*
X50547000Y-91877000D01*
X50527000Y-91877000D01*
X50527000Y-91897000D01*
X50273000Y-91897000D01*
X50273000Y-91877000D01*
X50253000Y-91877000D01*
X50253000Y-91623000D01*
X50273000Y-91623000D01*
X50273000Y-91603000D01*
X50527000Y-91603000D01*
X50527000Y-91623000D01*
X50527000Y-91623000D01*
G37*
X50527000Y-91623000D02*
X50547000Y-91623000D01*
X50547000Y-91877000D01*
X50527000Y-91877000D01*
X50527000Y-91897000D01*
X50273000Y-91897000D01*
X50273000Y-91877000D01*
X50253000Y-91877000D01*
X50253000Y-91623000D01*
X50273000Y-91623000D01*
X50273000Y-91603000D01*
X50527000Y-91603000D01*
X50527000Y-91623000D01*
G36*
X53213171Y-90452560D02*
X52350000Y-90452560D01*
X52102235Y-90501843D01*
X51892191Y-90642191D01*
X51751843Y-90852235D01*
X51746279Y-90880209D01*
X51688327Y-90740301D01*
X51509698Y-90561673D01*
X51276309Y-90465000D01*
X50685750Y-90465000D01*
X50527002Y-90623748D01*
X50527002Y-90477800D01*
X51704483Y-89300319D01*
X51767939Y-89257919D01*
X51868312Y-89107701D01*
X53213171Y-90452560D01*
X53213171Y-90452560D01*
G37*
X53213171Y-90452560D02*
X52350000Y-90452560D01*
X52102235Y-90501843D01*
X51892191Y-90642191D01*
X51751843Y-90852235D01*
X51746279Y-90880209D01*
X51688327Y-90740301D01*
X51509698Y-90561673D01*
X51276309Y-90465000D01*
X50685750Y-90465000D01*
X50527002Y-90623748D01*
X50527002Y-90477800D01*
X51704483Y-89300319D01*
X51767939Y-89257919D01*
X51868312Y-89107701D01*
X53213171Y-90452560D01*
G36*
X20562500Y-33705897D02*
X14062520Y-27205918D01*
X14062520Y-14230169D01*
X14316093Y-14125136D01*
X14881516Y-13559713D01*
X15187520Y-12820954D01*
X15187520Y-12021326D01*
X14881516Y-11282567D01*
X14316093Y-10717144D01*
X13577334Y-10411140D01*
X12777706Y-10411140D01*
X12038947Y-10717144D01*
X11473524Y-11282567D01*
X11167520Y-12021326D01*
X11167520Y-12820954D01*
X11473524Y-13559713D01*
X12038947Y-14125136D01*
X12292520Y-14230169D01*
X12292520Y-14452847D01*
X12292521Y-14452852D01*
X12292520Y-27485335D01*
X12275183Y-27572496D01*
X12292520Y-27659657D01*
X12292520Y-27659660D01*
X12343868Y-27917805D01*
X12539471Y-28210545D01*
X12613367Y-28259921D01*
X20367611Y-36014166D01*
X20416985Y-36088059D01*
X20490878Y-36137433D01*
X20490879Y-36137434D01*
X20601914Y-36211625D01*
X20709724Y-36283662D01*
X20967869Y-36335010D01*
X20967873Y-36335010D01*
X21055033Y-36352347D01*
X21142193Y-36335010D01*
X44462829Y-36335010D01*
X44549990Y-36352347D01*
X44615431Y-36339330D01*
X44628555Y-36405312D01*
X44653213Y-36561714D01*
X44662774Y-36577341D01*
X44666348Y-36595309D01*
X44754322Y-36726971D01*
X44790577Y-36786228D01*
X44802670Y-36799328D01*
X44861951Y-36888049D01*
X44920964Y-36927480D01*
X45065000Y-37083520D01*
X45065000Y-37105874D01*
X45222569Y-37486280D01*
X45513720Y-37777431D01*
X45894126Y-37935000D01*
X46305874Y-37935000D01*
X46457879Y-37872037D01*
X46332969Y-38500000D01*
X46445357Y-39065008D01*
X46168007Y-39065008D01*
X45805874Y-38915008D01*
X45566587Y-38915008D01*
X44127431Y-37475853D01*
X43977431Y-37113720D01*
X43686280Y-36822569D01*
X43305874Y-36665000D01*
X42894126Y-36665000D01*
X42513720Y-36822569D01*
X42222569Y-37113720D01*
X42065000Y-37494126D01*
X42065000Y-37905874D01*
X42222569Y-38286280D01*
X42513720Y-38577431D01*
X42875853Y-38727431D01*
X44662585Y-40514164D01*
X44711959Y-40588057D01*
X44785852Y-40637431D01*
X44785853Y-40637432D01*
X44831495Y-40667929D01*
X44899951Y-40713670D01*
X45013720Y-40827439D01*
X45394126Y-40985008D01*
X45805874Y-40985008D01*
X46168007Y-40835008D01*
X48513453Y-40835008D01*
X48600614Y-40852345D01*
X48687775Y-40835008D01*
X48687779Y-40835008D01*
X48945924Y-40783660D01*
X49238663Y-40588057D01*
X49288039Y-40514161D01*
X50400001Y-39402200D01*
X50400001Y-39805197D01*
X49015530Y-41189669D01*
X48952071Y-41232071D01*
X48784096Y-41483464D01*
X48740000Y-41705149D01*
X48740000Y-41705153D01*
X48725112Y-41780000D01*
X48740000Y-41854847D01*
X48740001Y-43046288D01*
X48622569Y-43163720D01*
X48465000Y-43544126D01*
X48465000Y-43619990D01*
X23844858Y-43619990D01*
X23770010Y-43605102D01*
X23695162Y-43619990D01*
X23695158Y-43619990D01*
X23521615Y-43654510D01*
X23473472Y-43664086D01*
X23344892Y-43750001D01*
X23222081Y-43832061D01*
X23179681Y-43895517D01*
X22220131Y-44855067D01*
X22191347Y-44835834D01*
X20929148Y-43573636D01*
X20883957Y-43506003D01*
X20616026Y-43326977D01*
X20379754Y-43279980D01*
X20379753Y-43279980D01*
X20299980Y-43264112D01*
X20220207Y-43279980D01*
X19334130Y-43279980D01*
X19254356Y-43264112D01*
X18938309Y-43326977D01*
X18872670Y-43370836D01*
X18670379Y-43506003D01*
X18625190Y-43573633D01*
X16943654Y-45255170D01*
X16876024Y-45300359D01*
X16830835Y-45367989D01*
X16696998Y-45568290D01*
X16634132Y-45884336D01*
X16650001Y-45964114D01*
X16650000Y-52494487D01*
X14551074Y-54593414D01*
X14483444Y-54638603D01*
X14438255Y-54706233D01*
X14304418Y-54906534D01*
X14241552Y-55222580D01*
X14257421Y-55302358D01*
X14257421Y-55922942D01*
X13531527Y-55641429D01*
X12732106Y-55659611D01*
X12077987Y-55930556D01*
X11933466Y-56236341D01*
X13177520Y-57480395D01*
X13191663Y-57466253D01*
X13371268Y-57645858D01*
X13357125Y-57660000D01*
X13371268Y-57674143D01*
X13191663Y-57853748D01*
X13177520Y-57839605D01*
X11933466Y-59083659D01*
X12077987Y-59389444D01*
X12823513Y-59678571D01*
X13622934Y-59660389D01*
X14257421Y-59397576D01*
X14257420Y-68676365D01*
X10526721Y-72407065D01*
X10443869Y-72207042D01*
X10103491Y-71866664D01*
X9658765Y-71682452D01*
X9177397Y-71682452D01*
X8732671Y-71866664D01*
X8392293Y-72207042D01*
X8293845Y-72444716D01*
X7749017Y-71666754D01*
X7720397Y-71601640D01*
X7668789Y-71552196D01*
X7668692Y-71552058D01*
X7618820Y-71504323D01*
X7516440Y-71406237D01*
X7516275Y-71406173D01*
X7516147Y-71406050D01*
X7385074Y-71355091D01*
X7253230Y-71303759D01*
X7253051Y-71303763D01*
X7252887Y-71303699D01*
X7112125Y-71306782D01*
X6970839Y-71309808D01*
X6970677Y-71309879D01*
X6970501Y-71309883D01*
X6841617Y-71366606D01*
X6777529Y-71394775D01*
X6777388Y-71394874D01*
X6711976Y-71423662D01*
X6662797Y-71475043D01*
X5991167Y-71944924D01*
X2321801Y-66703659D01*
X9393466Y-66703659D01*
X9537987Y-67009444D01*
X10283513Y-67298571D01*
X11082934Y-67280389D01*
X11737053Y-67009444D01*
X11881574Y-66703659D01*
X10637520Y-65459605D01*
X9393466Y-66703659D01*
X2321801Y-66703659D01*
X1077271Y-64925993D01*
X8618949Y-64925993D01*
X8637131Y-65725414D01*
X8908076Y-66379533D01*
X9213861Y-66524054D01*
X10457915Y-65280000D01*
X10817125Y-65280000D01*
X12061179Y-66524054D01*
X12366964Y-66379533D01*
X12656091Y-65634007D01*
X12637909Y-64834586D01*
X12366964Y-64180467D01*
X12061179Y-64035946D01*
X10817125Y-65280000D01*
X10457915Y-65280000D01*
X9213861Y-64035946D01*
X8908076Y-64180467D01*
X8618949Y-64925993D01*
X1077271Y-64925993D01*
X710000Y-64401389D01*
X710000Y-63856341D01*
X9393466Y-63856341D01*
X10637520Y-65100395D01*
X11881574Y-63856341D01*
X11737053Y-63550556D01*
X10991527Y-63261429D01*
X10192106Y-63279611D01*
X9537987Y-63550556D01*
X9393466Y-63856341D01*
X710000Y-63856341D01*
X710000Y-59083659D01*
X6853466Y-59083659D01*
X6997987Y-59389444D01*
X7743513Y-59678571D01*
X8542934Y-59660389D01*
X9197053Y-59389444D01*
X9341574Y-59083659D01*
X8097520Y-57839605D01*
X6853466Y-59083659D01*
X710000Y-59083659D01*
X710000Y-57305993D01*
X6078949Y-57305993D01*
X6097131Y-58105414D01*
X6368076Y-58759533D01*
X6673861Y-58904054D01*
X7917915Y-57660000D01*
X8277125Y-57660000D01*
X9521179Y-58904054D01*
X9826964Y-58759533D01*
X10116091Y-58014007D01*
X10099988Y-57305993D01*
X11158949Y-57305993D01*
X11177131Y-58105414D01*
X11448076Y-58759533D01*
X11753861Y-58904054D01*
X12997915Y-57660000D01*
X11753861Y-56415946D01*
X11448076Y-56560467D01*
X11158949Y-57305993D01*
X10099988Y-57305993D01*
X10097909Y-57214586D01*
X9826964Y-56560467D01*
X9521179Y-56415946D01*
X8277125Y-57660000D01*
X7917915Y-57660000D01*
X6673861Y-56415946D01*
X6368076Y-56560467D01*
X6078949Y-57305993D01*
X710000Y-57305993D01*
X710000Y-56236341D01*
X6853466Y-56236341D01*
X8097520Y-57480395D01*
X9341574Y-56236341D01*
X9197053Y-55930556D01*
X8451527Y-55641429D01*
X7652106Y-55659611D01*
X6997987Y-55930556D01*
X6853466Y-56236341D01*
X710000Y-56236341D01*
X710000Y-49750000D01*
X8842765Y-49750000D01*
X8930854Y-50192855D01*
X9181711Y-50568289D01*
X9557145Y-50819146D01*
X9888217Y-50885000D01*
X10352560Y-50885000D01*
X10352560Y-51625000D01*
X10401843Y-51872765D01*
X10542191Y-52082809D01*
X10752235Y-52223157D01*
X11000000Y-52272440D01*
X12500000Y-52272440D01*
X12747765Y-52223157D01*
X12957809Y-52082809D01*
X12998654Y-52021680D01*
X13140302Y-52163327D01*
X13373691Y-52260000D01*
X13964250Y-52260000D01*
X14123000Y-52101250D01*
X14123000Y-51127000D01*
X14377000Y-51127000D01*
X14377000Y-52101250D01*
X14535750Y-52260000D01*
X15126309Y-52260000D01*
X15359698Y-52163327D01*
X15538327Y-51984699D01*
X15635000Y-51751310D01*
X15635000Y-51285750D01*
X15476250Y-51127000D01*
X14377000Y-51127000D01*
X14123000Y-51127000D01*
X14103000Y-51127000D01*
X14103000Y-50873000D01*
X14123000Y-50873000D01*
X14123000Y-49898750D01*
X13974250Y-49750000D01*
X14123000Y-49601250D01*
X14123000Y-48627000D01*
X14377000Y-48627000D01*
X14377000Y-49601250D01*
X14525750Y-49750000D01*
X14377000Y-49898750D01*
X14377000Y-50873000D01*
X15476250Y-50873000D01*
X15635000Y-50714250D01*
X15635000Y-50248690D01*
X15538327Y-50015301D01*
X15359698Y-49836673D01*
X15150451Y-49750000D01*
X15359698Y-49663327D01*
X15538327Y-49484699D01*
X15635000Y-49251310D01*
X15635000Y-48785750D01*
X15476250Y-48627000D01*
X14377000Y-48627000D01*
X14123000Y-48627000D01*
X14103000Y-48627000D01*
X14103000Y-48373000D01*
X14123000Y-48373000D01*
X14123000Y-47398750D01*
X14377000Y-47398750D01*
X14377000Y-48373000D01*
X15476250Y-48373000D01*
X15635000Y-48214250D01*
X15635000Y-47748690D01*
X15538327Y-47515301D01*
X15359698Y-47336673D01*
X15126309Y-47240000D01*
X14535750Y-47240000D01*
X14377000Y-47398750D01*
X14123000Y-47398750D01*
X13964250Y-47240000D01*
X13373691Y-47240000D01*
X13140302Y-47336673D01*
X12998654Y-47478320D01*
X12957809Y-47417191D01*
X12747765Y-47276843D01*
X12500000Y-47227560D01*
X11000000Y-47227560D01*
X10752235Y-47276843D01*
X10542191Y-47417191D01*
X10401843Y-47627235D01*
X10352560Y-47875000D01*
X10352560Y-48615000D01*
X9888217Y-48615000D01*
X9557145Y-48680854D01*
X9181711Y-48931711D01*
X8930854Y-49307145D01*
X8842765Y-49750000D01*
X710000Y-49750000D01*
X710000Y-12021326D01*
X6087520Y-12021326D01*
X6087520Y-12820954D01*
X6393524Y-13559713D01*
X6958947Y-14125136D01*
X7697706Y-14431140D01*
X8497334Y-14431140D01*
X9236093Y-14125136D01*
X9801516Y-13559713D01*
X10107520Y-12820954D01*
X10107520Y-12021326D01*
X9801516Y-11282567D01*
X9236093Y-10717144D01*
X8497334Y-10411140D01*
X7697706Y-10411140D01*
X6958947Y-10717144D01*
X6393524Y-11282567D01*
X6087520Y-12021326D01*
X710000Y-12021326D01*
X710000Y-4401326D01*
X8627520Y-4401326D01*
X8627520Y-5200954D01*
X8933524Y-5939713D01*
X9498947Y-6505136D01*
X10237706Y-6811140D01*
X11037334Y-6811140D01*
X11776093Y-6505136D01*
X12341516Y-5939713D01*
X12647520Y-5200954D01*
X12647520Y-4401326D01*
X12341516Y-3662567D01*
X11776093Y-3097144D01*
X11037334Y-2791140D01*
X10237706Y-2791140D01*
X9498947Y-3097144D01*
X8933524Y-3662567D01*
X8627520Y-4401326D01*
X710000Y-4401326D01*
X710000Y-710000D01*
X20562501Y-710000D01*
X20562500Y-33705897D01*
X20562500Y-33705897D01*
G37*
X20562500Y-33705897D02*
X14062520Y-27205918D01*
X14062520Y-14230169D01*
X14316093Y-14125136D01*
X14881516Y-13559713D01*
X15187520Y-12820954D01*
X15187520Y-12021326D01*
X14881516Y-11282567D01*
X14316093Y-10717144D01*
X13577334Y-10411140D01*
X12777706Y-10411140D01*
X12038947Y-10717144D01*
X11473524Y-11282567D01*
X11167520Y-12021326D01*
X11167520Y-12820954D01*
X11473524Y-13559713D01*
X12038947Y-14125136D01*
X12292520Y-14230169D01*
X12292520Y-14452847D01*
X12292521Y-14452852D01*
X12292520Y-27485335D01*
X12275183Y-27572496D01*
X12292520Y-27659657D01*
X12292520Y-27659660D01*
X12343868Y-27917805D01*
X12539471Y-28210545D01*
X12613367Y-28259921D01*
X20367611Y-36014166D01*
X20416985Y-36088059D01*
X20490878Y-36137433D01*
X20490879Y-36137434D01*
X20601914Y-36211625D01*
X20709724Y-36283662D01*
X20967869Y-36335010D01*
X20967873Y-36335010D01*
X21055033Y-36352347D01*
X21142193Y-36335010D01*
X44462829Y-36335010D01*
X44549990Y-36352347D01*
X44615431Y-36339330D01*
X44628555Y-36405312D01*
X44653213Y-36561714D01*
X44662774Y-36577341D01*
X44666348Y-36595309D01*
X44754322Y-36726971D01*
X44790577Y-36786228D01*
X44802670Y-36799328D01*
X44861951Y-36888049D01*
X44920964Y-36927480D01*
X45065000Y-37083520D01*
X45065000Y-37105874D01*
X45222569Y-37486280D01*
X45513720Y-37777431D01*
X45894126Y-37935000D01*
X46305874Y-37935000D01*
X46457879Y-37872037D01*
X46332969Y-38500000D01*
X46445357Y-39065008D01*
X46168007Y-39065008D01*
X45805874Y-38915008D01*
X45566587Y-38915008D01*
X44127431Y-37475853D01*
X43977431Y-37113720D01*
X43686280Y-36822569D01*
X43305874Y-36665000D01*
X42894126Y-36665000D01*
X42513720Y-36822569D01*
X42222569Y-37113720D01*
X42065000Y-37494126D01*
X42065000Y-37905874D01*
X42222569Y-38286280D01*
X42513720Y-38577431D01*
X42875853Y-38727431D01*
X44662585Y-40514164D01*
X44711959Y-40588057D01*
X44785852Y-40637431D01*
X44785853Y-40637432D01*
X44831495Y-40667929D01*
X44899951Y-40713670D01*
X45013720Y-40827439D01*
X45394126Y-40985008D01*
X45805874Y-40985008D01*
X46168007Y-40835008D01*
X48513453Y-40835008D01*
X48600614Y-40852345D01*
X48687775Y-40835008D01*
X48687779Y-40835008D01*
X48945924Y-40783660D01*
X49238663Y-40588057D01*
X49288039Y-40514161D01*
X50400001Y-39402200D01*
X50400001Y-39805197D01*
X49015530Y-41189669D01*
X48952071Y-41232071D01*
X48784096Y-41483464D01*
X48740000Y-41705149D01*
X48740000Y-41705153D01*
X48725112Y-41780000D01*
X48740000Y-41854847D01*
X48740001Y-43046288D01*
X48622569Y-43163720D01*
X48465000Y-43544126D01*
X48465000Y-43619990D01*
X23844858Y-43619990D01*
X23770010Y-43605102D01*
X23695162Y-43619990D01*
X23695158Y-43619990D01*
X23521615Y-43654510D01*
X23473472Y-43664086D01*
X23344892Y-43750001D01*
X23222081Y-43832061D01*
X23179681Y-43895517D01*
X22220131Y-44855067D01*
X22191347Y-44835834D01*
X20929148Y-43573636D01*
X20883957Y-43506003D01*
X20616026Y-43326977D01*
X20379754Y-43279980D01*
X20379753Y-43279980D01*
X20299980Y-43264112D01*
X20220207Y-43279980D01*
X19334130Y-43279980D01*
X19254356Y-43264112D01*
X18938309Y-43326977D01*
X18872670Y-43370836D01*
X18670379Y-43506003D01*
X18625190Y-43573633D01*
X16943654Y-45255170D01*
X16876024Y-45300359D01*
X16830835Y-45367989D01*
X16696998Y-45568290D01*
X16634132Y-45884336D01*
X16650001Y-45964114D01*
X16650000Y-52494487D01*
X14551074Y-54593414D01*
X14483444Y-54638603D01*
X14438255Y-54706233D01*
X14304418Y-54906534D01*
X14241552Y-55222580D01*
X14257421Y-55302358D01*
X14257421Y-55922942D01*
X13531527Y-55641429D01*
X12732106Y-55659611D01*
X12077987Y-55930556D01*
X11933466Y-56236341D01*
X13177520Y-57480395D01*
X13191663Y-57466253D01*
X13371268Y-57645858D01*
X13357125Y-57660000D01*
X13371268Y-57674143D01*
X13191663Y-57853748D01*
X13177520Y-57839605D01*
X11933466Y-59083659D01*
X12077987Y-59389444D01*
X12823513Y-59678571D01*
X13622934Y-59660389D01*
X14257421Y-59397576D01*
X14257420Y-68676365D01*
X10526721Y-72407065D01*
X10443869Y-72207042D01*
X10103491Y-71866664D01*
X9658765Y-71682452D01*
X9177397Y-71682452D01*
X8732671Y-71866664D01*
X8392293Y-72207042D01*
X8293845Y-72444716D01*
X7749017Y-71666754D01*
X7720397Y-71601640D01*
X7668789Y-71552196D01*
X7668692Y-71552058D01*
X7618820Y-71504323D01*
X7516440Y-71406237D01*
X7516275Y-71406173D01*
X7516147Y-71406050D01*
X7385074Y-71355091D01*
X7253230Y-71303759D01*
X7253051Y-71303763D01*
X7252887Y-71303699D01*
X7112125Y-71306782D01*
X6970839Y-71309808D01*
X6970677Y-71309879D01*
X6970501Y-71309883D01*
X6841617Y-71366606D01*
X6777529Y-71394775D01*
X6777388Y-71394874D01*
X6711976Y-71423662D01*
X6662797Y-71475043D01*
X5991167Y-71944924D01*
X2321801Y-66703659D01*
X9393466Y-66703659D01*
X9537987Y-67009444D01*
X10283513Y-67298571D01*
X11082934Y-67280389D01*
X11737053Y-67009444D01*
X11881574Y-66703659D01*
X10637520Y-65459605D01*
X9393466Y-66703659D01*
X2321801Y-66703659D01*
X1077271Y-64925993D01*
X8618949Y-64925993D01*
X8637131Y-65725414D01*
X8908076Y-66379533D01*
X9213861Y-66524054D01*
X10457915Y-65280000D01*
X10817125Y-65280000D01*
X12061179Y-66524054D01*
X12366964Y-66379533D01*
X12656091Y-65634007D01*
X12637909Y-64834586D01*
X12366964Y-64180467D01*
X12061179Y-64035946D01*
X10817125Y-65280000D01*
X10457915Y-65280000D01*
X9213861Y-64035946D01*
X8908076Y-64180467D01*
X8618949Y-64925993D01*
X1077271Y-64925993D01*
X710000Y-64401389D01*
X710000Y-63856341D01*
X9393466Y-63856341D01*
X10637520Y-65100395D01*
X11881574Y-63856341D01*
X11737053Y-63550556D01*
X10991527Y-63261429D01*
X10192106Y-63279611D01*
X9537987Y-63550556D01*
X9393466Y-63856341D01*
X710000Y-63856341D01*
X710000Y-59083659D01*
X6853466Y-59083659D01*
X6997987Y-59389444D01*
X7743513Y-59678571D01*
X8542934Y-59660389D01*
X9197053Y-59389444D01*
X9341574Y-59083659D01*
X8097520Y-57839605D01*
X6853466Y-59083659D01*
X710000Y-59083659D01*
X710000Y-57305993D01*
X6078949Y-57305993D01*
X6097131Y-58105414D01*
X6368076Y-58759533D01*
X6673861Y-58904054D01*
X7917915Y-57660000D01*
X8277125Y-57660000D01*
X9521179Y-58904054D01*
X9826964Y-58759533D01*
X10116091Y-58014007D01*
X10099988Y-57305993D01*
X11158949Y-57305993D01*
X11177131Y-58105414D01*
X11448076Y-58759533D01*
X11753861Y-58904054D01*
X12997915Y-57660000D01*
X11753861Y-56415946D01*
X11448076Y-56560467D01*
X11158949Y-57305993D01*
X10099988Y-57305993D01*
X10097909Y-57214586D01*
X9826964Y-56560467D01*
X9521179Y-56415946D01*
X8277125Y-57660000D01*
X7917915Y-57660000D01*
X6673861Y-56415946D01*
X6368076Y-56560467D01*
X6078949Y-57305993D01*
X710000Y-57305993D01*
X710000Y-56236341D01*
X6853466Y-56236341D01*
X8097520Y-57480395D01*
X9341574Y-56236341D01*
X9197053Y-55930556D01*
X8451527Y-55641429D01*
X7652106Y-55659611D01*
X6997987Y-55930556D01*
X6853466Y-56236341D01*
X710000Y-56236341D01*
X710000Y-49750000D01*
X8842765Y-49750000D01*
X8930854Y-50192855D01*
X9181711Y-50568289D01*
X9557145Y-50819146D01*
X9888217Y-50885000D01*
X10352560Y-50885000D01*
X10352560Y-51625000D01*
X10401843Y-51872765D01*
X10542191Y-52082809D01*
X10752235Y-52223157D01*
X11000000Y-52272440D01*
X12500000Y-52272440D01*
X12747765Y-52223157D01*
X12957809Y-52082809D01*
X12998654Y-52021680D01*
X13140302Y-52163327D01*
X13373691Y-52260000D01*
X13964250Y-52260000D01*
X14123000Y-52101250D01*
X14123000Y-51127000D01*
X14377000Y-51127000D01*
X14377000Y-52101250D01*
X14535750Y-52260000D01*
X15126309Y-52260000D01*
X15359698Y-52163327D01*
X15538327Y-51984699D01*
X15635000Y-51751310D01*
X15635000Y-51285750D01*
X15476250Y-51127000D01*
X14377000Y-51127000D01*
X14123000Y-51127000D01*
X14103000Y-51127000D01*
X14103000Y-50873000D01*
X14123000Y-50873000D01*
X14123000Y-49898750D01*
X13974250Y-49750000D01*
X14123000Y-49601250D01*
X14123000Y-48627000D01*
X14377000Y-48627000D01*
X14377000Y-49601250D01*
X14525750Y-49750000D01*
X14377000Y-49898750D01*
X14377000Y-50873000D01*
X15476250Y-50873000D01*
X15635000Y-50714250D01*
X15635000Y-50248690D01*
X15538327Y-50015301D01*
X15359698Y-49836673D01*
X15150451Y-49750000D01*
X15359698Y-49663327D01*
X15538327Y-49484699D01*
X15635000Y-49251310D01*
X15635000Y-48785750D01*
X15476250Y-48627000D01*
X14377000Y-48627000D01*
X14123000Y-48627000D01*
X14103000Y-48627000D01*
X14103000Y-48373000D01*
X14123000Y-48373000D01*
X14123000Y-47398750D01*
X14377000Y-47398750D01*
X14377000Y-48373000D01*
X15476250Y-48373000D01*
X15635000Y-48214250D01*
X15635000Y-47748690D01*
X15538327Y-47515301D01*
X15359698Y-47336673D01*
X15126309Y-47240000D01*
X14535750Y-47240000D01*
X14377000Y-47398750D01*
X14123000Y-47398750D01*
X13964250Y-47240000D01*
X13373691Y-47240000D01*
X13140302Y-47336673D01*
X12998654Y-47478320D01*
X12957809Y-47417191D01*
X12747765Y-47276843D01*
X12500000Y-47227560D01*
X11000000Y-47227560D01*
X10752235Y-47276843D01*
X10542191Y-47417191D01*
X10401843Y-47627235D01*
X10352560Y-47875000D01*
X10352560Y-48615000D01*
X9888217Y-48615000D01*
X9557145Y-48680854D01*
X9181711Y-48931711D01*
X8930854Y-49307145D01*
X8842765Y-49750000D01*
X710000Y-49750000D01*
X710000Y-12021326D01*
X6087520Y-12021326D01*
X6087520Y-12820954D01*
X6393524Y-13559713D01*
X6958947Y-14125136D01*
X7697706Y-14431140D01*
X8497334Y-14431140D01*
X9236093Y-14125136D01*
X9801516Y-13559713D01*
X10107520Y-12820954D01*
X10107520Y-12021326D01*
X9801516Y-11282567D01*
X9236093Y-10717144D01*
X8497334Y-10411140D01*
X7697706Y-10411140D01*
X6958947Y-10717144D01*
X6393524Y-11282567D01*
X6087520Y-12021326D01*
X710000Y-12021326D01*
X710000Y-4401326D01*
X8627520Y-4401326D01*
X8627520Y-5200954D01*
X8933524Y-5939713D01*
X9498947Y-6505136D01*
X10237706Y-6811140D01*
X11037334Y-6811140D01*
X11776093Y-6505136D01*
X12341516Y-5939713D01*
X12647520Y-5200954D01*
X12647520Y-4401326D01*
X12341516Y-3662567D01*
X11776093Y-3097144D01*
X11037334Y-2791140D01*
X10237706Y-2791140D01*
X9498947Y-3097144D01*
X8933524Y-3662567D01*
X8627520Y-4401326D01*
X710000Y-4401326D01*
X710000Y-710000D01*
X20562501Y-710000D01*
X20562500Y-33705897D01*
G36*
X103430000Y-64401388D02*
X98148834Y-71944924D01*
X97477207Y-71475046D01*
X97428025Y-71423662D01*
X97362608Y-71394872D01*
X97362470Y-71394775D01*
X97299540Y-71367115D01*
X97169499Y-71309883D01*
X97169322Y-71309879D01*
X97169160Y-71309808D01*
X97028913Y-71306804D01*
X96887112Y-71303699D01*
X96886945Y-71303764D01*
X96886770Y-71303760D01*
X96756183Y-71354602D01*
X96623853Y-71406050D01*
X96623725Y-71406173D01*
X96623560Y-71406237D01*
X96522603Y-71502960D01*
X96471307Y-71552057D01*
X96471206Y-71552201D01*
X96419603Y-71601640D01*
X96390986Y-71666748D01*
X95846154Y-72444714D01*
X95747707Y-72207042D01*
X95407329Y-71866664D01*
X94962603Y-71682452D01*
X94481235Y-71682452D01*
X94036509Y-71866664D01*
X93696131Y-72207042D01*
X93613279Y-72407064D01*
X89882580Y-68676366D01*
X89882580Y-64880186D01*
X91495020Y-64880186D01*
X91495020Y-65679814D01*
X91801024Y-66418573D01*
X92366447Y-66983996D01*
X93105206Y-67290000D01*
X93904834Y-67290000D01*
X94643593Y-66983996D01*
X95209016Y-66418573D01*
X95515020Y-65679814D01*
X95515020Y-64880186D01*
X95209016Y-64141427D01*
X94643593Y-63576004D01*
X93904834Y-63270000D01*
X93105206Y-63270000D01*
X92366447Y-63576004D01*
X91801024Y-64141427D01*
X91495020Y-64880186D01*
X89882580Y-64880186D01*
X89882580Y-59387247D01*
X90565206Y-59670000D01*
X91364834Y-59670000D01*
X92103593Y-59363996D01*
X92669016Y-58798573D01*
X92975020Y-58059814D01*
X92975020Y-57260186D01*
X94035020Y-57260186D01*
X94035020Y-58059814D01*
X94341024Y-58798573D01*
X94906447Y-59363996D01*
X95645206Y-59670000D01*
X96444834Y-59670000D01*
X97183593Y-59363996D01*
X97749016Y-58798573D01*
X98055020Y-58059814D01*
X98055020Y-57260186D01*
X97749016Y-56521427D01*
X97183593Y-55956004D01*
X96444834Y-55650000D01*
X95645206Y-55650000D01*
X94906447Y-55956004D01*
X94341024Y-56521427D01*
X94035020Y-57260186D01*
X92975020Y-57260186D01*
X92669016Y-56521427D01*
X92103593Y-55956004D01*
X91364834Y-55650000D01*
X90565206Y-55650000D01*
X89882580Y-55932753D01*
X89882580Y-55448628D01*
X89898448Y-55368855D01*
X89864453Y-55197950D01*
X89835583Y-55052810D01*
X89656557Y-54784879D01*
X89588927Y-54739690D01*
X88058081Y-53208845D01*
X88058081Y-51285750D01*
X88365000Y-51285750D01*
X88365000Y-51751310D01*
X88461673Y-51984699D01*
X88640302Y-52163327D01*
X88873691Y-52260000D01*
X89464250Y-52260000D01*
X89623000Y-52101250D01*
X89623000Y-51127000D01*
X88523750Y-51127000D01*
X88365000Y-51285750D01*
X88058081Y-51285750D01*
X88058081Y-48785750D01*
X88365000Y-48785750D01*
X88365000Y-49251310D01*
X88461673Y-49484699D01*
X88640302Y-49663327D01*
X88849549Y-49750000D01*
X88640302Y-49836673D01*
X88461673Y-50015301D01*
X88365000Y-50248690D01*
X88365000Y-50714250D01*
X88523750Y-50873000D01*
X89623000Y-50873000D01*
X89623000Y-49898750D01*
X89474250Y-49750000D01*
X89623000Y-49601250D01*
X89623000Y-48627000D01*
X88523750Y-48627000D01*
X88365000Y-48785750D01*
X88058081Y-48785750D01*
X88058081Y-47748690D01*
X88365000Y-47748690D01*
X88365000Y-48214250D01*
X88523750Y-48373000D01*
X89623000Y-48373000D01*
X89623000Y-47398750D01*
X89877000Y-47398750D01*
X89877000Y-48373000D01*
X89897000Y-48373000D01*
X89897000Y-48627000D01*
X89877000Y-48627000D01*
X89877000Y-49601250D01*
X90025750Y-49750000D01*
X89877000Y-49898750D01*
X89877000Y-50873000D01*
X89897000Y-50873000D01*
X89897000Y-51127000D01*
X89877000Y-51127000D01*
X89877000Y-52101250D01*
X90035750Y-52260000D01*
X90626309Y-52260000D01*
X90859698Y-52163327D01*
X91001346Y-52021680D01*
X91042191Y-52082809D01*
X91252235Y-52223157D01*
X91500000Y-52272440D01*
X93000000Y-52272440D01*
X93247765Y-52223157D01*
X93457809Y-52082809D01*
X93598157Y-51872765D01*
X93647440Y-51625000D01*
X93647440Y-50877907D01*
X93942855Y-50819146D01*
X94318289Y-50568289D01*
X94569146Y-50192855D01*
X94657235Y-49750000D01*
X94569146Y-49307145D01*
X94318289Y-48931711D01*
X93942855Y-48680854D01*
X93647440Y-48622093D01*
X93647440Y-47875000D01*
X93598157Y-47627235D01*
X93457809Y-47417191D01*
X93247765Y-47276843D01*
X93000000Y-47227560D01*
X91500000Y-47227560D01*
X91252235Y-47276843D01*
X91042191Y-47417191D01*
X91001346Y-47478320D01*
X90859698Y-47336673D01*
X90626309Y-47240000D01*
X90035750Y-47240000D01*
X89877000Y-47398750D01*
X89623000Y-47398750D01*
X89464250Y-47240000D01*
X88873691Y-47240000D01*
X88640302Y-47336673D01*
X88461673Y-47515301D01*
X88365000Y-47748690D01*
X88058081Y-47748690D01*
X88058081Y-46022188D01*
X88073948Y-45942418D01*
X88058081Y-45862649D01*
X88058081Y-45862645D01*
X88011084Y-45626373D01*
X87832058Y-45358442D01*
X87764428Y-45313253D01*
X85934830Y-43483656D01*
X85889639Y-43416023D01*
X85621708Y-43236997D01*
X85385436Y-43190000D01*
X85385435Y-43190000D01*
X85305662Y-43174132D01*
X85225889Y-43190000D01*
X84051938Y-43190000D01*
X83972168Y-43174133D01*
X83892399Y-43190000D01*
X83892395Y-43190000D01*
X83656123Y-43236997D01*
X83388192Y-43416023D01*
X83343003Y-43483653D01*
X82058656Y-44768001D01*
X81991023Y-44813192D01*
X81989810Y-44815008D01*
X81520331Y-44345529D01*
X81477929Y-44282071D01*
X81226537Y-44114096D01*
X81004852Y-44070000D01*
X81004847Y-44070000D01*
X80930000Y-44055112D01*
X80855153Y-44070000D01*
X56546722Y-44070000D01*
X56407431Y-43733720D01*
X56116280Y-43442569D01*
X55735874Y-43285000D01*
X55324126Y-43285000D01*
X54943720Y-43442569D01*
X54652569Y-43733720D01*
X54495000Y-44114126D01*
X54495000Y-44525874D01*
X54496709Y-44530000D01*
X53825000Y-44530000D01*
X53825000Y-44154126D01*
X53714085Y-43886353D01*
X53730020Y-43806242D01*
X53730020Y-43806237D01*
X53744908Y-43731390D01*
X53730020Y-43656543D01*
X53730020Y-37035750D01*
X55365000Y-37035750D01*
X55365000Y-37501310D01*
X55461673Y-37734699D01*
X55640302Y-37913327D01*
X55873691Y-38010000D01*
X56464250Y-38010000D01*
X56623000Y-37851250D01*
X56623000Y-36877000D01*
X55523750Y-36877000D01*
X55365000Y-37035750D01*
X53730020Y-37035750D01*
X53730020Y-34535750D01*
X55365000Y-34535750D01*
X55365000Y-35001310D01*
X55461673Y-35234699D01*
X55640302Y-35413327D01*
X55849549Y-35500000D01*
X55640302Y-35586673D01*
X55461673Y-35765301D01*
X55365000Y-35998690D01*
X55365000Y-36464250D01*
X55523750Y-36623000D01*
X56623000Y-36623000D01*
X56623000Y-35648750D01*
X56474250Y-35500000D01*
X56623000Y-35351250D01*
X56623000Y-34377000D01*
X55523750Y-34377000D01*
X55365000Y-34535750D01*
X53730020Y-34535750D01*
X53730020Y-32185750D01*
X54315000Y-32185750D01*
X54315000Y-33026309D01*
X54411673Y-33259698D01*
X54590301Y-33438327D01*
X54823690Y-33535000D01*
X55365000Y-33535000D01*
X55365000Y-33964250D01*
X55523750Y-34123000D01*
X56623000Y-34123000D01*
X56623000Y-34103000D01*
X56877000Y-34103000D01*
X56877000Y-34123000D01*
X56897000Y-34123000D01*
X56897000Y-34377000D01*
X56877000Y-34377000D01*
X56877000Y-35351250D01*
X57025750Y-35500000D01*
X56877000Y-35648750D01*
X56877000Y-36623000D01*
X56897000Y-36623000D01*
X56897000Y-36877000D01*
X56877000Y-36877000D01*
X56877000Y-37851250D01*
X57035750Y-38010000D01*
X57115001Y-38010000D01*
X57115001Y-39412865D01*
X57097663Y-39500030D01*
X57165000Y-39838562D01*
X57165000Y-39905904D01*
X57322569Y-40286310D01*
X57613720Y-40577461D01*
X57994126Y-40735030D01*
X58405874Y-40735030D01*
X58786280Y-40577461D01*
X59077431Y-40286310D01*
X59235000Y-39905904D01*
X59235000Y-39494156D01*
X59086245Y-39135030D01*
X59405874Y-39135030D01*
X59786280Y-38977461D01*
X60077431Y-38686310D01*
X60235000Y-38305904D01*
X60235000Y-37975696D01*
X60247765Y-37973157D01*
X60457809Y-37832809D01*
X60598157Y-37622765D01*
X60647440Y-37375000D01*
X60647440Y-36125000D01*
X60598157Y-35877235D01*
X60457809Y-35667191D01*
X60247765Y-35526843D01*
X60135000Y-35504413D01*
X60135000Y-35495587D01*
X60247765Y-35473157D01*
X60457809Y-35332809D01*
X60598157Y-35122765D01*
X60647440Y-34875000D01*
X60647440Y-34104139D01*
X60864156Y-33887423D01*
X60938049Y-33838049D01*
X60988897Y-33761951D01*
X61061615Y-33653120D01*
X61133652Y-33545310D01*
X61136657Y-33530203D01*
X61297765Y-33498157D01*
X61507809Y-33357809D01*
X61648157Y-33147765D01*
X61697440Y-32900000D01*
X61697440Y-30900000D01*
X61648157Y-30652235D01*
X61507809Y-30442191D01*
X61297765Y-30301843D01*
X61050000Y-30252560D01*
X59550000Y-30252560D01*
X59302235Y-30301843D01*
X59150000Y-30403564D01*
X58997765Y-30301843D01*
X58885000Y-30279413D01*
X58885000Y-27247440D01*
X59900000Y-27247440D01*
X60147765Y-27198157D01*
X60357809Y-27057809D01*
X60498157Y-26847765D01*
X60547440Y-26600000D01*
X60547440Y-24600000D01*
X60498157Y-24352235D01*
X60361244Y-24147332D01*
X60457809Y-24082809D01*
X60598157Y-23872765D01*
X60647440Y-23625000D01*
X60647440Y-22375000D01*
X60598157Y-22127235D01*
X60457809Y-21917191D01*
X60247765Y-21776843D01*
X60135000Y-21754413D01*
X60135000Y-21745587D01*
X60247765Y-21723157D01*
X60457809Y-21582809D01*
X60598157Y-21372765D01*
X60647440Y-21125000D01*
X60647440Y-19875000D01*
X60598157Y-19627235D01*
X60457809Y-19417191D01*
X60292509Y-19306741D01*
X60373000Y-19226250D01*
X60373000Y-17877000D01*
X58723750Y-17877000D01*
X58565000Y-18035750D01*
X58565000Y-18876309D01*
X58661673Y-19109698D01*
X58779534Y-19227560D01*
X58500000Y-19227560D01*
X58252235Y-19276843D01*
X58042191Y-19417191D01*
X58001346Y-19478320D01*
X57859698Y-19336673D01*
X57626309Y-19240000D01*
X57035750Y-19240000D01*
X56877000Y-19398750D01*
X56877000Y-20373000D01*
X56897000Y-20373000D01*
X56897000Y-20627000D01*
X56877000Y-20627000D01*
X56877000Y-21601250D01*
X57025750Y-21750000D01*
X56877000Y-21898750D01*
X56877000Y-22873000D01*
X56897000Y-22873000D01*
X56897000Y-23127000D01*
X56877000Y-23127000D01*
X56877000Y-23147000D01*
X56623000Y-23147000D01*
X56623000Y-23127000D01*
X55523750Y-23127000D01*
X55365000Y-23285750D01*
X55365000Y-23751310D01*
X55461673Y-23984699D01*
X55632968Y-24155993D01*
X55501843Y-24352235D01*
X55452560Y-24600000D01*
X55452560Y-26600000D01*
X55501843Y-26847765D01*
X55642191Y-27057809D01*
X55852235Y-27198157D01*
X56100000Y-27247440D01*
X57115001Y-27247440D01*
X57115000Y-30279413D01*
X57002235Y-30301843D01*
X56850953Y-30402927D01*
X56809699Y-30361673D01*
X56576310Y-30265000D01*
X55985750Y-30265000D01*
X55827000Y-30423750D01*
X55827000Y-31773000D01*
X55847000Y-31773000D01*
X55847000Y-32027000D01*
X55827000Y-32027000D01*
X55827000Y-32047000D01*
X55573000Y-32047000D01*
X55573000Y-32027000D01*
X54473750Y-32027000D01*
X54315000Y-32185750D01*
X53730020Y-32185750D01*
X53730020Y-30773691D01*
X54315000Y-30773691D01*
X54315000Y-31614250D01*
X54473750Y-31773000D01*
X55573000Y-31773000D01*
X55573000Y-30423750D01*
X55414250Y-30265000D01*
X54823690Y-30265000D01*
X54590301Y-30361673D01*
X54411673Y-30540302D01*
X54315000Y-30773691D01*
X53730020Y-30773691D01*
X53730020Y-21504781D01*
X54449051Y-20785750D01*
X55365000Y-20785750D01*
X55365000Y-21251310D01*
X55461673Y-21484699D01*
X55640302Y-21663327D01*
X55849549Y-21750000D01*
X55640302Y-21836673D01*
X55461673Y-22015301D01*
X55365000Y-22248690D01*
X55365000Y-22714250D01*
X55523750Y-22873000D01*
X56623000Y-22873000D01*
X56623000Y-21898750D01*
X56474250Y-21750000D01*
X56623000Y-21601250D01*
X56623000Y-20627000D01*
X55523750Y-20627000D01*
X55365000Y-20785750D01*
X54449051Y-20785750D01*
X55365000Y-19869801D01*
X55365000Y-20214250D01*
X55523750Y-20373000D01*
X56623000Y-20373000D01*
X56623000Y-19398750D01*
X56464250Y-19240000D01*
X55994801Y-19240000D01*
X58565000Y-16669802D01*
X58565000Y-17464250D01*
X58723750Y-17623000D01*
X60373000Y-17623000D01*
X60373000Y-17603000D01*
X60627000Y-17603000D01*
X60627000Y-17623000D01*
X60647000Y-17623000D01*
X60647000Y-17877000D01*
X60627000Y-17877000D01*
X60627000Y-19226250D01*
X60785750Y-19385000D01*
X61837500Y-19385000D01*
X61837500Y-34855074D01*
X61823591Y-34925000D01*
X61878695Y-35202028D01*
X62035619Y-35436881D01*
X62258302Y-35585673D01*
X62270472Y-35593805D01*
X62547500Y-35648909D01*
X62617425Y-35635000D01*
X81648397Y-35635000D01*
X80418398Y-36865000D01*
X78338969Y-36865000D01*
X77862055Y-36959864D01*
X77321231Y-37321231D01*
X76959864Y-37862055D01*
X76832969Y-38500000D01*
X76959864Y-39137945D01*
X77321231Y-39678769D01*
X77862055Y-40040136D01*
X78338969Y-40135000D01*
X80934606Y-40135000D01*
X81095636Y-40167031D01*
X81256666Y-40135000D01*
X81256667Y-40135000D01*
X81733581Y-40040136D01*
X82274405Y-39678769D01*
X82365624Y-39542250D01*
X85292253Y-36615622D01*
X85428769Y-36524405D01*
X85790136Y-35983581D01*
X85885000Y-35506667D01*
X85885000Y-35506663D01*
X85917030Y-35345637D01*
X85885000Y-35184611D01*
X85885000Y-19805778D01*
X91259639Y-14431140D01*
X91357214Y-14431140D01*
X92095973Y-14125136D01*
X92164969Y-14056140D01*
X94829831Y-14056140D01*
X94898827Y-14125136D01*
X95637586Y-14431140D01*
X96437214Y-14431140D01*
X97175973Y-14125136D01*
X97741396Y-13559713D01*
X98047400Y-12820954D01*
X98047400Y-12021326D01*
X97741396Y-11282567D01*
X97175973Y-10717144D01*
X96437214Y-10411140D01*
X96339639Y-10411140D01*
X95132400Y-9203902D01*
X95132400Y-6008709D01*
X95201396Y-5939713D01*
X95507400Y-5200954D01*
X95507400Y-4401326D01*
X95201396Y-3662567D01*
X94635973Y-3097144D01*
X93897214Y-2791140D01*
X93097586Y-2791140D01*
X92358827Y-3097144D01*
X91793404Y-3662567D01*
X91487400Y-4401326D01*
X91487400Y-5200954D01*
X91793404Y-5939713D01*
X91862400Y-6008709D01*
X91862401Y-9203900D01*
X90655162Y-10411140D01*
X90557586Y-10411140D01*
X89818827Y-10717144D01*
X89253404Y-11282567D01*
X88947400Y-12021326D01*
X88947400Y-12118901D01*
X83577500Y-17488802D01*
X83577500Y-710000D01*
X103430001Y-710000D01*
X103430000Y-64401388D01*
X103430000Y-64401388D01*
G37*
X103430000Y-64401388D02*
X98148834Y-71944924D01*
X97477207Y-71475046D01*
X97428025Y-71423662D01*
X97362608Y-71394872D01*
X97362470Y-71394775D01*
X97299540Y-71367115D01*
X97169499Y-71309883D01*
X97169322Y-71309879D01*
X97169160Y-71309808D01*
X97028913Y-71306804D01*
X96887112Y-71303699D01*
X96886945Y-71303764D01*
X96886770Y-71303760D01*
X96756183Y-71354602D01*
X96623853Y-71406050D01*
X96623725Y-71406173D01*
X96623560Y-71406237D01*
X96522603Y-71502960D01*
X96471307Y-71552057D01*
X96471206Y-71552201D01*
X96419603Y-71601640D01*
X96390986Y-71666748D01*
X95846154Y-72444714D01*
X95747707Y-72207042D01*
X95407329Y-71866664D01*
X94962603Y-71682452D01*
X94481235Y-71682452D01*
X94036509Y-71866664D01*
X93696131Y-72207042D01*
X93613279Y-72407064D01*
X89882580Y-68676366D01*
X89882580Y-64880186D01*
X91495020Y-64880186D01*
X91495020Y-65679814D01*
X91801024Y-66418573D01*
X92366447Y-66983996D01*
X93105206Y-67290000D01*
X93904834Y-67290000D01*
X94643593Y-66983996D01*
X95209016Y-66418573D01*
X95515020Y-65679814D01*
X95515020Y-64880186D01*
X95209016Y-64141427D01*
X94643593Y-63576004D01*
X93904834Y-63270000D01*
X93105206Y-63270000D01*
X92366447Y-63576004D01*
X91801024Y-64141427D01*
X91495020Y-64880186D01*
X89882580Y-64880186D01*
X89882580Y-59387247D01*
X90565206Y-59670000D01*
X91364834Y-59670000D01*
X92103593Y-59363996D01*
X92669016Y-58798573D01*
X92975020Y-58059814D01*
X92975020Y-57260186D01*
X94035020Y-57260186D01*
X94035020Y-58059814D01*
X94341024Y-58798573D01*
X94906447Y-59363996D01*
X95645206Y-59670000D01*
X96444834Y-59670000D01*
X97183593Y-59363996D01*
X97749016Y-58798573D01*
X98055020Y-58059814D01*
X98055020Y-57260186D01*
X97749016Y-56521427D01*
X97183593Y-55956004D01*
X96444834Y-55650000D01*
X95645206Y-55650000D01*
X94906447Y-55956004D01*
X94341024Y-56521427D01*
X94035020Y-57260186D01*
X92975020Y-57260186D01*
X92669016Y-56521427D01*
X92103593Y-55956004D01*
X91364834Y-55650000D01*
X90565206Y-55650000D01*
X89882580Y-55932753D01*
X89882580Y-55448628D01*
X89898448Y-55368855D01*
X89864453Y-55197950D01*
X89835583Y-55052810D01*
X89656557Y-54784879D01*
X89588927Y-54739690D01*
X88058081Y-53208845D01*
X88058081Y-51285750D01*
X88365000Y-51285750D01*
X88365000Y-51751310D01*
X88461673Y-51984699D01*
X88640302Y-52163327D01*
X88873691Y-52260000D01*
X89464250Y-52260000D01*
X89623000Y-52101250D01*
X89623000Y-51127000D01*
X88523750Y-51127000D01*
X88365000Y-51285750D01*
X88058081Y-51285750D01*
X88058081Y-48785750D01*
X88365000Y-48785750D01*
X88365000Y-49251310D01*
X88461673Y-49484699D01*
X88640302Y-49663327D01*
X88849549Y-49750000D01*
X88640302Y-49836673D01*
X88461673Y-50015301D01*
X88365000Y-50248690D01*
X88365000Y-50714250D01*
X88523750Y-50873000D01*
X89623000Y-50873000D01*
X89623000Y-49898750D01*
X89474250Y-49750000D01*
X89623000Y-49601250D01*
X89623000Y-48627000D01*
X88523750Y-48627000D01*
X88365000Y-48785750D01*
X88058081Y-48785750D01*
X88058081Y-47748690D01*
X88365000Y-47748690D01*
X88365000Y-48214250D01*
X88523750Y-48373000D01*
X89623000Y-48373000D01*
X89623000Y-47398750D01*
X89877000Y-47398750D01*
X89877000Y-48373000D01*
X89897000Y-48373000D01*
X89897000Y-48627000D01*
X89877000Y-48627000D01*
X89877000Y-49601250D01*
X90025750Y-49750000D01*
X89877000Y-49898750D01*
X89877000Y-50873000D01*
X89897000Y-50873000D01*
X89897000Y-51127000D01*
X89877000Y-51127000D01*
X89877000Y-52101250D01*
X90035750Y-52260000D01*
X90626309Y-52260000D01*
X90859698Y-52163327D01*
X91001346Y-52021680D01*
X91042191Y-52082809D01*
X91252235Y-52223157D01*
X91500000Y-52272440D01*
X93000000Y-52272440D01*
X93247765Y-52223157D01*
X93457809Y-52082809D01*
X93598157Y-51872765D01*
X93647440Y-51625000D01*
X93647440Y-50877907D01*
X93942855Y-50819146D01*
X94318289Y-50568289D01*
X94569146Y-50192855D01*
X94657235Y-49750000D01*
X94569146Y-49307145D01*
X94318289Y-48931711D01*
X93942855Y-48680854D01*
X93647440Y-48622093D01*
X93647440Y-47875000D01*
X93598157Y-47627235D01*
X93457809Y-47417191D01*
X93247765Y-47276843D01*
X93000000Y-47227560D01*
X91500000Y-47227560D01*
X91252235Y-47276843D01*
X91042191Y-47417191D01*
X91001346Y-47478320D01*
X90859698Y-47336673D01*
X90626309Y-47240000D01*
X90035750Y-47240000D01*
X89877000Y-47398750D01*
X89623000Y-47398750D01*
X89464250Y-47240000D01*
X88873691Y-47240000D01*
X88640302Y-47336673D01*
X88461673Y-47515301D01*
X88365000Y-47748690D01*
X88058081Y-47748690D01*
X88058081Y-46022188D01*
X88073948Y-45942418D01*
X88058081Y-45862649D01*
X88058081Y-45862645D01*
X88011084Y-45626373D01*
X87832058Y-45358442D01*
X87764428Y-45313253D01*
X85934830Y-43483656D01*
X85889639Y-43416023D01*
X85621708Y-43236997D01*
X85385436Y-43190000D01*
X85385435Y-43190000D01*
X85305662Y-43174132D01*
X85225889Y-43190000D01*
X84051938Y-43190000D01*
X83972168Y-43174133D01*
X83892399Y-43190000D01*
X83892395Y-43190000D01*
X83656123Y-43236997D01*
X83388192Y-43416023D01*
X83343003Y-43483653D01*
X82058656Y-44768001D01*
X81991023Y-44813192D01*
X81989810Y-44815008D01*
X81520331Y-44345529D01*
X81477929Y-44282071D01*
X81226537Y-44114096D01*
X81004852Y-44070000D01*
X81004847Y-44070000D01*
X80930000Y-44055112D01*
X80855153Y-44070000D01*
X56546722Y-44070000D01*
X56407431Y-43733720D01*
X56116280Y-43442569D01*
X55735874Y-43285000D01*
X55324126Y-43285000D01*
X54943720Y-43442569D01*
X54652569Y-43733720D01*
X54495000Y-44114126D01*
X54495000Y-44525874D01*
X54496709Y-44530000D01*
X53825000Y-44530000D01*
X53825000Y-44154126D01*
X53714085Y-43886353D01*
X53730020Y-43806242D01*
X53730020Y-43806237D01*
X53744908Y-43731390D01*
X53730020Y-43656543D01*
X53730020Y-37035750D01*
X55365000Y-37035750D01*
X55365000Y-37501310D01*
X55461673Y-37734699D01*
X55640302Y-37913327D01*
X55873691Y-38010000D01*
X56464250Y-38010000D01*
X56623000Y-37851250D01*
X56623000Y-36877000D01*
X55523750Y-36877000D01*
X55365000Y-37035750D01*
X53730020Y-37035750D01*
X53730020Y-34535750D01*
X55365000Y-34535750D01*
X55365000Y-35001310D01*
X55461673Y-35234699D01*
X55640302Y-35413327D01*
X55849549Y-35500000D01*
X55640302Y-35586673D01*
X55461673Y-35765301D01*
X55365000Y-35998690D01*
X55365000Y-36464250D01*
X55523750Y-36623000D01*
X56623000Y-36623000D01*
X56623000Y-35648750D01*
X56474250Y-35500000D01*
X56623000Y-35351250D01*
X56623000Y-34377000D01*
X55523750Y-34377000D01*
X55365000Y-34535750D01*
X53730020Y-34535750D01*
X53730020Y-32185750D01*
X54315000Y-32185750D01*
X54315000Y-33026309D01*
X54411673Y-33259698D01*
X54590301Y-33438327D01*
X54823690Y-33535000D01*
X55365000Y-33535000D01*
X55365000Y-33964250D01*
X55523750Y-34123000D01*
X56623000Y-34123000D01*
X56623000Y-34103000D01*
X56877000Y-34103000D01*
X56877000Y-34123000D01*
X56897000Y-34123000D01*
X56897000Y-34377000D01*
X56877000Y-34377000D01*
X56877000Y-35351250D01*
X57025750Y-35500000D01*
X56877000Y-35648750D01*
X56877000Y-36623000D01*
X56897000Y-36623000D01*
X56897000Y-36877000D01*
X56877000Y-36877000D01*
X56877000Y-37851250D01*
X57035750Y-38010000D01*
X57115001Y-38010000D01*
X57115001Y-39412865D01*
X57097663Y-39500030D01*
X57165000Y-39838562D01*
X57165000Y-39905904D01*
X57322569Y-40286310D01*
X57613720Y-40577461D01*
X57994126Y-40735030D01*
X58405874Y-40735030D01*
X58786280Y-40577461D01*
X59077431Y-40286310D01*
X59235000Y-39905904D01*
X59235000Y-39494156D01*
X59086245Y-39135030D01*
X59405874Y-39135030D01*
X59786280Y-38977461D01*
X60077431Y-38686310D01*
X60235000Y-38305904D01*
X60235000Y-37975696D01*
X60247765Y-37973157D01*
X60457809Y-37832809D01*
X60598157Y-37622765D01*
X60647440Y-37375000D01*
X60647440Y-36125000D01*
X60598157Y-35877235D01*
X60457809Y-35667191D01*
X60247765Y-35526843D01*
X60135000Y-35504413D01*
X60135000Y-35495587D01*
X60247765Y-35473157D01*
X60457809Y-35332809D01*
X60598157Y-35122765D01*
X60647440Y-34875000D01*
X60647440Y-34104139D01*
X60864156Y-33887423D01*
X60938049Y-33838049D01*
X60988897Y-33761951D01*
X61061615Y-33653120D01*
X61133652Y-33545310D01*
X61136657Y-33530203D01*
X61297765Y-33498157D01*
X61507809Y-33357809D01*
X61648157Y-33147765D01*
X61697440Y-32900000D01*
X61697440Y-30900000D01*
X61648157Y-30652235D01*
X61507809Y-30442191D01*
X61297765Y-30301843D01*
X61050000Y-30252560D01*
X59550000Y-30252560D01*
X59302235Y-30301843D01*
X59150000Y-30403564D01*
X58997765Y-30301843D01*
X58885000Y-30279413D01*
X58885000Y-27247440D01*
X59900000Y-27247440D01*
X60147765Y-27198157D01*
X60357809Y-27057809D01*
X60498157Y-26847765D01*
X60547440Y-26600000D01*
X60547440Y-24600000D01*
X60498157Y-24352235D01*
X60361244Y-24147332D01*
X60457809Y-24082809D01*
X60598157Y-23872765D01*
X60647440Y-23625000D01*
X60647440Y-22375000D01*
X60598157Y-22127235D01*
X60457809Y-21917191D01*
X60247765Y-21776843D01*
X60135000Y-21754413D01*
X60135000Y-21745587D01*
X60247765Y-21723157D01*
X60457809Y-21582809D01*
X60598157Y-21372765D01*
X60647440Y-21125000D01*
X60647440Y-19875000D01*
X60598157Y-19627235D01*
X60457809Y-19417191D01*
X60292509Y-19306741D01*
X60373000Y-19226250D01*
X60373000Y-17877000D01*
X58723750Y-17877000D01*
X58565000Y-18035750D01*
X58565000Y-18876309D01*
X58661673Y-19109698D01*
X58779534Y-19227560D01*
X58500000Y-19227560D01*
X58252235Y-19276843D01*
X58042191Y-19417191D01*
X58001346Y-19478320D01*
X57859698Y-19336673D01*
X57626309Y-19240000D01*
X57035750Y-19240000D01*
X56877000Y-19398750D01*
X56877000Y-20373000D01*
X56897000Y-20373000D01*
X56897000Y-20627000D01*
X56877000Y-20627000D01*
X56877000Y-21601250D01*
X57025750Y-21750000D01*
X56877000Y-21898750D01*
X56877000Y-22873000D01*
X56897000Y-22873000D01*
X56897000Y-23127000D01*
X56877000Y-23127000D01*
X56877000Y-23147000D01*
X56623000Y-23147000D01*
X56623000Y-23127000D01*
X55523750Y-23127000D01*
X55365000Y-23285750D01*
X55365000Y-23751310D01*
X55461673Y-23984699D01*
X55632968Y-24155993D01*
X55501843Y-24352235D01*
X55452560Y-24600000D01*
X55452560Y-26600000D01*
X55501843Y-26847765D01*
X55642191Y-27057809D01*
X55852235Y-27198157D01*
X56100000Y-27247440D01*
X57115001Y-27247440D01*
X57115000Y-30279413D01*
X57002235Y-30301843D01*
X56850953Y-30402927D01*
X56809699Y-30361673D01*
X56576310Y-30265000D01*
X55985750Y-30265000D01*
X55827000Y-30423750D01*
X55827000Y-31773000D01*
X55847000Y-31773000D01*
X55847000Y-32027000D01*
X55827000Y-32027000D01*
X55827000Y-32047000D01*
X55573000Y-32047000D01*
X55573000Y-32027000D01*
X54473750Y-32027000D01*
X54315000Y-32185750D01*
X53730020Y-32185750D01*
X53730020Y-30773691D01*
X54315000Y-30773691D01*
X54315000Y-31614250D01*
X54473750Y-31773000D01*
X55573000Y-31773000D01*
X55573000Y-30423750D01*
X55414250Y-30265000D01*
X54823690Y-30265000D01*
X54590301Y-30361673D01*
X54411673Y-30540302D01*
X54315000Y-30773691D01*
X53730020Y-30773691D01*
X53730020Y-21504781D01*
X54449051Y-20785750D01*
X55365000Y-20785750D01*
X55365000Y-21251310D01*
X55461673Y-21484699D01*
X55640302Y-21663327D01*
X55849549Y-21750000D01*
X55640302Y-21836673D01*
X55461673Y-22015301D01*
X55365000Y-22248690D01*
X55365000Y-22714250D01*
X55523750Y-22873000D01*
X56623000Y-22873000D01*
X56623000Y-21898750D01*
X56474250Y-21750000D01*
X56623000Y-21601250D01*
X56623000Y-20627000D01*
X55523750Y-20627000D01*
X55365000Y-20785750D01*
X54449051Y-20785750D01*
X55365000Y-19869801D01*
X55365000Y-20214250D01*
X55523750Y-20373000D01*
X56623000Y-20373000D01*
X56623000Y-19398750D01*
X56464250Y-19240000D01*
X55994801Y-19240000D01*
X58565000Y-16669802D01*
X58565000Y-17464250D01*
X58723750Y-17623000D01*
X60373000Y-17623000D01*
X60373000Y-17603000D01*
X60627000Y-17603000D01*
X60627000Y-17623000D01*
X60647000Y-17623000D01*
X60647000Y-17877000D01*
X60627000Y-17877000D01*
X60627000Y-19226250D01*
X60785750Y-19385000D01*
X61837500Y-19385000D01*
X61837500Y-34855074D01*
X61823591Y-34925000D01*
X61878695Y-35202028D01*
X62035619Y-35436881D01*
X62258302Y-35585673D01*
X62270472Y-35593805D01*
X62547500Y-35648909D01*
X62617425Y-35635000D01*
X81648397Y-35635000D01*
X80418398Y-36865000D01*
X78338969Y-36865000D01*
X77862055Y-36959864D01*
X77321231Y-37321231D01*
X76959864Y-37862055D01*
X76832969Y-38500000D01*
X76959864Y-39137945D01*
X77321231Y-39678769D01*
X77862055Y-40040136D01*
X78338969Y-40135000D01*
X80934606Y-40135000D01*
X81095636Y-40167031D01*
X81256666Y-40135000D01*
X81256667Y-40135000D01*
X81733581Y-40040136D01*
X82274405Y-39678769D01*
X82365624Y-39542250D01*
X85292253Y-36615622D01*
X85428769Y-36524405D01*
X85790136Y-35983581D01*
X85885000Y-35506667D01*
X85885000Y-35506663D01*
X85917030Y-35345637D01*
X85885000Y-35184611D01*
X85885000Y-19805778D01*
X91259639Y-14431140D01*
X91357214Y-14431140D01*
X92095973Y-14125136D01*
X92164969Y-14056140D01*
X94829831Y-14056140D01*
X94898827Y-14125136D01*
X95637586Y-14431140D01*
X96437214Y-14431140D01*
X97175973Y-14125136D01*
X97741396Y-13559713D01*
X98047400Y-12820954D01*
X98047400Y-12021326D01*
X97741396Y-11282567D01*
X97175973Y-10717144D01*
X96437214Y-10411140D01*
X96339639Y-10411140D01*
X95132400Y-9203902D01*
X95132400Y-6008709D01*
X95201396Y-5939713D01*
X95507400Y-5200954D01*
X95507400Y-4401326D01*
X95201396Y-3662567D01*
X94635973Y-3097144D01*
X93897214Y-2791140D01*
X93097586Y-2791140D01*
X92358827Y-3097144D01*
X91793404Y-3662567D01*
X91487400Y-4401326D01*
X91487400Y-5200954D01*
X91793404Y-5939713D01*
X91862400Y-6008709D01*
X91862401Y-9203900D01*
X90655162Y-10411140D01*
X90557586Y-10411140D01*
X89818827Y-10717144D01*
X89253404Y-11282567D01*
X88947400Y-12021326D01*
X88947400Y-12118901D01*
X83577500Y-17488802D01*
X83577500Y-710000D01*
X103430001Y-710000D01*
X103430000Y-64401388D01*
G36*
X80015000Y-50035750D02*
X80015000Y-51318541D01*
X79942191Y-51367191D01*
X79862500Y-51486456D01*
X79862500Y-51348750D01*
X79785000Y-51271250D01*
X79785000Y-50735750D01*
X79626250Y-50577000D01*
X78627000Y-50577000D01*
X78627000Y-50597000D01*
X78373000Y-50597000D01*
X78373000Y-50577000D01*
X78353000Y-50577000D01*
X78353000Y-50323000D01*
X78373000Y-50323000D01*
X78373000Y-50303000D01*
X78627000Y-50303000D01*
X78627000Y-50323000D01*
X79626250Y-50323000D01*
X79785000Y-50164250D01*
X79785000Y-50035000D01*
X79955874Y-50035000D01*
X80058089Y-49992661D01*
X80015000Y-50035750D01*
X80015000Y-50035750D01*
G37*
X80015000Y-50035750D02*
X80015000Y-51318541D01*
X79942191Y-51367191D01*
X79862500Y-51486456D01*
X79862500Y-51348750D01*
X79785000Y-51271250D01*
X79785000Y-50735750D01*
X79626250Y-50577000D01*
X78627000Y-50577000D01*
X78627000Y-50597000D01*
X78373000Y-50597000D01*
X78373000Y-50577000D01*
X78353000Y-50577000D01*
X78353000Y-50323000D01*
X78373000Y-50323000D01*
X78373000Y-50303000D01*
X78627000Y-50303000D01*
X78627000Y-50323000D01*
X79626250Y-50323000D01*
X79785000Y-50164250D01*
X79785000Y-50035000D01*
X79955874Y-50035000D01*
X80058089Y-49992661D01*
X80015000Y-50035750D01*
G36*
X24387500Y-48151250D02*
X24546250Y-48310000D01*
X24626309Y-48310000D01*
X24802311Y-48237097D01*
X24811673Y-48259698D01*
X24990301Y-48438327D01*
X25130209Y-48496279D01*
X25102235Y-48501843D01*
X24892191Y-48642191D01*
X24751843Y-48852235D01*
X24702560Y-49100000D01*
X24702560Y-50600000D01*
X24751843Y-50847765D01*
X24876556Y-51034410D01*
X24663720Y-51122569D01*
X24590690Y-51195599D01*
X24500000Y-51177560D01*
X24235000Y-51177560D01*
X24235000Y-50035750D01*
X24076250Y-49877000D01*
X22127000Y-49877000D01*
X22127000Y-49897000D01*
X21873000Y-49897000D01*
X21873000Y-49877000D01*
X21853000Y-49877000D01*
X21853000Y-49623000D01*
X21873000Y-49623000D01*
X21873000Y-49603000D01*
X22127000Y-49603000D01*
X22127000Y-49623000D01*
X24076250Y-49623000D01*
X24235000Y-49464250D01*
X24235000Y-48181459D01*
X24307809Y-48132809D01*
X24387500Y-48013544D01*
X24387500Y-48151250D01*
X24387500Y-48151250D01*
G37*
X24387500Y-48151250D02*
X24546250Y-48310000D01*
X24626309Y-48310000D01*
X24802311Y-48237097D01*
X24811673Y-48259698D01*
X24990301Y-48438327D01*
X25130209Y-48496279D01*
X25102235Y-48501843D01*
X24892191Y-48642191D01*
X24751843Y-48852235D01*
X24702560Y-49100000D01*
X24702560Y-50600000D01*
X24751843Y-50847765D01*
X24876556Y-51034410D01*
X24663720Y-51122569D01*
X24590690Y-51195599D01*
X24500000Y-51177560D01*
X24235000Y-51177560D01*
X24235000Y-50035750D01*
X24076250Y-49877000D01*
X22127000Y-49877000D01*
X22127000Y-49897000D01*
X21873000Y-49897000D01*
X21873000Y-49877000D01*
X21853000Y-49877000D01*
X21853000Y-49623000D01*
X21873000Y-49623000D01*
X21873000Y-49603000D01*
X22127000Y-49603000D01*
X22127000Y-49623000D01*
X24076250Y-49623000D01*
X24235000Y-49464250D01*
X24235000Y-48181459D01*
X24307809Y-48132809D01*
X24387500Y-48013544D01*
X24387500Y-48151250D01*
G36*
X84690001Y-49335514D02*
X84690001Y-51177560D01*
X84485000Y-51177560D01*
X84485000Y-50035750D01*
X84326250Y-49877000D01*
X82377000Y-49877000D01*
X82377000Y-49897000D01*
X82123000Y-49897000D01*
X82123000Y-49877000D01*
X82103000Y-49877000D01*
X82103000Y-49623000D01*
X82123000Y-49623000D01*
X82123000Y-49603000D01*
X82377000Y-49603000D01*
X82377000Y-49623000D01*
X84326250Y-49623000D01*
X84485000Y-49464250D01*
X84485000Y-49130513D01*
X84690001Y-49335514D01*
X84690001Y-49335514D01*
G37*
X84690001Y-49335514D02*
X84690001Y-51177560D01*
X84485000Y-51177560D01*
X84485000Y-50035750D01*
X84326250Y-49877000D01*
X82377000Y-49877000D01*
X82377000Y-49897000D01*
X82123000Y-49897000D01*
X82123000Y-49877000D01*
X82103000Y-49877000D01*
X82103000Y-49623000D01*
X82123000Y-49623000D01*
X82123000Y-49603000D01*
X82377000Y-49603000D01*
X82377000Y-49623000D01*
X84326250Y-49623000D01*
X84485000Y-49464250D01*
X84485000Y-49130513D01*
X84690001Y-49335514D01*
G36*
X27255786Y-50809413D02*
X27297440Y-50600000D01*
X27297440Y-49100000D01*
X27248157Y-48852235D01*
X27107809Y-48642191D01*
X26897765Y-48501843D01*
X26869791Y-48496279D01*
X27009699Y-48438327D01*
X27188327Y-48259698D01*
X27285000Y-48026309D01*
X27285000Y-47435750D01*
X27126250Y-47277000D01*
X26127000Y-47277000D01*
X26127000Y-47297000D01*
X25873000Y-47297000D01*
X25873000Y-47277000D01*
X25853000Y-47277000D01*
X25853000Y-47023000D01*
X25873000Y-47023000D01*
X25873000Y-47003000D01*
X26127000Y-47003000D01*
X26127000Y-47023000D01*
X27126250Y-47023000D01*
X27285000Y-46864250D01*
X27285000Y-46273691D01*
X27192344Y-46050000D01*
X32015198Y-46050000D01*
X27255786Y-50809413D01*
X27255786Y-50809413D01*
G37*
X27255786Y-50809413D02*
X27297440Y-50600000D01*
X27297440Y-49100000D01*
X27248157Y-48852235D01*
X27107809Y-48642191D01*
X26897765Y-48501843D01*
X26869791Y-48496279D01*
X27009699Y-48438327D01*
X27188327Y-48259698D01*
X27285000Y-48026309D01*
X27285000Y-47435750D01*
X27126250Y-47277000D01*
X26127000Y-47277000D01*
X26127000Y-47297000D01*
X25873000Y-47297000D01*
X25873000Y-47277000D01*
X25853000Y-47277000D01*
X25853000Y-47023000D01*
X25873000Y-47023000D01*
X25873000Y-47003000D01*
X26127000Y-47003000D01*
X26127000Y-47023000D01*
X27126250Y-47023000D01*
X27285000Y-46864250D01*
X27285000Y-46273691D01*
X27192344Y-46050000D01*
X32015198Y-46050000D01*
X27255786Y-50809413D01*
G36*
X78015530Y-46159669D02*
X77952071Y-46202071D01*
X77851518Y-46352560D01*
X77850000Y-46352560D01*
X77602235Y-46401843D01*
X77392191Y-46542191D01*
X77251843Y-46752235D01*
X77202560Y-47000000D01*
X77202560Y-48500000D01*
X77251843Y-48747765D01*
X77392191Y-48957809D01*
X77602235Y-49098157D01*
X77630209Y-49103721D01*
X77490301Y-49161673D01*
X77311673Y-49340302D01*
X77215000Y-49573691D01*
X77215000Y-50164250D01*
X77373748Y-50322998D01*
X77215000Y-50322998D01*
X77215000Y-50400200D01*
X72864799Y-46050000D01*
X78125199Y-46050000D01*
X78015530Y-46159669D01*
X78015530Y-46159669D01*
G37*
X78015530Y-46159669D02*
X77952071Y-46202071D01*
X77851518Y-46352560D01*
X77850000Y-46352560D01*
X77602235Y-46401843D01*
X77392191Y-46542191D01*
X77251843Y-46752235D01*
X77202560Y-47000000D01*
X77202560Y-48500000D01*
X77251843Y-48747765D01*
X77392191Y-48957809D01*
X77602235Y-49098157D01*
X77630209Y-49103721D01*
X77490301Y-49161673D01*
X77311673Y-49340302D01*
X77215000Y-49573691D01*
X77215000Y-50164250D01*
X77373748Y-50322998D01*
X77215000Y-50322998D01*
X77215000Y-50400200D01*
X72864799Y-46050000D01*
X78125199Y-46050000D01*
X78015530Y-46159669D01*
G36*
X61837501Y-1236839D02*
X61437945Y-969864D01*
X60961031Y-875000D01*
X60038969Y-875000D01*
X59562055Y-969864D01*
X59021231Y-1331231D01*
X58659864Y-1872055D01*
X58532969Y-2510000D01*
X58659864Y-3147945D01*
X59021231Y-3688769D01*
X59157768Y-3780000D01*
X59021231Y-3871231D01*
X58659864Y-4412055D01*
X58532969Y-5050000D01*
X58631226Y-5543972D01*
X56715530Y-7459669D01*
X56652071Y-7502071D01*
X56484096Y-7753464D01*
X56440000Y-7975149D01*
X56440000Y-7975153D01*
X56425112Y-8050000D01*
X56440000Y-8124847D01*
X56440001Y-13885197D01*
X50675530Y-19649669D01*
X50612071Y-19692071D01*
X50444096Y-19943464D01*
X50400000Y-20165149D01*
X50400000Y-20165153D01*
X50385112Y-20240000D01*
X50400000Y-20314847D01*
X50400000Y-20425149D01*
X50400001Y-33365000D01*
X49994126Y-33365000D01*
X49732424Y-33473400D01*
X49690447Y-33262366D01*
X49329080Y-32721542D01*
X48788255Y-32360175D01*
X48150311Y-32233280D01*
X47512366Y-32360175D01*
X46971542Y-32721542D01*
X46610175Y-33262367D01*
X46515311Y-33739281D01*
X46515311Y-34246593D01*
X46377431Y-33913720D01*
X46086280Y-33622569D01*
X45705874Y-33465000D01*
X45294126Y-33465000D01*
X44913720Y-33622569D01*
X44622569Y-33913720D01*
X44472569Y-34275852D01*
X44183412Y-34565010D01*
X42302500Y-34565010D01*
X42302500Y-15535750D01*
X43065000Y-15535750D01*
X43065000Y-16376309D01*
X43161673Y-16609698D01*
X43340301Y-16788327D01*
X43573690Y-16885000D01*
X44714250Y-16885000D01*
X44873000Y-16726250D01*
X44873000Y-15377000D01*
X45127000Y-15377000D01*
X45127000Y-16726250D01*
X45285750Y-16885000D01*
X46426310Y-16885000D01*
X46659699Y-16788327D01*
X46838327Y-16609698D01*
X46935000Y-16376309D01*
X46935000Y-15535750D01*
X46776250Y-15377000D01*
X45127000Y-15377000D01*
X44873000Y-15377000D01*
X43223750Y-15377000D01*
X43065000Y-15535750D01*
X42302500Y-15535750D01*
X42302500Y-14123691D01*
X43065000Y-14123691D01*
X43065000Y-14964250D01*
X43223750Y-15123000D01*
X44873000Y-15123000D01*
X44873000Y-12837000D01*
X45127000Y-12837000D01*
X45127000Y-15123000D01*
X46776250Y-15123000D01*
X46935000Y-14964250D01*
X46935000Y-14123691D01*
X46838327Y-13890302D01*
X46659699Y-13711673D01*
X46596830Y-13685632D01*
X46859144Y-13218355D01*
X46890124Y-13090434D01*
X46770777Y-12837000D01*
X45127000Y-12837000D01*
X44873000Y-12837000D01*
X43229223Y-12837000D01*
X43109876Y-13090434D01*
X43140856Y-13218355D01*
X43403170Y-13685632D01*
X43340301Y-13711673D01*
X43161673Y-13890302D01*
X43065000Y-14123691D01*
X42302500Y-14123691D01*
X42302500Y-2550000D01*
X43032969Y-2550000D01*
X43159864Y-3187945D01*
X43521231Y-3728769D01*
X43657768Y-3820000D01*
X43521231Y-3911231D01*
X43159864Y-4452055D01*
X43032969Y-5090000D01*
X43159864Y-5727945D01*
X43521231Y-6268769D01*
X43657768Y-6360000D01*
X43521231Y-6451231D01*
X43159864Y-6992055D01*
X43032969Y-7630000D01*
X43159864Y-8267945D01*
X43521231Y-8808769D01*
X43657768Y-8900000D01*
X43521231Y-8991231D01*
X43159864Y-9532055D01*
X43032969Y-10170000D01*
X43159864Y-10807945D01*
X43521231Y-11348769D01*
X43687629Y-11459952D01*
X43454078Y-11643683D01*
X43140856Y-12201645D01*
X43109876Y-12329566D01*
X43229223Y-12583000D01*
X44873000Y-12583000D01*
X44873000Y-12563000D01*
X45127000Y-12563000D01*
X45127000Y-12583000D01*
X46770777Y-12583000D01*
X46890124Y-12329566D01*
X46859144Y-12201645D01*
X46545922Y-11643683D01*
X46312371Y-11459952D01*
X46478769Y-11348769D01*
X46840136Y-10807945D01*
X46967031Y-10170000D01*
X46840136Y-9532055D01*
X46478769Y-8991231D01*
X46342232Y-8900000D01*
X46478769Y-8808769D01*
X46840136Y-8267945D01*
X46967031Y-7630000D01*
X46840136Y-6992055D01*
X46478769Y-6451231D01*
X46342232Y-6360000D01*
X46478769Y-6268769D01*
X46840136Y-5727945D01*
X46967031Y-5090000D01*
X46840136Y-4452055D01*
X46478769Y-3911231D01*
X46342232Y-3820000D01*
X46478769Y-3728769D01*
X46840136Y-3187945D01*
X46967031Y-2550000D01*
X46840136Y-1912055D01*
X46478769Y-1371231D01*
X45937945Y-1009864D01*
X45461031Y-915000D01*
X44538969Y-915000D01*
X44062055Y-1009864D01*
X43521231Y-1371231D01*
X43159864Y-1912055D01*
X43032969Y-2550000D01*
X42302500Y-2550000D01*
X42302500Y-710000D01*
X61837501Y-710000D01*
X61837501Y-1236839D01*
X61837501Y-1236839D01*
G37*
X61837501Y-1236839D02*
X61437945Y-969864D01*
X60961031Y-875000D01*
X60038969Y-875000D01*
X59562055Y-969864D01*
X59021231Y-1331231D01*
X58659864Y-1872055D01*
X58532969Y-2510000D01*
X58659864Y-3147945D01*
X59021231Y-3688769D01*
X59157768Y-3780000D01*
X59021231Y-3871231D01*
X58659864Y-4412055D01*
X58532969Y-5050000D01*
X58631226Y-5543972D01*
X56715530Y-7459669D01*
X56652071Y-7502071D01*
X56484096Y-7753464D01*
X56440000Y-7975149D01*
X56440000Y-7975153D01*
X56425112Y-8050000D01*
X56440000Y-8124847D01*
X56440001Y-13885197D01*
X50675530Y-19649669D01*
X50612071Y-19692071D01*
X50444096Y-19943464D01*
X50400000Y-20165149D01*
X50400000Y-20165153D01*
X50385112Y-20240000D01*
X50400000Y-20314847D01*
X50400000Y-20425149D01*
X50400001Y-33365000D01*
X49994126Y-33365000D01*
X49732424Y-33473400D01*
X49690447Y-33262366D01*
X49329080Y-32721542D01*
X48788255Y-32360175D01*
X48150311Y-32233280D01*
X47512366Y-32360175D01*
X46971542Y-32721542D01*
X46610175Y-33262367D01*
X46515311Y-33739281D01*
X46515311Y-34246593D01*
X46377431Y-33913720D01*
X46086280Y-33622569D01*
X45705874Y-33465000D01*
X45294126Y-33465000D01*
X44913720Y-33622569D01*
X44622569Y-33913720D01*
X44472569Y-34275852D01*
X44183412Y-34565010D01*
X42302500Y-34565010D01*
X42302500Y-15535750D01*
X43065000Y-15535750D01*
X43065000Y-16376309D01*
X43161673Y-16609698D01*
X43340301Y-16788327D01*
X43573690Y-16885000D01*
X44714250Y-16885000D01*
X44873000Y-16726250D01*
X44873000Y-15377000D01*
X45127000Y-15377000D01*
X45127000Y-16726250D01*
X45285750Y-16885000D01*
X46426310Y-16885000D01*
X46659699Y-16788327D01*
X46838327Y-16609698D01*
X46935000Y-16376309D01*
X46935000Y-15535750D01*
X46776250Y-15377000D01*
X45127000Y-15377000D01*
X44873000Y-15377000D01*
X43223750Y-15377000D01*
X43065000Y-15535750D01*
X42302500Y-15535750D01*
X42302500Y-14123691D01*
X43065000Y-14123691D01*
X43065000Y-14964250D01*
X43223750Y-15123000D01*
X44873000Y-15123000D01*
X44873000Y-12837000D01*
X45127000Y-12837000D01*
X45127000Y-15123000D01*
X46776250Y-15123000D01*
X46935000Y-14964250D01*
X46935000Y-14123691D01*
X46838327Y-13890302D01*
X46659699Y-13711673D01*
X46596830Y-13685632D01*
X46859144Y-13218355D01*
X46890124Y-13090434D01*
X46770777Y-12837000D01*
X45127000Y-12837000D01*
X44873000Y-12837000D01*
X43229223Y-12837000D01*
X43109876Y-13090434D01*
X43140856Y-13218355D01*
X43403170Y-13685632D01*
X43340301Y-13711673D01*
X43161673Y-13890302D01*
X43065000Y-14123691D01*
X42302500Y-14123691D01*
X42302500Y-2550000D01*
X43032969Y-2550000D01*
X43159864Y-3187945D01*
X43521231Y-3728769D01*
X43657768Y-3820000D01*
X43521231Y-3911231D01*
X43159864Y-4452055D01*
X43032969Y-5090000D01*
X43159864Y-5727945D01*
X43521231Y-6268769D01*
X43657768Y-6360000D01*
X43521231Y-6451231D01*
X43159864Y-6992055D01*
X43032969Y-7630000D01*
X43159864Y-8267945D01*
X43521231Y-8808769D01*
X43657768Y-8900000D01*
X43521231Y-8991231D01*
X43159864Y-9532055D01*
X43032969Y-10170000D01*
X43159864Y-10807945D01*
X43521231Y-11348769D01*
X43687629Y-11459952D01*
X43454078Y-11643683D01*
X43140856Y-12201645D01*
X43109876Y-12329566D01*
X43229223Y-12583000D01*
X44873000Y-12583000D01*
X44873000Y-12563000D01*
X45127000Y-12563000D01*
X45127000Y-12583000D01*
X46770777Y-12583000D01*
X46890124Y-12329566D01*
X46859144Y-12201645D01*
X46545922Y-11643683D01*
X46312371Y-11459952D01*
X46478769Y-11348769D01*
X46840136Y-10807945D01*
X46967031Y-10170000D01*
X46840136Y-9532055D01*
X46478769Y-8991231D01*
X46342232Y-8900000D01*
X46478769Y-8808769D01*
X46840136Y-8267945D01*
X46967031Y-7630000D01*
X46840136Y-6992055D01*
X46478769Y-6451231D01*
X46342232Y-6360000D01*
X46478769Y-6268769D01*
X46840136Y-5727945D01*
X46967031Y-5090000D01*
X46840136Y-4452055D01*
X46478769Y-3911231D01*
X46342232Y-3820000D01*
X46478769Y-3728769D01*
X46840136Y-3187945D01*
X46967031Y-2550000D01*
X46840136Y-1912055D01*
X46478769Y-1371231D01*
X45937945Y-1009864D01*
X45461031Y-915000D01*
X44538969Y-915000D01*
X44062055Y-1009864D01*
X43521231Y-1371231D01*
X43159864Y-1912055D01*
X43032969Y-2550000D01*
X42302500Y-2550000D01*
X42302500Y-710000D01*
X61837501Y-710000D01*
X61837501Y-1236839D01*
G04 #@! TD*
M02*
