G04 #@! TF.GenerationSoftware,KiCad,Pcbnew,(5.0.0)*
G04 #@! TF.CreationDate,2019-01-07T17:19:25-08:00*
G04 #@! TF.ProjectId,Lights,4C69676874732E6B696361645F706362,rev?*
G04 #@! TF.SameCoordinates,Original*
G04 #@! TF.FileFunction,Copper,L2,Bot,Signal*
G04 #@! TF.FilePolarity,Positive*
%FSLAX46Y46*%
G04 Gerber Fmt 4.6, Leading zero omitted, Abs format (unit mm)*
G04 Created by KiCad (PCBNEW (5.0.0)) date 01/07/19 17:19:25*
%MOMM*%
%LPD*%
G01*
G04 APERTURE LIST*
G04 #@! TA.AperFunction,ComponentPad*
%ADD10O,2.600000X2.000000*%
G04 #@! TD*
G04 #@! TA.AperFunction,ComponentPad*
%ADD11R,2.600000X2.000000*%
G04 #@! TD*
G04 #@! TA.AperFunction,ComponentPad*
%ADD12C,2.750000*%
G04 #@! TD*
G04 #@! TA.AperFunction,ComponentPad*
%ADD13C,1.150000*%
G04 #@! TD*
G04 #@! TA.AperFunction,ComponentPad*
%ADD14R,1.150000X1.150000*%
G04 #@! TD*
G04 #@! TA.AperFunction,Conductor*
%ADD15C,0.100000*%
G04 #@! TD*
G04 #@! TA.AperFunction,ViaPad*
%ADD16C,0.800000*%
G04 #@! TD*
G04 #@! TA.AperFunction,ViaPad*
%ADD17C,1.500000*%
G04 #@! TD*
G04 #@! TA.AperFunction,Conductor*
%ADD18C,2.000000*%
G04 #@! TD*
G04 #@! TA.AperFunction,Conductor*
%ADD19C,1.000000*%
G04 #@! TD*
G04 #@! TA.AperFunction,Conductor*
%ADD20C,0.500000*%
G04 #@! TD*
G04 #@! TA.AperFunction,Conductor*
%ADD21C,0.750000*%
G04 #@! TD*
G04 #@! TA.AperFunction,Conductor*
%ADD22C,0.350000*%
G04 #@! TD*
G04 #@! TA.AperFunction,Conductor*
%ADD23C,0.250000*%
G04 #@! TD*
G04 #@! TA.AperFunction,Conductor*
%ADD24C,0.254000*%
G04 #@! TD*
G04 APERTURE END LIST*
D10*
G04 #@! TO.P,J12,7*
G04 #@! TO.N,+3V3*
X60500000Y-2510000D03*
G04 #@! TO.P,J12,6*
G04 #@! TO.N,LE*
X60500000Y-5050000D03*
G04 #@! TO.P,J12,5*
G04 #@! TO.N,OE*
X60500000Y-7590000D03*
G04 #@! TO.P,J12,4*
G04 #@! TO.N,CLK*
X60500000Y-10130000D03*
G04 #@! TO.P,J12,3*
G04 #@! TO.N,SDA*
X60500000Y-12670000D03*
G04 #@! TO.P,J12,2*
G04 #@! TO.N,SDO*
X60500000Y-15210000D03*
D11*
G04 #@! TO.P,J12,1*
G04 #@! TO.N,GND*
X60500000Y-17750000D03*
G04 #@! TD*
D12*
G04 #@! TO.P,BT1,3*
G04 #@! TO.N,VBat*
X93497400Y-4801140D03*
G04 #@! TO.P,BT1,2*
X90957400Y-12421140D03*
G04 #@! TO.P,BT1,1*
X96037400Y-12421140D03*
G04 #@! TD*
G04 #@! TO.P,BT2,1*
G04 #@! TO.N,MID*
X90965020Y-57660000D03*
G04 #@! TO.P,BT2,2*
X96045020Y-57660000D03*
G04 #@! TO.P,BT2,3*
X93505020Y-65280000D03*
G04 #@! TD*
G04 #@! TO.P,BT3,3*
G04 #@! TO.N,MID*
X10637520Y-4801140D03*
G04 #@! TO.P,BT3,2*
X8097520Y-12421140D03*
G04 #@! TO.P,BT3,1*
X13177520Y-12421140D03*
G04 #@! TD*
G04 #@! TO.P,BT4,1*
G04 #@! TO.N,GND*
X8097520Y-57660000D03*
G04 #@! TO.P,BT4,2*
X13177520Y-57660000D03*
G04 #@! TO.P,BT4,3*
X10637520Y-65280000D03*
G04 #@! TD*
D13*
G04 #@! TO.P,J1,10*
G04 #@! TO.N,VCC*
X57785000Y-101368860D03*
G04 #@! TO.P,J1,9*
G04 #@! TO.N,Net-(IC1-Pad12)*
X56515000Y-101368860D03*
G04 #@! TO.P,J1,8*
G04 #@! TO.N,Net-(IC1-Pad11)*
X55245000Y-101368860D03*
G04 #@! TO.P,J1,7*
G04 #@! TO.N,Net-(IC1-Pad10)*
X53975000Y-101368860D03*
G04 #@! TO.P,J1,6*
G04 #@! TO.N,Net-(IC1-Pad9)*
X52705000Y-101368860D03*
G04 #@! TO.P,J1,5*
G04 #@! TO.N,Net-(IC1-Pad8)*
X51435000Y-101368860D03*
G04 #@! TO.P,J1,4*
G04 #@! TO.N,Net-(IC1-Pad7)*
X50165000Y-101368860D03*
G04 #@! TO.P,J1,3*
G04 #@! TO.N,Net-(IC1-Pad6)*
X48895000Y-101368860D03*
G04 #@! TO.P,J1,2*
G04 #@! TO.N,Net-(IC1-Pad5)*
X47625000Y-101368860D03*
D14*
G04 #@! TO.P,J1,1*
G04 #@! TO.N,VCC*
X46355000Y-101368860D03*
G04 #@! TD*
G04 #@! TO.P,J2,1*
G04 #@! TO.N,Net-(D1-Pad2)*
X25571018Y-60204000D03*
D13*
G04 #@! TO.P,J2,2*
G04 #@! TO.N,Net-(D1-Pad1)*
X25571018Y-61474000D03*
G04 #@! TO.P,J2,3*
G04 #@! TO.N,Net-(D2-Pad1)*
X25571018Y-62744000D03*
G04 #@! TO.P,J2,4*
G04 #@! TO.N,Net-(D3-Pad1)*
X25571018Y-64014000D03*
G04 #@! TO.P,J2,5*
G04 #@! TO.N,Net-(D4-Pad1)*
X25571018Y-65284000D03*
G04 #@! TO.P,J2,6*
G04 #@! TO.N,Net-(D5-Pad1)*
X25571018Y-66554000D03*
G04 #@! TO.P,J2,7*
G04 #@! TO.N,Net-(D6-Pad1)*
X25571018Y-67824000D03*
G04 #@! TO.P,J2,8*
G04 #@! TO.N,N/C*
X25571018Y-69094000D03*
G04 #@! TO.P,J2,9*
X25571018Y-70364000D03*
G04 #@! TO.P,J2,10*
G04 #@! TO.N,Net-(D1-Pad2)*
X25571018Y-71634000D03*
G04 #@! TD*
G04 #@! TO.P,J3,10*
G04 #@! TO.N,VCC*
X94721919Y-72892452D03*
G04 #@! TO.P,J3,9*
G04 #@! TO.N,Net-(IC2-Pad12)*
X93993477Y-73932775D03*
G04 #@! TO.P,J3,8*
G04 #@! TO.N,Net-(IC2-Pad11)*
X93265035Y-74973098D03*
G04 #@! TO.P,J3,7*
G04 #@! TO.N,Net-(IC2-Pad10)*
X92536592Y-76013421D03*
G04 #@! TO.P,J3,6*
G04 #@! TO.N,Net-(IC2-Pad9)*
X91808150Y-77053745D03*
G04 #@! TO.P,J3,5*
G04 #@! TO.N,Net-(IC2-Pad8)*
X91079708Y-78094068D03*
G04 #@! TO.P,J3,4*
G04 #@! TO.N,Net-(IC2-Pad7)*
X90351266Y-79134391D03*
G04 #@! TO.P,J3,3*
G04 #@! TO.N,Net-(IC2-Pad6)*
X89622824Y-80174714D03*
G04 #@! TO.P,J3,2*
G04 #@! TO.N,Net-(IC2-Pad5)*
X88894382Y-81215037D03*
G04 #@! TO.P,J3,1*
G04 #@! TO.N,VCC*
X88165940Y-82255360D03*
D15*
G04 #@! TD*
G04 #@! TO.N,VCC*
G04 #@! TO.C,J3*
G36*
X88966759Y-82114154D02*
X88307146Y-83056179D01*
X87365121Y-82396566D01*
X88024734Y-81454541D01*
X88966759Y-82114154D01*
X88966759Y-82114154D01*
G37*
D14*
G04 #@! TO.P,J4,1*
G04 #@! TO.N,Net-(D10-Pad2)*
X38371018Y-87249000D03*
D13*
G04 #@! TO.P,J4,2*
G04 #@! TO.N,Net-(D9-Pad1)*
X38371018Y-85979000D03*
G04 #@! TO.P,J4,3*
G04 #@! TO.N,Net-(D10-Pad1)*
X38371018Y-84709000D03*
G04 #@! TO.P,J4,4*
G04 #@! TO.N,Net-(D11-Pad1)*
X38371018Y-83439000D03*
G04 #@! TO.P,J4,5*
G04 #@! TO.N,Net-(D12-Pad1)*
X38371018Y-82169000D03*
G04 #@! TO.P,J4,6*
G04 #@! TO.N,Net-(D13-Pad1)*
X38371018Y-80899000D03*
G04 #@! TO.P,J4,7*
G04 #@! TO.N,Net-(D14-Pad1)*
X38371018Y-79629000D03*
G04 #@! TO.P,J4,8*
G04 #@! TO.N,Net-(D15-Pad1)*
X38371018Y-78359000D03*
G04 #@! TO.P,J4,9*
G04 #@! TO.N,Net-(D16-Pad1)*
X38371018Y-77089000D03*
G04 #@! TO.P,J4,10*
G04 #@! TO.N,Net-(D10-Pad2)*
X38371018Y-75819000D03*
G04 #@! TD*
G04 #@! TO.P,J5,10*
G04 #@! TO.N,VCC*
X9418081Y-72892452D03*
G04 #@! TO.P,J5,9*
G04 #@! TO.N,Net-(IC3-Pad5)*
X10146523Y-73932775D03*
G04 #@! TO.P,J5,8*
G04 #@! TO.N,Net-(IC3-Pad6)*
X10874965Y-74973098D03*
G04 #@! TO.P,J5,7*
G04 #@! TO.N,Net-(IC3-Pad7)*
X11603408Y-76013421D03*
G04 #@! TO.P,J5,6*
G04 #@! TO.N,Net-(IC3-Pad8)*
X12331850Y-77053745D03*
G04 #@! TO.P,J5,5*
G04 #@! TO.N,Net-(IC3-Pad9)*
X13060292Y-78094068D03*
G04 #@! TO.P,J5,4*
G04 #@! TO.N,Net-(IC3-Pad10)*
X13788734Y-79134391D03*
G04 #@! TO.P,J5,3*
G04 #@! TO.N,Net-(IC3-Pad11)*
X14517176Y-80174714D03*
G04 #@! TO.P,J5,2*
G04 #@! TO.N,Net-(IC3-Pad12)*
X15245618Y-81215037D03*
G04 #@! TO.P,J5,1*
G04 #@! TO.N,VCC*
X15974060Y-82255360D03*
D15*
G04 #@! TD*
G04 #@! TO.N,VCC*
G04 #@! TO.C,J5*
G36*
X16115266Y-81454541D02*
X16774879Y-82396566D01*
X15832854Y-83056179D01*
X15173241Y-82114154D01*
X16115266Y-81454541D01*
X16115266Y-81454541D01*
G37*
D14*
G04 #@! TO.P,J6,1*
G04 #@! TO.N,Net-(D17-Pad2)*
X34807220Y-60204000D03*
D13*
G04 #@! TO.P,J6,2*
G04 #@! TO.N,Net-(D17-Pad1)*
X34807220Y-61474000D03*
G04 #@! TO.P,J6,3*
G04 #@! TO.N,Net-(D18-Pad1)*
X34807220Y-62744000D03*
G04 #@! TO.P,J6,4*
G04 #@! TO.N,Net-(D19-Pad1)*
X34807220Y-64014000D03*
G04 #@! TO.P,J6,5*
G04 #@! TO.N,Net-(D20-Pad1)*
X34807220Y-65284000D03*
G04 #@! TO.P,J6,6*
G04 #@! TO.N,Net-(D21-Pad1)*
X34807220Y-66554000D03*
G04 #@! TO.P,J6,7*
G04 #@! TO.N,Net-(D22-Pad1)*
X34807220Y-67824000D03*
G04 #@! TO.P,J6,8*
G04 #@! TO.N,N/C*
X34807220Y-69094000D03*
G04 #@! TO.P,J6,9*
X34807220Y-70364000D03*
G04 #@! TO.P,J6,10*
G04 #@! TO.N,Net-(D17-Pad2)*
X34807220Y-71634000D03*
G04 #@! TD*
D10*
G04 #@! TO.P,J7,6*
G04 #@! TO.N,VBat*
X45000000Y-2550000D03*
G04 #@! TO.P,J7,5*
G04 #@! TO.N,MID*
X45000000Y-5090000D03*
G04 #@! TO.P,J7,4*
G04 #@! TO.N,VCC*
X45000000Y-7630000D03*
G04 #@! TO.P,J7,3*
X45000000Y-10170000D03*
G04 #@! TO.P,J7,2*
G04 #@! TO.N,GND*
X45000000Y-12710000D03*
D11*
G04 #@! TO.P,J7,1*
X45000000Y-15250000D03*
G04 #@! TD*
D16*
G04 #@! TO.N,GND*
X55700000Y-31900000D03*
X20900000Y-50700000D03*
X23000000Y-50800000D03*
X22900000Y-48700000D03*
X22000000Y-49700000D03*
X21000000Y-48700000D03*
X83100000Y-50800000D03*
X83100000Y-48800000D03*
X81400000Y-48800000D03*
X53000000Y-96600000D03*
X51000000Y-96700000D03*
X53000000Y-94800000D03*
X51000000Y-94700000D03*
X52100000Y-95700000D03*
X82200000Y-49800000D03*
D17*
G04 #@! TO.N,VBat*
X48150311Y-33900311D03*
X48000000Y-38500000D03*
X78500000Y-38500000D03*
D16*
X59200000Y-38100030D03*
G04 #@! TO.N,MID*
X45500000Y-34500000D03*
X46100000Y-36900000D03*
G04 #@! TO.N,GND*
X40100000Y-38000000D03*
X41200000Y-39000000D03*
X42400000Y-40100000D03*
X42800000Y-31100000D03*
X43800000Y-30200000D03*
X45100000Y-29200000D03*
X54050000Y-31900000D03*
X54200000Y-28950000D03*
X56400000Y-29400000D03*
X54350000Y-40200000D03*
X55850000Y-40200000D03*
X55200000Y-41400000D03*
X46800000Y-47700000D03*
X48700000Y-49500000D03*
X46400000Y-43000000D03*
X47400000Y-41500000D03*
X54300000Y-50400000D03*
X56500000Y-48500000D03*
X62800000Y-42000000D03*
X69700000Y-42000000D03*
X76700000Y-42400000D03*
X62000000Y-51300000D03*
X70200000Y-48700000D03*
X69100000Y-55500000D03*
X81800000Y-55700000D03*
X89000000Y-53100000D03*
X73700000Y-46100000D03*
X76800000Y-49100000D03*
X92800000Y-69500000D03*
X98100000Y-70800000D03*
X102400000Y-59800000D03*
X100200000Y-51900000D03*
X99400000Y-42200000D03*
X90300000Y-40700000D03*
X95600000Y-34400000D03*
X89000000Y-29900000D03*
X101200000Y-27600000D03*
X94500000Y-22200000D03*
X101700000Y-15000000D03*
X85800000Y-10500000D03*
X99900000Y-4500000D03*
X51900000Y-90000000D03*
X45600000Y-93100000D03*
X47000000Y-88800000D03*
X58300000Y-95300000D03*
X57300000Y-87400000D03*
X81200000Y-50800000D03*
X30300000Y-46700000D03*
X27900000Y-48700000D03*
X41700000Y-47800000D03*
X34000000Y-48700000D03*
X28300000Y-54300000D03*
X36800000Y-54000000D03*
X47500000Y-54600000D03*
X28000000Y-41000000D03*
X22000000Y-42700000D03*
X16100000Y-48600000D03*
X10700000Y-53700000D03*
X4300000Y-50000000D03*
X12000000Y-43200000D03*
X18500000Y-37200000D03*
X3300000Y-36300000D03*
X12100000Y-32000000D03*
X3500000Y-25400000D03*
X11200000Y-19400000D03*
X2800000Y-14600000D03*
X19300000Y-24500000D03*
X19300000Y-12700000D03*
X16600000Y-3300000D03*
X5000000Y-3500000D03*
X12300000Y-69200000D03*
X6000000Y-69900000D03*
X1700000Y-61600000D03*
X56800000Y-77200000D03*
X56700000Y-66900000D03*
X56400000Y-56700000D03*
X46700000Y-79100000D03*
X46600000Y-69100000D03*
X47300000Y-60800000D03*
X44900000Y-98800000D03*
X45800000Y-82500000D03*
X49100000Y-82300000D03*
X49200000Y-86200000D03*
X36850000Y-41100000D03*
X55100000Y-21750000D03*
X55200000Y-10900000D03*
X53750000Y-4400000D03*
X43800000Y-20250000D03*
X60850000Y-21650000D03*
X60600000Y-28750000D03*
X42100000Y-53850000D03*
X46500000Y-51750000D03*
X76150000Y-54850000D03*
X61250000Y-34050000D03*
X50350000Y-91800000D03*
G04 #@! TO.N,+3V3*
X54750000Y-92750000D03*
X25250000Y-52000000D03*
X79750000Y-49000000D03*
X58200000Y-39700030D03*
X58000000Y-31900000D03*
X50200000Y-34400000D03*
X43100000Y-37700000D03*
X45600000Y-39950008D03*
G04 #@! TO.N,VCC*
X10000000Y-49750000D03*
X93500000Y-49750000D03*
X44272510Y-85500000D03*
G04 #@! TO.N,Net-(D1-Pad1)*
X28221000Y-59989100D03*
G04 #@! TO.N,Net-(D1-Pad2)*
X25910000Y-75560000D03*
X25900000Y-94340000D03*
X25910000Y-87920000D03*
X25910000Y-81720000D03*
G04 #@! TO.N,Net-(D2-Pad1)*
X28816000Y-66150000D03*
G04 #@! TO.N,Net-(D3-Pad1)*
X28816000Y-72310000D03*
G04 #@! TO.N,Net-(D4-Pad1)*
X28816000Y-78460000D03*
G04 #@! TO.N,Net-(D5-Pad1)*
X28816000Y-84620000D03*
G04 #@! TO.N,Net-(D6-Pad1)*
X28816000Y-90770000D03*
G04 #@! TO.N,Net-(D10-Pad2)*
X38730000Y-103060000D03*
X38730000Y-97380000D03*
X38730000Y-91710000D03*
X38730000Y-59950000D03*
X38730000Y-65660000D03*
X38730000Y-71330000D03*
G04 #@! TO.N,Net-(D9-Pad1)*
X41616000Y-99800000D03*
G04 #@! TO.N,Net-(D10-Pad1)*
X41616000Y-94100000D03*
G04 #@! TO.N,Net-(D11-Pad1)*
X41616000Y-88420000D03*
G04 #@! TO.N,Net-(D12-Pad1)*
X41021000Y-82726260D03*
G04 #@! TO.N,Net-(D13-Pad1)*
X41021000Y-80341740D03*
G04 #@! TO.N,Net-(D14-Pad1)*
X41616000Y-74650000D03*
G04 #@! TO.N,Net-(D15-Pad1)*
X41616000Y-68970000D03*
G04 #@! TO.N,Net-(D16-Pad1)*
X41616000Y-63280000D03*
G04 #@! TO.N,Net-(D17-Pad2)*
X34490000Y-75570000D03*
X34490000Y-81760000D03*
X34490000Y-87900000D03*
X34490000Y-94090000D03*
G04 #@! TO.N,Net-(D17-Pad1)*
X32158000Y-59989100D03*
G04 #@! TO.N,Net-(D18-Pad1)*
X31563000Y-66150000D03*
G04 #@! TO.N,Net-(D19-Pad1)*
X31563000Y-72310000D03*
G04 #@! TO.N,Net-(D20-Pad1)*
X31563000Y-78460000D03*
G04 #@! TO.N,Net-(D21-Pad1)*
X31563000Y-84620000D03*
G04 #@! TO.N,Net-(D22-Pad1)*
X31563000Y-90770000D03*
G04 #@! TO.N,SDA*
X51505143Y-46920163D03*
X51500000Y-44565000D03*
G04 #@! TO.N,CLK*
X50250000Y-44565000D03*
X50750000Y-46015000D03*
X54259937Y-46509937D03*
G04 #@! TO.N,LE*
X50032207Y-46711259D03*
X49500000Y-43750000D03*
X53794326Y-47435169D03*
G04 #@! TO.N,OE*
X52550000Y-49040000D03*
X49250000Y-47610000D03*
X55530000Y-44320000D03*
X51150000Y-42240000D03*
G04 #@! TO.N,SDO*
X48740000Y-46060000D03*
X52790000Y-44360000D03*
G04 #@! TD*
D18*
G04 #@! TO.N,VBat*
X45871283Y-2550000D02*
X48500000Y-5178717D01*
X45000000Y-2550000D02*
X45871283Y-2550000D01*
X48500000Y-5178717D02*
X50500000Y-7178717D01*
X50500000Y-31550623D02*
X49550632Y-32499990D01*
X50500000Y-7178717D02*
X50500000Y-31550623D01*
X49550632Y-32499990D02*
X48150311Y-33900311D01*
X49060660Y-38500000D02*
X49460630Y-38100030D01*
X48000000Y-38500000D02*
X49060660Y-38500000D01*
X78100030Y-38100030D02*
X78500000Y-38500000D01*
X93497400Y-9881140D02*
X96037400Y-12421140D01*
X93497400Y-9881140D02*
X90957400Y-12421140D01*
X93497400Y-4801140D02*
X93497400Y-9881140D01*
X49460630Y-38100030D02*
X59200000Y-38100030D01*
X59200000Y-38100030D02*
X78100030Y-38100030D01*
D19*
G04 #@! TO.N,MID*
X10637520Y-9881140D02*
X8097520Y-12421140D01*
X10637520Y-4801140D02*
X10637520Y-9881140D01*
X13177520Y-12421140D02*
X10637520Y-9881140D01*
D20*
X48950020Y-31049980D02*
X45500000Y-34500000D01*
X48950020Y-8740020D02*
X48950020Y-31049980D01*
X45000000Y-5090000D02*
X45300000Y-5090000D01*
X45300000Y-5090000D02*
X48950020Y-8740020D01*
D19*
X93505020Y-60200000D02*
X90965020Y-57660000D01*
X93505020Y-65280000D02*
X93505020Y-60200000D01*
X93505020Y-60200000D02*
X96045020Y-57660000D01*
D20*
X96045020Y-53795020D02*
X96045020Y-57660000D01*
X78900020Y-36650020D02*
X96045020Y-53795020D01*
X47165665Y-36650020D02*
X78900020Y-36650020D01*
X46100000Y-36900000D02*
X46900000Y-36900000D01*
X46900000Y-36900000D02*
X47165665Y-36650020D01*
D19*
G04 #@! TO.N,GND*
X10637520Y-60200000D02*
X8097520Y-57660000D01*
X10637520Y-65280000D02*
X10637520Y-60200000D01*
X10637520Y-60200000D02*
X13177520Y-57660000D01*
D20*
G04 #@! TO.N,+3V3*
X58765685Y-39700030D02*
X58915675Y-39550040D01*
X58200000Y-39700030D02*
X58765685Y-39700030D01*
X58915675Y-39550040D02*
X77350040Y-39550040D01*
X79750000Y-41950000D02*
X79750000Y-49000000D01*
X77350040Y-39550040D02*
X79750000Y-41950000D01*
X51950010Y-10759990D02*
X51950010Y-32151236D01*
X60500000Y-2510000D02*
X60200000Y-2510000D01*
X60200000Y-2510000D02*
X51950010Y-10759990D01*
X54498774Y-34700000D02*
X57500000Y-34700000D01*
X57500000Y-34700000D02*
X58000000Y-34200000D01*
X58000000Y-34200000D02*
X58000000Y-31900000D01*
X50599999Y-34000001D02*
X50599999Y-33998775D01*
X50200000Y-34400000D02*
X50599999Y-34000001D01*
X51950010Y-32151236D02*
X52198774Y-32400000D01*
X52198774Y-32400000D02*
X54498774Y-34700000D01*
X51950010Y-32648764D02*
X51398774Y-33200000D01*
X51950010Y-32151236D02*
X51950010Y-32648764D01*
X50599999Y-33998775D02*
X51398774Y-33200000D01*
X51398774Y-33200000D02*
X52198774Y-32400000D01*
X42050020Y-36650020D02*
X27100000Y-36650020D01*
X27100000Y-36650020D02*
X25250000Y-38500020D01*
X25250000Y-38500020D02*
X25250000Y-52000000D01*
X43100000Y-37700000D02*
X42050020Y-36650020D01*
X54750000Y-89791998D02*
X45222520Y-80264518D01*
X54750000Y-92750000D02*
X54750000Y-89791998D01*
X45222520Y-40327488D02*
X45600000Y-39950008D01*
X45222520Y-80264518D02*
X45222520Y-40327488D01*
D21*
G04 #@! TO.N,VCC*
X9418081Y-72892452D02*
X9993080Y-72317453D01*
X16457628Y-81771792D02*
X16458208Y-81771792D01*
X15974060Y-82255360D02*
X16457628Y-81771792D01*
X16458208Y-81771792D02*
X16980000Y-81250000D01*
D19*
X16520619Y-81827038D02*
X16033179Y-82314478D01*
X16980000Y-81367657D02*
X16520619Y-81827038D01*
X16980000Y-81250000D02*
X16980000Y-81367657D01*
X9993080Y-72317453D02*
X9652759Y-72657774D01*
X9993080Y-72316920D02*
X9993080Y-72317453D01*
X9993080Y-72316920D02*
X9993080Y-70363080D01*
X16980000Y-77350000D02*
X9993080Y-70363080D01*
X16980000Y-81250000D02*
X16980000Y-77350000D01*
X4750000Y-55000000D02*
X10000000Y-49750000D01*
X9993080Y-70363080D02*
X4750000Y-65120000D01*
X4750000Y-65120000D02*
X4750000Y-55000000D01*
X22000000Y-37750000D02*
X10000000Y-49750000D01*
X41913519Y-35700010D02*
X24049990Y-35700010D01*
X24049990Y-35700010D02*
X22000000Y-37750000D01*
X42367510Y-35246019D02*
X41913519Y-35700010D01*
D21*
X94721919Y-72892452D02*
X93829467Y-72000000D01*
D19*
X87500000Y-78329467D02*
X93829467Y-72000000D01*
X87500000Y-81589420D02*
X87500000Y-78329467D01*
D21*
X88165940Y-82255360D02*
X87500000Y-81589420D01*
D19*
X99750000Y-66079467D02*
X99750000Y-56000000D01*
X93829467Y-72000000D02*
X99750000Y-66079467D01*
X99750000Y-56000000D02*
X93500000Y-49750000D01*
D21*
X57785000Y-101368860D02*
X57785000Y-100785000D01*
X46355000Y-101368860D02*
X46355000Y-100645000D01*
D19*
X47500000Y-99500000D02*
X46355000Y-100645000D01*
X57785000Y-100785000D02*
X56500000Y-99500000D01*
X56500000Y-99500000D02*
X47500000Y-99500000D01*
X47500000Y-98000000D02*
X44272510Y-94772510D01*
X47500000Y-99500000D02*
X47500000Y-98000000D01*
X43121491Y-36000000D02*
X42367510Y-35246019D01*
X44272510Y-37151019D02*
X43121491Y-36000000D01*
X79450010Y-35700010D02*
X43950010Y-35700010D01*
X93500000Y-49750000D02*
X79450010Y-35700010D01*
X43950010Y-35700010D02*
X42867510Y-34617510D01*
D18*
X45871283Y-10170000D02*
X45000000Y-10170000D01*
X47500010Y-11798727D02*
X45871283Y-10170000D01*
X47500010Y-29985010D02*
X47500010Y-11798727D01*
X42867510Y-34617510D02*
X47500010Y-29985010D01*
X47500010Y-9830010D02*
X47500010Y-11798727D01*
X45300000Y-7630000D02*
X47500010Y-9830010D01*
X45000000Y-7630000D02*
X45300000Y-7630000D01*
D19*
X44272510Y-54400000D02*
X44272510Y-37151019D01*
X44272510Y-85500000D02*
X44272510Y-54400000D01*
X44272510Y-94772510D02*
X44272510Y-85500000D01*
X87500000Y-81589420D02*
X87619381Y-81708801D01*
X93829467Y-72000000D02*
X94487241Y-72657774D01*
X46355000Y-100645000D02*
X46355000Y-100751858D01*
D22*
G04 #@! TO.N,Net-(D1-Pad1)*
X26384190Y-61474000D02*
X27868190Y-59990000D01*
X25571018Y-61474000D02*
X26384190Y-61474000D01*
X27868190Y-59990000D02*
X28220100Y-59990000D01*
X28220100Y-59990000D02*
X28221000Y-59989100D01*
D21*
G04 #@! TO.N,Net-(D1-Pad2)*
X25571018Y-75221018D02*
X25910000Y-75560000D01*
X25571018Y-71634000D02*
X25571018Y-75221018D01*
D22*
G04 #@! TO.N,Net-(D2-Pad1)*
X26384190Y-62744000D02*
X26390190Y-62750000D01*
X25571018Y-62744000D02*
X26384190Y-62744000D01*
X26390190Y-62750000D02*
X27610000Y-62750000D01*
X27610000Y-62750000D02*
X28290000Y-62750000D01*
X28290000Y-62750000D02*
X29040000Y-63500000D01*
X29040000Y-63500000D02*
X29040000Y-65926000D01*
X29040000Y-65926000D02*
X28816000Y-66150000D01*
G04 #@! TO.N,Net-(D3-Pad1)*
X28040999Y-66522001D02*
X28618998Y-67100000D01*
X28040999Y-65670809D02*
X28040999Y-66522001D01*
X25571018Y-64014000D02*
X26384190Y-64014000D01*
X26384190Y-64014000D02*
X28040999Y-65670809D01*
X28618998Y-67100000D02*
X28620000Y-67100000D01*
X28620000Y-67100000D02*
X29040000Y-67520000D01*
X29040000Y-67520000D02*
X29040000Y-72086000D01*
X29040000Y-72086000D02*
X28816000Y-72310000D01*
G04 #@! TO.N,Net-(D4-Pad1)*
X27490989Y-66390799D02*
X27490989Y-66760989D01*
X25571018Y-65284000D02*
X26384190Y-65284000D01*
X26384190Y-65284000D02*
X27490989Y-66390799D01*
X27490989Y-66760989D02*
X28470000Y-67740000D01*
X28470000Y-67740000D02*
X28470000Y-71260000D01*
X28040999Y-71689001D02*
X28040999Y-72920999D01*
X28470000Y-71260000D02*
X28040999Y-71689001D01*
X28040999Y-72920999D02*
X29040000Y-73920000D01*
X29040000Y-73920000D02*
X29040000Y-78236000D01*
X29040000Y-78236000D02*
X28816000Y-78460000D01*
G04 #@! TO.N,Net-(D5-Pad1)*
X25571018Y-66554000D02*
X26384190Y-66554000D01*
X26384190Y-66554000D02*
X27920000Y-68089810D01*
X27920000Y-68089810D02*
X27920000Y-71032170D01*
X27920000Y-71032170D02*
X27917830Y-71032170D01*
X27917830Y-71032170D02*
X27480000Y-71470000D01*
X27480000Y-71470000D02*
X27480001Y-73137831D01*
X27480001Y-73137831D02*
X28489990Y-74147820D01*
X28489990Y-74147820D02*
X28490000Y-74147830D01*
X28490000Y-74147830D02*
X28490000Y-77650000D01*
X28040999Y-78099001D02*
X28040999Y-78860999D01*
X28490000Y-77650000D02*
X28040999Y-78099001D01*
X28040999Y-78860999D02*
X29040000Y-79860000D01*
X29040000Y-79860000D02*
X29040000Y-84396000D01*
X29040000Y-84396000D02*
X28816000Y-84620000D01*
G04 #@! TO.N,Net-(D6-Pad1)*
X25707020Y-67824000D02*
X27367820Y-69484800D01*
X25571018Y-67824000D02*
X25707020Y-67824000D01*
X27367820Y-69484800D02*
X27367820Y-70752180D01*
X26929992Y-71190008D02*
X26929992Y-73369992D01*
X27367820Y-70752180D02*
X26929992Y-71190008D01*
X26929992Y-73369992D02*
X27939990Y-74379990D01*
X27939990Y-74379990D02*
X27940000Y-74380000D01*
X27940000Y-74380000D02*
X27940000Y-77422170D01*
X27940000Y-77422170D02*
X27937830Y-77422170D01*
X27490989Y-79088820D02*
X28372169Y-79970000D01*
X27937830Y-77422170D02*
X27490989Y-77869011D01*
X27490989Y-77869011D02*
X27490989Y-79088820D01*
X28372169Y-79970000D02*
X28372169Y-79972169D01*
X28372169Y-79972169D02*
X28490000Y-80090000D01*
X28490000Y-80090000D02*
X28490000Y-83844999D01*
X28490000Y-83844999D02*
X28485001Y-83844999D01*
X28485001Y-83844999D02*
X28040000Y-84290000D01*
X28040000Y-84290000D02*
X28040000Y-84630000D01*
X28040000Y-84630000D02*
X28040000Y-84991002D01*
X28040000Y-84991002D02*
X29040990Y-85991992D01*
X29040990Y-85991992D02*
X29040000Y-85992982D01*
X29040000Y-85992982D02*
X29040000Y-90546000D01*
X29040000Y-90546000D02*
X28816000Y-90770000D01*
G04 #@! TO.N,Net-(D9-Pad1)*
X39184190Y-85979000D02*
X40290000Y-87084810D01*
X38371018Y-85979000D02*
X39184190Y-85979000D01*
X40290000Y-87084810D02*
X40290001Y-89018833D01*
X40290001Y-89018833D02*
X41289990Y-90018822D01*
X41289990Y-90018822D02*
X41290000Y-90018832D01*
X41290000Y-90018832D02*
X41290000Y-91980000D01*
X41290000Y-91980000D02*
X41290000Y-93324999D01*
X41290000Y-93324999D02*
X41285001Y-93324999D01*
X41285001Y-93324999D02*
X40840000Y-93770000D01*
X40840000Y-93770000D02*
X40840000Y-94471002D01*
X40840000Y-94471002D02*
X41840000Y-95471002D01*
X41840000Y-95471002D02*
X41840000Y-99576000D01*
X41840000Y-99576000D02*
X41616000Y-99800000D01*
G04 #@! TO.N,Net-(D10-Pad1)*
X39184190Y-84709000D02*
X41290000Y-86814810D01*
X38371018Y-84709000D02*
X39184190Y-84709000D01*
X41290000Y-86814810D02*
X41290000Y-87644999D01*
X41290000Y-87644999D02*
X41285001Y-87644999D01*
X41285001Y-87644999D02*
X40840000Y-88090000D01*
X40840000Y-88791002D02*
X41840000Y-89791002D01*
X40840000Y-88090000D02*
X40840000Y-88791002D01*
X41840000Y-89791002D02*
X41840000Y-93876000D01*
X41840000Y-93876000D02*
X41616000Y-94100000D01*
G04 #@! TO.N,Net-(D11-Pad1)*
X39184190Y-83439000D02*
X41840000Y-86094810D01*
X38371018Y-83439000D02*
X39184190Y-83439000D01*
X41840000Y-86094810D02*
X41840000Y-88196000D01*
X41840000Y-88196000D02*
X41616000Y-88420000D01*
G04 #@! TO.N,Net-(D12-Pad1)*
X39184190Y-82169000D02*
X39185190Y-82170000D01*
X38371018Y-82169000D02*
X39184190Y-82169000D01*
X39185190Y-82170000D02*
X40464740Y-82170000D01*
X40464740Y-82170000D02*
X41021000Y-82726260D01*
G04 #@! TO.N,Net-(D13-Pad1)*
X38371018Y-80899000D02*
X40463740Y-80899000D01*
X40463740Y-80899000D02*
X41021000Y-80341740D01*
G04 #@! TO.N,Net-(D14-Pad1)*
X38371018Y-79629000D02*
X39184190Y-79629000D01*
X39184190Y-79629000D02*
X41840990Y-76972200D01*
X41840990Y-76972200D02*
X41840990Y-75810990D01*
X41840990Y-75810990D02*
X41840000Y-75810000D01*
X41840000Y-75810000D02*
X41840000Y-74874000D01*
X41840000Y-74874000D02*
X41616000Y-74650000D01*
G04 #@! TO.N,Net-(D15-Pad1)*
X39184190Y-78359000D02*
X41289990Y-76253200D01*
X38371018Y-78359000D02*
X39184190Y-78359000D01*
X41289990Y-76253200D02*
X41289990Y-75425001D01*
X41289990Y-75425001D02*
X40840000Y-74975011D01*
X40840000Y-74975011D02*
X40840000Y-74278998D01*
X40840000Y-74278998D02*
X41840990Y-73278008D01*
X41840990Y-73278008D02*
X41840000Y-73277018D01*
X41840000Y-73277018D02*
X41840000Y-69194000D01*
X41840000Y-69194000D02*
X41616000Y-68970000D01*
G04 #@! TO.N,Net-(D16-Pad1)*
X39184190Y-77089000D02*
X40289990Y-75983200D01*
X38371018Y-77089000D02*
X39184190Y-77089000D01*
X40289990Y-74051177D02*
X40881167Y-73460000D01*
X40289990Y-75983200D02*
X40289990Y-74051177D01*
X40881167Y-73460000D02*
X40881167Y-73458833D01*
X40881167Y-73458833D02*
X41289990Y-73050010D01*
X41289990Y-73050010D02*
X41290000Y-73050000D01*
X41290000Y-73050000D02*
X41290000Y-69780000D01*
X41290000Y-69780000D02*
X40840000Y-69330000D01*
X40840000Y-69330000D02*
X40840000Y-68598998D01*
X40840000Y-68598998D02*
X41840000Y-67598998D01*
X41840000Y-67598998D02*
X41840000Y-63504000D01*
X41840000Y-63504000D02*
X41616000Y-63280000D01*
D21*
G04 #@! TO.N,Net-(D17-Pad2)*
X34807220Y-75252780D02*
X34490000Y-75570000D01*
X34807220Y-71634000D02*
X34807220Y-75252780D01*
D22*
G04 #@! TO.N,Net-(D17-Pad1)*
X34807220Y-61474000D02*
X33642900Y-61474000D01*
X33642900Y-61474000D02*
X32158000Y-59989100D01*
G04 #@! TO.N,Net-(D18-Pad1)*
X33994048Y-62744000D02*
X33968048Y-62770000D01*
X34807220Y-62744000D02*
X33994048Y-62744000D01*
X32080000Y-62770000D02*
X31350000Y-63500000D01*
X33968048Y-62770000D02*
X32080000Y-62770000D01*
X31350000Y-63500000D02*
X31350000Y-65937000D01*
X31350000Y-65937000D02*
X31563000Y-66150000D01*
G04 #@! TO.N,Net-(D19-Pad1)*
X32338001Y-65670047D02*
X32338001Y-66522001D01*
X34807220Y-64014000D02*
X33994048Y-64014000D01*
X33994048Y-64014000D02*
X32338001Y-65670047D01*
X32338001Y-66522001D02*
X31338010Y-67521992D01*
X31338010Y-67521992D02*
X31338010Y-72085010D01*
X31338010Y-72085010D02*
X31563000Y-72310000D01*
G04 #@! TO.N,Net-(D20-Pad1)*
X32888011Y-65911989D02*
X32888011Y-66749821D01*
X34807220Y-65284000D02*
X33516000Y-65284000D01*
X33516000Y-65284000D02*
X32888011Y-65911989D01*
X32888011Y-66749821D02*
X31888020Y-67749812D01*
X31888020Y-67749812D02*
X31888020Y-71534999D01*
X31888020Y-71534999D02*
X31888020Y-71538020D01*
X31888020Y-71538020D02*
X32340000Y-71990000D01*
X32340000Y-72680002D02*
X31338010Y-73681992D01*
X32340000Y-71990000D02*
X32340000Y-72680002D01*
X31338010Y-73681992D02*
X31338010Y-78235010D01*
X31338010Y-78235010D02*
X31563000Y-78460000D01*
G04 #@! TO.N,Net-(D21-Pad1)*
X33861663Y-66554000D02*
X32438030Y-67977633D01*
X34807220Y-66554000D02*
X33861663Y-66554000D01*
X32438030Y-67977633D02*
X32438030Y-71310200D01*
X32890010Y-71762179D02*
X32890010Y-72907822D01*
X32438030Y-71310200D02*
X32890010Y-71762179D01*
X32890010Y-72907822D02*
X31888020Y-73909812D01*
X31888020Y-77684999D02*
X32350000Y-78146979D01*
X31888020Y-73909812D02*
X31888020Y-77684999D01*
X32350000Y-78146979D02*
X32350000Y-78820002D01*
X32350000Y-79550000D02*
X31338010Y-80561990D01*
X32350000Y-78820002D02*
X32350000Y-79550000D01*
X31338010Y-80561990D02*
X31338010Y-84395010D01*
X31338010Y-84395010D02*
X31563000Y-84620000D01*
G04 #@! TO.N,Net-(D22-Pad1)*
X33994048Y-67824000D02*
X32988040Y-68830008D01*
X34807220Y-67824000D02*
X33994048Y-67824000D01*
X33440020Y-73135643D02*
X33117831Y-73457832D01*
X33440020Y-71534358D02*
X33440020Y-73135643D01*
X32988040Y-68830008D02*
X32988040Y-71082378D01*
X32988040Y-71082378D02*
X33440020Y-71534358D01*
X33117831Y-73457832D02*
X33117830Y-73457832D01*
X33117830Y-73457832D02*
X32438030Y-74137632D01*
X32900010Y-79777821D02*
X32577821Y-80100010D01*
X32900010Y-77919158D02*
X32900010Y-79777821D01*
X32438030Y-74137632D02*
X32438030Y-77457179D01*
X32438030Y-77457179D02*
X32900010Y-77919158D01*
X32577820Y-80100010D02*
X31888020Y-80789810D01*
X32577821Y-80100010D02*
X32577820Y-80100010D01*
X31888020Y-80789810D02*
X31888020Y-83690000D01*
X31888020Y-83844999D02*
X32340000Y-84296979D01*
X31888020Y-83690000D02*
X31888020Y-83844999D01*
X32340000Y-84990002D02*
X31338010Y-85991992D01*
X32340000Y-84296979D02*
X32340000Y-84990002D01*
X31338010Y-85991992D02*
X31338010Y-89540000D01*
X31338010Y-89540000D02*
X31338010Y-90545010D01*
X31338010Y-90545010D02*
X31563000Y-90770000D01*
D23*
G04 #@! TO.N,SDA*
X51505143Y-46920163D02*
X51505143Y-44570143D01*
X51505143Y-44570143D02*
X51500000Y-44565000D01*
G04 #@! TO.N,CLK*
X50250000Y-44565000D02*
X50250000Y-45515000D01*
X50750000Y-46015000D02*
X50250000Y-45515000D01*
X53694252Y-46509937D02*
X52454189Y-47750000D01*
X54259937Y-46509937D02*
X53694252Y-46509937D01*
X50750000Y-46580685D02*
X50750000Y-46015000D01*
X50757208Y-46587893D02*
X50750000Y-46580685D01*
X50757208Y-47257208D02*
X50757208Y-46587893D01*
X51250000Y-47750000D02*
X50757208Y-47257208D01*
X52454189Y-47750000D02*
X51250000Y-47750000D01*
G04 #@! TO.N,LE*
X50032207Y-46711259D02*
X49500000Y-46179052D01*
X49500000Y-46179052D02*
X49500000Y-43750000D01*
X50032207Y-47276944D02*
X50032207Y-46711259D01*
X50955273Y-48200010D02*
X50032207Y-47276944D01*
X53029485Y-48200010D02*
X50955273Y-48200010D01*
X53794326Y-47435169D02*
X53029485Y-48200010D01*
G04 #@! TO.N,OE*
X52550000Y-49040000D02*
X50680000Y-49040000D01*
X50680000Y-49040000D02*
X49250000Y-47610000D01*
X53115685Y-49040000D02*
X52550000Y-49040000D01*
X53262497Y-49040000D02*
X53115685Y-49040000D01*
X54984938Y-47317559D02*
X53262497Y-49040000D01*
X54984938Y-44865062D02*
X54984938Y-47317559D01*
X55530000Y-44320000D02*
X54984938Y-44865062D01*
X49300588Y-42240000D02*
X51150000Y-42240000D01*
X48014999Y-43525589D02*
X49300588Y-42240000D01*
X49250000Y-47610000D02*
X48014999Y-46374999D01*
X48014999Y-46374999D02*
X48014999Y-43525589D01*
G04 #@! TO.N,SDO*
X48740000Y-46060000D02*
X48740000Y-43934990D01*
X51454999Y-43024999D02*
X52790000Y-44360000D01*
X49151999Y-43024999D02*
X51454999Y-43024999D01*
X48740000Y-43934990D02*
X48740000Y-43436998D01*
X48740000Y-43436998D02*
X49151999Y-43024999D01*
G04 #@! TD*
D24*
G04 #@! TO.N,Net-(D1-Pad2)*
G36*
X26119993Y-73290214D02*
X26104124Y-73369992D01*
X26159110Y-73646421D01*
X26166990Y-73686038D01*
X26346016Y-73953969D01*
X26413646Y-73999158D01*
X27130000Y-74715513D01*
X27130001Y-77084487D01*
X26974645Y-77239843D01*
X26907012Y-77285034D01*
X26727986Y-77552966D01*
X26692817Y-77729774D01*
X26665121Y-77869011D01*
X26680989Y-77948785D01*
X26680990Y-79009042D01*
X26665121Y-79088820D01*
X26704317Y-79285868D01*
X26727987Y-79404866D01*
X26907013Y-79672797D01*
X26974643Y-79717986D01*
X27680000Y-80423344D01*
X27680001Y-83504487D01*
X27523656Y-83660832D01*
X27456023Y-83706023D01*
X27276997Y-83973955D01*
X27231528Y-84202544D01*
X27214132Y-84290000D01*
X27230000Y-84369773D01*
X27230000Y-84911229D01*
X27214132Y-84991002D01*
X27230000Y-85070775D01*
X27230000Y-85070776D01*
X27276997Y-85307048D01*
X27456023Y-85574979D01*
X27523655Y-85620169D01*
X28230000Y-86326515D01*
X28230001Y-89892453D01*
X28229720Y-89892569D01*
X27938569Y-90183720D01*
X27781000Y-90564126D01*
X27781000Y-90975874D01*
X27938569Y-91356280D01*
X28229720Y-91647431D01*
X28610126Y-91805000D01*
X28915703Y-91805000D01*
X28920891Y-93273416D01*
X28898790Y-93306843D01*
X28821195Y-93422972D01*
X28820845Y-93424730D01*
X28819859Y-93426222D01*
X28793322Y-93563098D01*
X28766091Y-93700000D01*
X28780339Y-93771632D01*
X28786565Y-95054000D01*
X25121000Y-95054000D01*
X25121000Y-72758946D01*
X25408036Y-72856892D01*
X25888423Y-72826176D01*
X26119993Y-72730257D01*
X26119993Y-73290214D01*
X26119993Y-73290214D01*
G37*
X26119993Y-73290214D02*
X26104124Y-73369992D01*
X26159110Y-73646421D01*
X26166990Y-73686038D01*
X26346016Y-73953969D01*
X26413646Y-73999158D01*
X27130000Y-74715513D01*
X27130001Y-77084487D01*
X26974645Y-77239843D01*
X26907012Y-77285034D01*
X26727986Y-77552966D01*
X26692817Y-77729774D01*
X26665121Y-77869011D01*
X26680989Y-77948785D01*
X26680990Y-79009042D01*
X26665121Y-79088820D01*
X26704317Y-79285868D01*
X26727987Y-79404866D01*
X26907013Y-79672797D01*
X26974643Y-79717986D01*
X27680000Y-80423344D01*
X27680001Y-83504487D01*
X27523656Y-83660832D01*
X27456023Y-83706023D01*
X27276997Y-83973955D01*
X27231528Y-84202544D01*
X27214132Y-84290000D01*
X27230000Y-84369773D01*
X27230000Y-84911229D01*
X27214132Y-84991002D01*
X27230000Y-85070775D01*
X27230000Y-85070776D01*
X27276997Y-85307048D01*
X27456023Y-85574979D01*
X27523655Y-85620169D01*
X28230000Y-86326515D01*
X28230001Y-89892453D01*
X28229720Y-89892569D01*
X27938569Y-90183720D01*
X27781000Y-90564126D01*
X27781000Y-90975874D01*
X27938569Y-91356280D01*
X28229720Y-91647431D01*
X28610126Y-91805000D01*
X28915703Y-91805000D01*
X28920891Y-93273416D01*
X28898790Y-93306843D01*
X28821195Y-93422972D01*
X28820845Y-93424730D01*
X28819859Y-93426222D01*
X28793322Y-93563098D01*
X28766091Y-93700000D01*
X28780339Y-93771632D01*
X28786565Y-95054000D01*
X25121000Y-95054000D01*
X25121000Y-72758946D01*
X25408036Y-72856892D01*
X25888423Y-72826176D01*
X26119993Y-72730257D01*
X26119993Y-73290214D01*
G36*
X25764766Y-71619858D02*
X25750623Y-71634000D01*
X25764766Y-71648143D01*
X25585161Y-71827748D01*
X25571018Y-71813605D01*
X25556876Y-71827748D01*
X25377271Y-71648143D01*
X25391413Y-71634000D01*
X25377271Y-71619858D01*
X25423128Y-71574000D01*
X25718908Y-71574000D01*
X25764766Y-71619858D01*
X25764766Y-71619858D01*
G37*
X25764766Y-71619858D02*
X25750623Y-71634000D01*
X25764766Y-71648143D01*
X25585161Y-71827748D01*
X25571018Y-71813605D01*
X25556876Y-71827748D01*
X25377271Y-71648143D01*
X25391413Y-71634000D01*
X25377271Y-71619858D01*
X25423128Y-71574000D01*
X25718908Y-71574000D01*
X25764766Y-71619858D01*
G36*
X25698018Y-60077000D02*
X25718018Y-60077000D01*
X25718018Y-60264000D01*
X25424018Y-60264000D01*
X25424018Y-60077000D01*
X25444018Y-60077000D01*
X25444018Y-60057000D01*
X25698018Y-60057000D01*
X25698018Y-60077000D01*
X25698018Y-60077000D01*
G37*
X25698018Y-60077000D02*
X25718018Y-60077000D01*
X25718018Y-60264000D01*
X25424018Y-60264000D01*
X25424018Y-60077000D01*
X25444018Y-60077000D01*
X25444018Y-60057000D01*
X25698018Y-60057000D01*
X25698018Y-60077000D01*
G04 #@! TO.N,Net-(D17-Pad2)*
G36*
X34644238Y-72856892D02*
X35124625Y-72826176D01*
X35258881Y-72770565D01*
X35259996Y-91090092D01*
X35246091Y-91160000D01*
X35260005Y-91229951D01*
X35260005Y-91229969D01*
X35271796Y-91289227D01*
X35301195Y-91437028D01*
X35301208Y-91437047D01*
X35301212Y-91437068D01*
X35306978Y-91445696D01*
X35313897Y-93403962D01*
X35301195Y-93422972D01*
X35246091Y-93700000D01*
X35260001Y-93769930D01*
X35260000Y-95054000D01*
X31603435Y-95054000D01*
X31609911Y-93720101D01*
X31613909Y-93700000D01*
X31610101Y-93680857D01*
X31610331Y-93633522D01*
X31570141Y-93426223D01*
X31498942Y-93318539D01*
X31504272Y-91805000D01*
X31768874Y-91805000D01*
X32149280Y-91647431D01*
X32440431Y-91356280D01*
X32598000Y-90975874D01*
X32598000Y-90564126D01*
X32440431Y-90183720D01*
X32149280Y-89892569D01*
X32148010Y-89892043D01*
X32148010Y-86327504D01*
X32856347Y-85619168D01*
X32923977Y-85573979D01*
X33103003Y-85306048D01*
X33150000Y-85069776D01*
X33150000Y-85069775D01*
X33165868Y-84990002D01*
X33150000Y-84910229D01*
X33150000Y-84376751D01*
X33165868Y-84296978D01*
X33148472Y-84209522D01*
X33103003Y-83980933D01*
X32923977Y-83713002D01*
X32856345Y-83667812D01*
X32698020Y-83509487D01*
X32698020Y-81125322D01*
X33094165Y-80729178D01*
X33161798Y-80683987D01*
X33206989Y-80616354D01*
X33416354Y-80406989D01*
X33483987Y-80361798D01*
X33663013Y-80093867D01*
X33710010Y-79857595D01*
X33725878Y-79777822D01*
X33710010Y-79698049D01*
X33710010Y-77998931D01*
X33725878Y-77919157D01*
X33672545Y-77651034D01*
X33663013Y-77603112D01*
X33483987Y-77335181D01*
X33416354Y-77289990D01*
X33248030Y-77121666D01*
X33248030Y-74473144D01*
X33634175Y-74087000D01*
X33701808Y-74041809D01*
X33746999Y-73974176D01*
X33956364Y-73764811D01*
X34023997Y-73719620D01*
X34203023Y-73451689D01*
X34250020Y-73215417D01*
X34265888Y-73135644D01*
X34250020Y-73055871D01*
X34250020Y-72722372D01*
X34644238Y-72856892D01*
X34644238Y-72856892D01*
G37*
X34644238Y-72856892D02*
X35124625Y-72826176D01*
X35258881Y-72770565D01*
X35259996Y-91090092D01*
X35246091Y-91160000D01*
X35260005Y-91229951D01*
X35260005Y-91229969D01*
X35271796Y-91289227D01*
X35301195Y-91437028D01*
X35301208Y-91437047D01*
X35301212Y-91437068D01*
X35306978Y-91445696D01*
X35313897Y-93403962D01*
X35301195Y-93422972D01*
X35246091Y-93700000D01*
X35260001Y-93769930D01*
X35260000Y-95054000D01*
X31603435Y-95054000D01*
X31609911Y-93720101D01*
X31613909Y-93700000D01*
X31610101Y-93680857D01*
X31610331Y-93633522D01*
X31570141Y-93426223D01*
X31498942Y-93318539D01*
X31504272Y-91805000D01*
X31768874Y-91805000D01*
X32149280Y-91647431D01*
X32440431Y-91356280D01*
X32598000Y-90975874D01*
X32598000Y-90564126D01*
X32440431Y-90183720D01*
X32149280Y-89892569D01*
X32148010Y-89892043D01*
X32148010Y-86327504D01*
X32856347Y-85619168D01*
X32923977Y-85573979D01*
X33103003Y-85306048D01*
X33150000Y-85069776D01*
X33150000Y-85069775D01*
X33165868Y-84990002D01*
X33150000Y-84910229D01*
X33150000Y-84376751D01*
X33165868Y-84296978D01*
X33148472Y-84209522D01*
X33103003Y-83980933D01*
X32923977Y-83713002D01*
X32856345Y-83667812D01*
X32698020Y-83509487D01*
X32698020Y-81125322D01*
X33094165Y-80729178D01*
X33161798Y-80683987D01*
X33206989Y-80616354D01*
X33416354Y-80406989D01*
X33483987Y-80361798D01*
X33663013Y-80093867D01*
X33710010Y-79857595D01*
X33725878Y-79777822D01*
X33710010Y-79698049D01*
X33710010Y-77998931D01*
X33725878Y-77919157D01*
X33672545Y-77651034D01*
X33663013Y-77603112D01*
X33483987Y-77335181D01*
X33416354Y-77289990D01*
X33248030Y-77121666D01*
X33248030Y-74473144D01*
X33634175Y-74087000D01*
X33701808Y-74041809D01*
X33746999Y-73974176D01*
X33956364Y-73764811D01*
X34023997Y-73719620D01*
X34203023Y-73451689D01*
X34250020Y-73215417D01*
X34265888Y-73135644D01*
X34250020Y-73055871D01*
X34250020Y-72722372D01*
X34644238Y-72856892D01*
G36*
X35000968Y-71619858D02*
X34986825Y-71634000D01*
X35000968Y-71648143D01*
X34821363Y-71827748D01*
X34807220Y-71813605D01*
X34793078Y-71827748D01*
X34613473Y-71648143D01*
X34627615Y-71634000D01*
X34613473Y-71619858D01*
X34659330Y-71574000D01*
X34955110Y-71574000D01*
X35000968Y-71619858D01*
X35000968Y-71619858D01*
G37*
X35000968Y-71619858D02*
X34986825Y-71634000D01*
X35000968Y-71648143D01*
X34821363Y-71827748D01*
X34807220Y-71813605D01*
X34793078Y-71827748D01*
X34613473Y-71648143D01*
X34627615Y-71634000D01*
X34613473Y-71619858D01*
X34659330Y-71574000D01*
X34955110Y-71574000D01*
X35000968Y-71619858D01*
G36*
X34057207Y-59014174D02*
X33872522Y-59090673D01*
X33693893Y-59269301D01*
X33597220Y-59502690D01*
X33597220Y-59918250D01*
X33755970Y-60077000D01*
X34680220Y-60077000D01*
X34680220Y-60057000D01*
X34934220Y-60057000D01*
X34934220Y-60077000D01*
X34954220Y-60077000D01*
X34954220Y-60264000D01*
X34566536Y-60264000D01*
X34404784Y-60331000D01*
X33755970Y-60331000D01*
X33700691Y-60386279D01*
X33193000Y-59878588D01*
X33193000Y-59783226D01*
X33035431Y-59402820D01*
X32744280Y-59111669D01*
X32495631Y-59008675D01*
X34057207Y-59014174D01*
X34057207Y-59014174D01*
G37*
X34057207Y-59014174D02*
X33872522Y-59090673D01*
X33693893Y-59269301D01*
X33597220Y-59502690D01*
X33597220Y-59918250D01*
X33755970Y-60077000D01*
X34680220Y-60077000D01*
X34680220Y-60057000D01*
X34934220Y-60057000D01*
X34934220Y-60077000D01*
X34954220Y-60077000D01*
X34954220Y-60264000D01*
X34566536Y-60264000D01*
X34404784Y-60331000D01*
X33755970Y-60331000D01*
X33700691Y-60386279D01*
X33193000Y-59878588D01*
X33193000Y-59783226D01*
X33035431Y-59402820D01*
X32744280Y-59111669D01*
X32495631Y-59008675D01*
X34057207Y-59014174D01*
G04 #@! TO.N,Net-(D10-Pad2)*
G36*
X38518018Y-87376000D02*
X38498018Y-87376000D01*
X38498018Y-88300250D01*
X38656768Y-88459000D01*
X39072327Y-88459000D01*
X39305716Y-88362327D01*
X39480001Y-88188043D01*
X39480002Y-88939056D01*
X39464133Y-89018833D01*
X39519550Y-89297431D01*
X39526999Y-89334879D01*
X39706025Y-89602810D01*
X39773655Y-89647999D01*
X40480000Y-90354345D01*
X40480001Y-91900222D01*
X40480000Y-91900227D01*
X40480001Y-92984487D01*
X40323656Y-93140832D01*
X40256023Y-93186023D01*
X40076997Y-93453955D01*
X40031528Y-93682544D01*
X40014132Y-93770000D01*
X40030000Y-93849773D01*
X40030000Y-94391229D01*
X40014132Y-94471002D01*
X40030000Y-94550775D01*
X40030000Y-94550776D01*
X40076998Y-94787048D01*
X40256024Y-95054979D01*
X40323654Y-95100168D01*
X41030000Y-95806515D01*
X41030001Y-98922453D01*
X41029720Y-98922569D01*
X40738569Y-99213720D01*
X40581000Y-99594126D01*
X40581000Y-100005874D01*
X40738569Y-100386280D01*
X41029720Y-100677431D01*
X41410126Y-100835000D01*
X41576446Y-100835000D01*
X41579363Y-104065000D01*
X37911274Y-104065000D01*
X37929965Y-93719827D01*
X37933909Y-93700000D01*
X37930036Y-93680530D01*
X37930125Y-93631357D01*
X37890731Y-93431423D01*
X37898095Y-91340051D01*
X37911792Y-91271192D01*
X37919997Y-91229947D01*
X37919997Y-91229941D01*
X37933909Y-91160000D01*
X37920001Y-91090081D01*
X37920081Y-88459000D01*
X38085268Y-88459000D01*
X38244018Y-88300250D01*
X38244018Y-87376000D01*
X38224018Y-87376000D01*
X38224018Y-87189000D01*
X38518018Y-87189000D01*
X38518018Y-87376000D01*
X38518018Y-87376000D01*
G37*
X38518018Y-87376000D02*
X38498018Y-87376000D01*
X38498018Y-88300250D01*
X38656768Y-88459000D01*
X39072327Y-88459000D01*
X39305716Y-88362327D01*
X39480001Y-88188043D01*
X39480002Y-88939056D01*
X39464133Y-89018833D01*
X39519550Y-89297431D01*
X39526999Y-89334879D01*
X39706025Y-89602810D01*
X39773655Y-89647999D01*
X40480000Y-90354345D01*
X40480001Y-91900222D01*
X40480000Y-91900227D01*
X40480001Y-92984487D01*
X40323656Y-93140832D01*
X40256023Y-93186023D01*
X40076997Y-93453955D01*
X40031528Y-93682544D01*
X40014132Y-93770000D01*
X40030000Y-93849773D01*
X40030000Y-94391229D01*
X40014132Y-94471002D01*
X40030000Y-94550775D01*
X40030000Y-94550776D01*
X40076998Y-94787048D01*
X40256024Y-95054979D01*
X40323654Y-95100168D01*
X41030000Y-95806515D01*
X41030001Y-98922453D01*
X41029720Y-98922569D01*
X40738569Y-99213720D01*
X40581000Y-99594126D01*
X40581000Y-100005874D01*
X40738569Y-100386280D01*
X41029720Y-100677431D01*
X41410126Y-100835000D01*
X41576446Y-100835000D01*
X41579363Y-104065000D01*
X37911274Y-104065000D01*
X37929965Y-93719827D01*
X37933909Y-93700000D01*
X37930036Y-93680530D01*
X37930125Y-93631357D01*
X37890731Y-93431423D01*
X37898095Y-91340051D01*
X37911792Y-91271192D01*
X37919997Y-91229947D01*
X37919997Y-91229941D01*
X37933909Y-91160000D01*
X37920001Y-91090081D01*
X37920081Y-88459000D01*
X38085268Y-88459000D01*
X38244018Y-88300250D01*
X38244018Y-87376000D01*
X38224018Y-87376000D01*
X38224018Y-87189000D01*
X38518018Y-87189000D01*
X38518018Y-87376000D01*
G36*
X41142653Y-59002448D02*
X41150000Y-59003909D01*
X41157091Y-59002498D01*
X41249553Y-59002824D01*
X41263723Y-59000000D01*
X41580979Y-59000000D01*
X41580881Y-62245000D01*
X41410126Y-62245000D01*
X41029720Y-62402569D01*
X40738569Y-62693720D01*
X40581000Y-63074126D01*
X40581000Y-63485874D01*
X40738569Y-63866280D01*
X41029720Y-64157431D01*
X41030001Y-64157547D01*
X41030000Y-67263485D01*
X40323654Y-67969832D01*
X40256024Y-68015021D01*
X40076998Y-68282952D01*
X40056496Y-68386024D01*
X40014132Y-68598998D01*
X40030000Y-68678771D01*
X40030000Y-69250227D01*
X40014132Y-69330000D01*
X40030000Y-69409773D01*
X40076997Y-69646045D01*
X40256023Y-69913977D01*
X40323656Y-69959168D01*
X40480001Y-70115513D01*
X40480000Y-72714488D01*
X40364822Y-72829666D01*
X40297190Y-72874856D01*
X40249651Y-72946003D01*
X39773643Y-73422011D01*
X39706014Y-73467200D01*
X39660825Y-73534830D01*
X39526988Y-73735131D01*
X39464122Y-74051177D01*
X39479991Y-74130955D01*
X39479990Y-75300723D01*
X39438453Y-75200443D01*
X39215605Y-75154018D01*
X38550623Y-75819000D01*
X38564766Y-75833143D01*
X38518908Y-75879000D01*
X38223128Y-75879000D01*
X38177271Y-75833143D01*
X38191413Y-75819000D01*
X38177271Y-75804858D01*
X38356876Y-75625253D01*
X38371018Y-75639395D01*
X39036000Y-74974413D01*
X38989575Y-74751565D01*
X38534000Y-74596108D01*
X38053613Y-74626824D01*
X37920501Y-74681961D01*
X37920978Y-59000000D01*
X38380074Y-59000000D01*
X38450000Y-59013909D01*
X38519925Y-59000000D01*
X38519926Y-59000000D01*
X38553455Y-58993331D01*
X41142653Y-59002448D01*
X41142653Y-59002448D01*
G37*
X41142653Y-59002448D02*
X41150000Y-59003909D01*
X41157091Y-59002498D01*
X41249553Y-59002824D01*
X41263723Y-59000000D01*
X41580979Y-59000000D01*
X41580881Y-62245000D01*
X41410126Y-62245000D01*
X41029720Y-62402569D01*
X40738569Y-62693720D01*
X40581000Y-63074126D01*
X40581000Y-63485874D01*
X40738569Y-63866280D01*
X41029720Y-64157431D01*
X41030001Y-64157547D01*
X41030000Y-67263485D01*
X40323654Y-67969832D01*
X40256024Y-68015021D01*
X40076998Y-68282952D01*
X40056496Y-68386024D01*
X40014132Y-68598998D01*
X40030000Y-68678771D01*
X40030000Y-69250227D01*
X40014132Y-69330000D01*
X40030000Y-69409773D01*
X40076997Y-69646045D01*
X40256023Y-69913977D01*
X40323656Y-69959168D01*
X40480001Y-70115513D01*
X40480000Y-72714488D01*
X40364822Y-72829666D01*
X40297190Y-72874856D01*
X40249651Y-72946003D01*
X39773643Y-73422011D01*
X39706014Y-73467200D01*
X39660825Y-73534830D01*
X39526988Y-73735131D01*
X39464122Y-74051177D01*
X39479991Y-74130955D01*
X39479990Y-75300723D01*
X39438453Y-75200443D01*
X39215605Y-75154018D01*
X38550623Y-75819000D01*
X38564766Y-75833143D01*
X38518908Y-75879000D01*
X38223128Y-75879000D01*
X38177271Y-75833143D01*
X38191413Y-75819000D01*
X38177271Y-75804858D01*
X38356876Y-75625253D01*
X38371018Y-75639395D01*
X39036000Y-74974413D01*
X38989575Y-74751565D01*
X38534000Y-74596108D01*
X38053613Y-74626824D01*
X37920501Y-74681961D01*
X37920978Y-59000000D01*
X38380074Y-59000000D01*
X38450000Y-59013909D01*
X38519925Y-59000000D01*
X38519926Y-59000000D01*
X38553455Y-58993331D01*
X41142653Y-59002448D01*
G04 #@! TO.N,GND*
G36*
X46365000Y-98470132D02*
X46365000Y-99029868D01*
X45631481Y-99763388D01*
X45536711Y-99826711D01*
X45290159Y-100195703D01*
X45285854Y-100202146D01*
X45232526Y-100470243D01*
X45181843Y-100546095D01*
X45132560Y-100793860D01*
X45132560Y-101943860D01*
X45175552Y-102160000D01*
X44200774Y-102160000D01*
X44207151Y-96312282D01*
X46365000Y-98470132D01*
X46365000Y-98470132D01*
G37*
X46365000Y-98470132D02*
X46365000Y-99029868D01*
X45631481Y-99763388D01*
X45536711Y-99826711D01*
X45290159Y-100195703D01*
X45285854Y-100202146D01*
X45232526Y-100470243D01*
X45181843Y-100546095D01*
X45132560Y-100793860D01*
X45132560Y-101943860D01*
X45175552Y-102160000D01*
X44200774Y-102160000D01*
X44207151Y-96312282D01*
X46365000Y-98470132D01*
G36*
X45513720Y-37777431D02*
X45894126Y-37935000D01*
X46305874Y-37935000D01*
X46457878Y-37872038D01*
X46332969Y-38500000D01*
X46459864Y-39137945D01*
X46821231Y-39678769D01*
X47362055Y-40040136D01*
X47838969Y-40135000D01*
X48899630Y-40135000D01*
X49060660Y-40167031D01*
X49221690Y-40135000D01*
X49221691Y-40135000D01*
X49698605Y-40040136D01*
X50155228Y-39735030D01*
X57165000Y-39735030D01*
X57165000Y-39905904D01*
X57322569Y-40286310D01*
X57613720Y-40577461D01*
X57994126Y-40735030D01*
X58405874Y-40735030D01*
X58738977Y-40597055D01*
X58765685Y-40602367D01*
X58852846Y-40585030D01*
X58852850Y-40585030D01*
X59110995Y-40533682D01*
X59258622Y-40435040D01*
X76983462Y-40435040D01*
X78865000Y-42316579D01*
X78865001Y-48431991D01*
X78715000Y-48794126D01*
X78715000Y-49205874D01*
X78872569Y-49586280D01*
X79163720Y-49877431D01*
X79544126Y-50035000D01*
X79955874Y-50035000D01*
X80336280Y-49877431D01*
X80627431Y-49586280D01*
X80785000Y-49205874D01*
X80785000Y-48794126D01*
X80635000Y-48431993D01*
X80635000Y-42037161D01*
X80652337Y-41950000D01*
X80635000Y-41862839D01*
X80635000Y-41862835D01*
X80583652Y-41604690D01*
X80529801Y-41524096D01*
X80437424Y-41385845D01*
X80437423Y-41385844D01*
X80388049Y-41311951D01*
X80314156Y-41262577D01*
X79099384Y-40047805D01*
X79137945Y-40040135D01*
X79678768Y-39678768D01*
X80040135Y-39137945D01*
X80056101Y-39057679D01*
X95160020Y-54161599D01*
X95160021Y-55850970D01*
X94906447Y-55956004D01*
X94341024Y-56521427D01*
X94035020Y-57260186D01*
X94035020Y-58059814D01*
X94036500Y-58063388D01*
X93505020Y-58594868D01*
X92973540Y-58063388D01*
X92975020Y-58059814D01*
X92975020Y-57260186D01*
X92669016Y-56521427D01*
X92103593Y-55956004D01*
X91364834Y-55650000D01*
X90565206Y-55650000D01*
X89826447Y-55956004D01*
X89261024Y-56521427D01*
X88955020Y-57260186D01*
X88955020Y-58059814D01*
X89261024Y-58798573D01*
X89826447Y-59363996D01*
X90565206Y-59670000D01*
X91364834Y-59670000D01*
X91368408Y-59668520D01*
X92370021Y-60670133D01*
X92370020Y-63574524D01*
X92366447Y-63576004D01*
X91801024Y-64141427D01*
X91495020Y-64880186D01*
X91495020Y-65679814D01*
X91801024Y-66418573D01*
X92366447Y-66983996D01*
X93105206Y-67290000D01*
X93904834Y-67290000D01*
X94643593Y-66983996D01*
X95209016Y-66418573D01*
X95515020Y-65679814D01*
X95515020Y-64880186D01*
X95209016Y-64141427D01*
X94643593Y-63576004D01*
X94640020Y-63574524D01*
X94640020Y-60670131D01*
X95641632Y-59668520D01*
X95645206Y-59670000D01*
X96444834Y-59670000D01*
X97183593Y-59363996D01*
X97749016Y-58798573D01*
X98055020Y-58059814D01*
X98055020Y-57260186D01*
X97749016Y-56521427D01*
X97183593Y-55956004D01*
X96930020Y-55850971D01*
X96930020Y-54785152D01*
X98615001Y-56470133D01*
X98615000Y-65609335D01*
X93105946Y-71118390D01*
X93105943Y-71118392D01*
X93105942Y-71118393D01*
X93011179Y-71181712D01*
X92947860Y-71276475D01*
X86776480Y-77447856D01*
X86681712Y-77511178D01*
X86529383Y-77739155D01*
X86430854Y-77886613D01*
X86342765Y-78329467D01*
X86365001Y-78441255D01*
X86365000Y-81477637D01*
X86342765Y-81589420D01*
X86365000Y-81701202D01*
X86430854Y-82032274D01*
X86681711Y-82407709D01*
X86729037Y-82439331D01*
X86727517Y-82508993D01*
X86819076Y-82744435D01*
X86993765Y-82926918D01*
X87935790Y-83586531D01*
X88017923Y-83622670D01*
X87958935Y-83706900D01*
X85482500Y-83706900D01*
X85482500Y-57219926D01*
X85496409Y-57150000D01*
X85441305Y-56872972D01*
X85284381Y-56638119D01*
X85049528Y-56481195D01*
X84842426Y-56440000D01*
X84842425Y-56440000D01*
X84772500Y-56426091D01*
X84702574Y-56440000D01*
X60712426Y-56440000D01*
X60642500Y-56426091D01*
X60572575Y-56440000D01*
X60572574Y-56440000D01*
X60365472Y-56481195D01*
X60130619Y-56638119D01*
X59973695Y-56872972D01*
X59918591Y-57150000D01*
X59932501Y-57219931D01*
X59932500Y-102160000D01*
X58705058Y-102160000D01*
X58810788Y-102054270D01*
X58995000Y-101609544D01*
X58995000Y-101128176D01*
X58913237Y-100930782D01*
X58942235Y-100784999D01*
X58854145Y-100342145D01*
X58666608Y-100061476D01*
X57381613Y-98776482D01*
X57318289Y-98681711D01*
X56942855Y-98430854D01*
X56611783Y-98365000D01*
X56500000Y-98342765D01*
X56388217Y-98365000D01*
X48635000Y-98365000D01*
X48635000Y-98111782D01*
X48657235Y-97999999D01*
X48569146Y-97557145D01*
X48318289Y-97181711D01*
X48223521Y-97118389D01*
X45407510Y-94302379D01*
X45407510Y-81701086D01*
X53865001Y-90158578D01*
X53865000Y-92181993D01*
X53715000Y-92544126D01*
X53715000Y-92955874D01*
X53872569Y-93336280D01*
X54163720Y-93627431D01*
X54544126Y-93785000D01*
X54955874Y-93785000D01*
X55336280Y-93627431D01*
X55627431Y-93336280D01*
X55785000Y-92955874D01*
X55785000Y-92544126D01*
X55635000Y-92181993D01*
X55635000Y-89879157D01*
X55652337Y-89791997D01*
X55635000Y-89704837D01*
X55635000Y-89704833D01*
X55583652Y-89446688D01*
X55468702Y-89274654D01*
X55437424Y-89227843D01*
X55437423Y-89227842D01*
X55388049Y-89153949D01*
X55314156Y-89104575D01*
X46107520Y-79897940D01*
X46107520Y-43525589D01*
X47240111Y-43525589D01*
X47255000Y-43600441D01*
X47254999Y-46300152D01*
X47240111Y-46374999D01*
X47254999Y-46449846D01*
X47254999Y-46449850D01*
X47299095Y-46671535D01*
X47467070Y-46922928D01*
X47530529Y-46965330D01*
X48215000Y-47649802D01*
X48215000Y-47815874D01*
X48372569Y-48196280D01*
X48663720Y-48487431D01*
X49044126Y-48645000D01*
X49210198Y-48645000D01*
X50089673Y-49524476D01*
X50132071Y-49587929D01*
X50195524Y-49630327D01*
X50195526Y-49630329D01*
X50320902Y-49714102D01*
X50383463Y-49755904D01*
X50605148Y-49800000D01*
X50605152Y-49800000D01*
X50679999Y-49814888D01*
X50754846Y-49800000D01*
X51846289Y-49800000D01*
X51963720Y-49917431D01*
X52344126Y-50075000D01*
X52755874Y-50075000D01*
X53136280Y-49917431D01*
X53242751Y-49810960D01*
X53262497Y-49814888D01*
X53337344Y-49800000D01*
X53337349Y-49800000D01*
X53559034Y-49755904D01*
X53810426Y-49587929D01*
X53852828Y-49524470D01*
X55469414Y-47907886D01*
X55532867Y-47865488D01*
X55575265Y-47802035D01*
X55575267Y-47802033D01*
X55675461Y-47652081D01*
X55700842Y-47614096D01*
X55744938Y-47392411D01*
X55744938Y-47392407D01*
X55759826Y-47317560D01*
X55744938Y-47242713D01*
X55744938Y-45351246D01*
X56116280Y-45197431D01*
X56407431Y-44906280D01*
X56565000Y-44525874D01*
X56565000Y-44114126D01*
X56407431Y-43733720D01*
X56116280Y-43442569D01*
X55735874Y-43285000D01*
X55324126Y-43285000D01*
X54943720Y-43442569D01*
X54652569Y-43733720D01*
X54495000Y-44114126D01*
X54495000Y-44278385D01*
X54437009Y-44317133D01*
X54269034Y-44568526D01*
X54224938Y-44790211D01*
X54224938Y-44790215D01*
X54210050Y-44865062D01*
X54224938Y-44939909D01*
X54224938Y-45474937D01*
X54054063Y-45474937D01*
X53673657Y-45632506D01*
X53540540Y-45765623D01*
X53397715Y-45794033D01*
X53146323Y-45962008D01*
X53103923Y-46025464D01*
X52503518Y-46625869D01*
X52382574Y-46333883D01*
X52265143Y-46216452D01*
X52265143Y-45263568D01*
X52265634Y-45263077D01*
X52584126Y-45395000D01*
X52995874Y-45395000D01*
X53376280Y-45237431D01*
X53667431Y-44946280D01*
X53825000Y-44565874D01*
X53825000Y-44154126D01*
X53667431Y-43773720D01*
X53376280Y-43482569D01*
X52995874Y-43325000D01*
X52829802Y-43325000D01*
X52116368Y-42611567D01*
X52185000Y-42445874D01*
X52185000Y-42034126D01*
X52027431Y-41653720D01*
X51736280Y-41362569D01*
X51355874Y-41205000D01*
X50944126Y-41205000D01*
X50563720Y-41362569D01*
X50446289Y-41480000D01*
X49375434Y-41480000D01*
X49300587Y-41465112D01*
X49225740Y-41480000D01*
X49225736Y-41480000D01*
X49004051Y-41524096D01*
X49004049Y-41524097D01*
X49004050Y-41524097D01*
X48816114Y-41649671D01*
X48816112Y-41649673D01*
X48752659Y-41692071D01*
X48710261Y-41755524D01*
X47530527Y-42935260D01*
X47467071Y-42977660D01*
X47424671Y-43041116D01*
X47424670Y-43041117D01*
X47299096Y-43229052D01*
X47240111Y-43525589D01*
X46107520Y-43525589D01*
X46107520Y-40860062D01*
X46186280Y-40827439D01*
X46477431Y-40536288D01*
X46635000Y-40155882D01*
X46635000Y-39744134D01*
X46477431Y-39363728D01*
X46186280Y-39072577D01*
X45805874Y-38915008D01*
X45407510Y-38915008D01*
X45407510Y-37671221D01*
X45513720Y-37777431D01*
X45513720Y-37777431D01*
G37*
X45513720Y-37777431D02*
X45894126Y-37935000D01*
X46305874Y-37935000D01*
X46457878Y-37872038D01*
X46332969Y-38500000D01*
X46459864Y-39137945D01*
X46821231Y-39678769D01*
X47362055Y-40040136D01*
X47838969Y-40135000D01*
X48899630Y-40135000D01*
X49060660Y-40167031D01*
X49221690Y-40135000D01*
X49221691Y-40135000D01*
X49698605Y-40040136D01*
X50155228Y-39735030D01*
X57165000Y-39735030D01*
X57165000Y-39905904D01*
X57322569Y-40286310D01*
X57613720Y-40577461D01*
X57994126Y-40735030D01*
X58405874Y-40735030D01*
X58738977Y-40597055D01*
X58765685Y-40602367D01*
X58852846Y-40585030D01*
X58852850Y-40585030D01*
X59110995Y-40533682D01*
X59258622Y-40435040D01*
X76983462Y-40435040D01*
X78865000Y-42316579D01*
X78865001Y-48431991D01*
X78715000Y-48794126D01*
X78715000Y-49205874D01*
X78872569Y-49586280D01*
X79163720Y-49877431D01*
X79544126Y-50035000D01*
X79955874Y-50035000D01*
X80336280Y-49877431D01*
X80627431Y-49586280D01*
X80785000Y-49205874D01*
X80785000Y-48794126D01*
X80635000Y-48431993D01*
X80635000Y-42037161D01*
X80652337Y-41950000D01*
X80635000Y-41862839D01*
X80635000Y-41862835D01*
X80583652Y-41604690D01*
X80529801Y-41524096D01*
X80437424Y-41385845D01*
X80437423Y-41385844D01*
X80388049Y-41311951D01*
X80314156Y-41262577D01*
X79099384Y-40047805D01*
X79137945Y-40040135D01*
X79678768Y-39678768D01*
X80040135Y-39137945D01*
X80056101Y-39057679D01*
X95160020Y-54161599D01*
X95160021Y-55850970D01*
X94906447Y-55956004D01*
X94341024Y-56521427D01*
X94035020Y-57260186D01*
X94035020Y-58059814D01*
X94036500Y-58063388D01*
X93505020Y-58594868D01*
X92973540Y-58063388D01*
X92975020Y-58059814D01*
X92975020Y-57260186D01*
X92669016Y-56521427D01*
X92103593Y-55956004D01*
X91364834Y-55650000D01*
X90565206Y-55650000D01*
X89826447Y-55956004D01*
X89261024Y-56521427D01*
X88955020Y-57260186D01*
X88955020Y-58059814D01*
X89261024Y-58798573D01*
X89826447Y-59363996D01*
X90565206Y-59670000D01*
X91364834Y-59670000D01*
X91368408Y-59668520D01*
X92370021Y-60670133D01*
X92370020Y-63574524D01*
X92366447Y-63576004D01*
X91801024Y-64141427D01*
X91495020Y-64880186D01*
X91495020Y-65679814D01*
X91801024Y-66418573D01*
X92366447Y-66983996D01*
X93105206Y-67290000D01*
X93904834Y-67290000D01*
X94643593Y-66983996D01*
X95209016Y-66418573D01*
X95515020Y-65679814D01*
X95515020Y-64880186D01*
X95209016Y-64141427D01*
X94643593Y-63576004D01*
X94640020Y-63574524D01*
X94640020Y-60670131D01*
X95641632Y-59668520D01*
X95645206Y-59670000D01*
X96444834Y-59670000D01*
X97183593Y-59363996D01*
X97749016Y-58798573D01*
X98055020Y-58059814D01*
X98055020Y-57260186D01*
X97749016Y-56521427D01*
X97183593Y-55956004D01*
X96930020Y-55850971D01*
X96930020Y-54785152D01*
X98615001Y-56470133D01*
X98615000Y-65609335D01*
X93105946Y-71118390D01*
X93105943Y-71118392D01*
X93105942Y-71118393D01*
X93011179Y-71181712D01*
X92947860Y-71276475D01*
X86776480Y-77447856D01*
X86681712Y-77511178D01*
X86529383Y-77739155D01*
X86430854Y-77886613D01*
X86342765Y-78329467D01*
X86365001Y-78441255D01*
X86365000Y-81477637D01*
X86342765Y-81589420D01*
X86365000Y-81701202D01*
X86430854Y-82032274D01*
X86681711Y-82407709D01*
X86729037Y-82439331D01*
X86727517Y-82508993D01*
X86819076Y-82744435D01*
X86993765Y-82926918D01*
X87935790Y-83586531D01*
X88017923Y-83622670D01*
X87958935Y-83706900D01*
X85482500Y-83706900D01*
X85482500Y-57219926D01*
X85496409Y-57150000D01*
X85441305Y-56872972D01*
X85284381Y-56638119D01*
X85049528Y-56481195D01*
X84842426Y-56440000D01*
X84842425Y-56440000D01*
X84772500Y-56426091D01*
X84702574Y-56440000D01*
X60712426Y-56440000D01*
X60642500Y-56426091D01*
X60572575Y-56440000D01*
X60572574Y-56440000D01*
X60365472Y-56481195D01*
X60130619Y-56638119D01*
X59973695Y-56872972D01*
X59918591Y-57150000D01*
X59932501Y-57219931D01*
X59932500Y-102160000D01*
X58705058Y-102160000D01*
X58810788Y-102054270D01*
X58995000Y-101609544D01*
X58995000Y-101128176D01*
X58913237Y-100930782D01*
X58942235Y-100784999D01*
X58854145Y-100342145D01*
X58666608Y-100061476D01*
X57381613Y-98776482D01*
X57318289Y-98681711D01*
X56942855Y-98430854D01*
X56611783Y-98365000D01*
X56500000Y-98342765D01*
X56388217Y-98365000D01*
X48635000Y-98365000D01*
X48635000Y-98111782D01*
X48657235Y-97999999D01*
X48569146Y-97557145D01*
X48318289Y-97181711D01*
X48223521Y-97118389D01*
X45407510Y-94302379D01*
X45407510Y-81701086D01*
X53865001Y-90158578D01*
X53865000Y-92181993D01*
X53715000Y-92544126D01*
X53715000Y-92955874D01*
X53872569Y-93336280D01*
X54163720Y-93627431D01*
X54544126Y-93785000D01*
X54955874Y-93785000D01*
X55336280Y-93627431D01*
X55627431Y-93336280D01*
X55785000Y-92955874D01*
X55785000Y-92544126D01*
X55635000Y-92181993D01*
X55635000Y-89879157D01*
X55652337Y-89791997D01*
X55635000Y-89704837D01*
X55635000Y-89704833D01*
X55583652Y-89446688D01*
X55468702Y-89274654D01*
X55437424Y-89227843D01*
X55437423Y-89227842D01*
X55388049Y-89153949D01*
X55314156Y-89104575D01*
X46107520Y-79897940D01*
X46107520Y-43525589D01*
X47240111Y-43525589D01*
X47255000Y-43600441D01*
X47254999Y-46300152D01*
X47240111Y-46374999D01*
X47254999Y-46449846D01*
X47254999Y-46449850D01*
X47299095Y-46671535D01*
X47467070Y-46922928D01*
X47530529Y-46965330D01*
X48215000Y-47649802D01*
X48215000Y-47815874D01*
X48372569Y-48196280D01*
X48663720Y-48487431D01*
X49044126Y-48645000D01*
X49210198Y-48645000D01*
X50089673Y-49524476D01*
X50132071Y-49587929D01*
X50195524Y-49630327D01*
X50195526Y-49630329D01*
X50320902Y-49714102D01*
X50383463Y-49755904D01*
X50605148Y-49800000D01*
X50605152Y-49800000D01*
X50679999Y-49814888D01*
X50754846Y-49800000D01*
X51846289Y-49800000D01*
X51963720Y-49917431D01*
X52344126Y-50075000D01*
X52755874Y-50075000D01*
X53136280Y-49917431D01*
X53242751Y-49810960D01*
X53262497Y-49814888D01*
X53337344Y-49800000D01*
X53337349Y-49800000D01*
X53559034Y-49755904D01*
X53810426Y-49587929D01*
X53852828Y-49524470D01*
X55469414Y-47907886D01*
X55532867Y-47865488D01*
X55575265Y-47802035D01*
X55575267Y-47802033D01*
X55675461Y-47652081D01*
X55700842Y-47614096D01*
X55744938Y-47392411D01*
X55744938Y-47392407D01*
X55759826Y-47317560D01*
X55744938Y-47242713D01*
X55744938Y-45351246D01*
X56116280Y-45197431D01*
X56407431Y-44906280D01*
X56565000Y-44525874D01*
X56565000Y-44114126D01*
X56407431Y-43733720D01*
X56116280Y-43442569D01*
X55735874Y-43285000D01*
X55324126Y-43285000D01*
X54943720Y-43442569D01*
X54652569Y-43733720D01*
X54495000Y-44114126D01*
X54495000Y-44278385D01*
X54437009Y-44317133D01*
X54269034Y-44568526D01*
X54224938Y-44790211D01*
X54224938Y-44790215D01*
X54210050Y-44865062D01*
X54224938Y-44939909D01*
X54224938Y-45474937D01*
X54054063Y-45474937D01*
X53673657Y-45632506D01*
X53540540Y-45765623D01*
X53397715Y-45794033D01*
X53146323Y-45962008D01*
X53103923Y-46025464D01*
X52503518Y-46625869D01*
X52382574Y-46333883D01*
X52265143Y-46216452D01*
X52265143Y-45263568D01*
X52265634Y-45263077D01*
X52584126Y-45395000D01*
X52995874Y-45395000D01*
X53376280Y-45237431D01*
X53667431Y-44946280D01*
X53825000Y-44565874D01*
X53825000Y-44154126D01*
X53667431Y-43773720D01*
X53376280Y-43482569D01*
X52995874Y-43325000D01*
X52829802Y-43325000D01*
X52116368Y-42611567D01*
X52185000Y-42445874D01*
X52185000Y-42034126D01*
X52027431Y-41653720D01*
X51736280Y-41362569D01*
X51355874Y-41205000D01*
X50944126Y-41205000D01*
X50563720Y-41362569D01*
X50446289Y-41480000D01*
X49375434Y-41480000D01*
X49300587Y-41465112D01*
X49225740Y-41480000D01*
X49225736Y-41480000D01*
X49004051Y-41524096D01*
X49004049Y-41524097D01*
X49004050Y-41524097D01*
X48816114Y-41649671D01*
X48816112Y-41649673D01*
X48752659Y-41692071D01*
X48710261Y-41755524D01*
X47530527Y-42935260D01*
X47467071Y-42977660D01*
X47424671Y-43041116D01*
X47424670Y-43041117D01*
X47299096Y-43229052D01*
X47240111Y-43525589D01*
X46107520Y-43525589D01*
X46107520Y-40860062D01*
X46186280Y-40827439D01*
X46477431Y-40536288D01*
X46635000Y-40155882D01*
X46635000Y-39744134D01*
X46477431Y-39363728D01*
X46186280Y-39072577D01*
X45805874Y-38915008D01*
X45407510Y-38915008D01*
X45407510Y-37671221D01*
X45513720Y-37777431D01*
G36*
X24685847Y-37812595D02*
X24611951Y-37861971D01*
X24416348Y-38154711D01*
X24365000Y-38412856D01*
X24365000Y-38412859D01*
X24347663Y-38500020D01*
X24365000Y-38587181D01*
X24365001Y-51431991D01*
X24215000Y-51794126D01*
X24215000Y-52205874D01*
X24372569Y-52586280D01*
X24663720Y-52877431D01*
X25044126Y-53035000D01*
X25455874Y-53035000D01*
X25836280Y-52877431D01*
X26127431Y-52586280D01*
X26285000Y-52205874D01*
X26285000Y-51794126D01*
X26135000Y-51431993D01*
X26135000Y-38866598D01*
X27466579Y-37535020D01*
X41683442Y-37535020D01*
X42072569Y-37924148D01*
X42222569Y-38286280D01*
X42513720Y-38577431D01*
X42894126Y-38735000D01*
X43137511Y-38735000D01*
X43137510Y-54511782D01*
X43137511Y-54511787D01*
X43137511Y-56440000D01*
X41320880Y-56440000D01*
X41288186Y-56418321D01*
X41239551Y-56408826D01*
X38409551Y-56418826D01*
X38403703Y-56420000D01*
X34829652Y-56420000D01*
X34810000Y-56416091D01*
X34790348Y-56420000D01*
X34740074Y-56420000D01*
X34722734Y-56423449D01*
X32113078Y-56432671D01*
X32080000Y-56426091D01*
X32045726Y-56432909D01*
X32019551Y-56433001D01*
X31984685Y-56440000D01*
X28359926Y-56440000D01*
X28290000Y-56426091D01*
X28254187Y-56433215D01*
X25842623Y-56442526D01*
X25829926Y-56440000D01*
X25760000Y-56426091D01*
X25690075Y-56440000D01*
X19437426Y-56440000D01*
X19367500Y-56426091D01*
X19297575Y-56440000D01*
X19297574Y-56440000D01*
X19090472Y-56481195D01*
X18855619Y-56638119D01*
X18698695Y-56872972D01*
X18643591Y-57150000D01*
X18657501Y-57219931D01*
X18657500Y-83706900D01*
X16181066Y-83706900D01*
X16122077Y-83622670D01*
X16204210Y-83586531D01*
X17146235Y-82926918D01*
X17320924Y-82744435D01*
X17392558Y-82560230D01*
X17703518Y-82249270D01*
X17798289Y-82185946D01*
X17990085Y-81898902D01*
X18049146Y-81810512D01*
X18137235Y-81367657D01*
X18115000Y-81255874D01*
X18115000Y-77461782D01*
X18137235Y-77349999D01*
X18049146Y-76907145D01*
X17959482Y-76772954D01*
X17798289Y-76531711D01*
X17703521Y-76468389D01*
X10874693Y-69639562D01*
X10811369Y-69544791D01*
X10716601Y-69481469D01*
X7938791Y-66703659D01*
X9393466Y-66703659D01*
X9537987Y-67009444D01*
X10283513Y-67298571D01*
X11082934Y-67280389D01*
X11737053Y-67009444D01*
X11881574Y-66703659D01*
X10637520Y-65459605D01*
X9393466Y-66703659D01*
X7938791Y-66703659D01*
X6161125Y-64925993D01*
X8618949Y-64925993D01*
X8637131Y-65725414D01*
X8908076Y-66379533D01*
X9213861Y-66524054D01*
X10457915Y-65280000D01*
X10817125Y-65280000D01*
X12061179Y-66524054D01*
X12366964Y-66379533D01*
X12656091Y-65634007D01*
X12637909Y-64834586D01*
X12366964Y-64180467D01*
X12061179Y-64035946D01*
X10817125Y-65280000D01*
X10457915Y-65280000D01*
X9213861Y-64035946D01*
X8908076Y-64180467D01*
X8618949Y-64925993D01*
X6161125Y-64925993D01*
X5885000Y-64649869D01*
X5885000Y-63856341D01*
X9393466Y-63856341D01*
X10637520Y-65100395D01*
X11881574Y-63856341D01*
X11737053Y-63550556D01*
X10991527Y-63261429D01*
X10192106Y-63279611D01*
X9537987Y-63550556D01*
X9393466Y-63856341D01*
X5885000Y-63856341D01*
X5885000Y-59083659D01*
X6853466Y-59083659D01*
X6997987Y-59389444D01*
X7743513Y-59678571D01*
X8542934Y-59660389D01*
X9197053Y-59389444D01*
X9341574Y-59083659D01*
X11933466Y-59083659D01*
X12077987Y-59389444D01*
X12823513Y-59678571D01*
X13622934Y-59660389D01*
X14277053Y-59389444D01*
X14421574Y-59083659D01*
X13177520Y-57839605D01*
X11933466Y-59083659D01*
X9341574Y-59083659D01*
X8097520Y-57839605D01*
X6853466Y-59083659D01*
X5885000Y-59083659D01*
X5885000Y-57305993D01*
X6078949Y-57305993D01*
X6097131Y-58105414D01*
X6368076Y-58759533D01*
X6673861Y-58904054D01*
X7917915Y-57660000D01*
X8277125Y-57660000D01*
X9521179Y-58904054D01*
X9826964Y-58759533D01*
X10116091Y-58014007D01*
X10099988Y-57305993D01*
X11158949Y-57305993D01*
X11177131Y-58105414D01*
X11448076Y-58759533D01*
X11753861Y-58904054D01*
X12997915Y-57660000D01*
X13357125Y-57660000D01*
X14601179Y-58904054D01*
X14906964Y-58759533D01*
X15196091Y-58014007D01*
X15177909Y-57214586D01*
X14906964Y-56560467D01*
X14601179Y-56415946D01*
X13357125Y-57660000D01*
X12997915Y-57660000D01*
X11753861Y-56415946D01*
X11448076Y-56560467D01*
X11158949Y-57305993D01*
X10099988Y-57305993D01*
X10097909Y-57214586D01*
X9826964Y-56560467D01*
X9521179Y-56415946D01*
X8277125Y-57660000D01*
X7917915Y-57660000D01*
X6673861Y-56415946D01*
X6368076Y-56560467D01*
X6078949Y-57305993D01*
X5885000Y-57305993D01*
X5885000Y-56236341D01*
X6853466Y-56236341D01*
X8097520Y-57480395D01*
X9341574Y-56236341D01*
X11933466Y-56236341D01*
X13177520Y-57480395D01*
X14421574Y-56236341D01*
X14277053Y-55930556D01*
X13531527Y-55641429D01*
X12732106Y-55659611D01*
X12077987Y-55930556D01*
X11933466Y-56236341D01*
X9341574Y-56236341D01*
X9197053Y-55930556D01*
X8451527Y-55641429D01*
X7652106Y-55659611D01*
X6997987Y-55930556D01*
X6853466Y-56236341D01*
X5885000Y-56236341D01*
X5885000Y-55470131D01*
X10881608Y-50473524D01*
X10881610Y-50473521D01*
X22881608Y-38473524D01*
X22881610Y-38473521D01*
X24520122Y-36835010D01*
X25663431Y-36835010D01*
X24685847Y-37812595D01*
X24685847Y-37812595D01*
G37*
X24685847Y-37812595D02*
X24611951Y-37861971D01*
X24416348Y-38154711D01*
X24365000Y-38412856D01*
X24365000Y-38412859D01*
X24347663Y-38500020D01*
X24365000Y-38587181D01*
X24365001Y-51431991D01*
X24215000Y-51794126D01*
X24215000Y-52205874D01*
X24372569Y-52586280D01*
X24663720Y-52877431D01*
X25044126Y-53035000D01*
X25455874Y-53035000D01*
X25836280Y-52877431D01*
X26127431Y-52586280D01*
X26285000Y-52205874D01*
X26285000Y-51794126D01*
X26135000Y-51431993D01*
X26135000Y-38866598D01*
X27466579Y-37535020D01*
X41683442Y-37535020D01*
X42072569Y-37924148D01*
X42222569Y-38286280D01*
X42513720Y-38577431D01*
X42894126Y-38735000D01*
X43137511Y-38735000D01*
X43137510Y-54511782D01*
X43137511Y-54511787D01*
X43137511Y-56440000D01*
X41320880Y-56440000D01*
X41288186Y-56418321D01*
X41239551Y-56408826D01*
X38409551Y-56418826D01*
X38403703Y-56420000D01*
X34829652Y-56420000D01*
X34810000Y-56416091D01*
X34790348Y-56420000D01*
X34740074Y-56420000D01*
X34722734Y-56423449D01*
X32113078Y-56432671D01*
X32080000Y-56426091D01*
X32045726Y-56432909D01*
X32019551Y-56433001D01*
X31984685Y-56440000D01*
X28359926Y-56440000D01*
X28290000Y-56426091D01*
X28254187Y-56433215D01*
X25842623Y-56442526D01*
X25829926Y-56440000D01*
X25760000Y-56426091D01*
X25690075Y-56440000D01*
X19437426Y-56440000D01*
X19367500Y-56426091D01*
X19297575Y-56440000D01*
X19297574Y-56440000D01*
X19090472Y-56481195D01*
X18855619Y-56638119D01*
X18698695Y-56872972D01*
X18643591Y-57150000D01*
X18657501Y-57219931D01*
X18657500Y-83706900D01*
X16181066Y-83706900D01*
X16122077Y-83622670D01*
X16204210Y-83586531D01*
X17146235Y-82926918D01*
X17320924Y-82744435D01*
X17392558Y-82560230D01*
X17703518Y-82249270D01*
X17798289Y-82185946D01*
X17990085Y-81898902D01*
X18049146Y-81810512D01*
X18137235Y-81367657D01*
X18115000Y-81255874D01*
X18115000Y-77461782D01*
X18137235Y-77349999D01*
X18049146Y-76907145D01*
X17959482Y-76772954D01*
X17798289Y-76531711D01*
X17703521Y-76468389D01*
X10874693Y-69639562D01*
X10811369Y-69544791D01*
X10716601Y-69481469D01*
X7938791Y-66703659D01*
X9393466Y-66703659D01*
X9537987Y-67009444D01*
X10283513Y-67298571D01*
X11082934Y-67280389D01*
X11737053Y-67009444D01*
X11881574Y-66703659D01*
X10637520Y-65459605D01*
X9393466Y-66703659D01*
X7938791Y-66703659D01*
X6161125Y-64925993D01*
X8618949Y-64925993D01*
X8637131Y-65725414D01*
X8908076Y-66379533D01*
X9213861Y-66524054D01*
X10457915Y-65280000D01*
X10817125Y-65280000D01*
X12061179Y-66524054D01*
X12366964Y-66379533D01*
X12656091Y-65634007D01*
X12637909Y-64834586D01*
X12366964Y-64180467D01*
X12061179Y-64035946D01*
X10817125Y-65280000D01*
X10457915Y-65280000D01*
X9213861Y-64035946D01*
X8908076Y-64180467D01*
X8618949Y-64925993D01*
X6161125Y-64925993D01*
X5885000Y-64649869D01*
X5885000Y-63856341D01*
X9393466Y-63856341D01*
X10637520Y-65100395D01*
X11881574Y-63856341D01*
X11737053Y-63550556D01*
X10991527Y-63261429D01*
X10192106Y-63279611D01*
X9537987Y-63550556D01*
X9393466Y-63856341D01*
X5885000Y-63856341D01*
X5885000Y-59083659D01*
X6853466Y-59083659D01*
X6997987Y-59389444D01*
X7743513Y-59678571D01*
X8542934Y-59660389D01*
X9197053Y-59389444D01*
X9341574Y-59083659D01*
X11933466Y-59083659D01*
X12077987Y-59389444D01*
X12823513Y-59678571D01*
X13622934Y-59660389D01*
X14277053Y-59389444D01*
X14421574Y-59083659D01*
X13177520Y-57839605D01*
X11933466Y-59083659D01*
X9341574Y-59083659D01*
X8097520Y-57839605D01*
X6853466Y-59083659D01*
X5885000Y-59083659D01*
X5885000Y-57305993D01*
X6078949Y-57305993D01*
X6097131Y-58105414D01*
X6368076Y-58759533D01*
X6673861Y-58904054D01*
X7917915Y-57660000D01*
X8277125Y-57660000D01*
X9521179Y-58904054D01*
X9826964Y-58759533D01*
X10116091Y-58014007D01*
X10099988Y-57305993D01*
X11158949Y-57305993D01*
X11177131Y-58105414D01*
X11448076Y-58759533D01*
X11753861Y-58904054D01*
X12997915Y-57660000D01*
X13357125Y-57660000D01*
X14601179Y-58904054D01*
X14906964Y-58759533D01*
X15196091Y-58014007D01*
X15177909Y-57214586D01*
X14906964Y-56560467D01*
X14601179Y-56415946D01*
X13357125Y-57660000D01*
X12997915Y-57660000D01*
X11753861Y-56415946D01*
X11448076Y-56560467D01*
X11158949Y-57305993D01*
X10099988Y-57305993D01*
X10097909Y-57214586D01*
X9826964Y-56560467D01*
X9521179Y-56415946D01*
X8277125Y-57660000D01*
X7917915Y-57660000D01*
X6673861Y-56415946D01*
X6368076Y-56560467D01*
X6078949Y-57305993D01*
X5885000Y-57305993D01*
X5885000Y-56236341D01*
X6853466Y-56236341D01*
X8097520Y-57480395D01*
X9341574Y-56236341D01*
X11933466Y-56236341D01*
X13177520Y-57480395D01*
X14421574Y-56236341D01*
X14277053Y-55930556D01*
X13531527Y-55641429D01*
X12732106Y-55659611D01*
X12077987Y-55930556D01*
X11933466Y-56236341D01*
X9341574Y-56236341D01*
X9197053Y-55930556D01*
X8451527Y-55641429D01*
X7652106Y-55659611D01*
X6997987Y-55930556D01*
X6853466Y-56236341D01*
X5885000Y-56236341D01*
X5885000Y-55470131D01*
X10881608Y-50473524D01*
X10881610Y-50473521D01*
X22881608Y-38473524D01*
X22881610Y-38473521D01*
X24520122Y-36835010D01*
X25663431Y-36835010D01*
X24685847Y-37812595D01*
G36*
X20562500Y-34855074D02*
X20548591Y-34925000D01*
X20603695Y-35202028D01*
X20760619Y-35436881D01*
X20982294Y-35585000D01*
X20995472Y-35593805D01*
X21272500Y-35648909D01*
X21342425Y-35635000D01*
X22509868Y-35635000D01*
X21276479Y-36868390D01*
X21276476Y-36868392D01*
X9276479Y-48868390D01*
X9276476Y-48868392D01*
X4026480Y-54118389D01*
X3931712Y-54181711D01*
X3763760Y-54433069D01*
X3680854Y-54557146D01*
X3592765Y-55000000D01*
X3615001Y-55111788D01*
X3615000Y-65008217D01*
X3592765Y-65120000D01*
X3646826Y-65391782D01*
X3680854Y-65562854D01*
X3931711Y-65938289D01*
X4026482Y-66001613D01*
X8858081Y-70833213D01*
X8858080Y-71814718D01*
X8732671Y-71866664D01*
X8392293Y-72207042D01*
X8293845Y-72444716D01*
X7749017Y-71666754D01*
X7720397Y-71601640D01*
X7668789Y-71552196D01*
X7668692Y-71552058D01*
X7618820Y-71504323D01*
X7516440Y-71406237D01*
X7516275Y-71406173D01*
X7516147Y-71406050D01*
X7385074Y-71355091D01*
X7253230Y-71303759D01*
X7253051Y-71303763D01*
X7252887Y-71303699D01*
X7112125Y-71306782D01*
X6970839Y-71309808D01*
X6970677Y-71309879D01*
X6970501Y-71309883D01*
X6841617Y-71366606D01*
X6777529Y-71394775D01*
X6777388Y-71394874D01*
X6711976Y-71423662D01*
X6662797Y-71475043D01*
X5991167Y-71944924D01*
X710000Y-64401389D01*
X710000Y-12021326D01*
X6087520Y-12021326D01*
X6087520Y-12820954D01*
X6393524Y-13559713D01*
X6958947Y-14125136D01*
X7697706Y-14431140D01*
X8497334Y-14431140D01*
X9236093Y-14125136D01*
X9801516Y-13559713D01*
X10107520Y-12820954D01*
X10107520Y-12021326D01*
X10106040Y-12017752D01*
X10637520Y-11486272D01*
X11169000Y-12017752D01*
X11167520Y-12021326D01*
X11167520Y-12820954D01*
X11473524Y-13559713D01*
X12038947Y-14125136D01*
X12777706Y-14431140D01*
X13577334Y-14431140D01*
X14316093Y-14125136D01*
X14881516Y-13559713D01*
X15187520Y-12820954D01*
X15187520Y-12021326D01*
X14881516Y-11282567D01*
X14316093Y-10717144D01*
X13577334Y-10411140D01*
X12777706Y-10411140D01*
X12774132Y-10412620D01*
X11772520Y-9411009D01*
X11772520Y-6506616D01*
X11776093Y-6505136D01*
X12341516Y-5939713D01*
X12647520Y-5200954D01*
X12647520Y-4401326D01*
X12341516Y-3662567D01*
X11776093Y-3097144D01*
X11037334Y-2791140D01*
X10237706Y-2791140D01*
X9498947Y-3097144D01*
X8933524Y-3662567D01*
X8627520Y-4401326D01*
X8627520Y-5200954D01*
X8933524Y-5939713D01*
X9498947Y-6505136D01*
X9502520Y-6506616D01*
X9502521Y-9411007D01*
X8500908Y-10412620D01*
X8497334Y-10411140D01*
X7697706Y-10411140D01*
X6958947Y-10717144D01*
X6393524Y-11282567D01*
X6087520Y-12021326D01*
X710000Y-12021326D01*
X710000Y-710000D01*
X20562501Y-710000D01*
X20562500Y-34855074D01*
X20562500Y-34855074D01*
G37*
X20562500Y-34855074D02*
X20548591Y-34925000D01*
X20603695Y-35202028D01*
X20760619Y-35436881D01*
X20982294Y-35585000D01*
X20995472Y-35593805D01*
X21272500Y-35648909D01*
X21342425Y-35635000D01*
X22509868Y-35635000D01*
X21276479Y-36868390D01*
X21276476Y-36868392D01*
X9276479Y-48868390D01*
X9276476Y-48868392D01*
X4026480Y-54118389D01*
X3931712Y-54181711D01*
X3763760Y-54433069D01*
X3680854Y-54557146D01*
X3592765Y-55000000D01*
X3615001Y-55111788D01*
X3615000Y-65008217D01*
X3592765Y-65120000D01*
X3646826Y-65391782D01*
X3680854Y-65562854D01*
X3931711Y-65938289D01*
X4026482Y-66001613D01*
X8858081Y-70833213D01*
X8858080Y-71814718D01*
X8732671Y-71866664D01*
X8392293Y-72207042D01*
X8293845Y-72444716D01*
X7749017Y-71666754D01*
X7720397Y-71601640D01*
X7668789Y-71552196D01*
X7668692Y-71552058D01*
X7618820Y-71504323D01*
X7516440Y-71406237D01*
X7516275Y-71406173D01*
X7516147Y-71406050D01*
X7385074Y-71355091D01*
X7253230Y-71303759D01*
X7253051Y-71303763D01*
X7252887Y-71303699D01*
X7112125Y-71306782D01*
X6970839Y-71309808D01*
X6970677Y-71309879D01*
X6970501Y-71309883D01*
X6841617Y-71366606D01*
X6777529Y-71394775D01*
X6777388Y-71394874D01*
X6711976Y-71423662D01*
X6662797Y-71475043D01*
X5991167Y-71944924D01*
X710000Y-64401389D01*
X710000Y-12021326D01*
X6087520Y-12021326D01*
X6087520Y-12820954D01*
X6393524Y-13559713D01*
X6958947Y-14125136D01*
X7697706Y-14431140D01*
X8497334Y-14431140D01*
X9236093Y-14125136D01*
X9801516Y-13559713D01*
X10107520Y-12820954D01*
X10107520Y-12021326D01*
X10106040Y-12017752D01*
X10637520Y-11486272D01*
X11169000Y-12017752D01*
X11167520Y-12021326D01*
X11167520Y-12820954D01*
X11473524Y-13559713D01*
X12038947Y-14125136D01*
X12777706Y-14431140D01*
X13577334Y-14431140D01*
X14316093Y-14125136D01*
X14881516Y-13559713D01*
X15187520Y-12820954D01*
X15187520Y-12021326D01*
X14881516Y-11282567D01*
X14316093Y-10717144D01*
X13577334Y-10411140D01*
X12777706Y-10411140D01*
X12774132Y-10412620D01*
X11772520Y-9411009D01*
X11772520Y-6506616D01*
X11776093Y-6505136D01*
X12341516Y-5939713D01*
X12647520Y-5200954D01*
X12647520Y-4401326D01*
X12341516Y-3662567D01*
X11776093Y-3097144D01*
X11037334Y-2791140D01*
X10237706Y-2791140D01*
X9498947Y-3097144D01*
X8933524Y-3662567D01*
X8627520Y-4401326D01*
X8627520Y-5200954D01*
X8933524Y-5939713D01*
X9498947Y-6505136D01*
X9502520Y-6506616D01*
X9502521Y-9411007D01*
X8500908Y-10412620D01*
X8497334Y-10411140D01*
X7697706Y-10411140D01*
X6958947Y-10717144D01*
X6393524Y-11282567D01*
X6087520Y-12021326D01*
X710000Y-12021326D01*
X710000Y-710000D01*
X20562501Y-710000D01*
X20562500Y-34855074D01*
G36*
X103430000Y-64401388D02*
X98148834Y-71944924D01*
X97477207Y-71475046D01*
X97428025Y-71423662D01*
X97362608Y-71394872D01*
X97362470Y-71394775D01*
X97299540Y-71367115D01*
X97169499Y-71309883D01*
X97169322Y-71309879D01*
X97169160Y-71309808D01*
X97028913Y-71306804D01*
X96887112Y-71303699D01*
X96886945Y-71303764D01*
X96886770Y-71303760D01*
X96756183Y-71354602D01*
X96623853Y-71406050D01*
X96623725Y-71406173D01*
X96623560Y-71406237D01*
X96522603Y-71502960D01*
X96471307Y-71552057D01*
X96471206Y-71552201D01*
X96419603Y-71601640D01*
X96390986Y-71666748D01*
X95846154Y-72444714D01*
X95747707Y-72207042D01*
X95487632Y-71946967D01*
X100473522Y-66961077D01*
X100568289Y-66897756D01*
X100819146Y-66522322D01*
X100847548Y-66379533D01*
X100907235Y-66079468D01*
X100885000Y-65967685D01*
X100885000Y-56111783D01*
X100907235Y-56000000D01*
X100819146Y-55557145D01*
X100742779Y-55442854D01*
X100568289Y-55181711D01*
X100473521Y-55118389D01*
X94381610Y-49026479D01*
X94381608Y-49026476D01*
X80990131Y-35635000D01*
X82797575Y-35635000D01*
X82867500Y-35648909D01*
X83144528Y-35593805D01*
X83379381Y-35436881D01*
X83536305Y-35202028D01*
X83577500Y-34994926D01*
X83577500Y-34994925D01*
X83591409Y-34925000D01*
X83577500Y-34855074D01*
X83577500Y-12021326D01*
X88947400Y-12021326D01*
X88947400Y-12820954D01*
X89253404Y-13559713D01*
X89818827Y-14125136D01*
X90557586Y-14431140D01*
X91357214Y-14431140D01*
X92095973Y-14125136D01*
X92661396Y-13559713D01*
X92967400Y-12820954D01*
X92967400Y-12723378D01*
X93497400Y-12193379D01*
X94027400Y-12723379D01*
X94027400Y-12820954D01*
X94333404Y-13559713D01*
X94898827Y-14125136D01*
X95637586Y-14431140D01*
X96437214Y-14431140D01*
X97175973Y-14125136D01*
X97741396Y-13559713D01*
X98047400Y-12820954D01*
X98047400Y-12021326D01*
X97741396Y-11282567D01*
X97175973Y-10717144D01*
X96437214Y-10411140D01*
X96339639Y-10411140D01*
X95132400Y-9203902D01*
X95132400Y-6008709D01*
X95201396Y-5939713D01*
X95507400Y-5200954D01*
X95507400Y-4401326D01*
X95201396Y-3662567D01*
X94635973Y-3097144D01*
X93897214Y-2791140D01*
X93097586Y-2791140D01*
X92358827Y-3097144D01*
X91793404Y-3662567D01*
X91487400Y-4401326D01*
X91487400Y-5200954D01*
X91793404Y-5939713D01*
X91862400Y-6008709D01*
X91862401Y-9203900D01*
X90655162Y-10411140D01*
X90557586Y-10411140D01*
X89818827Y-10717144D01*
X89253404Y-11282567D01*
X88947400Y-12021326D01*
X83577500Y-12021326D01*
X83577500Y-710000D01*
X103430001Y-710000D01*
X103430000Y-64401388D01*
X103430000Y-64401388D01*
G37*
X103430000Y-64401388D02*
X98148834Y-71944924D01*
X97477207Y-71475046D01*
X97428025Y-71423662D01*
X97362608Y-71394872D01*
X97362470Y-71394775D01*
X97299540Y-71367115D01*
X97169499Y-71309883D01*
X97169322Y-71309879D01*
X97169160Y-71309808D01*
X97028913Y-71306804D01*
X96887112Y-71303699D01*
X96886945Y-71303764D01*
X96886770Y-71303760D01*
X96756183Y-71354602D01*
X96623853Y-71406050D01*
X96623725Y-71406173D01*
X96623560Y-71406237D01*
X96522603Y-71502960D01*
X96471307Y-71552057D01*
X96471206Y-71552201D01*
X96419603Y-71601640D01*
X96390986Y-71666748D01*
X95846154Y-72444714D01*
X95747707Y-72207042D01*
X95487632Y-71946967D01*
X100473522Y-66961077D01*
X100568289Y-66897756D01*
X100819146Y-66522322D01*
X100847548Y-66379533D01*
X100907235Y-66079468D01*
X100885000Y-65967685D01*
X100885000Y-56111783D01*
X100907235Y-56000000D01*
X100819146Y-55557145D01*
X100742779Y-55442854D01*
X100568289Y-55181711D01*
X100473521Y-55118389D01*
X94381610Y-49026479D01*
X94381608Y-49026476D01*
X80990131Y-35635000D01*
X82797575Y-35635000D01*
X82867500Y-35648909D01*
X83144528Y-35593805D01*
X83379381Y-35436881D01*
X83536305Y-35202028D01*
X83577500Y-34994926D01*
X83577500Y-34994925D01*
X83591409Y-34925000D01*
X83577500Y-34855074D01*
X83577500Y-12021326D01*
X88947400Y-12021326D01*
X88947400Y-12820954D01*
X89253404Y-13559713D01*
X89818827Y-14125136D01*
X90557586Y-14431140D01*
X91357214Y-14431140D01*
X92095973Y-14125136D01*
X92661396Y-13559713D01*
X92967400Y-12820954D01*
X92967400Y-12723378D01*
X93497400Y-12193379D01*
X94027400Y-12723379D01*
X94027400Y-12820954D01*
X94333404Y-13559713D01*
X94898827Y-14125136D01*
X95637586Y-14431140D01*
X96437214Y-14431140D01*
X97175973Y-14125136D01*
X97741396Y-13559713D01*
X98047400Y-12820954D01*
X98047400Y-12021326D01*
X97741396Y-11282567D01*
X97175973Y-10717144D01*
X96437214Y-10411140D01*
X96339639Y-10411140D01*
X95132400Y-9203902D01*
X95132400Y-6008709D01*
X95201396Y-5939713D01*
X95507400Y-5200954D01*
X95507400Y-4401326D01*
X95201396Y-3662567D01*
X94635973Y-3097144D01*
X93897214Y-2791140D01*
X93097586Y-2791140D01*
X92358827Y-3097144D01*
X91793404Y-3662567D01*
X91487400Y-4401326D01*
X91487400Y-5200954D01*
X91793404Y-5939713D01*
X91862400Y-6008709D01*
X91862401Y-9203900D01*
X90655162Y-10411140D01*
X90557586Y-10411140D01*
X89818827Y-10717144D01*
X89253404Y-11282567D01*
X88947400Y-12021326D01*
X83577500Y-12021326D01*
X83577500Y-710000D01*
X103430001Y-710000D01*
X103430000Y-64401388D01*
G36*
X58659864Y-5687945D02*
X59021231Y-6228769D01*
X59157768Y-6320000D01*
X59021231Y-6411231D01*
X58659864Y-6952055D01*
X58532969Y-7590000D01*
X58659864Y-8227945D01*
X59021231Y-8768769D01*
X59157768Y-8860000D01*
X59021231Y-8951231D01*
X58659864Y-9492055D01*
X58532969Y-10130000D01*
X58659864Y-10767945D01*
X59021231Y-11308769D01*
X59157768Y-11400000D01*
X59021231Y-11491231D01*
X58659864Y-12032055D01*
X58532969Y-12670000D01*
X58659864Y-13307945D01*
X59021231Y-13848769D01*
X59157768Y-13940000D01*
X59021231Y-14031231D01*
X58659864Y-14572055D01*
X58532969Y-15210000D01*
X58659864Y-15847945D01*
X58889330Y-16191365D01*
X58840301Y-16211673D01*
X58661673Y-16390302D01*
X58565000Y-16623691D01*
X58565000Y-17464250D01*
X58723750Y-17623000D01*
X60373000Y-17623000D01*
X60373000Y-17603000D01*
X60627000Y-17603000D01*
X60627000Y-17623000D01*
X60647000Y-17623000D01*
X60647000Y-17877000D01*
X60627000Y-17877000D01*
X60627000Y-19226250D01*
X60785750Y-19385000D01*
X61837500Y-19385000D01*
X61837500Y-34565010D01*
X58820489Y-34565010D01*
X58833652Y-34545310D01*
X58885000Y-34287165D01*
X58885000Y-34287161D01*
X58902337Y-34200000D01*
X58885000Y-34112839D01*
X58885000Y-32468007D01*
X59035000Y-32105874D01*
X59035000Y-31694126D01*
X58877431Y-31313720D01*
X58586280Y-31022569D01*
X58205874Y-30865000D01*
X57794126Y-30865000D01*
X57413720Y-31022569D01*
X57122569Y-31313720D01*
X56965000Y-31694126D01*
X56965000Y-32105874D01*
X57115001Y-32468009D01*
X57115000Y-33815000D01*
X54865353Y-33815000D01*
X52886198Y-31835846D01*
X52836823Y-31761951D01*
X52835010Y-31760740D01*
X52835010Y-18035750D01*
X58565000Y-18035750D01*
X58565000Y-18876309D01*
X58661673Y-19109698D01*
X58840301Y-19288327D01*
X59073690Y-19385000D01*
X60214250Y-19385000D01*
X60373000Y-19226250D01*
X60373000Y-17877000D01*
X58723750Y-17877000D01*
X58565000Y-18035750D01*
X52835010Y-18035750D01*
X52835010Y-11126568D01*
X58595784Y-5365794D01*
X58659864Y-5687945D01*
X58659864Y-5687945D01*
G37*
X58659864Y-5687945D02*
X59021231Y-6228769D01*
X59157768Y-6320000D01*
X59021231Y-6411231D01*
X58659864Y-6952055D01*
X58532969Y-7590000D01*
X58659864Y-8227945D01*
X59021231Y-8768769D01*
X59157768Y-8860000D01*
X59021231Y-8951231D01*
X58659864Y-9492055D01*
X58532969Y-10130000D01*
X58659864Y-10767945D01*
X59021231Y-11308769D01*
X59157768Y-11400000D01*
X59021231Y-11491231D01*
X58659864Y-12032055D01*
X58532969Y-12670000D01*
X58659864Y-13307945D01*
X59021231Y-13848769D01*
X59157768Y-13940000D01*
X59021231Y-14031231D01*
X58659864Y-14572055D01*
X58532969Y-15210000D01*
X58659864Y-15847945D01*
X58889330Y-16191365D01*
X58840301Y-16211673D01*
X58661673Y-16390302D01*
X58565000Y-16623691D01*
X58565000Y-17464250D01*
X58723750Y-17623000D01*
X60373000Y-17623000D01*
X60373000Y-17603000D01*
X60627000Y-17603000D01*
X60627000Y-17623000D01*
X60647000Y-17623000D01*
X60647000Y-17877000D01*
X60627000Y-17877000D01*
X60627000Y-19226250D01*
X60785750Y-19385000D01*
X61837500Y-19385000D01*
X61837500Y-34565010D01*
X58820489Y-34565010D01*
X58833652Y-34545310D01*
X58885000Y-34287165D01*
X58885000Y-34287161D01*
X58902337Y-34200000D01*
X58885000Y-34112839D01*
X58885000Y-32468007D01*
X59035000Y-32105874D01*
X59035000Y-31694126D01*
X58877431Y-31313720D01*
X58586280Y-31022569D01*
X58205874Y-30865000D01*
X57794126Y-30865000D01*
X57413720Y-31022569D01*
X57122569Y-31313720D01*
X56965000Y-31694126D01*
X56965000Y-32105874D01*
X57115001Y-32468009D01*
X57115000Y-33815000D01*
X54865353Y-33815000D01*
X52886198Y-31835846D01*
X52836823Y-31761951D01*
X52835010Y-31760740D01*
X52835010Y-18035750D01*
X58565000Y-18035750D01*
X58565000Y-18876309D01*
X58661673Y-19109698D01*
X58840301Y-19288327D01*
X59073690Y-19385000D01*
X60214250Y-19385000D01*
X60373000Y-19226250D01*
X60373000Y-17877000D01*
X58723750Y-17877000D01*
X58565000Y-18035750D01*
X52835010Y-18035750D01*
X52835010Y-11126568D01*
X58595784Y-5365794D01*
X58659864Y-5687945D01*
G36*
X61837501Y-1236839D02*
X61437945Y-969864D01*
X60961031Y-875000D01*
X60038969Y-875000D01*
X59562055Y-969864D01*
X59021231Y-1331231D01*
X58659864Y-1872055D01*
X58532969Y-2510000D01*
X58601897Y-2856524D01*
X52135000Y-9323422D01*
X52135000Y-7339746D01*
X52167031Y-7178716D01*
X52075558Y-6718852D01*
X52040136Y-6540772D01*
X51678769Y-5999948D01*
X51542253Y-5908731D01*
X49769987Y-4136466D01*
X49769985Y-4136463D01*
X47141271Y-1507750D01*
X47050052Y-1371231D01*
X46509228Y-1009864D01*
X46032314Y-915000D01*
X46032313Y-915000D01*
X45871283Y-882969D01*
X45710253Y-915000D01*
X44538969Y-915000D01*
X44062055Y-1009864D01*
X43521231Y-1371231D01*
X43159864Y-1912055D01*
X43032969Y-2550000D01*
X43159864Y-3187945D01*
X43521231Y-3728769D01*
X43657768Y-3820000D01*
X43521231Y-3911231D01*
X43159864Y-4452055D01*
X43032969Y-5090000D01*
X43159864Y-5727945D01*
X43521231Y-6268769D01*
X43657768Y-6360000D01*
X43521231Y-6451231D01*
X43159864Y-6992055D01*
X43032969Y-7630000D01*
X43159864Y-8267945D01*
X43521231Y-8808769D01*
X43657768Y-8900000D01*
X43521231Y-8991231D01*
X43159864Y-9532055D01*
X43032969Y-10170000D01*
X43159864Y-10807945D01*
X43521231Y-11348769D01*
X43687629Y-11459952D01*
X43454078Y-11643683D01*
X43140856Y-12201645D01*
X43109876Y-12329566D01*
X43229223Y-12583000D01*
X44873000Y-12583000D01*
X44873000Y-12563000D01*
X45127000Y-12563000D01*
X45127000Y-12583000D01*
X45147000Y-12583000D01*
X45147000Y-12837000D01*
X45127000Y-12837000D01*
X45127000Y-15123000D01*
X45147000Y-15123000D01*
X45147000Y-15377000D01*
X45127000Y-15377000D01*
X45127000Y-16726250D01*
X45285750Y-16885000D01*
X45865011Y-16885000D01*
X45865010Y-29307771D01*
X42302500Y-32870282D01*
X42302500Y-15535750D01*
X43065000Y-15535750D01*
X43065000Y-16376309D01*
X43161673Y-16609698D01*
X43340301Y-16788327D01*
X43573690Y-16885000D01*
X44714250Y-16885000D01*
X44873000Y-16726250D01*
X44873000Y-15377000D01*
X43223750Y-15377000D01*
X43065000Y-15535750D01*
X42302500Y-15535750D01*
X42302500Y-14123691D01*
X43065000Y-14123691D01*
X43065000Y-14964250D01*
X43223750Y-15123000D01*
X44873000Y-15123000D01*
X44873000Y-12837000D01*
X43229223Y-12837000D01*
X43109876Y-13090434D01*
X43140856Y-13218355D01*
X43403170Y-13685632D01*
X43340301Y-13711673D01*
X43161673Y-13890302D01*
X43065000Y-14123691D01*
X42302500Y-14123691D01*
X42302500Y-710000D01*
X61837501Y-710000D01*
X61837501Y-1236839D01*
X61837501Y-1236839D01*
G37*
X61837501Y-1236839D02*
X61437945Y-969864D01*
X60961031Y-875000D01*
X60038969Y-875000D01*
X59562055Y-969864D01*
X59021231Y-1331231D01*
X58659864Y-1872055D01*
X58532969Y-2510000D01*
X58601897Y-2856524D01*
X52135000Y-9323422D01*
X52135000Y-7339746D01*
X52167031Y-7178716D01*
X52075558Y-6718852D01*
X52040136Y-6540772D01*
X51678769Y-5999948D01*
X51542253Y-5908731D01*
X49769987Y-4136466D01*
X49769985Y-4136463D01*
X47141271Y-1507750D01*
X47050052Y-1371231D01*
X46509228Y-1009864D01*
X46032314Y-915000D01*
X46032313Y-915000D01*
X45871283Y-882969D01*
X45710253Y-915000D01*
X44538969Y-915000D01*
X44062055Y-1009864D01*
X43521231Y-1371231D01*
X43159864Y-1912055D01*
X43032969Y-2550000D01*
X43159864Y-3187945D01*
X43521231Y-3728769D01*
X43657768Y-3820000D01*
X43521231Y-3911231D01*
X43159864Y-4452055D01*
X43032969Y-5090000D01*
X43159864Y-5727945D01*
X43521231Y-6268769D01*
X43657768Y-6360000D01*
X43521231Y-6451231D01*
X43159864Y-6992055D01*
X43032969Y-7630000D01*
X43159864Y-8267945D01*
X43521231Y-8808769D01*
X43657768Y-8900000D01*
X43521231Y-8991231D01*
X43159864Y-9532055D01*
X43032969Y-10170000D01*
X43159864Y-10807945D01*
X43521231Y-11348769D01*
X43687629Y-11459952D01*
X43454078Y-11643683D01*
X43140856Y-12201645D01*
X43109876Y-12329566D01*
X43229223Y-12583000D01*
X44873000Y-12583000D01*
X44873000Y-12563000D01*
X45127000Y-12563000D01*
X45127000Y-12583000D01*
X45147000Y-12583000D01*
X45147000Y-12837000D01*
X45127000Y-12837000D01*
X45127000Y-15123000D01*
X45147000Y-15123000D01*
X45147000Y-15377000D01*
X45127000Y-15377000D01*
X45127000Y-16726250D01*
X45285750Y-16885000D01*
X45865011Y-16885000D01*
X45865010Y-29307771D01*
X42302500Y-32870282D01*
X42302500Y-15535750D01*
X43065000Y-15535750D01*
X43065000Y-16376309D01*
X43161673Y-16609698D01*
X43340301Y-16788327D01*
X43573690Y-16885000D01*
X44714250Y-16885000D01*
X44873000Y-16726250D01*
X44873000Y-15377000D01*
X43223750Y-15377000D01*
X43065000Y-15535750D01*
X42302500Y-15535750D01*
X42302500Y-14123691D01*
X43065000Y-14123691D01*
X43065000Y-14964250D01*
X43223750Y-15123000D01*
X44873000Y-15123000D01*
X44873000Y-12837000D01*
X43229223Y-12837000D01*
X43109876Y-13090434D01*
X43140856Y-13218355D01*
X43403170Y-13685632D01*
X43340301Y-13711673D01*
X43161673Y-13890302D01*
X43065000Y-14123691D01*
X42302500Y-14123691D01*
X42302500Y-710000D01*
X61837501Y-710000D01*
X61837501Y-1236839D01*
G04 #@! TD*
M02*
