G04 #@! TF.GenerationSoftware,KiCad,Pcbnew,(5.0.0)*
G04 #@! TF.CreationDate,2019-01-07T17:19:25-08:00*
G04 #@! TF.ProjectId,Lights,4C69676874732E6B696361645F706362,rev?*
G04 #@! TF.SameCoordinates,Original*
G04 #@! TF.FileFunction,Soldermask,Bot*
G04 #@! TF.FilePolarity,Negative*
%FSLAX46Y46*%
G04 Gerber Fmt 4.6, Leading zero omitted, Abs format (unit mm)*
G04 Created by KiCad (PCBNEW (5.0.0)) date 01/07/19 17:19:25*
%MOMM*%
%LPD*%
G01*
G04 APERTURE LIST*
%ADD10O,3.000000X2.400000*%
%ADD11R,3.000000X2.400000*%
%ADD12C,3.150000*%
%ADD13C,1.550000*%
%ADD14R,1.550000X1.550000*%
%ADD15C,0.100000*%
G04 APERTURE END LIST*
D10*
G04 #@! TO.C,J12*
X60500000Y-2510000D03*
X60500000Y-5050000D03*
X60500000Y-7590000D03*
X60500000Y-10130000D03*
X60500000Y-12670000D03*
X60500000Y-15210000D03*
D11*
X60500000Y-17750000D03*
G04 #@! TD*
D12*
G04 #@! TO.C,BT1*
X93497400Y-4801140D03*
X90957400Y-12421140D03*
X96037400Y-12421140D03*
G04 #@! TD*
G04 #@! TO.C,BT2*
X90965020Y-57660000D03*
X96045020Y-57660000D03*
X93505020Y-65280000D03*
G04 #@! TD*
G04 #@! TO.C,BT3*
X10637520Y-4801140D03*
X8097520Y-12421140D03*
X13177520Y-12421140D03*
G04 #@! TD*
G04 #@! TO.C,BT4*
X8097520Y-57660000D03*
X13177520Y-57660000D03*
X10637520Y-65280000D03*
G04 #@! TD*
D13*
G04 #@! TO.C,J1*
X57785000Y-101368860D03*
X56515000Y-101368860D03*
X55245000Y-101368860D03*
X53975000Y-101368860D03*
X52705000Y-101368860D03*
X51435000Y-101368860D03*
X50165000Y-101368860D03*
X48895000Y-101368860D03*
X47625000Y-101368860D03*
D14*
X46355000Y-101368860D03*
G04 #@! TD*
G04 #@! TO.C,J2*
X25571018Y-60204000D03*
D13*
X25571018Y-61474000D03*
X25571018Y-62744000D03*
X25571018Y-64014000D03*
X25571018Y-65284000D03*
X25571018Y-66554000D03*
X25571018Y-67824000D03*
X25571018Y-69094000D03*
X25571018Y-70364000D03*
X25571018Y-71634000D03*
G04 #@! TD*
G04 #@! TO.C,J3*
X94721919Y-72892452D03*
X93993477Y-73932775D03*
X93265035Y-74973098D03*
X92536592Y-76013421D03*
X91808150Y-77053745D03*
X91079708Y-78094068D03*
X90351266Y-79134391D03*
X89622824Y-80174714D03*
X88894382Y-81215037D03*
X88165940Y-82255360D03*
D15*
G36*
X89245305Y-82065039D02*
X88356261Y-83334725D01*
X87086575Y-82445681D01*
X87975619Y-81175995D01*
X89245305Y-82065039D01*
X89245305Y-82065039D01*
G37*
G04 #@! TD*
D14*
G04 #@! TO.C,J4*
X38371018Y-87249000D03*
D13*
X38371018Y-85979000D03*
X38371018Y-84709000D03*
X38371018Y-83439000D03*
X38371018Y-82169000D03*
X38371018Y-80899000D03*
X38371018Y-79629000D03*
X38371018Y-78359000D03*
X38371018Y-77089000D03*
X38371018Y-75819000D03*
G04 #@! TD*
G04 #@! TO.C,J5*
X9418081Y-72892452D03*
X10146523Y-73932775D03*
X10874965Y-74973098D03*
X11603408Y-76013421D03*
X12331850Y-77053745D03*
X13060292Y-78094068D03*
X13788734Y-79134391D03*
X14517176Y-80174714D03*
X15245618Y-81215037D03*
X15974060Y-82255360D03*
D15*
G36*
X16164381Y-81175995D02*
X17053425Y-82445681D01*
X15783739Y-83334725D01*
X14894695Y-82065039D01*
X16164381Y-81175995D01*
X16164381Y-81175995D01*
G37*
G04 #@! TD*
D14*
G04 #@! TO.C,J6*
X34807220Y-60204000D03*
D13*
X34807220Y-61474000D03*
X34807220Y-62744000D03*
X34807220Y-64014000D03*
X34807220Y-65284000D03*
X34807220Y-66554000D03*
X34807220Y-67824000D03*
X34807220Y-69094000D03*
X34807220Y-70364000D03*
X34807220Y-71634000D03*
G04 #@! TD*
D10*
G04 #@! TO.C,J7*
X45000000Y-2550000D03*
X45000000Y-5090000D03*
X45000000Y-7630000D03*
X45000000Y-10170000D03*
X45000000Y-12710000D03*
D11*
X45000000Y-15250000D03*
G04 #@! TD*
M02*
