G04 #@! TF.GenerationSoftware,KiCad,Pcbnew,(5.0.0)*
G04 #@! TF.CreationDate,2019-01-07T17:19:25-08:00*
G04 #@! TF.ProjectId,Lights,4C69676874732E6B696361645F706362,rev?*
G04 #@! TF.SameCoordinates,Original*
G04 #@! TF.FileFunction,Profile,NP*
%FSLAX46Y46*%
G04 Gerber Fmt 4.6, Leading zero omitted, Abs format (unit mm)*
G04 Created by KiCad (PCBNEW (5.0.0)) date 01/07/19 17:19:25*
%MOMM*%
%LPD*%
G01*
G04 APERTURE LIST*
%ADD10C,0.150000*%
G04 APERTURE END LIST*
D10*
X30900000Y-93700000D02*
X30890000Y-95760000D01*
X29500000Y-95760000D02*
X29490000Y-93700000D01*
X42280000Y-93700000D02*
X42290000Y-104770000D01*
X43490000Y-102870000D02*
X43500000Y-93700000D01*
X42290000Y-91160000D02*
X43490000Y-91160000D01*
X42290000Y-93700000D02*
X43500000Y-93700000D01*
X37220000Y-93700000D02*
X37200000Y-104770000D01*
X35970000Y-95760000D02*
X35970000Y-93700000D01*
X35970000Y-91160000D02*
X37210000Y-91160000D01*
X35970000Y-93700000D02*
X37210000Y-93700000D01*
X30890000Y-91160000D02*
X29490000Y-91160000D01*
X29490000Y-93700000D02*
X30890000Y-93700000D01*
X41150000Y-58290000D02*
X42290000Y-58290000D01*
X37210000Y-58290000D02*
X38450000Y-58290000D01*
X41150000Y-57150000D02*
X43480000Y-57150000D01*
X34810000Y-57130000D02*
X38450000Y-57130000D01*
X28290000Y-57150000D02*
X32080000Y-57150000D01*
X34810000Y-58300000D02*
X35972000Y-58301000D01*
X28280000Y-58300000D02*
X29489000Y-58301000D01*
X41150000Y-58280000D02*
X41150000Y-57160000D01*
X38450000Y-58290000D02*
X38450000Y-57150000D01*
X34810000Y-58280000D02*
X34810000Y-57140000D01*
X32080000Y-58300000D02*
X32080000Y-57150000D01*
X28290000Y-58280000D02*
X28290000Y-57150000D01*
X25760000Y-58300000D02*
X25760000Y-57150000D01*
X24411000Y-58299000D02*
X25760000Y-58300000D01*
X42291000Y-104775000D02*
X37211000Y-104775000D01*
X42291000Y-58293000D02*
X42290000Y-91160000D01*
X37210000Y-91160000D02*
X37211000Y-58293000D01*
X24411000Y-95764000D02*
X24411000Y-58299000D01*
X29491000Y-95764000D02*
X24411000Y-95764000D01*
X29491000Y-58299000D02*
X29490000Y-91160000D01*
X30888000Y-58299000D02*
X32090000Y-58300000D01*
X30890000Y-91160000D02*
X30888000Y-58299000D01*
X35968000Y-95764000D02*
X30888000Y-95764000D01*
X35968000Y-58299000D02*
X35970000Y-91160000D01*
X21272500Y-34925000D02*
X21272500Y0D01*
X41592500Y-34925000D02*
X21272500Y-34925000D01*
X41592500Y0D02*
X41592500Y-34925000D01*
X62547500Y0D02*
X41592500Y0D01*
X62547500Y-34925000D02*
X62547500Y0D01*
X82867500Y-34925000D02*
X62547500Y-34925000D01*
X82867500Y0D02*
X82867500Y-34925000D01*
X104140000Y0D02*
X82867500Y0D01*
X104140000Y-64625220D02*
X104140000Y0D01*
X98323400Y-72933560D02*
X104140000Y-64625220D01*
X97012760Y-72016620D02*
X98323400Y-72933560D01*
X88328500Y-84416900D02*
X97012760Y-72016620D01*
X84772500Y-84416900D02*
X88328500Y-84416900D01*
X84772500Y-57150000D02*
X84772500Y-84416900D01*
X60642500Y-57150000D02*
X84772500Y-57150000D01*
X60642500Y-102870000D02*
X60642500Y-57150000D01*
X43497500Y-102870000D02*
X60642500Y-102870000D01*
X43497500Y-57150000D02*
X43490000Y-91160000D01*
X19367500Y-57150000D02*
X25760000Y-57150000D01*
X19367500Y-84416900D02*
X19367500Y-57150000D01*
X19367500Y-84416900D02*
X15811500Y-84416900D01*
X7127240Y-72016620D02*
X15811500Y-84416900D01*
X5816600Y-72933560D02*
X7127240Y-72016620D01*
X0Y-64625220D02*
X5816600Y-72933560D01*
X0Y0D02*
X0Y-64625220D01*
X0Y0D02*
X21272500Y0D01*
M02*
