G04 #@! TF.GenerationSoftware,KiCad,Pcbnew,(5.0.0)*
G04 #@! TF.CreationDate,2019-01-07T17:19:25-08:00*
G04 #@! TF.ProjectId,Lights,4C69676874732E6B696361645F706362,rev?*
G04 #@! TF.SameCoordinates,Original*
G04 #@! TF.FileFunction,Soldermask,Top*
G04 #@! TF.FilePolarity,Negative*
%FSLAX46Y46*%
G04 Gerber Fmt 4.6, Leading zero omitted, Abs format (unit mm)*
G04 Created by KiCad (PCBNEW (5.0.0)) date 01/07/19 17:19:25*
%MOMM*%
%LPD*%
G01*
G04 APERTURE LIST*
%ADD10O,3.000000X2.400000*%
%ADD11R,3.000000X2.400000*%
%ADD12R,1.900000X1.900000*%
%ADD13C,3.150000*%
%ADD14R,1.900000X1.650000*%
%ADD15R,2.000000X0.850000*%
%ADD16R,3.600000X3.600000*%
%ADD17R,0.850000X2.000000*%
%ADD18C,1.550000*%
%ADD19R,1.550000X1.550000*%
%ADD20C,0.100000*%
%ADD21R,1.900000X1.700000*%
%ADD22R,1.700000X1.900000*%
%ADD23R,1.900000X2.400000*%
%ADD24R,4.200000X2.400000*%
G04 APERTURE END LIST*
D10*
G04 #@! TO.C,J12*
X60500000Y-2510000D03*
X60500000Y-5050000D03*
X60500000Y-7590000D03*
X60500000Y-10130000D03*
X60500000Y-12670000D03*
X60500000Y-15210000D03*
D11*
X60500000Y-17750000D03*
G04 #@! TD*
D12*
G04 #@! TO.C,D13*
X41021000Y-77041740D03*
X41021000Y-80341740D03*
G04 #@! TD*
D13*
G04 #@! TO.C,BT1*
X93497400Y-4801140D03*
X90957400Y-12421140D03*
X96037400Y-12421140D03*
G04 #@! TD*
G04 #@! TO.C,BT2*
X90965020Y-57660000D03*
X96045020Y-57660000D03*
X93505020Y-65280000D03*
G04 #@! TD*
G04 #@! TO.C,BT3*
X10637520Y-4801140D03*
X8097520Y-12421140D03*
X13177520Y-12421140D03*
G04 #@! TD*
G04 #@! TO.C,BT4*
X8097520Y-57660000D03*
X13177520Y-57660000D03*
X10637520Y-65280000D03*
G04 #@! TD*
D14*
G04 #@! TO.C,C1*
X56750000Y-34250000D03*
X59250000Y-34250000D03*
G04 #@! TD*
G04 #@! TO.C,C2*
X45194000Y-84250000D03*
X47694000Y-84250000D03*
G04 #@! TD*
G04 #@! TO.C,C3*
X47750000Y-86750000D03*
X45250000Y-86750000D03*
G04 #@! TD*
G04 #@! TO.C,C4*
X92250000Y-48500000D03*
X89750000Y-48500000D03*
G04 #@! TD*
G04 #@! TO.C,C5*
X89750000Y-51000000D03*
X92250000Y-51000000D03*
G04 #@! TD*
G04 #@! TO.C,C6*
X11750000Y-48500000D03*
X14250000Y-48500000D03*
G04 #@! TD*
G04 #@! TO.C,C7*
X14250000Y-51000000D03*
X11750000Y-51000000D03*
G04 #@! TD*
D15*
G04 #@! TO.C,IC1*
X49195000Y-93356000D03*
X49195000Y-94006000D03*
X49195000Y-94656000D03*
X49195000Y-95306000D03*
X49195000Y-95956000D03*
X49195000Y-96606000D03*
X49195000Y-97256000D03*
X49195000Y-97906000D03*
X54945000Y-97906000D03*
X54945000Y-97256000D03*
X54945000Y-96606000D03*
X54945000Y-95956000D03*
X54945000Y-95306000D03*
X54945000Y-94656000D03*
X54945000Y-94006000D03*
X54945000Y-93356000D03*
D16*
X52070000Y-95631000D03*
G04 #@! TD*
G04 #@! TO.C,IC2*
X82250000Y-49750000D03*
D17*
X79975000Y-46875000D03*
X80625000Y-46875000D03*
X81275000Y-46875000D03*
X81925000Y-46875000D03*
X82575000Y-46875000D03*
X83225000Y-46875000D03*
X83875000Y-46875000D03*
X84525000Y-46875000D03*
X84525000Y-52625000D03*
X83875000Y-52625000D03*
X83225000Y-52625000D03*
X82575000Y-52625000D03*
X81925000Y-52625000D03*
X81275000Y-52625000D03*
X80625000Y-52625000D03*
X79975000Y-52625000D03*
G04 #@! TD*
G04 #@! TO.C,IC3*
X24275000Y-46875000D03*
X23625000Y-46875000D03*
X22975000Y-46875000D03*
X22325000Y-46875000D03*
X21675000Y-46875000D03*
X21025000Y-46875000D03*
X20375000Y-46875000D03*
X19725000Y-46875000D03*
X19725000Y-52625000D03*
X20375000Y-52625000D03*
X21025000Y-52625000D03*
X21675000Y-52625000D03*
X22325000Y-52625000D03*
X22975000Y-52625000D03*
X23625000Y-52625000D03*
X24275000Y-52625000D03*
D16*
X22000000Y-49750000D03*
G04 #@! TD*
D18*
G04 #@! TO.C,J1*
X57785000Y-101368860D03*
X56515000Y-101368860D03*
X55245000Y-101368860D03*
X53975000Y-101368860D03*
X52705000Y-101368860D03*
X51435000Y-101368860D03*
X50165000Y-101368860D03*
X48895000Y-101368860D03*
X47625000Y-101368860D03*
D19*
X46355000Y-101368860D03*
G04 #@! TD*
G04 #@! TO.C,J2*
X25571018Y-60204000D03*
D18*
X25571018Y-61474000D03*
X25571018Y-62744000D03*
X25571018Y-64014000D03*
X25571018Y-65284000D03*
X25571018Y-66554000D03*
X25571018Y-67824000D03*
X25571018Y-69094000D03*
X25571018Y-70364000D03*
X25571018Y-71634000D03*
G04 #@! TD*
G04 #@! TO.C,J3*
X94721919Y-72892452D03*
X93993477Y-73932775D03*
X93265035Y-74973098D03*
X92536592Y-76013421D03*
X91808150Y-77053745D03*
X91079708Y-78094068D03*
X90351266Y-79134391D03*
X89622824Y-80174714D03*
X88894382Y-81215037D03*
X88165940Y-82255360D03*
D20*
G36*
X89245305Y-82065039D02*
X88356261Y-83334725D01*
X87086575Y-82445681D01*
X87975619Y-81175995D01*
X89245305Y-82065039D01*
X89245305Y-82065039D01*
G37*
G04 #@! TD*
D19*
G04 #@! TO.C,J4*
X38371018Y-87249000D03*
D18*
X38371018Y-85979000D03*
X38371018Y-84709000D03*
X38371018Y-83439000D03*
X38371018Y-82169000D03*
X38371018Y-80899000D03*
X38371018Y-79629000D03*
X38371018Y-78359000D03*
X38371018Y-77089000D03*
X38371018Y-75819000D03*
G04 #@! TD*
G04 #@! TO.C,J5*
X9418081Y-72892452D03*
X10146523Y-73932775D03*
X10874965Y-74973098D03*
X11603408Y-76013421D03*
X12331850Y-77053745D03*
X13060292Y-78094068D03*
X13788734Y-79134391D03*
X14517176Y-80174714D03*
X15245618Y-81215037D03*
X15974060Y-82255360D03*
D20*
G36*
X16164381Y-81175995D02*
X17053425Y-82445681D01*
X15783739Y-83334725D01*
X14894695Y-82065039D01*
X16164381Y-81175995D01*
X16164381Y-81175995D01*
G37*
G04 #@! TD*
D19*
G04 #@! TO.C,J6*
X34807220Y-60204000D03*
D18*
X34807220Y-61474000D03*
X34807220Y-62744000D03*
X34807220Y-64014000D03*
X34807220Y-65284000D03*
X34807220Y-66554000D03*
X34807220Y-67824000D03*
X34807220Y-69094000D03*
X34807220Y-70364000D03*
X34807220Y-71634000D03*
G04 #@! TD*
D10*
G04 #@! TO.C,J7*
X45000000Y-2550000D03*
X45000000Y-5090000D03*
X45000000Y-7630000D03*
X45000000Y-10170000D03*
X45000000Y-12710000D03*
D11*
X45000000Y-15250000D03*
G04 #@! TD*
D21*
G04 #@! TO.C,R1*
X53100000Y-91750000D03*
X50400000Y-91750000D03*
G04 #@! TD*
D22*
G04 #@! TO.C,R2*
X78500000Y-50450000D03*
X78500000Y-47750000D03*
G04 #@! TD*
G04 #@! TO.C,R3*
X26000000Y-49850000D03*
X26000000Y-47150000D03*
G04 #@! TD*
D23*
G04 #@! TO.C,U1*
X55700000Y-31900000D03*
X60300000Y-31900000D03*
X58000000Y-31900000D03*
D24*
X58000000Y-25600000D03*
G04 #@! TD*
D14*
G04 #@! TO.C,C8*
X56750000Y-36750000D03*
X59250000Y-36750000D03*
G04 #@! TD*
G04 #@! TO.C,C9*
X59250000Y-23000000D03*
X56750000Y-23000000D03*
G04 #@! TD*
G04 #@! TO.C,C10*
X56750000Y-20500000D03*
X59250000Y-20500000D03*
G04 #@! TD*
D12*
G04 #@! TO.C,D1*
X28221000Y-63289100D03*
X28221000Y-59989100D03*
G04 #@! TD*
G04 #@! TO.C,D2*
X28221000Y-69446060D03*
X28221000Y-66146060D03*
G04 #@! TD*
G04 #@! TO.C,D3*
X28221000Y-72303020D03*
X28221000Y-75603020D03*
G04 #@! TD*
G04 #@! TO.C,D4*
X28221000Y-81759980D03*
X28221000Y-78459980D03*
G04 #@! TD*
G04 #@! TO.C,D5*
X28221000Y-87916940D03*
X28221000Y-84616940D03*
G04 #@! TD*
G04 #@! TO.C,D6*
X28221000Y-90773900D03*
X28221000Y-94073900D03*
G04 #@! TD*
G04 #@! TO.C,D9*
X41021000Y-99784900D03*
X41021000Y-103084900D03*
G04 #@! TD*
G04 #@! TO.C,D10*
X41021000Y-97397840D03*
X41021000Y-94097840D03*
G04 #@! TD*
G04 #@! TO.C,D11*
X41021000Y-88413320D03*
X41021000Y-91713320D03*
G04 #@! TD*
G04 #@! TO.C,D12*
X41021000Y-86026260D03*
X41021000Y-82726260D03*
G04 #@! TD*
G04 #@! TO.C,D14*
X41021000Y-74654680D03*
X41021000Y-71354680D03*
G04 #@! TD*
G04 #@! TO.C,D15*
X41021000Y-68970160D03*
X41021000Y-65670160D03*
G04 #@! TD*
G04 #@! TO.C,D16*
X41021000Y-59983100D03*
X41021000Y-63283100D03*
G04 #@! TD*
G04 #@! TO.C,D17*
X32158000Y-59989100D03*
X32158000Y-63289100D03*
G04 #@! TD*
G04 #@! TO.C,D18*
X32158000Y-69446060D03*
X32158000Y-66146060D03*
G04 #@! TD*
G04 #@! TO.C,D19*
X32158000Y-72303020D03*
X32158000Y-75603020D03*
G04 #@! TD*
G04 #@! TO.C,D20*
X32158000Y-78459980D03*
X32158000Y-81759980D03*
G04 #@! TD*
G04 #@! TO.C,D21*
X32158000Y-87916940D03*
X32158000Y-84616940D03*
G04 #@! TD*
G04 #@! TO.C,D22*
X32158000Y-90773900D03*
X32158000Y-94073900D03*
G04 #@! TD*
M02*
